<svg width="53" height="53" viewBox="0 0 53 53" fill="none" xmlns="http://www.w3.org/2000/svg">
<path d="M10.9279 31.8681C9.84014 34.6129 8.12082 37.3301 5.8184 39.9455C5.08571 40.7777 4.99269 41.9657 5.5871 42.9014C6.04484 43.6211 6.81473 44.0312 7.62992 44.0312C7.85959 44.0312 8.09332 43.9988 8.32381 43.9317C13.2036 42.5059 24.5863 37.4417 24.892 21.2545C25.01 15.0039 20.4384 9.63406 14.4854 9.02913C11.2044 8.70078 7.92187 9.76668 5.48925 11.9656C3.05341 14.1669 1.65594 17.3096 1.65594 20.5889C1.65594 26.0599 5.53939 30.8442 10.9279 31.8681ZM7.70999 14.4233C9.25706 13.025 11.2044 12.2802 13.2691 12.2802C13.5611 12.2802 13.8554 12.2947 14.1506 12.3254C18.402 12.7565 21.6652 16.6513 21.5795 21.1914C21.3684 32.3921 15.3038 37.4344 10.2817 39.69C11.8708 37.5404 13.1195 35.3294 14.0075 33.0884C14.3536 32.2158 14.2962 31.2405 13.8506 30.4124C13.3839 29.5438 12.5518 28.9276 11.5692 28.7213C7.74395 27.9215 4.96844 24.5007 4.96844 20.5889C4.96844 18.2453 5.96801 15.9978 7.70999 14.4233Z" fill="white"/>
<path d="M32.0378 42.901C32.4955 43.6208 33.2654 44.0308 34.0806 44.0308C34.3103 44.0308 34.5432 43.9985 34.7745 43.9313C39.6543 42.5056 51.0361 37.4414 51.3418 21.2541C51.4583 15.0036 46.8874 9.63369 40.9337 9.02878C37.6487 8.69478 34.3718 9.76552 31.9391 11.9652C29.5033 14.1666 28.1058 17.3092 28.1058 20.5886C28.1058 26.0595 31.9893 30.8439 37.377 31.8677C36.2884 34.6149 34.5691 37.3322 32.2675 39.946C31.5348 40.779 31.4426 41.9662 32.0378 42.901ZM40.4565 33.0897C40.8026 32.2171 40.746 31.2418 40.3012 30.4137C39.8338 29.5443 39.0024 28.928 38.019 28.721C34.1938 27.9212 31.4183 24.5003 31.4183 20.5886C31.4183 18.2441 32.4179 15.9975 34.1598 14.4229C35.7061 13.0246 37.6535 12.2798 39.719 12.2798C40.0101 12.2798 40.3045 12.2944 40.6005 12.3251C44.8511 12.7561 48.1151 16.6509 48.0293 21.191C47.8191 32.3926 41.7537 37.4341 36.7316 39.6896C38.3199 37.5417 39.5669 35.3306 40.4565 33.0897Z" fill="white"/>
</svg>
