<svg width="41" height="41" viewBox="0 0 41 41" fill="none" xmlns="http://www.w3.org/2000/svg">
<g clip-path="url(#clip0_1_5027)">
<path d="M39.2848 39.0382H34.7007L37.5496 29.5151C37.9173 28.2963 37.4649 26.9786 36.4259 26.2423L33.0445 23.8371V13.0917C33.0418 12.5695 32.8312 12.0704 32.4592 11.7042C32.0872 11.338 31.585 11.1347 31.0628 11.1397H30.7771V2.00128C30.7579 0.900325 29.8672 0.013863 28.7662 0H18.2769C17.1798 0.0154033 16.2957 0.904176 16.2856 2.00128V6.01346H12.2831C11.1987 6.01346 10.2722 6.9007 10.2722 7.99511V11.1397H9.98645C8.90051 11.1328 8.01444 12.0061 8.00481 13.0917V23.8371L4.62339 26.2327C3.58867 26.9716 3.13697 28.2863 3.49972 29.5055L6.35858 39.0282H1.76453C1.22002 39.0282 0.778717 39.4699 0.778717 40.014C0.778717 40.5585 1.22002 40.9998 1.76453 40.9998H39.2748C39.8185 40.9983 40.259 40.5582 40.2606 40.014C40.2617 39.7549 40.1593 39.5061 39.976 39.3228C39.7927 39.1395 39.5439 39.0371 39.2848 39.0382ZM35.6569 28.9437L32.6305 39.0382H21.5105V18.0797L35.2822 27.8492C35.6261 28.098 35.7763 28.5362 35.6569 28.9437ZM18.2573 1.97163H28.8055V11.1397H21.1161V7.99511C21.1238 7.47563 20.9244 6.97463 20.5616 6.60264C20.1993 6.23104 19.7033 6.01886 19.1838 6.01346H18.2573V1.97163ZM12.2438 7.98509H19.1445V11.1397H12.2438V7.98509ZM9.97644 13.1113H31.0729V22.4373L21.0965 15.3687C20.7549 15.1222 20.2944 15.1222 19.9528 15.3687L9.97644 22.4373V13.1113ZM5.3924 28.9437C5.27303 28.5362 5.42321 28.098 5.76709 27.8492L19.5388 18.0797V39.0382H8.41878L5.3924 28.9437Z" fill="white"/>
</g>
<defs>
<clipPath id="clip0_1_5027">
<rect width="41" height="41" fill="white"/>
</clipPath>
</defs>
</svg>
