<svg width="46" height="46" viewBox="0 0 46 46" fill="none" xmlns="http://www.w3.org/2000/svg">
<g clip-path="url(#clip0_1_69910)">
<path d="M44.6523 41.7527C43.165 41.7527 42.494 41.4185 41.6445 40.9955C41.2939 40.8209 40.9263 40.6382 40.5017 40.4753L45.0535 28.5007C45.4077 27.5687 45.349 26.526 44.8921 25.6397C44.4353 24.7535 43.6199 24.1007 42.6554 23.8487L39.5211 23.0298V13.6297C39.5211 11.6569 37.9161 10.0519 35.9433 10.0519H29.7575V6.57373C29.7575 3.80474 27.5048 1.552 24.7358 1.552H21.2643C18.4953 1.552 16.2426 3.80474 16.2426 6.57373V10.0518H10.0567C8.08396 10.0518 6.47899 11.6568 6.47899 13.6296V23.0298L3.3447 23.8487C2.38005 24.1007 1.56472 24.7535 1.10795 25.6397C0.651187 26.526 0.59225 27.5687 0.946594 28.5007L5.49844 40.4755C5.07402 40.6383 4.70638 40.821 4.35589 40.9956C3.50624 41.4185 2.8352 41.7528 1.34766 41.7528C0.603391 41.7528 0 42.3562 0 43.1004C0 43.8447 0.603391 44.4481 1.34766 44.4481C3.46905 44.4481 4.57844 43.8957 5.5572 43.4084C6.40685 42.9854 7.07789 42.6512 8.56543 42.6512C10.053 42.6512 10.724 42.9853 11.5737 43.4084C12.5524 43.8957 13.6618 44.4481 15.7832 44.4481C17.9045 44.4481 19.0138 43.8957 19.9927 43.4084C20.8422 42.9854 21.5133 42.6512 23.0006 42.6512C24.488 42.6512 25.1589 42.9853 26.0085 43.4084C26.9873 43.8957 28.0966 44.4481 30.2179 44.4481C32.3392 44.4481 33.4485 43.8957 34.4272 43.4084C35.2768 42.9854 35.9478 42.6512 37.4352 42.6512C38.9226 42.6512 39.5935 42.9853 40.4431 43.4084C41.4218 43.8957 42.5311 44.4481 44.6524 44.4481C45.3967 44.4481 46.0001 43.8447 46.0001 43.1004C46.0001 42.3562 45.3966 41.7527 44.6523 41.7527ZM18.9379 6.57373C18.9379 5.29094 19.9815 4.24731 21.2643 4.24731H24.7358C26.0186 4.24731 27.0622 5.29094 27.0622 6.57373V10.0518H18.9379V6.57373ZM9.17421 13.6297C9.17421 13.1431 9.57007 12.7473 10.0567 12.7473H35.9432C36.4298 12.7473 36.8257 13.1431 36.8257 13.6297V22.3256L23.3406 18.8021C23.1172 18.7438 22.8826 18.7438 22.6592 18.8021L9.17412 22.3256L9.17421 13.6297ZM33.2257 40.9956C32.3762 41.4185 31.7051 41.7527 30.2179 41.7527C28.7306 41.7527 28.0596 41.4185 27.21 40.9955C26.2312 40.5082 25.1219 39.9558 23.0006 39.9558C20.8793 39.9558 19.77 40.5082 18.7912 40.9955C17.9416 41.4185 17.2706 41.7527 15.7832 41.7527C14.2958 41.7527 13.6246 41.4185 12.7751 40.9955C11.7963 40.5082 10.6869 39.9558 8.56552 39.9558C8.43552 39.9558 8.30938 39.958 8.18674 39.9619L3.4659 27.543C3.35261 27.245 3.44093 26.9965 3.50364 26.8748C3.56635 26.7532 3.71755 26.5371 4.02599 26.4565L23 21.4988L41.974 26.4566C42.2824 26.5371 42.4337 26.7532 42.4964 26.8748C42.5591 26.9965 42.6474 27.245 42.5341 27.5431L37.8133 39.962C37.6909 39.958 37.5649 39.9559 37.4351 39.9559C35.3138 39.9558 34.2045 40.5083 33.2257 40.9956Z" fill="white"/>
<path d="M35.4593 28.3957L23.3407 25.2293C23.1174 25.171 22.8827 25.171 22.6593 25.2293L10.5408 28.3957C9.82066 28.5839 9.38941 29.3202 9.57754 30.0403C9.76567 30.7604 10.502 31.1916 11.2221 31.0035L23 27.9261L34.7779 31.0035C34.8921 31.0335 35.0067 31.0476 35.1195 31.0476C35.7178 31.0476 36.2642 30.6462 36.4224 30.0403C36.6106 29.3202 36.1794 28.5839 35.4593 28.3957Z" fill="white"/>
</g>
<defs>
<clipPath id="clip0_1_69910">
<rect width="46" height="46" fill="white"/>
</clipPath>
</defs>
</svg>
