<svg width="41" height="41" viewBox="0 0 41 41" fill="none" xmlns="http://www.w3.org/2000/svg">
<path d="M39.4059 19.0144L33.5969 15.3101C33.3939 15.1804 33.1583 15.1118 32.9179 15.1118H6.92203L5.58929 10.5875C5.43098 10.0503 4.9381 9.68164 4.37779 9.68164H1.26283C0.565352 9.68164 0 10.247 0 10.9445V21.7628C0 22.3731 0.436906 22.8968 1.03765 23.0054L14.0448 25.3632C14.1193 25.3766 14.1946 25.3834 14.27 25.3834H37.5482C39.4518 25.3834 41 23.8347 41 21.9316C41 20.7874 40.3972 19.6749 39.4059 19.0144ZM37.5482 22.8577H14.3832L2.52566 20.7083V12.2074H3.43319L4.76593 16.7317C4.92424 17.2689 5.41712 17.6376 5.97743 17.6376H32.5495L38.0265 21.1302C38.2984 21.3116 38.4743 21.626 38.4743 21.9317C38.4743 22.4506 38.0673 22.8577 37.5482 22.8577Z" fill="white"/>
<path d="M28.1402 15.3383L16.9005 6.54055C16.6782 6.36671 16.4042 6.27197 16.1222 6.27197H10.8183C10.3434 6.27197 9.90859 6.53887 9.6931 6.96193C9.47761 7.38498 9.51757 7.89347 9.79704 8.27777L16.1954 17.0755C16.4328 17.4021 16.8124 17.5953 17.2166 17.5953H27.3614C27.9002 17.5953 28.3797 17.2536 28.5552 16.7442C28.7308 16.2349 28.5645 15.6704 28.1402 15.3383ZM17.8599 15.0698L13.2981 8.79772H15.6865L23.6996 15.0698H17.8599Z" fill="white"/>
<path d="M28.5505 23.8212C28.3708 23.3194 27.8951 22.9839 27.3614 22.9839H17.2166C16.8028 22.9839 16.4156 23.1864 16.1794 23.5265L9.78111 32.7448C9.51293 33.1312 9.48186 33.6342 9.69943 34.0505C9.91709 34.4669 10.3481 34.7278 10.8183 34.7278H16.1222C16.4143 34.7278 16.6972 34.6268 16.9228 34.4411L28.162 25.223C28.575 24.8845 28.7302 24.3234 28.5505 23.8212ZM15.6705 32.2022H13.2319L17.8775 25.5095H23.8301L15.6705 32.2022Z" fill="white"/>
</svg>
