<svg width="41" height="41" viewBox="0 0 41 41" fill="none" xmlns="http://www.w3.org/2000/svg">
<g clip-path="url(#clip0_1_4990)">
<path d="M30.9653 24.376C28.1156 24.376 25.7972 26.6943 25.7972 29.5441C25.7972 32.3938 28.1156 34.7121 30.9653 34.7121C33.8155 34.7121 36.1334 32.3938 36.1334 29.5441C36.1334 26.6943 33.8151 24.376 30.9653 24.376ZM30.9653 32.1281C29.5403 32.1281 28.3813 30.9691 28.3813 29.5441C28.3813 28.119 29.5403 26.96 30.9653 26.96C32.3904 26.96 33.5494 28.119 33.5494 29.5441C33.5494 30.9692 32.3904 32.1281 30.9653 32.1281Z" fill="white"/>
<path d="M13.3078 24.376C10.4581 24.376 8.13971 26.6943 8.13971 29.5441C8.13971 32.3938 10.4581 34.7121 13.3078 34.7121C16.1575 34.7121 18.4759 32.3938 18.4759 29.5441C18.4759 26.6943 16.1575 24.376 13.3078 24.376ZM13.3078 32.1281C11.8827 32.1281 10.7238 30.9691 10.7238 29.5441C10.7238 28.119 11.8827 26.96 13.3078 26.96C14.7325 26.96 15.8918 28.119 15.8918 29.5441C15.8918 30.9692 14.7329 32.1281 13.3078 32.1281Z" fill="white"/>
<path d="M34.4456 9.58332C34.226 9.14705 33.7794 8.87183 33.291 8.87183H26.4863V11.4559H32.4942L36.0123 18.4534L38.3216 17.2923L34.4456 9.58332Z" fill="white"/>
<path d="M27.0893 28.2952H17.313V30.8792H27.0893V28.2952Z" fill="white"/>
<path d="M9.43168 28.2952H4.95275C4.23909 28.2952 3.66077 28.8736 3.66077 29.5871C3.66077 30.3008 4.23917 30.8791 4.95275 30.8791H9.43176C10.1454 30.8791 10.7237 30.3007 10.7237 29.5871C10.7237 28.8735 10.1453 28.2952 9.43168 28.2952Z" fill="white"/>
<path d="M40.7287 20.3966L38.1873 17.1235C37.9432 16.8083 37.5663 16.6239 37.1671 16.6239H27.7784V7.57982C27.7784 6.86617 27.2 6.28784 26.4864 6.28784H4.95275C4.23909 6.28784 3.66077 6.86625 3.66077 7.57982C3.66077 8.2934 4.23917 8.8718 4.95275 8.8718H25.1943V17.9159C25.1943 18.6296 25.7727 19.2079 26.4863 19.2079H36.5344L38.416 21.6317V28.2951H34.8413C34.1277 28.2951 33.5494 28.8735 33.5494 29.5871C33.5494 30.3007 34.1278 30.879 34.8413 30.879H39.7079C40.4216 30.879 40.9999 30.3006 41 29.5871V21.1891C41 20.9023 40.9044 20.6232 40.7287 20.3966Z" fill="white"/>
<path d="M9.34559 21.749H3.40227C2.68861 21.749 2.11029 22.3274 2.11029 23.041C2.11029 23.7547 2.68869 24.333 3.40227 24.333H9.34551C10.0592 24.333 10.6375 23.7546 10.6375 23.041C10.6376 22.3274 10.0592 21.749 9.34559 21.749Z" fill="white"/>
<path d="M12.3172 16.667H1.29198C0.578404 16.667 0 17.2454 0 17.9591C0 18.6727 0.578404 19.251 1.29198 19.251H12.3172C13.0309 19.251 13.6092 18.6726 13.6092 17.9591C13.6092 17.2455 13.0309 16.667 12.3172 16.667Z" fill="white"/>
<path d="M14.4275 11.585H3.40227C2.68861 11.585 2.11029 12.1634 2.11029 12.8769C2.11029 13.5906 2.68869 14.1689 3.40227 14.1689H14.4275C15.1412 14.1689 15.7195 13.5905 15.7195 12.8769C15.7196 12.1634 15.1412 11.585 14.4275 11.585Z" fill="white"/>
</g>
<defs>
<clipPath id="clip0_1_4990">
<rect width="41" height="41" fill="white"/>
</clipPath>
</defs>
</svg>
