<svg width="48" height="48" viewBox="0 0 48 48" fill="none" xmlns="http://www.w3.org/2000/svg">
<g clip-path="url(#clip0_1_69924)">
<path d="M35.9168 28.4553C32.6899 28.4553 30.0647 31.0805 30.0647 34.3074C30.0647 37.5343 32.6899 40.1595 35.9168 40.1595C39.1442 40.1595 41.7689 37.5343 41.7689 34.3074C41.7689 31.0805 39.1437 28.4553 35.9168 28.4553ZM35.9168 37.2335C34.3031 37.2335 32.9907 35.9211 32.9907 34.3074C32.9907 32.6937 34.3031 31.3814 35.9168 31.3814C37.5305 31.3814 38.8428 32.6937 38.8428 34.3074C38.8428 35.9212 37.5305 37.2335 35.9168 37.2335Z" fill="white"/>
<path d="M15.9222 28.4553C12.6952 28.4553 10.0701 31.0805 10.0701 34.3074C10.0701 37.5343 12.6952 40.1595 15.9222 40.1595C19.1491 40.1595 21.7743 37.5343 21.7743 34.3074C21.7743 31.0805 19.1491 28.4553 15.9222 28.4553ZM15.9222 37.2335C14.3085 37.2335 12.9961 35.9211 12.9961 34.3074C12.9961 32.6937 14.3085 31.3814 15.9222 31.3814C17.5354 31.3814 18.8482 32.6937 18.8482 34.3074C18.8482 35.9212 17.5358 37.2335 15.9222 37.2335Z" fill="white"/>
<path d="M39.8577 11.7048C39.609 11.2108 39.1033 10.8992 38.5502 10.8992H30.845V13.8252H37.648L41.6318 21.7489L44.2467 20.4341L39.8577 11.7048Z" fill="white"/>
<path d="M31.5277 32.8931H20.4575V35.8191H31.5277V32.8931Z" fill="white"/>
<path d="M11.533 32.8931H6.46127C5.65316 32.8931 4.99829 33.548 4.99829 34.356C4.99829 35.1642 5.65325 35.819 6.46127 35.819H11.5331C12.3412 35.819 12.9961 35.1641 12.9961 34.356C12.9961 33.5479 12.3411 32.8931 11.533 32.8931Z" fill="white"/>
<path d="M46.9723 23.9493L44.0946 20.243C43.8181 19.886 43.3914 19.6772 42.9392 19.6772H32.3079V9.43612C32.3079 8.62801 31.653 7.97314 30.845 7.97314H6.46127C5.65316 7.97314 4.99829 8.6281 4.99829 9.43612C4.99829 10.2441 5.65325 10.8991 6.46127 10.8991H29.3819V21.1402C29.3819 21.9483 30.0369 22.6032 30.8449 22.6032H42.2228L44.3534 25.3478V32.8931H40.3057C39.4976 32.8931 38.8427 33.5481 38.8427 34.3561C38.8427 35.1642 39.4977 35.8191 40.3057 35.8191H45.8164C46.6245 35.8191 47.2794 35.1641 47.2795 34.3561V24.8466C47.2795 24.5218 47.1712 24.2058 46.9723 23.9493Z" fill="white"/>
<path d="M11.4356 25.4805H4.70565C3.89754 25.4805 3.24268 26.1354 3.24268 26.9434C3.24268 27.7516 3.89763 28.4064 4.70565 28.4064H11.4355C12.2436 28.4064 12.8985 27.7515 12.8985 26.9434C12.8986 26.1354 12.2436 25.4805 11.4356 25.4805Z" fill="white"/>
<path d="M14.8005 19.7258H2.31601C1.50799 19.7258 0.853027 20.3808 0.853027 21.1889C0.853027 21.997 1.50799 22.6519 2.31601 22.6519H14.8005C15.6086 22.6519 16.2634 21.9969 16.2634 21.1889C16.2634 20.3809 15.6086 19.7258 14.8005 19.7258Z" fill="white"/>
<path d="M17.1901 13.9714H4.70565C3.89754 13.9714 3.24268 14.6264 3.24268 15.4344C3.24268 16.2425 3.89763 16.8974 4.70565 16.8974H17.1901C17.9982 16.8974 18.6531 16.2424 18.6531 15.4344C18.6532 14.6264 17.9982 13.9714 17.1901 13.9714Z" fill="white"/>
</g>
<defs>
<clipPath id="clip0_1_69924">
<rect width="46.4265" height="46.4265" fill="white" transform="translate(0.853027 0.853027)"/>
</clipPath>
</defs>
</svg>
