<svg width="759" height="501" viewBox="0 0 759 501" fill="none" xmlns="http://www.w3.org/2000/svg">
<g clip-path="url(#clip0_906_66239)">
<path d="M622.135 454.216C622.135 458.746 649.204 462.411 682.599 462.411C715.994 462.411 743.063 458.746 743.063 454.216C743.063 449.686 715.994 446.021 682.599 446.021C649.204 446.021 622.135 449.686 622.135 454.216Z" fill="black"/>
<path d="M632.507 337.17C620.511 315.939 605.196 248.235 606.544 248.235C625.765 269.604 649.032 302.246 668.08 336.997L632.507 337.17Z" fill="#0F9F9A" stroke="black" stroke-width="7.3938" stroke-miterlimit="10" stroke-linejoin="round"/>
<path d="M674.545 336.997C693.386 290.904 710.153 248.235 733.35 211.617C733.35 255.393 726.366 298.062 717.067 337.17L674.545 336.997Z" fill="#0F9F9A" stroke="black" stroke-width="7.3938" stroke-miterlimit="10" stroke-linejoin="round"/>
<path d="M670.95 165.421C657.779 216.527 654.01 274.653 649.896 336.997H686.23C684.433 278.456 679.662 222.025 670.95 165.421Z" fill="#0F9F9A" stroke="black" stroke-width="7.3938" stroke-miterlimit="10" stroke-linejoin="round"/>
<path d="M631.539 201.935C631.539 201.935 631.539 306.361 636.517 337.17H645.16H671.987C664.969 294.155 648.444 248.892 631.539 201.935Z" fill="#0F9F9A" stroke="black" stroke-width="7.3938" stroke-miterlimit="10" stroke-linejoin="round"/>
<path d="M700.507 188.796C708.147 233.125 712.952 285.787 708.942 336.755L668.045 336.997C670.638 283.47 682.634 230.255 700.507 188.796Z" fill="#0F9F9A" stroke="black" stroke-width="7.3938" stroke-miterlimit="10" stroke-linejoin="round"/>
<path d="M757.721 247.509C753.331 279.528 744.031 310.095 732.796 336.997H704.137C718.587 301.312 731.033 272.924 757.721 247.509Z" fill="#0F9F9A" stroke="black" stroke-width="7.3938" stroke-miterlimit="10" stroke-linejoin="round"/>
<path d="M682.598 343.636L616.326 354.044L640.975 454.216C669.185 456.222 696.945 456.36 724.221 454.216L748.87 354.044L682.598 343.636Z" fill="white" stroke="black" stroke-width="7.3938" stroke-miterlimit="10" stroke-linejoin="round"/>
<path d="M755.992 333.228H609.205V354.044H755.992V333.228Z" fill="white" stroke="black" stroke-width="7.3938" stroke-miterlimit="10" stroke-linejoin="round"/>
<path d="M267.474 297.474H217.035C210.778 297.474 205.834 293.394 205.834 285.821C205.834 284.092 206.249 281.741 207.563 279.355L257.344 181.742C260.559 175.483 265.952 173.132 271.345 173.132C277.153 173.132 288.147 178.076 288.147 185.857C288.147 187.136 287.732 188.45 287.075 189.937L248.944 266.458H267.474V251.382C267.474 244.259 275.874 241.25 284.275 241.25C292.676 241.25 301.076 244.259 301.076 251.382V266.458H310.341C317.221 266.458 320.678 274.203 320.678 281.983C320.678 289.729 315.492 297.509 310.341 297.509H301.076V320.365C301.076 327.246 292.676 330.704 284.275 330.704C275.874 330.704 267.474 327.246 267.474 320.365V297.474Z" fill="#F65552" stroke="black" stroke-width="7.3938" stroke-miterlimit="10" stroke-linejoin="round"/>
<path d="M333.123 281.084V223.996C333.123 186.928 356.182 173.132 385.913 173.132C415.643 173.132 438.909 186.928 438.909 223.996V281.119C438.909 318.186 415.643 331.983 385.913 331.983C356.182 331.948 333.123 318.152 333.123 281.084ZM405.307 223.996C405.307 209.127 397.978 202.454 385.913 202.454C373.847 202.454 366.726 209.127 366.726 223.996V281.119C366.726 295.987 373.847 302.661 385.913 302.661C397.978 302.661 405.307 295.987 405.307 281.119V223.996Z" fill="#F65552" stroke="black" stroke-width="7.3938" stroke-miterlimit="10" stroke-linejoin="round"/>
<path d="M512.925 297.474H462.521C456.264 297.474 451.32 293.394 451.32 285.821C451.32 284.092 451.735 281.741 453.049 279.355L502.831 181.742C506.046 175.483 511.439 173.132 516.832 173.132C522.64 173.132 533.633 178.076 533.633 185.857C533.633 187.136 533.218 188.45 532.561 189.937L494.43 266.423H512.96V251.347C512.96 244.224 521.361 241.216 529.761 241.216C538.162 241.216 546.563 244.224 546.563 251.347V266.423H555.828C562.707 266.423 566.164 274.169 566.164 281.949C566.164 289.694 560.979 297.474 555.828 297.474H546.563V320.33C546.563 327.211 538.162 330.669 529.761 330.669C521.361 330.669 512.96 327.211 512.96 320.33V297.474H512.925Z" fill="#F65552" stroke="black" stroke-width="7.3938" stroke-miterlimit="10" stroke-linejoin="round"/>
<path d="M739.191 101.279L737.601 106.708C737.497 107.019 737.255 107.261 736.944 107.365L731.516 108.955C730.583 109.232 730.583 110.546 731.516 110.822L736.944 112.413C737.255 112.517 737.497 112.759 737.601 113.07L739.191 118.499C739.468 119.432 740.781 119.432 741.058 118.499L742.648 113.07C742.752 112.759 742.994 112.517 743.305 112.413L748.733 110.822C749.666 110.546 749.666 109.232 748.733 108.955L743.305 107.365C742.994 107.261 742.752 107.019 742.648 106.708L741.058 101.279C740.781 100.345 739.433 100.345 739.191 101.279Z" fill="#FBB03C"/>
<path d="M703.48 73.9968L700.922 82.7105C700.784 83.2291 700.369 83.6095 699.85 83.7824L691.138 86.3412C689.652 86.7907 689.652 88.8999 691.138 89.3494L699.85 91.9082C700.369 92.0465 700.749 92.4614 700.922 92.9801L703.48 101.694C703.93 103.181 706.038 103.181 706.488 101.694L709.046 92.9801C709.184 92.4614 709.599 92.0811 710.118 91.9082L718.83 89.3494C720.316 88.8999 720.316 86.7907 718.83 86.3412L710.118 83.7824C709.599 83.6441 709.219 83.2291 709.046 82.7105L706.488 73.9968C706.038 72.51 703.895 72.51 703.48 73.9968Z" fill="#FBB03C"/>
<path d="M33.1888 72.5445L34.7791 77.9733C34.8828 78.2845 35.1248 78.5265 35.4359 78.6303L40.8635 80.2209C41.7969 80.4975 41.7969 81.8114 40.8635 82.0881L35.4359 83.6786C35.1248 83.7824 34.8828 84.0244 34.7791 84.3356L33.1888 89.7644C32.9123 90.698 31.5986 90.698 31.322 89.7644L29.7318 84.3356C29.6281 84.0244 29.3861 83.7824 29.0749 83.6786L23.6473 82.0881C22.7139 81.8114 22.7139 80.4975 23.6473 80.2209L29.0749 78.6303C29.3861 78.5265 29.6281 78.2845 29.7318 77.9733L31.322 72.5445C31.5986 71.6109 32.9123 71.6109 33.1888 72.5445Z" fill="#FBB03C"/>
<path d="M48.7103 109.785L50.3006 115.214C50.4043 115.525 50.6463 115.767 50.9574 115.871L56.385 117.461C57.3184 117.738 57.3184 119.052 56.385 119.329L50.9574 120.919C50.6463 121.023 50.4043 121.265 50.3006 121.576L48.7103 127.005C48.4338 127.938 47.1201 127.938 46.8435 127.005L45.2532 121.576C45.1495 121.265 44.9075 121.023 44.5964 120.919L39.1688 119.329C38.2354 119.052 38.2354 117.738 39.1688 117.461L44.5964 115.871C44.9075 115.767 45.1495 115.525 45.2532 115.214L46.8435 109.785C47.1201 108.851 48.4683 108.851 48.7103 109.785Z" fill="#FBB03C"/>
<path d="M70.2827 43.7757L72.8409 52.4893C72.9792 53.008 73.394 53.3884 73.9126 53.5612L82.6244 56.12C84.1109 56.5695 84.1109 58.6788 82.6244 59.1283L73.9126 61.6871C73.394 61.8254 73.0137 62.2403 72.8409 62.759L70.2827 71.4726C69.8332 72.9595 67.7244 72.9595 67.275 71.4726L64.7168 62.759C64.5785 62.2403 64.1636 61.86 63.6451 61.6871L54.9333 59.1283C53.4467 58.6788 53.4467 56.5695 54.9333 56.12L63.6451 53.5612C64.1636 53.4229 64.5439 53.008 64.7168 52.4893L67.275 43.7757C67.6899 42.2543 69.8332 42.2543 70.2827 43.7757Z" fill="#FBB03C"/>
<path d="M737.186 149.999C736.149 156.534 729.996 160.995 723.462 159.923C716.928 158.886 712.468 152.731 713.54 146.196C714.577 139.66 720.731 135.2 727.264 136.272C733.798 137.309 738.258 143.464 737.186 149.999Z" fill="white" stroke="black" stroke-width="7.3938" stroke-miterlimit="10" stroke-linejoin="round"/>
<path d="M731.31 181.915C730.791 185.165 727.749 187.378 724.499 186.859C721.25 186.341 719.037 183.298 719.556 180.047C720.074 176.797 723.117 174.584 726.366 175.103C729.616 175.656 731.828 178.699 731.31 181.915Z" fill="white" stroke="black" stroke-width="7.3938" stroke-miterlimit="10" stroke-linejoin="round"/>
<path d="M747.384 166.355C746.866 169.605 743.823 171.818 740.574 171.299C737.324 170.781 735.111 167.738 735.63 164.487C736.149 161.237 739.191 159.024 742.441 159.543C745.69 160.061 747.903 163.104 747.384 166.355Z" fill="white" stroke="black" stroke-width="7.3938" stroke-miterlimit="10" stroke-linejoin="round"/>
<path d="M660.405 29.0109H114.361C107.862 29.0109 102.572 34.3013 102.572 40.802V413.241C102.572 419.742 107.862 425.032 114.361 425.032H660.405C666.905 425.032 672.194 419.742 672.194 413.241V40.802C672.194 34.3013 666.905 29.0109 660.405 29.0109ZM666.282 413.241C666.282 416.491 663.62 419.154 660.371 419.154H114.361C111.111 419.154 108.449 416.491 108.449 413.241V85.0272H666.282V413.241Z" fill="white" stroke="black" stroke-width="7.3938" stroke-miterlimit="10" stroke-linejoin="round"/>
<path d="M135.83 65.5944H127.395C124.664 65.5944 122.451 63.3814 122.451 60.6497V53.4575C122.451 50.7259 124.664 48.5129 127.395 48.5129H135.83C138.561 48.5129 140.774 50.7259 140.774 53.4575V60.6497C140.808 63.3468 138.561 65.5944 135.83 65.5944Z" fill="#F65552" stroke="black" stroke-width="7.3938" stroke-miterlimit="10" stroke-linejoin="round"/>
<path d="M163.555 65.5944H155.119C152.388 65.5944 150.176 63.3814 150.176 60.6497V53.4575C150.176 50.7259 152.388 48.5129 155.119 48.5129H163.555C166.286 48.5129 168.498 50.7259 168.498 53.4575V60.6497C168.533 63.3468 166.286 65.5944 163.555 65.5944Z" fill="#0F9F9A" stroke="black" stroke-width="7.3938" stroke-miterlimit="10" stroke-linejoin="round"/>
<path d="M191.281 65.5944H182.846C180.115 65.5944 177.902 63.3814 177.902 60.6497V53.4575C177.902 50.7259 180.115 48.5129 182.846 48.5129H191.281C194.012 48.5129 196.225 50.7259 196.225 53.4575V60.6497C196.225 63.3468 194.012 65.5944 191.281 65.5944Z" fill="#FBB03C" stroke="black" stroke-width="7.3938" stroke-miterlimit="10" stroke-linejoin="round"/>
<path d="M441.364 165.179C446.066 158.471 450.249 151.382 453.879 143.983C419.965 138.243 394.141 108.713 394.141 73.1669C394.141 34.0939 425.773 1.27938 465.979 1.27938C504.387 1.27938 535.777 31.4659 537.713 69.4671C540.133 120.539 499.789 167.738 443.3 168.775C441.433 168.81 440.258 166.7 441.364 165.179Z" fill="white" stroke="black" stroke-width="7.3938" stroke-miterlimit="10" stroke-linejoin="round"/>
<path d="M465.909 24.6887C439.359 24.6887 417.752 46.2999 417.752 72.8558C417.752 99.4116 439.359 121.023 465.909 121.023C492.459 121.023 514.066 99.4116 514.066 72.8558C514.101 46.2999 492.494 24.6887 465.909 24.6887ZM465.909 38.4507C475.174 38.4507 483.575 42.1505 489.763 48.1325L434.692 87.3785C432.652 82.9871 431.477 78.077 431.477 72.8903C431.511 53.907 446.93 38.4507 465.909 38.4507ZM465.909 107.295C457.059 107.295 449.004 103.907 442.885 98.3743L497.576 59.3703C499.339 63.5197 500.307 68.0494 500.307 72.8212C500.341 91.8736 484.923 107.295 465.909 107.295Z" fill="#F65552" stroke="black" stroke-width="7.3938" stroke-miterlimit="10" stroke-linejoin="round"/>
<path d="M506.358 501C532.591 501 553.858 497.346 553.858 492.84C553.858 488.333 532.591 484.679 506.358 484.679C480.124 484.679 458.857 488.333 458.857 492.84C458.857 497.346 480.124 501 506.358 501Z" fill="black"/>
<path d="M490.523 334.542C490.523 330.773 489.313 328.836 488.138 327.004C487.239 325.621 486.409 324.272 486.133 321.99H484.231C484.508 324.791 485.545 326.45 486.547 328.006C487.619 329.701 488.656 331.291 488.656 334.507C488.656 337.757 487.619 339.348 486.547 341.042C485.372 342.875 484.162 344.777 484.162 348.58C484.162 352.384 485.372 354.286 486.547 356.118C487.619 357.813 488.656 359.403 488.656 362.654C488.656 365.904 487.619 367.494 486.547 369.189C485.372 371.021 484.162 372.923 484.162 376.727C484.162 380.53 485.372 382.432 486.547 384.265C487.619 385.959 488.656 387.55 488.656 390.8H490.523C490.523 386.996 489.313 385.095 488.138 383.262C487.066 381.568 486.029 379.977 486.029 376.727C486.029 373.477 487.066 371.886 488.138 370.192C489.313 368.359 490.523 366.457 490.523 362.654C490.523 358.85 489.313 356.948 488.138 355.116C487.066 353.421 486.029 351.831 486.029 348.58C486.029 345.33 487.066 343.739 488.138 342.045C489.313 340.247 490.523 338.345 490.523 334.542Z" fill="black"/>
<path d="M510.47 334.542C510.47 330.773 509.26 328.836 508.085 327.004C507.186 325.621 506.356 324.272 506.08 321.99H504.179C504.455 324.791 505.492 326.45 506.495 328.006C507.566 329.701 508.604 331.291 508.604 334.507C508.604 337.757 507.601 339.348 506.495 341.042C505.319 342.875 504.109 344.777 504.109 348.58C504.109 352.384 505.319 354.286 506.495 356.118C507.566 357.813 508.604 359.403 508.604 362.654C508.604 365.904 507.601 367.494 506.495 369.189C505.319 371.021 504.109 372.923 504.109 376.727C504.109 380.53 505.319 382.432 506.495 384.265C507.566 385.959 508.604 387.55 508.604 390.8H510.47C510.47 386.996 509.26 385.095 508.085 383.262C507.013 381.568 505.976 379.977 505.976 376.727C505.976 373.477 506.979 371.886 508.085 370.192C509.26 368.359 510.47 366.457 510.47 362.654C510.47 358.85 509.26 356.948 508.085 355.116C507.013 353.421 505.976 351.831 505.976 348.58C505.976 345.33 506.979 343.739 508.085 342.045C509.26 340.247 510.47 338.345 510.47 334.542Z" fill="black"/>
<path d="M530.418 334.542C530.418 330.773 529.208 328.836 528.032 327.004C527.133 325.621 526.304 324.272 526.027 321.99H524.126C524.402 324.791 525.439 326.45 526.442 328.006C527.514 329.701 528.551 331.291 528.551 334.507C528.551 337.757 527.548 339.348 526.442 341.042C525.267 342.875 524.057 344.777 524.057 348.58C524.057 352.384 525.267 354.286 526.442 356.118C527.514 357.813 528.551 359.403 528.551 362.654C528.551 365.904 527.548 367.494 526.442 369.189C525.267 371.021 524.057 372.923 524.057 376.727C524.057 380.53 525.267 382.432 526.442 384.265C527.514 385.959 528.551 387.55 528.551 390.8H530.418C530.418 386.996 529.208 385.095 528.032 383.262C526.961 381.568 525.923 379.977 525.923 376.727C525.923 373.477 526.926 371.886 528.032 370.192C529.208 368.359 530.418 366.457 530.418 362.654C530.418 358.85 529.208 356.948 528.032 355.116C526.961 353.421 525.923 351.831 525.923 348.58C525.923 345.33 526.926 343.739 528.032 342.045C529.208 340.247 530.418 338.345 530.418 334.542Z" fill="black"/>
<path d="M554.825 475.516C557.21 475.516 559.63 475.101 561.912 474.168C567.477 471.851 574.15 465.488 574.15 448.407C574.15 431.36 567.512 424.998 561.912 422.646C553.615 419.189 543.451 422.992 539.302 427.072L538.473 427.902V468.946L539.302 469.776C542.31 472.715 548.498 475.516 554.825 475.516ZM554.755 426.83C556.449 426.83 558.143 427.107 559.768 427.764C565.542 430.184 568.584 437.307 568.584 448.407C568.584 459.506 565.542 466.63 559.768 469.05C554.133 471.401 547.184 468.912 544.039 466.491V430.323C546.32 428.594 550.503 426.83 554.755 426.83Z" fill="white" stroke="black" stroke-width="5.2991" stroke-miterlimit="10" stroke-linejoin="round"/>
<path d="M544.972 404.078C544.972 407.743 528.067 410.717 507.256 410.717C486.444 410.717 469.539 407.743 469.539 404.078C469.539 404.078 469.539 489.174 469.539 489.244C469.539 492.909 486.444 495.882 507.256 495.882C528.102 495.882 544.972 492.909 544.972 489.244C544.972 489.174 544.972 404.078 544.972 404.078Z" fill="white" stroke="black" stroke-width="5.2991" stroke-miterlimit="10" stroke-linejoin="round"/>
<path d="M544.972 404.078C544.972 405.496 542.414 406.81 538.058 407.916C531.213 409.61 519.977 410.717 507.221 410.717C494.499 410.717 483.228 409.61 476.418 407.916C472.062 406.844 469.504 405.53 469.504 404.078C469.504 400.413 486.409 397.404 507.221 397.404C528.067 397.439 544.972 400.413 544.972 404.078Z" fill="white" stroke="black" stroke-width="5.2991" stroke-miterlimit="10" stroke-linejoin="round"/>
<path d="M538.06 407.916C531.215 409.61 519.979 410.717 507.222 410.717C494.5 410.717 483.23 409.61 476.42 407.916C483.265 406.222 494.5 405.081 507.222 405.081C519.979 405.115 531.249 406.222 538.06 407.916Z" fill="white" stroke="black" stroke-width="5.2991" stroke-miterlimit="10" stroke-linejoin="round"/>
<path d="M507.256 478.144C496.401 478.144 487.551 469.292 487.551 458.435C487.551 450.897 491.734 444.119 498.51 440.765C499.858 440.108 501.483 440.627 502.14 441.975C502.796 443.324 502.278 444.949 500.93 445.606C496.055 448.027 493.013 452.937 493.013 458.4C493.013 466.284 499.409 472.681 507.291 472.681C515.173 472.681 521.568 466.284 521.568 458.4C521.568 452.937 518.526 448.027 513.652 445.606C512.303 444.949 511.75 443.289 512.442 441.975C513.099 440.627 514.758 440.074 516.072 440.765C522.813 444.119 527.031 450.897 527.031 458.435C526.961 469.292 518.111 478.144 507.256 478.144Z" fill="#FBB03C"/>
<path d="M507.256 453.455C505.77 453.455 504.525 452.245 504.525 450.724V434.507C504.525 433.02 505.735 431.775 507.256 431.775C508.743 431.775 509.988 432.985 509.988 434.507V450.724C509.953 452.21 508.743 453.455 507.256 453.455Z" fill="#FBB03C"/>
<path d="M285.691 501.035C313.089 501.035 335.3 496.282 335.3 490.419C335.3 484.556 313.089 479.804 285.691 479.804C258.293 479.804 236.082 484.556 236.082 490.419C236.082 496.282 258.293 501.035 285.691 501.035Z" fill="black"/>
<path d="M233.697 409.645L251.916 486.166C251.916 487.584 254.198 488.863 258.104 489.935C264.223 491.629 274.318 492.701 285.692 492.701C297.1 492.701 307.195 491.595 313.279 489.935C317.186 488.863 319.467 487.549 319.467 486.166L337.686 409.645H233.697Z" fill="white" stroke="black" stroke-width="5.2991" stroke-miterlimit="10" stroke-linejoin="round"/>
<path d="M337.721 409.645C337.721 411.823 334.195 413.829 328.214 415.489C318.811 418.082 303.289 419.776 285.727 419.776C268.165 419.776 252.643 418.082 243.239 415.489C237.224 413.829 233.732 411.823 233.732 409.645C233.732 404.078 257.033 399.514 285.727 399.514C314.42 399.514 337.721 404.043 337.721 409.645Z" fill="white" stroke="black" stroke-width="5.2991" stroke-miterlimit="10" stroke-linejoin="round"/>
<path d="M289.322 317.979H284.205V327.419H289.322V317.979Z" fill="black"/>
<path d="M276.426 332.121L281.508 333.435V330.98H275.735C275.285 330.98 274.939 331.326 274.939 331.775V369.223C274.939 369.88 275.458 370.399 276.115 370.399H276.633C277.048 370.399 277.394 370.053 277.359 369.638L276.011 332.432C276.011 332.225 276.219 332.087 276.426 332.121Z" fill="black"/>
<path d="M293.297 325.517V419.638C290.808 419.707 288.284 419.742 285.691 419.742C283.859 419.742 282.061 419.742 280.264 419.673V325.517H293.297Z" fill="#0F9F9A" stroke="black" stroke-width="5.2991" stroke-miterlimit="10" stroke-linejoin="round"/>
<path d="M325.516 322.543L324.928 327.073L314.592 325.724L315.18 321.195C315.352 319.812 316.597 318.878 317.98 319.051L323.338 319.742C324.721 319.915 325.689 321.16 325.516 322.543Z" fill="#F65552" stroke="black" stroke-width="5.2991" stroke-miterlimit="10" stroke-linejoin="round"/>
<path d="M318.741 334.161L310.099 400.689L307.748 418.774C306.019 418.946 304.256 419.085 302.424 419.189L304.878 400.205L313.556 333.47L318.741 334.161Z" fill="#FBB03C" stroke="black" stroke-width="5.2991" stroke-miterlimit="10" stroke-linejoin="round"/>
<path d="M323.893 334.853L315.25 401.312L313.072 418.22C311.378 418.428 309.58 418.601 307.748 418.774L310.099 400.689L318.742 334.161L323.893 334.853Z" fill="#FBB03C" stroke="black" stroke-width="5.2991" stroke-miterlimit="10" stroke-linejoin="round"/>
<path d="M314.577 325.698L313.566 333.482L323.92 334.827L324.931 327.043L314.577 325.698Z" fill="white" stroke="black" stroke-width="5.2991" stroke-miterlimit="10" stroke-linejoin="round"/>
<path d="M247.56 328.733L248.839 333.124L238.848 336.063L237.569 331.672C237.188 330.358 237.949 328.975 239.263 328.56L244.448 327.038C245.762 326.658 247.145 327.419 247.56 328.733Z" fill="#F65552" stroke="black" stroke-width="5.2991" stroke-miterlimit="10" stroke-linejoin="round"/>
<path d="M268.821 419.189C266.919 419.05 265.053 418.912 263.255 418.739L258.035 401.07L241.061 343.601L246.073 342.114L263.324 400.482L268.821 419.189Z" fill="#FBB03C" stroke="black" stroke-width="5.2991" stroke-miterlimit="10" stroke-linejoin="round"/>
<path d="M274.352 419.5C272.451 419.431 270.619 419.327 268.821 419.189L263.29 400.482L246.039 342.114L251.052 340.627L268.614 400.067L274.352 419.5Z" fill="#FBB03C" stroke="black" stroke-width="5.2991" stroke-miterlimit="10" stroke-linejoin="round"/>
<path d="M248.864 333.108L238.852 336.068L241.076 343.595L251.088 340.636L248.864 333.108Z" fill="white" stroke="black" stroke-width="5.2991" stroke-miterlimit="10" stroke-linejoin="round"/>
<path d="M74.1196 462.411C115.055 462.411 148.239 455.321 148.239 446.574C148.239 437.828 115.055 430.738 74.1196 430.738C33.1845 430.738 0 437.828 0 446.574C0 455.321 33.1845 462.411 74.1196 462.411Z" fill="black"/>
<path d="M96.0535 139.477L23.5547 263.538L30.7175 267.726L103.216 143.664L96.0535 139.477Z" fill="black"/>
<path d="M159.924 214.591C167.529 222.198 179.837 222.198 187.442 214.591C195.048 206.984 195.048 194.674 187.442 187.067L159.924 214.591Z" fill="#FBB03C" stroke="black" stroke-width="8.0972" stroke-miterlimit="10" stroke-linejoin="round"/>
<path d="M128.119 189.211L162.068 155.255L123.175 116.32C114.602 107.745 100.704 107.745 92.0964 116.32L89.227 119.19C80.6535 127.766 80.6535 141.666 89.227 150.276L128.119 189.211Z" fill="white" stroke="black" stroke-width="8.0972" stroke-miterlimit="10" stroke-linejoin="round"/>
<path d="M133.789 237.931C134.515 238.726 135.76 238.761 136.52 238L210.882 163.623C211.643 162.862 211.608 161.617 210.813 160.891C189.448 141.009 155.984 141.458 135.172 162.274C114.361 183.09 113.877 216.562 133.789 237.931Z" fill="white" stroke="black" stroke-width="8.0972" stroke-miterlimit="10" stroke-linejoin="round"/>
<path d="M9.57617 443.186C9.57617 445.641 13.9667 447.923 21.3994 449.755C33.0843 452.66 52.3747 454.562 74.1543 454.562C95.9338 454.562 115.224 452.66 126.909 449.755C134.342 447.888 138.732 445.641 138.732 443.186C138.732 412.895 117.886 387.481 89.7457 380.496C84.7675 379.251 79.5127 378.594 74.1543 378.594C68.7612 378.594 63.5411 379.251 58.5629 380.496C30.3877 387.481 9.57617 412.895 9.57617 443.186Z" fill="white" stroke="black" stroke-width="8.0972" stroke-miterlimit="10" stroke-linejoin="round"/>
<path d="M58.5273 380.496C58.8385 380.945 59.841 381.395 61.293 381.741C64.1278 382.467 68.8294 382.916 74.1187 382.916C79.4081 382.916 84.1097 382.467 86.9445 381.741C88.3964 381.36 89.399 380.945 89.7101 380.496C84.7319 379.251 79.4772 378.594 74.1187 378.594C68.7603 378.594 63.5055 379.286 58.5273 380.496Z" fill="black"/>
<path d="M67.9669 379.7C69.5918 380.738 75.0885 380.461 76.6442 379.493C76.7133 379.458 76.7133 379.389 76.6787 379.32L30.9417 263.657L23.2324 266.7L67.8978 379.631C67.9324 379.666 67.9669 379.666 67.9669 379.7Z" fill="black"/>
<path d="M27.138 275.932C32.8277 275.932 37.4401 271.319 37.4401 265.628C37.4401 259.937 32.8277 255.324 27.138 255.324C21.4483 255.324 16.8359 259.937 16.8359 265.628C16.8359 271.319 21.4483 275.932 27.138 275.932Z" fill="white" stroke="black" stroke-width="8.0972" stroke-miterlimit="10" stroke-linejoin="round"/>
</g>
<defs>
<clipPath id="clip0_906_66239">
<rect width="759" height="501" fill="white"/>
</clipPath>
</defs>
</svg>
