<svg width="226" height="115" viewBox="0 0 226 115" fill="none" xmlns="http://www.w3.org/2000/svg">
<path d="M199.429 88.7602L199.431 88.7588C199.425 88.7539 199.421 88.7524 199.416 88.7476L199.429 88.7602Z" fill="#FF7D44" fill-opacity="0.19"/>
<path d="M283.931 21.5352C270.574 16.6994 254.932 14.7462 240.797 14.2524C229.606 13.8614 220.984 21.7064 212.517 27.9685C211.909 28.4182 211.467 28.8346 210.765 28.8523C210.47 27.4172 210.428 25.6357 210.391 24.3188C210.219 18.1433 210.482 11.9668 210.346 5.7892C210.326 4.88987 210.188 3.96308 210.837 3.20845C211.103 2.89882 211.104 2.54874 210.936 2.30083C210.825 2.13694 210.444 2.11667 210.18 2.10266C209.089 2.04509 207.994 2.03938 206.904 1.96781C196.06 1.25675 185.321 0.235052 174.437 0.105391C156.728 -0.105697 138.943 0.0104527 121.227 0.36313C120.017 0.386988 118.796 0.269787 117.608 0.621946C117.516 0.648915 117.409 0.618326 117.311 0.632329C117.134 0.657224 116.952 0.67278 116.786 0.732424C116.095 0.981373 115.399 1.21944 114.725 1.50988C113.631 1.98133 112.548 2.48028 111.47 2.98699C100.359 8.2061 88.7455 12.3163 77.9677 18.2413C76.8051 18.8803 74.5614 19.6961 73.686 20.7256C73.0059 21.5253 73.7321 25.8903 73.575 27.1553C73.4455 28.1957 73.2884 32.9506 72.5954 33.5537C71.5588 34.4562 69.1777 32.9324 67.813 32.3962C63.8324 30.8314 59.8471 29.2584 55.7519 28.0126C47.659 25.5511 38.9715 24.3867 30.8429 27.3627C25.6929 29.2485 20.8348 32.587 16.0757 35.2969C11.3098 38.0105 6.56309 40.9579 2.76595 44.9696C-0.303494 48.2122 -1.44015 53.1668 2.63222 56.176C5.66279 58.4155 10.112 59.5274 13.849 59.1208C14.839 59.0129 15.8035 58.6831 16.7837 58.4699C17.5259 58.3086 18.2754 58.18 19.0197 58.027C19.3607 57.9565 19.5774 58.0939 19.7738 58.3636C19.9247 58.5706 20.103 58.8143 20.3243 58.904C23.572 60.2193 27.2862 62.1269 30.8916 61.6596C33.1934 61.3603 35.462 60.9013 37.5664 59.8614C38.3636 59.4678 39.1618 59.0757 39.9418 58.6509C40.3373 58.4357 40.639 58.4206 40.9235 58.8127C42.2478 60.6389 45.9833 61.7244 48.0498 61.9558C49.3575 62.102 50.6916 62.2078 52.019 61.796C52.9711 61.5009 53.9933 61.4345 54.9817 61.254C55.6612 61.1295 56.1945 61.3282 56.6133 61.8862C57.7837 63.4458 61.9794 64.8897 63.7862 65.0738C65.0312 65.2004 66.3016 65.0769 67.5435 65.2149C68.4101 65.3113 69.1596 65.1526 69.9106 64.7906C70.3574 64.5749 70.5139 64.6574 70.5616 65.1376C70.5875 65.399 70.6326 65.6791 70.5699 65.9259C69.1891 71.3826 70.5015 78.6706 70.8176 84.23C71.2069 91.0797 71.8688 97.9148 72.8297 104.708C72.937 105.462 73.0842 106.21 73.192 106.963C73.2832 107.603 73.2283 108.287 73.4377 108.881C73.9233 110.255 74.0934 111.674 74.2375 113.103C74.2712 113.435 74.3966 113.652 74.6982 113.714C75.089 113.794 75.4907 113.851 75.8893 113.86C76.6305 113.875 77.3732 113.825 78.1139 113.847C78.5404 113.86 78.9691 114.033 79.3885 114.004C86.623 113.516 94.2531 114.522 101.552 114.508C109.663 114.492 117.773 114.31 125.877 113.991C139.974 113.437 154.173 113.19 168.192 111.486C169.339 111.346 170.495 111.279 171.642 111.139C172.505 111.033 173.358 110.844 174.22 110.732C174.643 110.678 175.109 110.781 175.185 110.294C175.455 110.28 175.766 110.336 175.812 110.25C176.077 109.749 176.534 109.527 176.979 109.232C178.259 108.381 179.48 107.443 180.734 106.555C189.041 100.674 197.892 95.5302 206.548 90.1622C209.735 88.1856 210.27 87.6794 210.069 84.0209C209.673 76.8185 209.018 69.3827 208.886 62.337C208.884 62.2068 208.87 62.0574 208.924 61.949C209.165 61.4708 209.289 60.9817 209.213 60.4403C209.173 60.1514 209.303 60.0196 209.629 60.0788C210.16 60.1752 210.697 60.2697 211.235 60.294C214.422 60.4382 217.609 60.1503 220.7 59.3506C222.973 58.7624 225.277 57.0779 227.639 57.2838C228.997 57.402 230.31 57.8481 231.667 57.9813C235.666 58.3734 238.876 55.816 241.396 53.0128C241.638 52.7446 241.752 52.6772 242.071 52.838C245.031 54.3291 248.436 53.4837 251.191 51.9454C253.529 50.64 256.488 48.5473 257.207 45.8099C257.234 45.7061 257.425 45.5541 257.514 45.5707C262.042 46.4249 266.764 44.6968 270.487 42.5502C270.567 42.5035 270.626 42.4138 270.685 42.336C271.46 41.3029 272.257 40.2852 273.057 39.2661C273.786 38.3367 274.731 37.1869 276.047 37.2994C279.598 37.6028 283.196 38.1287 286.579 36.6713C290.005 35.1952 293.155 30.9403 291.585 27.1387C290.218 23.8246 287.053 22.6659 283.931 21.5352ZM159.141 2.93824C159.172 2.88586 159.288 2.88479 159.364 2.85834C159.762 2.71987 160.174 2.68358 160.402 2.17946C160.51 1.94088 161.005 1.77695 161.335 1.75724C162.951 1.66233 164.569 1.61877 166.187 1.57573C166.998 1.55394 167.838 1.43983 168.616 1.60061C170.503 1.99011 172.397 1.76558 174.286 1.83093C175.093 1.85894 175.903 1.79357 176.712 1.79928C177.424 1.80446 178.137 1.862 178.849 1.87341C180.582 1.90038 182.316 1.88229 184.047 1.94401C185.039 1.97979 186.026 2.15764 187.017 2.22973C187.573 2.27018 188.137 2.20069 188.695 2.22403C190.955 2.31791 193.215 2.42268 195.475 2.53419C197.392 2.6291 199.308 2.74424 201.224 2.83967C202.088 2.88271 202.954 2.86974 203.816 2.93457C204.89 3.01496 205.961 3.1493 207.033 3.26081C207.036 3.29971 207.039 3.3391 207.041 3.378C206.573 3.63473 206.114 3.91013 205.635 4.14248C205.007 4.44693 204.362 4.71718 203.725 5.00243C203.06 5.30014 202.388 5.58485 201.732 5.90019C201.159 6.1761 200.598 6.47898 200.039 6.78394C199.074 7.31089 198.126 7.87207 197.148 8.37463C196.6 8.65574 195.996 8.82432 195.437 9.08675C194.672 9.44617 193.928 9.85223 193.17 10.2283C192.07 10.7739 190.961 11.2988 189.865 11.8532C188.884 12.3501 187.918 12.8775 186.943 13.3863C186.313 13.7146 185.671 14.0201 185.05 14.3619C184.253 14.7996 183.502 15.3328 182.674 15.6969C181.766 16.0967 180.987 16.7917 179.925 16.8799C179.668 16.9012 179.437 17.2849 179.201 17.51C178.374 18.2994 177.417 18.9114 176.38 19.358C176.006 19.5193 175.502 19.3704 175.058 19.3792C173.39 19.4119 171.724 19.4762 170.057 19.4809C168.441 19.4856 166.824 19.3797 165.209 19.4171C163.306 19.4612 161.404 19.6126 159.502 19.7065C158.941 19.734 158.379 19.7148 157.818 19.734C156.432 19.7812 155.047 19.8507 153.661 19.8875C152.388 19.9212 151.113 19.9248 149.839 19.9388C147.988 19.9591 146.138 19.9596 144.288 20.0037C143.317 20.0265 142.349 20.1406 141.378 20.1806C140.925 20.1992 140.47 20.1396 140.016 20.1157C139.991 20.0747 139.967 20.0332 139.942 19.9923C140.279 19.6868 140.615 19.3803 140.953 19.0763C140.988 19.0452 141.058 19.0416 141.076 19.0068C141.655 17.8881 142.717 17.2253 143.587 16.3913C144.599 15.4225 145.713 14.5626 146.778 13.6493C147.4 13.1151 148.01 12.5669 148.629 12.0285C149.23 11.5057 149.817 10.9627 150.444 10.4726C151.415 9.71276 152.378 8.95654 153.233 8.05358C153.88 7.37001 154.683 6.83632 155.402 6.21965C156.213 5.52519 156.982 4.78096 157.817 4.11969C158.285 3.74886 158.823 3.47556 159.141 2.93824ZM138.29 2.29665C139.275 1.92478 140.354 1.91754 141.406 1.91495C146.916 1.90094 152.425 1.88691 157.933 1.87291C150.984 8.40938 141.55 12.7691 137.17 21.2463C133.359 28.6214 134.259 37.5224 131.873 45.4737C129.683 42.0222 127.102 38.8196 124.196 35.9452C123.968 35.7202 123.719 35.4862 123.403 35.4281C122.905 35.3363 122.451 35.7082 122.081 36.0546C119.435 38.5234 116.788 40.9921 114.142 43.4614C114.265 39.1411 114.388 34.8213 114.511 30.501C114.59 27.7418 114.676 24.9391 115.526 22.3127C116.946 17.9244 120.662 16.229 124.006 13.5108C127.979 10.2817 131.955 7.05574 135.929 3.8277C136.66 3.23333 137.409 2.62962 138.29 2.29665ZM107.7 5.81775C110.27 4.55434 112.872 3.27947 115.67 2.66695C118.057 2.14416 120.521 2.11879 122.964 2.09545C127.178 2.05499 131.392 2.01453 135.606 1.97408C132.49 4.79758 129.285 7.52356 125.998 10.1458C122.136 13.226 118.074 17.6719 113.317 19.2817C112.237 19.6474 111.121 19.8667 109.964 19.8906C99.2164 20.1115 88.4692 20.333 77.722 20.554C87.7146 15.6419 97.7076 10.7298 107.7 5.81775ZM70.6844 62.7482C70.6761 62.8618 70.6834 62.9764 70.6834 63.0215C70.0272 63.2025 69.4462 63.4162 68.8465 63.5127C64.8861 64.1496 58.501 62.5875 56.7683 58.5742C56.4728 57.8896 56.3511 57.0406 55.657 56.6832C55.4191 56.5608 55.0107 56.4379 54.8567 56.5541C54.5276 56.8046 54.113 57.15 54.341 57.6666C54.5727 58.1909 54.6235 58.8091 55.0983 59.2173C55.1408 59.2536 55.1465 59.3324 55.1937 59.4538C55.0102 59.5129 54.8516 59.5897 54.6852 59.613C50.8699 60.1488 46.0195 60.5715 42.8495 57.8455C41.689 56.8476 41.3527 54.9136 40.3145 53.6652C40.1896 53.5148 39.8714 53.3898 39.7081 53.4458C39.5438 53.5023 39.4131 53.785 39.3535 53.9935C39.14 54.7352 39.3883 55.4551 39.522 56.1755C40.3819 60.7986 25.767 58.9502 23.6943 57.9067C22.5727 57.3424 21.4713 56.6822 20.7985 55.5899C20.4124 54.9629 19.9708 54.2663 19.255 54.0983C17.0542 53.5807 18.9191 56.3357 18.4511 56.4431C18.4475 56.4436 18.4443 56.4446 18.4407 56.4452C13.8428 57.4674 6.96946 58.179 3.10027 54.8514C-1.58682 50.8205 4.77441 46.5904 7.8936 44.0703C11.8229 40.8957 16.0067 38.0742 20.1765 35.2315C34.6887 25.3363 49.1056 26.5521 64.6363 33.0035C65.5013 33.3629 66.3752 33.7052 67.2221 34.104C68.5122 34.7114 69.7795 35.3654 71.0628 35.9867C71.2961 36.0998 71.5542 36.1729 71.8087 36.2289C72.3005 36.3373 72.4037 36.6221 72.3549 37.1018C71.6744 43.8343 71.4914 50.6254 71.0783 57.3792C70.9695 59.1711 70.8166 60.9589 70.6844 62.7482ZM174.921 108.481C173.347 108.654 171.778 108.964 170.204 108.989C163.713 108.989 157.215 109.336 150.716 109.774C141.145 110.418 131.569 111.257 122.003 111.469C107.581 111.786 93.1563 111.898 78.7328 112.051C77.846 112.06 76.9581 112.036 76.0718 112.002C75.9505 111.998 75.7214 111.807 75.7322 111.78C75.981 111.167 75.5042 110.695 75.4151 110.151C73.7264 99.84 72.328 90.0206 72.0901 79.5097C71.8154 67.3813 73.0091 55.3026 73.8715 43.2208C74.2566 38.1209 73.7995 32.0881 75.0004 27.1418C75.3834 25.5641 75.0346 23.9765 75.2683 22.4112C75.3445 21.9014 75.7519 21.7079 76.1645 21.6239C76.5776 21.5399 77.0172 21.5897 77.4448 21.5726C83.3696 21.3356 89.2996 20.9637 95.2296 20.9258C97.2261 20.9134 99.2232 20.904 101.22 20.8812C102.703 20.8641 104.187 20.8398 105.669 20.7962C107.038 20.7563 108.407 20.6468 109.775 20.6437C110.802 20.6411 111.828 20.7516 112.854 20.8315C112.95 20.8387 113.096 20.9808 113.112 21.0783C113.18 21.4839 113.278 21.9035 113.236 22.3039C112.717 27.2243 113.558 32.4859 113.257 37.496C113.095 40.2132 111.994 43.8203 112.742 46.4763C112.897 47.0255 113.496 47.0411 113.974 46.6054C117.035 43.8125 119.839 40.7759 122.852 37.9326C122.98 37.8118 123.227 37.6853 123.358 37.7314C123.517 37.788 123.622 38.0198 123.734 38.1863C123.793 38.2755 123.793 38.4119 123.863 38.485C126.945 41.7063 128.706 47.804 132.975 49.6053C133.462 48.8553 133.586 48.0426 133.741 47.1272C134.604 42.0056 135.282 36.8544 135.988 31.7089C136.356 29.0234 136.224 25.576 137.767 23.2437C137.834 23.1425 137.827 22.9895 137.847 22.8599C137.961 22.1198 138.361 21.6794 139.098 21.6348C140.349 21.5596 141.603 21.5332 142.856 21.5041C152.03 21.2915 161.206 21.6815 170.382 21.3641C171.845 21.3133 173.309 21.2365 174.769 21.1296C175.157 21.1011 175.252 21.2349 175.221 21.5627C175.209 21.6934 175.191 21.8334 175.134 21.9491C173.641 24.98 174.392 30.2925 174.216 33.5771C173.957 38.4098 173.678 43.241 173.432 48.0742C172.943 57.7324 172.574 67.4036 172.74 77.0758C172.752 77.7671 172.66 78.4606 172.674 79.1519C172.697 80.3142 175.625 108.396 174.921 108.481ZM206.915 87.1364C206.65 87.3314 206.373 87.5103 206.105 87.7028C205.323 88.2629 204.539 88.8205 203.764 89.3899C203.196 89.8069 202.654 90.2581 202.077 90.6622C201.652 90.9599 201.171 91.1771 200.75 91.4795C200.113 91.937 199.536 92.4805 198.882 92.9084C197.997 93.4872 197.066 93.9965 196.147 94.5203C196.05 94.5758 195.894 94.5276 195.762 94.5276C195.642 95.1438 195.062 95.2906 194.623 95.5836C194.128 95.9145 193.627 96.236 193.124 96.555C189.165 99.0657 185.185 101.544 181.208 104.029C180.647 104.379 180.151 104.833 179.603 105.205C179.212 105.471 178.759 105.611 178.405 105.975C178.099 106.289 177.913 106.17 177.832 105.722C177.388 103.268 176.902 100.82 176.511 98.3572C174.954 88.5689 174.985 78.598 174.935 68.7147C174.928 67.3782 174.824 66.0421 174.829 64.7061C174.867 55.3026 174.967 45.8954 175.43 36.5018C175.632 32.4231 174.892 25.9385 176.452 22.1685C177.618 19.3512 181.462 18.0401 183.932 16.7316C190.206 13.4091 196.6 10.3014 203.045 7.31455C203.905 6.91572 204.801 6.58793 205.654 6.17457C206.547 5.74306 207.408 5.24827 208.283 4.78097C208.653 5.48062 208.442 6.29646 207.728 6.79021C207.253 7.11799 206.743 7.39494 206.239 7.67916C205.096 8.32487 203.945 8.95762 202.8 9.6023C202.013 10.0457 201.227 10.4923 200.449 10.9518C199.959 11.2417 199.484 11.5596 199 11.861C197.805 12.6037 196.608 13.3438 195.411 14.0849C195.355 14.1197 195.277 14.1394 195.245 14.1892C195.187 14.2768 195.157 14.3821 195.116 14.4796C195.217 14.4946 195.347 14.5579 195.415 14.5174C195.971 14.1855 196.516 13.8344 197.102 13.4657C197.433 13.5735 198.409 13.0378 198.651 12.6229C198.987 12.5326 199.27 12.5108 199.498 12.3874C200.757 11.7054 202.006 11.0073 203.249 10.2973C203.834 9.96274 204.386 9.57268 204.971 9.23712C206.033 8.62719 207.107 8.03905 208.212 7.42186C208.302 7.87879 208.417 8.25278 208.431 8.62984C208.438 8.8041 208.289 9.07324 208.136 9.15C206.936 9.75267 205.698 10.2822 204.511 10.9087C203.676 11.3501 202.899 11.9045 202.101 12.4159C201.086 13.0668 200.078 13.7312 199.059 14.3759C198.923 14.4615 198.737 14.4677 198.56 14.5149C198.471 14.6959 198.361 14.922 198.194 15.2643C198.535 15.1585 198.795 15.1258 199.003 15.005C199.645 14.6326 200.265 14.2239 200.897 13.8355C201.437 13.5035 202 13.2068 202.521 12.8484C203.658 12.0663 204.79 11.2926 206.125 10.861C206.73 10.666 207.3 10.36 207.873 10.0763C208.2 9.91397 208.356 10.027 208.38 10.3418C208.417 10.8366 208.456 11.3377 208.41 11.8283C208.393 12.0093 208.169 12.222 207.986 12.3283C206.427 13.2343 204.842 14.0953 203.294 15.02C202.364 15.5755 201.487 16.2196 200.589 16.8275C200.148 17.1257 199.712 17.4312 199.274 17.7336C199.292 17.7974 199.311 17.8612 199.33 17.925C199.642 17.8814 200.055 17.9493 200.248 17.7745C200.912 17.1729 201.657 16.7487 202.456 16.3561C203.48 15.853 204.423 15.1886 205.426 14.6393C206.331 14.144 207.268 13.7089 208.192 13.2515C208.245 13.225 208.317 13.2374 208.496 13.2208C208.419 14.1036 208.466 14.9847 208.221 15.7762C208.1 16.1704 207.465 16.4323 207.027 16.6963C206.31 17.1288 205.564 17.5136 204.83 17.9187C204.283 18.2206 203.731 18.5131 203.193 18.8305C203.08 18.8969 203.021 19.053 202.937 19.1681C203.098 19.1744 203.284 19.2366 203.416 19.178C204.073 18.8897 204.72 18.5764 205.363 18.2579C206.143 17.8721 206.916 17.4706 207.694 17.0801C207.886 16.9841 208.086 16.9058 208.338 16.7948C208.319 17.1273 208.256 17.3664 208.301 17.5821C208.481 18.441 208.052 18.941 207.371 19.3517C206.064 20.1401 204.778 20.9616 203.475 21.7567C203.206 21.9216 202.903 22.0315 202.515 22.2141C202.751 22.3972 202.861 22.4817 202.881 22.4973C204.727 21.5814 206.499 20.7028 208.335 19.7921C208.303 20.0893 208.27 20.2386 208.272 20.3869C208.282 21.0415 208.31 21.6955 208.314 22.3495C208.317 22.9724 207.939 23.2971 207.41 23.5476C206.984 23.7493 206.603 24.047 206.197 24.2955C205.116 24.9578 204.024 25.6035 202.952 26.2813C202.036 26.8596 201.144 27.4742 200.24 28.0717C199.505 28.5582 198.765 29.039 198.035 29.5327C197.725 29.7423 197.424 29.9674 197.138 30.2075C197.032 30.2972 196.979 30.4502 196.939 30.6053C200.587 28.2615 204.281 26.0329 208.091 23.991C208.565 24.9344 208.104 25.939 207.238 26.2979C206.645 26.5438 206.13 26.9784 205.581 27.3311C204.701 27.8959 203.819 28.4581 202.944 29.0291C202.461 29.3439 202.461 29.3808 202.771 29.8356C203.308 29.4165 203.846 28.9964 204.385 28.5774C204.449 28.5276 204.514 28.4591 204.588 28.4425C205.615 28.2143 206.33 27.3949 207.282 27.0214C207.415 26.9691 207.492 26.7823 207.611 26.6765C207.698 26.6003 207.852 26.4836 207.907 26.5132C208.014 26.5718 208.138 26.7185 208.139 26.83C208.144 27.3871 208.167 27.955 208.067 28.4975C208.021 28.7491 207.748 29.0073 207.512 29.166C206.728 29.6961 205.917 30.1867 205.111 30.6851C204.612 30.9942 204.106 31.293 203.601 31.5922C202.576 32.1985 201.55 32.8022 200.525 33.4075C199.792 33.84 199.058 34.2695 198.332 34.7114C198.253 34.7591 198.217 34.8763 198.162 34.9613C198.277 34.9764 198.424 35.0454 198.501 34.9982C199.341 34.492 200.157 33.9474 201.004 33.4562C201.596 33.1134 202.229 32.8443 202.838 32.531C203.587 32.1457 204.338 31.7608 205.076 31.3547C205.946 30.877 206.801 30.374 207.667 29.889C207.807 29.8102 207.969 29.7697 208.174 29.6909C208.187 29.846 208.206 29.9668 208.203 30.0871C208.199 30.2526 208.122 30.4367 208.172 30.5793C208.533 31.6099 207.621 31.8936 207.117 32.4107C206.841 32.6938 206.552 32.9677 206.247 33.2187C202.761 36.0842 199.113 38.8247 195.94 42.046C194.785 43.2187 193.697 44.4613 192.731 45.7953C191.799 47.0815 191.217 48.6338 190.421 50.0155C189.685 51.2908 188.812 52.4542 188.388 53.8773C188.28 54.2368 188.639 54.4671 188.984 54.2923C189.473 54.0459 195.006 53.5293 198.258 54.9343C200.189 55.7683 202.001 57.7091 203.87 58.6219C204.666 59.0109 205.486 59.2282 206.347 59.3682C206.46 59.3869 206.633 59.6213 206.62 59.739C206.537 60.5092 206.235 61.0279 205.402 61.3572C204.439 61.7374 203.606 62.4401 202.705 62.9811C202.443 63.1377 202.138 63.2207 201.764 63.3732C201.757 63.4058 201.715 63.5796 201.673 63.7539C201.704 63.7959 201.735 63.8379 201.766 63.8799C202.481 63.452 203.194 63.0216 203.911 62.5984C204.018 62.5356 204.143 62.5055 204.258 62.4562C204.701 62.2659 205.139 62.0652 205.586 61.8862C205.81 61.797 206.049 61.7467 206.281 61.6793C206.325 61.8904 206.366 62.102 206.413 62.3121C206.605 63.1922 206.299 63.7087 205.439 64.0988C204.62 64.4696 203.932 65.1205 203.161 65.607C202.71 65.8917 202.18 66.0541 201.734 66.3461C201.068 66.7828 200.447 67.2879 199.804 67.7588C199.674 67.8532 199.511 67.9056 199.396 68.013C199.185 68.2095 198.999 68.4326 198.866 68.7085C201.237 66.969 203.85 65.679 206.43 64.0837C206.51 65.0001 206.612 65.7262 206.613 66.4524C206.613 66.6733 206.377 66.9492 206.177 67.1064C205.458 67.6686 204.718 68.2044 203.968 68.723C203.487 69.0549 202.953 69.3106 202.48 69.6534C201.958 70.032 201.479 70.4708 200.934 70.922C201.33 71.0517 201.644 70.8645 201.987 70.5144C202.282 70.2146 202.629 69.9599 202.978 69.7234C203.067 69.6638 203.253 69.7494 203.275 69.752C203.526 69.5585 203.711 69.4221 203.888 69.2774C204.333 68.9149 204.982 68.8656 205.317 68.3241C205.383 68.2183 205.581 68.2018 205.704 68.1234C205.889 68.0057 206.061 67.8678 206.242 67.7428C206.343 67.6733 206.471 67.5426 206.548 67.5659C206.646 67.5955 206.771 67.7536 206.771 67.8563C206.769 68.5098 206.748 69.1644 206.702 69.8163C206.693 69.9444 206.575 70.0958 206.464 70.1804C205.903 70.6077 205.333 71.0258 204.754 71.4293C204.284 71.7571 203.802 72.0693 203.316 72.3732C202.506 72.8799 201.676 73.3586 200.876 73.8809C200.388 74.1993 199.95 74.5925 199.471 74.9255C198.741 75.4332 197.994 75.9176 197.256 76.414C196.89 76.6603 196.526 76.9109 196.119 77.1878C196.689 77.193 198.637 76.0463 198.715 75.8347C199.081 75.6324 199.325 75.5001 199.567 75.3632C199.622 75.3316 199.666 75.2787 199.721 75.2465C200.356 74.8741 201.078 74.5961 201.602 74.1055C202.092 73.647 202.761 73.5936 203.238 73.0977C203.687 72.6315 204.393 72.4209 204.961 72.0594C205.456 71.7446 205.909 71.3624 206.4 71.0398C206.55 70.9407 206.765 70.9397 206.932 70.8982C207.065 71.7099 207.181 72.424 207.297 73.1382C207.352 73.1589 207.408 73.1802 207.464 73.201C207.2 73.3742 206.932 73.5396 206.676 73.7232C206.561 73.8052 206.48 73.9333 206.369 74.022C206.098 74.2388 205.806 74.4307 205.546 74.6599C205.334 74.8466 205.157 75.0728 205.012 75.2299C204.658 75.4218 204.348 75.5971 204.032 75.7589C203.7 75.9291 203.345 76.0597 203.031 76.2563C202.711 76.457 202.44 76.735 202.125 76.9466C201.624 77.2832 201.081 77.5623 200.601 77.9253C200.298 78.1546 200.077 78.4921 199.819 78.781C199.851 78.822 199.883 78.8625 199.915 78.9035C200.295 78.6768 200.679 78.4559 201.056 78.2235C201.89 77.7101 202.684 77.1125 203.565 76.7039C204.124 76.4445 204.624 76.1313 205.125 75.7921C205.682 75.414 206.242 75.0391 206.815 74.6864C207.17 74.4675 207.264 74.7564 207.277 75.0126C207.302 75.5395 207.284 76.0685 207.284 76.5384C207.106 76.7283 206.93 76.9176 206.751 77.1043C206.56 77.304 206.394 77.5436 206.169 77.693C205.162 78.3615 204.147 79.0196 203.117 79.6519C201.747 80.4926 200.347 81.2861 198.985 82.1403C198.309 82.5646 197.75 83.2383 197.028 83.5106C196.296 83.787 195.911 84.5344 195.112 84.6692C194.822 84.718 194.571 85.0079 194.303 85.1879C194.334 85.2428 194.366 85.2983 194.397 85.3533C194.723 85.2387 195.068 85.1609 195.37 85.0012C195.779 84.7859 196.147 84.4934 196.548 84.2605C196.941 84.0323 197.359 83.8466 197.756 83.6241C198.028 83.4722 198.281 83.2865 198.546 83.1211C199.156 82.7404 199.763 82.3534 200.382 81.9878C200.68 81.812 201.014 81.6989 201.309 81.5195C201.506 81.3992 201.647 81.1891 201.84 81.059C202.192 80.8214 202.647 80.8629 202.926 80.3442C203.123 79.9781 203.811 79.8775 204.278 79.6545C204.378 79.6068 204.471 79.5471 204.565 79.488C205.273 79.0404 205.979 78.5907 206.689 78.1462C206.741 78.1141 206.825 78.1354 206.877 78.1042C207.46 77.7536 207.473 77.7494 207.58 78.3843C207.662 78.8687 207.695 79.3614 207.762 79.849C207.822 80.2862 207.528 80.5263 207.244 80.7425C206.831 81.0563 206.39 81.3338 205.953 81.6134C205.557 81.8665 205.138 82.0843 204.75 82.3499C204.372 82.6087 204.037 82.9302 203.657 83.1843C203.034 83.6008 202.37 83.9576 201.759 84.3902C201.135 84.8321 200.559 85.3419 199.951 85.8071C199.796 85.9253 199.585 85.9679 199.425 86.0815C199.303 86.1681 199.221 86.3118 199.074 86.486C199.413 86.5151 199.629 86.5332 199.845 86.5514C199.818 86.5192 199.79 86.487 199.762 86.4554C200.212 86.0618 200.628 85.6142 201.123 85.289C201.709 84.9042 202.389 84.6635 202.984 84.2911C203.687 83.8518 204.342 83.3368 205.02 82.8586C205.126 82.784 205.244 82.7238 205.36 82.6667C205.493 82.6019 205.692 82.5864 205.756 82.4831C206.118 81.9007 206.831 81.9173 207.311 81.5397C207.42 81.4537 207.655 81.4147 207.764 81.4759C207.853 81.5268 207.85 81.756 207.871 81.909C207.882 81.9878 207.843 82.0724 207.846 82.1538C207.878 83.0485 207.566 83.4763 206.708 83.816C206.541 83.8824 206.469 84.1599 206.305 84.2693C205.992 84.4789 205.636 84.621 205.315 84.8206C204.639 85.2408 203.984 85.694 203.304 86.1069C202.638 86.5114 201.922 86.8397 201.281 87.2785C200.631 87.724 200.046 88.264 199.432 88.7629C199.63 88.946 199.759 88.9428 200.019 88.7343C200.618 88.253 201.279 87.8387 201.949 87.4585C203.013 86.8553 204.124 86.3351 205.176 85.7138C205.61 85.4576 205.921 85.0628 206.476 84.9187C206.977 84.789 207.398 84.3492 207.9 84.0168C208.58 84.6106 208.13 85.4695 208.361 86.0586C207.853 86.4352 207.387 86.7894 206.915 87.1364ZM287.713 33.0818C286.22 34.4915 284.359 35.619 282.271 35.773C280.382 35.9126 278.467 35.6771 276.587 35.5163C276.605 35.4603 276.607 35.396 276.636 35.3773C277.178 35.0365 277.185 34.3198 276.457 34.227C276.101 34.1819 275.578 34.2612 275.222 34.3271C274.817 34.4018 274.633 34.7031 274.426 35.0526C272.116 38.9435 269.126 42.7068 264.35 43.4106C262.681 43.6569 260.993 43.4147 259.323 43.3105C259.176 43.3011 259.024 43.3037 258.879 43.326C258.364 43.4044 258.225 43.2721 258.371 42.7861C258.497 42.3686 258.61 41.9242 258.797 41.5321C258.92 41.2738 259.04 40.9911 258.984 40.7105C258.859 40.0757 258.088 40.3179 257.695 40.5047C257.499 40.5975 257.352 40.8148 257.21 40.9973C256.259 42.2208 256.055 43.7503 255.535 45.1652C255.033 46.5292 254.236 47.6951 253.09 48.597C251.594 49.7733 249.061 51.184 247.134 51.3603C245.509 51.5087 243.878 51.5699 242.25 51.6658C242.497 51.3764 242.67 51.1918 242.823 50.9921C243.203 50.4973 243.753 49.6338 243.63 48.972C243.321 47.3035 242.196 49.3029 241.905 49.8408C241.4 50.7748 240.996 51.7644 240.256 52.5476C239.14 53.7285 237.716 54.6169 236.289 55.3705C234.637 56.2434 232.503 56.5961 230.662 56.3767C229.927 56.289 229.206 56.0779 228.369 55.8975C228.744 55.4971 229.042 55.1636 229.358 54.8462C229.946 54.2575 230.513 53.8991 230.671 53.0548C230.682 52.9941 230.692 52.9256 230.657 52.8748C230.606 52.8001 230.495 52.8074 230.406 52.8255C228.636 53.1933 227.506 54.7938 226.046 55.7289C224.614 56.6464 222.998 57.2434 221.34 57.5986C217.988 58.3175 214.462 58.1012 211.115 57.4653C207.564 56.7911 204.155 55.5489 200.785 54.2694C199.148 53.6476 197.482 53.4785 195.846 52.9293C194.956 52.6305 194.132 52.7161 193.261 52.8462C192.468 52.9645 191.667 53.0262 190.868 53.1004C190.598 53.1253 190.469 52.7711 190.665 52.4687C195.136 45.5713 200.331 39.1795 207.152 34.4805C209.176 33.0864 210.93 30.9854 212.801 29.3709C218.542 24.4168 225.046 20.8387 232.134 18.1884C236.375 16.6024 240.588 15.8721 245.123 16.2305C249.562 16.5816 253.886 17.718 258.288 18.3352C263.961 19.1313 269.663 19.7677 275.32 20.6737C277.533 21.028 279.865 21.7443 282.017 22.3931C284.264 23.0709 286.488 23.9521 288.419 25.3099C289.344 25.9598 290.012 26.8653 290.441 27.9192C291.188 29.7547 288.899 31.961 287.713 33.0818Z" fill="#FF7D44" fill-opacity="0.19"/>
<path d="M116.446 88.223C116.602 87.5851 116.199 86.9886 115.549 87.0353C114.577 87.1053 113.605 87.1873 112.633 87.2402C111.494 87.3024 110.354 87.3735 109.214 87.3771C102.072 87.401 94.9233 87.2521 87.781 87.1898C86.2322 87.1763 84.6084 87.1805 83.2426 87.9123C86.7169 88.3454 90.1808 87.8158 93.6327 88.1815C95.1726 88.3443 96.7431 88.2251 98.2996 88.2204C99.0097 88.2183 99.7203 88.1815 100.43 88.181C101.684 88.181 102.937 88.2033 104.19 88.2048C105.61 88.2069 107.03 88.1997 108.45 88.1903C109.601 88.1826 110.752 88.1607 111.902 88.154C113.021 88.1478 114.14 88.1525 115.296 88.1525C115.248 88.6001 115.202 88.9869 115.169 89.3749C115.133 89.7841 115.113 90.1949 115.083 90.6051C115.065 90.8525 115.017 91.1009 115.027 91.3468C115.069 92.3783 115.141 93.4089 115.177 94.441C115.235 96.0748 115.281 97.7084 115.314 99.3427C115.318 99.561 115.175 99.7831 115.183 100C115.218 100.998 115.286 101.995 115.338 102.992C115.383 103.849 115.409 104.707 115.466 105.563C115.49 105.922 115.348 106.013 115.011 106.021C114.208 106.039 113.405 106.109 112.602 106.138C110.487 106.216 108.371 106.362 106.257 106.335C103.983 106.306 101.712 106.105 99.4378 105.994C97.8368 105.916 96.2346 105.838 94.632 105.808C93.1678 105.78 91.7026 105.828 90.2378 105.823C88.1257 105.816 86.0141 105.797 83.9025 105.767C83.6449 105.763 83.3888 105.656 83.1317 105.6C82.9648 105.563 82.7917 105.547 82.6306 105.493C82.488 105.446 82.247 105.369 82.2397 105.288C82.1791 104.583 82.1366 103.873 82.135 103.165C82.1319 101.633 82.2154 100.098 82.1527 98.5699C82.0863 96.9492 81.8344 95.3362 81.767 93.7159C81.6929 91.938 81.7411 90.1555 81.7203 88.3749C81.7188 88.2287 81.5944 88.0835 81.5271 87.9377C81.3633 88.0606 81.1181 88.152 81.0533 88.3143C80.947 88.5824 80.9356 88.8957 80.9232 89.1913C80.8999 89.7509 80.8869 90.3121 80.9009 90.8717C80.9382 92.356 80.9807 93.8404 81.044 95.3243C81.0709 95.9482 81.1782 96.5685 81.2088 97.1929C81.2508 98.0481 81.2695 98.905 81.2705 99.7607C81.272 100.865 81.2627 101.97 81.2244 103.074C81.2047 103.65 81.1036 104.223 81.058 104.799C81.0227 105.243 81.002 105.689 81.0067 106.133C81.0077 106.251 81.1036 106.446 81.1948 106.472C81.7727 106.641 82.3574 106.863 82.9482 106.893C83.5712 106.924 84.2015 106.715 84.8318 106.689C86.48 106.622 88.1298 106.586 89.7791 106.561C90.4705 106.551 91.1624 106.613 91.8544 106.62C94.5097 106.649 97.1655 106.646 99.8198 106.701C101.319 106.732 102.834 106.739 104.308 106.973C105.326 107.134 106.324 107.124 107.328 107.113C108.578 107.099 109.826 106.943 111.076 106.918C112.298 106.894 113.526 106.893 114.74 107.004C115.483 107.072 116.103 106.858 116.307 106.108C116.428 105.666 116.467 105.184 116.451 104.724C116.394 103.044 116.293 101.365 116.218 99.686C116.175 98.7286 116.158 97.7702 116.116 96.8133C116.06 95.5639 115.963 94.315 115.938 93.065C115.922 92.229 115.963 91.3872 116.048 90.5548C116.13 89.7717 116.258 88.9875 116.446 88.223Z" fill="#FF7D44" fill-opacity="0.19"/>
<path d="M109.149 97.7868C108.764 97.9564 108.374 98.1302 108.022 98.3579C107.281 98.8366 106.586 98.7764 105.91 98.2354C105.492 97.9004 104.997 97.6499 104.509 97.4191C104.351 97.3439 104.099 97.4238 103.904 97.4803C103.524 97.5903 103.156 97.7375 102.78 97.8615C102.177 98.0607 101.553 98.21 100.973 98.46C100.163 98.809 99.413 98.9833 98.6988 98.2733C98.5267 98.1021 98.2919 97.9906 98.0773 97.8667C97.6539 97.6219 97.2133 97.5083 96.7209 97.6592C95.9336 97.9004 95.1395 98.1214 94.3485 98.3496C93.4876 98.598 92.5874 98.7421 91.7907 98.2873C91.2372 97.9709 90.7147 97.7422 90.0885 97.8086C89.6174 97.8584 89.139 97.9076 88.6845 98.0321C88.2356 98.155 87.8256 98.4253 87.3752 98.5368C86.5521 98.7411 85.9976 99.2696 85.4709 99.9132C85.7856 100.324 86.1722 100.467 86.3608 100.219C86.7522 99.7037 87.3115 99.5284 87.8526 99.2494C88.6642 98.8309 89.4878 98.6685 90.3659 98.6747C90.583 98.6763 90.8526 98.7479 91.006 98.8879C91.4683 99.3101 91.928 99.5015 92.6049 99.5009C93.8266 99.4994 94.9151 99.1036 95.9973 98.6664C96.8194 98.3345 97.7021 98.4595 98.2986 99.1415C98.8304 99.7494 99.7183 99.8951 100.449 99.5896C101.388 99.197 102.358 98.877 103.312 98.5207C103.963 98.2774 104.47 98.5056 104.988 98.918C105.413 99.2561 105.725 99.7219 106.402 99.7841C107.624 99.8961 108.429 99.1778 109.306 98.5746C109.432 98.4885 109.453 98.2297 109.494 98.0446C109.565 97.7287 109.368 97.6908 109.149 97.7868Z" fill="#FF7D44" fill-opacity="0.19"/>
<path d="M109.537 92.8379C109.227 92.8742 108.919 92.9603 108.622 93.0589C107.877 93.3057 107.123 93.5381 106.4 93.8399C105.762 94.1065 105.249 94.0598 104.799 93.454C104.332 92.8249 103.754 92.7342 103.057 92.8805C101.976 93.1071 100.899 93.3882 99.8053 93.5059C99.1776 93.5733 98.5214 93.6345 97.8948 93.1304C96.9862 92.3991 95.8666 92.3245 94.8088 92.8374C94.0209 93.2196 93.2212 93.257 92.3929 93.1989C92.0135 93.1725 91.6315 93.1117 91.4232 92.7082C91.3864 92.6367 91.2646 92.5843 91.1744 92.5693C90.443 92.4453 89.7091 92.3322 88.9762 92.2161C88.9736 92.228 88.9705 92.2399 88.9679 92.2518C88.7378 92.2658 88.4994 92.2467 88.2786 92.3001C87.2114 92.5599 86.2198 92.9894 85.4149 93.7575C85.306 93.8612 85.2692 94.1657 85.3423 94.2984C85.4107 94.4229 85.6771 94.5084 85.8414 94.4887C85.9969 94.4701 86.1483 94.3072 86.2753 94.1812C87.527 92.9421 89.0177 92.924 90.5918 93.3239C90.6851 93.3477 90.7991 93.3835 90.8535 93.4535C91.5149 94.2989 92.4214 94.2242 93.3098 94.0645C94.1168 93.9193 94.9067 93.676 95.7013 93.4654C96.2533 93.3192 96.8022 93.3898 97.2039 93.7549C97.9611 94.4437 98.851 94.4654 99.7498 94.3503C100.875 94.2061 101.989 93.9743 103.103 93.7528C103.54 93.6657 103.856 93.7466 104.144 94.1117C104.852 95.0111 105.973 95.1392 106.897 94.6169C107.672 94.1786 108.484 93.9364 109.359 93.8363C109.554 93.814 109.79 93.7066 109.906 93.5588C110.011 93.4229 110.038 93.1631 109.986 92.9914C109.959 92.8986 109.686 92.8203 109.537 92.8379Z" fill="#FF7D44" fill-opacity="0.19"/>
<path d="M236.946 42.7442C236.701 43.0082 236.44 43.2654 236.153 43.4812C233.365 45.577 230.601 46.6765 227.09 46.8767C226.586 46.9052 226.07 46.8819 225.572 46.8005C224.953 46.6988 224.274 46.6527 223.95 45.9556C223.8 45.633 223.532 45.4313 223.199 45.5521C223.003 45.6232 222.877 45.8887 222.723 46.0697C222.692 46.1061 222.683 46.1616 222.652 46.1989C220.127 49.2216 214.11 51.0933 210.469 49.1422C209.99 48.8854 209.434 48.7895 209.019 48.373C208.84 48.1925 208.539 48.1329 208.177 47.9643C208.217 48.3331 208.172 48.5795 208.272 48.7335C209.891 51.2411 213.07 51.1799 215.703 50.9014C217.645 50.696 219.505 50.0244 221.119 48.9995C221.309 48.8782 221.549 48.8191 221.712 48.6718C222.201 48.232 222.659 47.7585 223.139 47.3093C223.209 47.244 223.349 47.1942 223.436 47.2175C225.052 47.6516 226.355 48.065 228.041 47.9711C229.615 47.8835 231.252 47.6407 232.706 47.0038C233.851 46.5023 235.014 45.9873 235.95 45.1025C236.525 44.5589 237.156 44.0714 237.698 43.4988C237.912 43.2737 238.105 42.8546 237.785 42.5574C237.483 42.2758 237.195 42.4766 236.946 42.7442Z" fill="#FF7D44" fill-opacity="0.19"/>
<path d="M198.044 89.5723C197.626 90.0925 197.137 90.4623 196.519 90.7647C195.807 91.1122 195.213 91.7013 194.533 92.2117C194.707 92.3019 194.869 92.386 194.917 92.4109C195.383 92.0431 195.768 91.7475 196.144 91.4405C196.391 91.2382 196.607 90.995 196.867 90.8145C197.211 90.5764 197.607 90.4115 197.936 90.1574C198.132 90.0054 198.248 89.7487 198.398 89.5365C198.272 89.5412 198.096 89.5075 198.044 89.5723Z" fill="#FF7D44" fill-opacity="0.19"/>
<path d="M198.405 89.5248C198.402 89.5282 198.401 89.5321 198.398 89.5355C198.403 89.5355 198.409 89.536 198.414 89.5355L198.405 89.5248Z" fill="#FF7D44" fill-opacity="0.19"/>
<path d="M199.415 88.7468C199.416 88.7555 199.413 88.7638 199.414 88.7725C199.419 88.7686 199.424 88.7647 199.429 88.7608C199.429 88.7599 199.415 88.7468 199.415 88.7468Z" fill="#FF7D44" fill-opacity="0.19"/>
<path d="M199.414 88.7743C199.084 89.0264 198.755 89.2774 198.424 89.5289C198.936 89.6487 199.436 89.2639 199.414 88.7743Z" fill="#FF7D44" fill-opacity="0.19"/>
<path d="M198.414 89.5352C198.417 89.5328 198.42 89.5304 198.423 89.5285C198.418 89.5271 198.412 89.5276 198.407 89.5261C198.405 89.5247 198.414 89.5352 198.414 89.5352Z" fill="#FF7D44" fill-opacity="0.19"/>
<path d="M56.805 49.651C54.7193 50.4498 49.2055 50.9492 48.1782 48.1366C48.1176 47.9702 47.7651 47.8182 47.5516 47.8229C47.2359 47.8296 46.8576 47.8436 46.7161 48.2746C46.6788 48.3882 46.4989 48.481 46.3647 48.5318C45.8013 48.746 45.2368 48.9607 44.6604 49.135C44.3313 49.2346 43.9737 49.2341 43.6389 49.3186C42.1238 49.7014 40.6 49.5603 39.1243 49.2227C36.9806 48.7258 35.5439 48.0594 34.5176 46.1399C34.4445 46.0035 34.3652 45.8603 34.23 45.7851C33.9584 45.6342 33.6323 45.8271 33.3747 46.0003C31.5057 47.2565 29.1609 47.7839 26.9342 47.4484C24.7081 47.1128 22.6218 45.9179 21.2053 44.1669C20.9301 43.8262 20.3294 43.4896 20.1604 43.8941C20.1023 44.0341 20.1531 44.1939 20.2117 44.3334C20.886 45.9495 22.4612 47.0272 24.1001 47.6403C26.8378 48.6646 29.9627 48.6112 32.6631 47.493C32.8533 47.4142 33.0523 47.3286 33.2571 47.3514C33.495 47.3778 33.6899 47.5438 33.8739 47.6968C37.0547 50.3461 42.58 51.6966 46.3248 49.4934C46.543 49.3648 46.9162 49.3539 47.1587 49.4462C47.6376 49.6283 48.073 49.9223 48.5297 50.1656C49.9535 50.9233 51.5187 51.0514 53.2769 51.2101C54.6841 51.3372 56.7604 50.7267 57.9634 50.0634C58.3568 49.8466 58.7834 49.4566 58.644 49.0297C58.0023 49.121 57.4114 49.4192 56.805 49.651Z" fill="#FF7D44" fill-opacity="0.19"/>
<path d="M47.7264 38.8684C47.4569 38.8705 47.1863 38.9939 46.9199 39.0774C46.5758 39.1858 46.2363 39.4005 45.8932 39.4042C44.8607 39.4151 43.8262 39.6122 42.7906 39.3331C42.1489 39.1604 41.5647 38.9073 41.1615 38.3918C40.9796 38.1599 40.9754 37.7891 40.8899 37.481C40.8681 37.4022 40.8666 37.2803 40.8153 37.2529C40.6354 37.1559 40.4431 37.0698 40.2451 37.0283C40.185 37.0158 40.0502 37.146 40.0202 37.2347C39.6734 38.2533 40.2291 39.5095 41.2336 39.8404C42.2619 40.1796 43.3114 40.4736 44.4201 40.3761C45.2608 40.302 46.102 40.2314 46.9433 40.1588C46.9526 40.208 46.9619 40.2573 46.9712 40.3071C47.3465 40.2013 47.742 40.1396 48.0908 39.9778C48.4464 39.8123 48.5034 39.4405 48.3116 39.134C48.2137 38.9789 47.927 38.8669 47.7264 38.8684Z" fill="#FF7D44" fill-opacity="0.19"/>
</svg>
