<svg width="220" height="220" viewBox="0 0 220 220" fill="none" xmlns="http://www.w3.org/2000/svg">
<path d="M100.946 7.14356C106.255 2.95459 113.745 2.95459 119.054 7.14356C123.05 10.2963 128.399 11.1434 133.173 9.3798C139.517 7.03654 146.64 9.35098 150.395 14.9756C153.222 19.2089 158.046 21.6673 163.132 21.4654C169.89 21.1973 175.949 25.5996 177.783 32.1093C179.162 37.0088 182.991 40.8378 187.891 42.2175C194.4 44.0506 198.803 50.1099 198.535 56.8675C198.333 61.9535 200.791 66.7783 205.024 69.6045C210.649 73.3596 212.963 80.4827 210.62 86.8267C208.857 91.6014 209.704 96.9497 212.856 100.946C217.045 106.255 217.045 113.745 212.856 119.054C209.704 123.05 208.857 128.399 210.62 133.173C212.963 139.517 210.649 146.64 205.024 150.395C200.791 153.222 198.333 158.046 198.535 163.132C198.803 169.89 194.4 175.949 187.891 177.783C182.991 179.162 179.162 182.991 177.783 187.891C175.949 194.4 169.89 198.803 163.132 198.535C158.046 198.333 153.222 200.791 150.395 205.024C146.64 210.649 139.517 212.963 133.173 210.62C128.399 208.857 123.05 209.704 119.054 212.856C113.745 217.045 106.255 217.045 100.946 212.856C96.9497 209.704 91.6014 208.857 86.8267 210.62C80.4827 212.963 73.3596 210.649 69.6045 205.024C66.7783 200.791 61.9535 198.333 56.8675 198.535C50.1099 198.803 44.0506 194.4 42.2175 187.891C40.8378 182.991 37.0088 179.162 32.1093 177.783C25.5996 175.949 21.1973 169.89 21.4654 163.132C21.6673 158.046 19.2089 153.222 14.9756 150.395C9.35098 146.64 7.03654 139.517 9.3798 133.173C11.1434 128.399 10.2963 123.05 7.14356 119.054C2.95459 113.745 2.95459 106.255 7.14356 100.946C10.2963 96.9497 11.1434 91.6014 9.3798 86.8267C7.03654 80.4827 9.35098 73.3596 14.9756 69.6045C19.2089 66.7783 21.6673 61.9535 21.4654 56.8675C21.1973 50.1099 25.5996 44.0506 32.1093 42.2175C37.0088 40.8378 40.8378 37.0088 42.2175 32.1093C44.0506 25.5996 50.1099 21.1973 56.8675 21.4654C61.9535 21.6673 66.7783 19.2089 69.6045 14.9756C73.3596 9.35098 80.4827 7.03654 86.8267 9.3798C91.6014 11.1434 96.9497 10.2963 100.946 7.14356Z" fill="white"/>
<g clip-path="url(#clip0_845_29744)">
<path d="M109.5 100.305C108.512 100.305 107.713 99.5059 107.713 98.5181V86.4883C107.713 85.5005 108.512 84.7012 109.5 84.7012C110.488 84.7012 111.287 85.5005 111.287 86.4883V98.5181C111.287 99.5059 110.488 100.305 109.5 100.305Z" fill="#FABE2C"/>
<path d="M111.287 98.5181V86.4883C111.287 85.5005 110.488 84.7012 109.5 84.7012V100.305C110.488 100.305 111.287 99.5059 111.287 98.5181Z" fill="#FF9100"/>
<path d="M139.096 73.9557C138.722 73.6643 138.247 73.5491 137.773 73.5945C135.953 73.8286 134.089 74.694 132.536 76.0486C132.463 75.4585 132.327 74.8575 132.203 74.2633C133.948 73.4136 135.3 72.0384 135.999 70.3117C136.994 67.9172 136.68 64.9643 135.176 62.6065C134.335 61.2819 133.434 60.0707 132.502 59.0078C131.849 58.2644 130.722 58.1911 129.982 58.8403C128.369 60.2523 127.28 62.3011 126.834 64.7828C126.46 67.001 126.677 69.0569 127.486 70.9086C131.237 79.1847 128.9 89.5279 120.17 95.3592C119.099 96.0276 118.436 97.2371 118.436 98.5181C118.436 99.5059 119.284 100.227 120.272 100.227C121.259 100.227 122.108 99.3489 122.108 98.3611C122.239 98.2739 122.359 98.1885 122.488 98.1015C123.917 99.3576 125.656 100.047 127.528 100.049H127.588C131.972 100.049 134.843 96.4534 136.677 92.4553C137.082 91.5774 136.712 90.539 135.849 90.1096C134.217 89.2993 132.37 89.0631 130.244 89.3227C130.521 88.7714 130.771 88.2155 130.996 87.6498C131.339 87.6937 131.682 87.736 132.021 87.736C133.542 87.736 135.008 87.2962 136.3 86.4288C138.432 84.9855 139.916 82.3658 139.975 79.6381C140.042 78.2594 139.975 76.7916 139.773 75.1494C139.713 74.6764 139.473 74.2471 139.096 73.9557Z" fill="#FF9100"/>
<path d="M98.3655 95.0398C89.8824 89.0123 88.0601 78.7058 91.6255 70.7427L91.6069 70.7338C92.356 68.9451 92.5608 66.9456 92.1944 64.7653C91.7546 62.3062 90.669 60.2574 89.0495 58.8403C88.3095 58.1911 87.1821 58.2644 86.5295 59.0078C85.5975 60.0707 84.697 61.2819 83.8558 62.6047C82.3514 64.9659 82.0373 67.9206 83.0286 70.2924C83.7266 72.0304 85.0788 73.4088 86.8215 74.2601C86.6999 74.8596 86.5871 75.4573 86.5135 76.0651C84.9526 74.699 83.0517 73.8291 81.2271 73.5942C80.7594 73.5506 80.2812 73.664 79.9042 73.9555C79.5271 74.2469 79.2828 74.6779 79.227 75.1492C79.028 76.7723 78.9616 78.2418 79.021 79.6083C79.0978 82.4355 80.634 85.0657 82.7527 86.4426C83.9918 87.2994 85.4578 87.7375 86.9936 87.7375C87.3562 87.7375 87.7236 87.6943 88.0912 87.6452C88.3154 88.2006 88.5532 88.7475 88.8209 89.2842C87.2094 89.0711 85.1873 89.1223 83.21 90.104C82.7806 90.3169 82.456 90.6957 82.3059 91.1529C82.1558 91.6102 82.2012 92.1076 82.4211 92.5334C83.0424 93.7149 83.7789 95.0831 84.6865 96.3084C87.4249 100.301 92.8039 101.369 96.5363 98.1252C96.7503 98.2764 96.9513 98.4192 96.9868 98.4446L96.9902 98.5178C96.9902 99.5056 97.7896 100.305 98.7774 100.305C99.7651 100.305 100.564 99.5056 100.564 98.5178C100.564 96.5966 99.3462 95.7344 98.3655 95.0398Z" fill="#FABE2C"/>
<path d="M117.577 92.6959L109.5 88.5021L101.423 92.6959C100.826 93.0065 100.097 92.9524 99.5488 92.5545C99.0009 92.1565 98.725 91.4847 98.8367 90.8162L100.327 81.8405L93.8454 75.4547C93.3637 74.9782 93.1892 74.2714 93.3986 73.6292C93.6081 72.9853 94.163 72.5141 94.8332 72.4128L103.79 71.0638L107.87 62.0392C108.449 60.7617 110.551 60.7617 111.13 62.0392L115.21 71.0638L124.167 72.4128C124.837 72.5141 125.392 72.9853 125.602 73.6292C125.811 74.2715 125.636 74.9782 125.155 75.4547L118.673 81.8405L120.163 90.8162C120.275 91.4846 119.999 92.1565 119.451 92.5545C118.901 92.9563 118.171 93.0052 117.577 92.6959Z" fill="#FED843"/>
<path d="M120.223 96.731H98.7773C97.7764 96.731 96.9902 97.5172 96.9902 98.5181V112.815H122.01V98.5181C122.01 97.5172 121.224 96.731 120.223 96.731Z" fill="#646D73"/>
<path d="M120.223 96.731H109.5V112.815H122.01V98.5181C122.01 97.5172 121.224 96.731 120.223 96.731Z" fill="#474F54"/>
<path d="M117.577 92.6959C118.171 93.005 118.901 92.9563 119.451 92.5544C119.999 92.1565 120.275 91.4847 120.163 90.8162L118.673 81.8405L125.155 75.4547C125.636 74.9782 125.811 74.2714 125.601 73.6292C125.392 72.9852 124.837 72.514 124.167 72.4128L115.21 71.0637L111.13 62.0392C110.84 61.4005 110.17 61.0811 109.5 61.0811V88.502L117.577 92.6959Z" fill="#FABE2C"/>
<path d="M123.797 114.602H95.2031C94.2153 114.602 93.416 113.803 93.416 112.815C93.416 111.827 94.2153 111.028 95.2031 111.028H123.797C124.785 111.028 125.584 111.827 125.584 112.815C125.584 113.803 124.785 114.602 123.797 114.602Z" fill="#474F54"/>
<path d="M123.797 111.028H109.5V114.602H123.797C124.785 114.602 125.584 113.803 125.584 112.815C125.584 111.827 124.785 111.028 123.797 111.028Z" fill="#32393F"/>
<path d="M113.074 107.454H105.926C104.938 107.454 104.139 106.654 104.139 105.667C104.139 104.679 104.938 103.879 105.926 103.879H113.074C114.062 103.879 114.861 104.679 114.861 105.667C114.861 106.654 114.062 107.454 113.074 107.454Z" fill="#FED843"/>
<path d="M113.074 103.879H109.5V107.454H113.074C114.062 107.454 114.861 106.654 114.861 105.667C114.861 104.679 114.062 103.879 113.074 103.879Z" fill="#FABE2C"/>
</g>
<path d="M90.7113 142.192C89.6446 142.192 88.7166 141.957 87.9273 141.488C87.138 141.008 86.5246 140.341 86.0873 139.488C85.65 138.624 85.4313 137.621 85.4313 136.48C85.4313 135.328 85.6553 134.315 86.1033 133.44C86.5513 132.555 87.1966 131.861 88.0393 131.36C88.882 130.859 89.89 130.608 91.0633 130.608C92.3753 130.608 93.4633 130.923 94.3273 131.552C95.202 132.181 95.7673 133.056 96.0233 134.176H93.6073C93.4473 133.685 93.1486 133.301 92.7113 133.024C92.2846 132.736 91.73 132.592 91.0473 132.592C90.322 132.592 89.7033 132.752 89.1913 133.072C88.6793 133.392 88.29 133.84 88.0233 134.416C87.7566 134.992 87.6233 135.68 87.6233 136.48C87.6233 137.291 87.7566 137.979 88.0233 138.544C88.29 139.109 88.6686 139.541 89.1593 139.84C89.6606 140.128 90.2473 140.272 90.9193 140.272C91.9006 140.272 92.642 140.011 93.1433 139.488C93.6553 138.955 93.9593 138.267 94.0553 137.424H91.3033V135.808H96.2313V142H94.2313L94.0713 140.576C93.8366 140.928 93.5593 141.227 93.2393 141.472C92.93 141.707 92.5673 141.883 92.1513 142C91.7353 142.128 91.2553 142.192 90.7113 142.192ZM98.2044 142V130.48H100.364V142H98.2044ZM106.278 142.192C105.51 142.192 104.817 142.016 104.198 141.664C103.59 141.301 103.105 140.805 102.742 140.176C102.39 139.536 102.214 138.805 102.214 137.984C102.214 137.141 102.39 136.405 102.742 135.776C103.105 135.136 103.595 134.64 104.214 134.288C104.833 133.925 105.526 133.744 106.294 133.744C107.073 133.744 107.766 133.925 108.374 134.288C108.993 134.64 109.478 135.136 109.83 135.776C110.193 136.405 110.374 137.136 110.374 137.968C110.374 138.8 110.193 139.536 109.83 140.176C109.478 140.805 108.993 141.301 108.374 141.664C107.755 142.016 107.057 142.192 106.278 142.192ZM106.278 140.32C106.641 140.32 106.961 140.235 107.238 140.064C107.526 139.893 107.75 139.632 107.91 139.28C108.081 138.928 108.166 138.491 108.166 137.968C108.166 137.445 108.081 137.013 107.91 136.672C107.75 136.32 107.526 136.059 107.238 135.888C106.961 135.707 106.646 135.616 106.294 135.616C105.953 135.616 105.638 135.707 105.35 135.888C105.062 136.059 104.833 136.32 104.662 136.672C104.502 137.013 104.422 137.445 104.422 137.968C104.422 138.491 104.502 138.928 104.662 139.28C104.833 139.632 105.057 139.893 105.334 140.064C105.622 140.235 105.937 140.32 106.278 140.32ZM117.004 142.192C116.588 142.192 116.214 142.139 115.884 142.032C115.564 141.925 115.276 141.781 115.02 141.6C114.774 141.408 114.566 141.195 114.396 140.96L114.156 142H112.236V130.48H114.396V135.056C114.652 134.683 114.988 134.373 115.404 134.128C115.83 133.872 116.358 133.744 116.988 133.744C117.734 133.744 118.396 133.931 118.972 134.304C119.558 134.667 120.017 135.168 120.348 135.808C120.689 136.437 120.86 137.163 120.86 137.984C120.86 138.784 120.689 139.504 120.348 140.144C120.017 140.784 119.564 141.285 118.988 141.648C118.412 142.011 117.75 142.192 117.004 142.192ZM116.492 140.304C116.918 140.304 117.292 140.208 117.612 140.016C117.942 139.813 118.198 139.541 118.38 139.2C118.561 138.848 118.652 138.443 118.652 137.984C118.652 137.525 118.561 137.12 118.38 136.768C118.198 136.405 117.942 136.128 117.612 135.936C117.292 135.733 116.918 135.632 116.492 135.632C116.076 135.632 115.702 135.733 115.372 135.936C115.052 136.128 114.796 136.4 114.604 136.752C114.422 137.104 114.332 137.509 114.332 137.968C114.332 138.427 114.422 138.837 114.604 139.2C114.796 139.552 115.052 139.824 115.372 140.016C115.702 140.208 116.076 140.304 116.492 140.304ZM125.44 142.192C124.768 142.192 124.213 142.085 123.776 141.872C123.339 141.648 123.013 141.355 122.8 140.992C122.597 140.619 122.496 140.208 122.496 139.76C122.496 139.269 122.619 138.837 122.864 138.464C123.12 138.091 123.499 137.797 124 137.584C124.512 137.371 125.152 137.264 125.92 137.264H127.92C127.92 136.869 127.867 136.544 127.76 136.288C127.653 136.021 127.488 135.824 127.264 135.696C127.04 135.568 126.741 135.504 126.368 135.504C125.963 135.504 125.616 135.595 125.328 135.776C125.051 135.947 124.88 136.213 124.816 136.576H122.72C122.773 136 122.96 135.504 123.28 135.088C123.611 134.661 124.043 134.331 124.576 134.096C125.12 133.861 125.723 133.744 126.384 133.744C127.141 133.744 127.797 133.872 128.352 134.128C128.907 134.384 129.333 134.752 129.632 135.232C129.931 135.712 130.08 136.304 130.08 137.008V142H128.256L128.016 140.768C127.899 140.981 127.76 141.173 127.6 141.344C127.44 141.515 127.253 141.664 127.04 141.792C126.827 141.92 126.587 142.016 126.32 142.08C126.053 142.155 125.76 142.192 125.44 142.192ZM125.952 140.528C126.229 140.528 126.475 140.48 126.688 140.384C126.912 140.277 127.104 140.139 127.264 139.968C127.424 139.787 127.547 139.584 127.632 139.36C127.728 139.125 127.792 138.875 127.824 138.608V138.592H126.176C125.845 138.592 125.573 138.635 125.36 138.72C125.157 138.795 125.008 138.907 124.912 139.056C124.816 139.205 124.768 139.376 124.768 139.568C124.768 139.781 124.816 139.957 124.912 140.096C125.008 140.235 125.147 140.341 125.328 140.416C125.509 140.491 125.717 140.528 125.952 140.528ZM132.095 142V130.48H134.255V142H132.095ZM63.7895 165L67.8855 153.8H70.3335L74.4135 165H72.1255L69.1015 156.264L66.0615 165H63.7895ZM65.5975 162.456L66.1735 160.776H71.8695L72.4295 162.456H65.5975ZM76.8744 165L74.5064 156.936H76.6344L78.2024 163.48L77.8024 163.464L79.5944 156.936H81.9944L83.7864 163.464L83.3704 163.48L84.9544 156.936H87.0824L84.7144 165H82.4744L80.5704 158.28H81.0184L79.1144 165H76.8744ZM90.7291 165.192C90.0571 165.192 89.5025 165.085 89.0651 164.872C88.6278 164.648 88.3025 164.355 88.0891 163.992C87.8865 163.619 87.7851 163.208 87.7851 162.76C87.7851 162.269 87.9078 161.837 88.1531 161.464C88.4091 161.091 88.7878 160.797 89.2891 160.584C89.8011 160.371 90.4411 160.264 91.2091 160.264H93.2091C93.2091 159.869 93.1558 159.544 93.0491 159.288C92.9425 159.021 92.7771 158.824 92.5531 158.696C92.3291 158.568 92.0305 158.504 91.6571 158.504C91.2518 158.504 90.9051 158.595 90.6171 158.776C90.3398 158.947 90.1691 159.213 90.1051 159.576H88.0091C88.0625 159 88.2491 158.504 88.5691 158.088C88.8998 157.661 89.3318 157.331 89.8651 157.096C90.4091 156.861 91.0118 156.744 91.6731 156.744C92.4305 156.744 93.0865 156.872 93.6411 157.128C94.1958 157.384 94.6225 157.752 94.9211 158.232C95.2198 158.712 95.3691 159.304 95.3691 160.008V165H93.5451L93.3051 163.768C93.1878 163.981 93.0491 164.173 92.8891 164.344C92.7291 164.515 92.5425 164.664 92.3291 164.792C92.1158 164.92 91.8758 165.016 91.6091 165.08C91.3425 165.155 91.0491 165.192 90.7291 165.192ZM91.2411 163.528C91.5185 163.528 91.7638 163.48 91.9771 163.384C92.2011 163.277 92.3931 163.139 92.5531 162.968C92.7131 162.787 92.8358 162.584 92.9211 162.36C93.0171 162.125 93.0811 161.875 93.1131 161.608V161.592H91.4651C91.1345 161.592 90.8625 161.635 90.6491 161.72C90.4465 161.795 90.2971 161.907 90.2011 162.056C90.1051 162.205 90.0571 162.376 90.0571 162.568C90.0571 162.781 90.1051 162.957 90.2011 163.096C90.2971 163.235 90.4358 163.341 90.6171 163.416C90.7985 163.491 91.0065 163.528 91.2411 163.528ZM97.3841 165V156.936H99.3041L99.5121 158.424C99.7041 158.072 99.9441 157.773 100.232 157.528C100.531 157.283 100.867 157.091 101.24 156.952C101.624 156.813 102.045 156.744 102.504 156.744V159.032H101.768C101.448 159.032 101.149 159.069 100.872 159.144C100.605 159.219 100.371 159.341 100.168 159.512C99.9655 159.672 99.8108 159.896 99.7041 160.184C99.5975 160.472 99.5441 160.835 99.5441 161.272V165H97.3841ZM107.39 165.192C106.654 165.192 105.993 165.011 105.406 164.648C104.83 164.285 104.377 163.784 104.046 163.144C103.715 162.504 103.55 161.784 103.55 160.984C103.55 160.163 103.715 159.437 104.046 158.808C104.387 158.168 104.851 157.667 105.438 157.304C106.035 156.931 106.702 156.744 107.438 156.744C108.014 156.744 108.521 156.851 108.958 157.064C109.395 157.277 109.747 157.581 110.014 157.976V153.48H112.174V165H110.254L110.014 163.896C109.854 164.12 109.651 164.333 109.406 164.536C109.171 164.739 108.889 164.899 108.558 165.016C108.227 165.133 107.838 165.192 107.39 165.192ZM107.902 163.304C108.329 163.304 108.702 163.208 109.022 163.016C109.353 162.813 109.609 162.536 109.79 162.184C109.971 161.832 110.062 161.427 110.062 160.968C110.062 160.509 109.971 160.104 109.79 159.752C109.609 159.4 109.353 159.128 109.022 158.936C108.702 158.733 108.329 158.632 107.902 158.632C107.497 158.632 107.129 158.733 106.798 158.936C106.467 159.128 106.206 159.4 106.014 159.752C105.833 160.104 105.742 160.504 105.742 160.952C105.742 161.421 105.833 161.832 106.014 162.184C106.206 162.536 106.462 162.813 106.782 163.016C107.113 163.208 107.486 163.304 107.902 163.304ZM117.8 165V163.416C118.483 162.872 119.144 162.328 119.784 161.784C120.435 161.24 121.016 160.701 121.528 160.168C122.04 159.624 122.445 159.096 122.744 158.584C123.043 158.072 123.192 157.576 123.192 157.096C123.192 156.797 123.139 156.525 123.032 156.28C122.925 156.024 122.755 155.821 122.52 155.672C122.296 155.512 121.997 155.432 121.624 155.432C121.251 155.432 120.936 155.517 120.68 155.688C120.424 155.859 120.232 156.088 120.104 156.376C119.976 156.653 119.912 156.968 119.912 157.32H117.816C117.848 156.499 118.035 155.811 118.376 155.256C118.717 154.701 119.176 154.291 119.752 154.024C120.328 153.747 120.973 153.608 121.688 153.608C122.477 153.608 123.144 153.757 123.688 154.056C124.232 154.344 124.643 154.739 124.92 155.24C125.208 155.741 125.352 156.317 125.352 156.968C125.352 157.459 125.261 157.939 125.08 158.408C124.909 158.877 124.664 159.336 124.344 159.784C124.035 160.221 123.683 160.643 123.288 161.048C122.893 161.453 122.483 161.843 122.056 162.216C121.629 162.579 121.213 162.92 120.808 163.24H125.624V165H117.8ZM131.804 165.192C130.791 165.192 129.916 164.947 129.18 164.456C128.444 163.965 127.879 163.288 127.484 162.424C127.1 161.549 126.908 160.541 126.908 159.4C126.908 158.259 127.1 157.256 127.484 156.392C127.879 155.517 128.439 154.835 129.164 154.344C129.9 153.853 130.78 153.608 131.804 153.608C132.828 153.608 133.703 153.853 134.428 154.344C135.164 154.835 135.724 155.517 136.108 156.392C136.503 157.256 136.7 158.259 136.7 159.4C136.7 160.541 136.503 161.549 136.108 162.424C135.724 163.288 135.164 163.965 134.428 164.456C133.703 164.947 132.828 165.192 131.804 165.192ZM131.804 163.256C132.337 163.256 132.807 163.101 133.212 162.792C133.617 162.472 133.932 162.024 134.156 161.448C134.391 160.872 134.508 160.189 134.508 159.4C134.508 158.6 134.391 157.917 134.156 157.352C133.932 156.776 133.617 156.333 133.212 156.024C132.807 155.715 132.337 155.56 131.804 155.56C131.271 155.56 130.801 155.715 130.396 156.024C129.991 156.333 129.671 156.776 129.436 157.352C129.212 157.917 129.1 158.6 129.1 159.4C129.1 160.189 129.212 160.872 129.436 161.448C129.671 162.024 129.991 162.472 130.396 162.792C130.801 163.101 131.271 163.256 131.804 163.256ZM138.175 165V163.416C138.858 162.872 139.519 162.328 140.159 161.784C140.81 161.24 141.391 160.701 141.903 160.168C142.415 159.624 142.82 159.096 143.119 158.584C143.418 158.072 143.567 157.576 143.567 157.096C143.567 156.797 143.514 156.525 143.407 156.28C143.3 156.024 143.13 155.821 142.895 155.672C142.671 155.512 142.372 155.432 141.999 155.432C141.626 155.432 141.311 155.517 141.055 155.688C140.799 155.859 140.607 156.088 140.479 156.376C140.351 156.653 140.287 156.968 140.287 157.32H138.191C138.223 156.499 138.41 155.811 138.751 155.256C139.092 154.701 139.551 154.291 140.127 154.024C140.703 153.747 141.348 153.608 142.063 153.608C142.852 153.608 143.519 153.757 144.063 154.056C144.607 154.344 145.018 154.739 145.295 155.24C145.583 155.741 145.727 156.317 145.727 156.968C145.727 157.459 145.636 157.939 145.455 158.408C145.284 158.877 145.039 159.336 144.719 159.784C144.41 160.221 144.058 160.643 143.663 161.048C143.268 161.453 142.858 161.843 142.431 162.216C142.004 162.579 141.588 162.92 141.183 163.24H145.999V165H138.175ZM151.713 165.192C150.903 165.192 150.199 165.048 149.601 164.76C149.015 164.472 148.556 164.077 148.225 163.576C147.895 163.075 147.703 162.504 147.649 161.864H149.761C149.836 162.28 150.049 162.632 150.401 162.92C150.753 163.208 151.196 163.352 151.729 163.352C152.113 163.352 152.449 163.256 152.737 163.064C153.025 162.872 153.249 162.616 153.409 162.296C153.569 161.965 153.649 161.592 153.649 161.176C153.649 160.749 153.564 160.381 153.393 160.072C153.233 159.763 153.009 159.523 152.721 159.352C152.444 159.181 152.124 159.096 151.761 159.096C151.303 159.096 150.908 159.208 150.577 159.432C150.257 159.645 150.028 159.907 149.889 160.216H147.793L148.721 153.8H155.009V155.688H150.321L149.857 158.184C150.092 157.939 150.407 157.741 150.801 157.592C151.196 157.432 151.639 157.352 152.129 157.352C152.737 157.352 153.265 157.459 153.713 157.672C154.161 157.875 154.535 158.157 154.833 158.52C155.132 158.872 155.356 159.277 155.505 159.736C155.655 160.184 155.729 160.659 155.729 161.16C155.729 161.747 155.628 162.285 155.425 162.776C155.233 163.267 154.956 163.693 154.593 164.056C154.241 164.419 153.82 164.701 153.329 164.904C152.849 165.096 152.311 165.192 151.713 165.192Z" fill="#003566"/>
<defs>
<clipPath id="clip0_845_29744">
<rect width="61" height="61" fill="white" transform="translate(79 56)"/>
</clipPath>
</defs>
</svg>
