<svg width="64" height="64" viewBox="0 0 64 64" fill="none" xmlns="http://www.w3.org/2000/svg">
<path d="M24.0989 62.474C23.4709 62.474 22.8349 62.388 22.1949 62.18C19.7569 61.388 18.3979 59.285 17.1979 57.43C16.5639 56.451 15.9089 55.437 15.2949 54.991C14.6649 54.532 13.4859 54.216 12.3459 53.91C10.2259 53.342 7.8229 52.698 6.3339 50.65C4.8569 48.622 4.9819 46.15 5.0929 43.968C5.1529 42.778 5.2149 41.547 4.9669 40.783C4.7419 40.089 3.9929 39.169 3.2699 38.28C1.9359 36.64 0.274902 34.6 0.274902 31.999C0.274902 29.398 1.9349 27.358 3.2689 25.719C3.9929 24.83 4.7419 23.91 4.9669 23.216C5.2149 22.451 5.1529 21.221 5.0929 20.03C4.9829 17.849 4.8579 15.376 6.3339 13.347C7.8229 11.301 10.2259 10.657 12.3449 10.088C13.4859 9.78203 14.6649 9.46603 15.2959 9.00703C15.9099 8.56003 16.5659 7.54703 17.1989 6.56803C18.3989 4.71303 19.7579 2.61003 22.1949 1.81903C24.5459 1.05603 26.8389 1.93003 28.8619 2.70303C29.9929 3.13503 31.1639 3.58303 31.9999 3.58303C32.8359 3.58303 34.0069 3.13603 35.1399 2.70403C37.1619 1.93203 39.4529 1.05803 41.8059 1.82003C44.2439 2.61103 45.6029 4.71403 46.8019 6.57003C47.4359 7.55003 48.0909 8.56303 48.7039 9.00903C49.3359 9.46803 50.5149 9.78403 51.6549 10.09C53.7739 10.658 56.1759 11.302 57.6669 13.349C59.1439 15.379 59.0189 17.85 58.9069 20.032C58.8469 21.222 58.7849 22.453 59.0329 23.217C59.2589 23.911 60.0069 24.831 60.7299 25.72C62.0649 27.359 63.7249 29.399 63.7249 32.001C63.7249 34.604 62.0639 36.644 60.7299 38.282C60.0059 39.172 59.2579 40.091 59.0329 40.785C58.7849 41.549 58.8469 42.779 58.9069 43.97C59.0179 46.152 59.1429 48.623 57.6669 50.653C56.1769 52.7 53.7739 53.343 51.6549 53.912C50.5139 54.218 49.3349 54.534 48.7039 54.993C48.0909 55.44 47.4349 56.453 46.8019 57.432C45.6029 59.287 44.2419 61.39 41.8059 62.182C39.4559 62.946 37.1619 62.071 35.1399 61.298C34.0079 60.865 32.8369 60.418 31.9999 60.418C31.1639 60.418 29.9929 60.865 28.8609 61.298C27.3899 61.858 25.7749 62.474 24.0989 62.474ZM24.1079 6.52503C23.9679 6.52503 23.8439 6.54103 23.7379 6.57503C22.9909 6.81703 22.1439 8.12703 21.3969 9.28303C20.5149 10.647 19.6039 12.057 18.2369 13.051C16.8559 14.056 15.1469 14.514 13.6389 14.919C12.3199 15.273 10.8249 15.673 10.3759 16.291C9.9389 16.891 10.0169 18.425 10.0849 19.779C10.1639 21.345 10.2539 23.12 9.7209 24.761C9.2069 26.343 8.1589 27.631 7.1449 28.876C6.2249 30.007 5.2729 31.176 5.2729 32C5.2729 32.824 6.2249 33.994 7.1459 35.125C8.1589 36.37 9.2079 37.657 9.7209 39.24C10.2539 40.88 10.1639 42.655 10.0849 44.221C10.0159 45.575 9.9389 47.108 10.3749 47.707C10.8249 48.325 12.3199 48.727 13.6399 49.08C15.1469 49.484 16.8549 49.942 18.2369 50.947C19.6029 51.941 20.5149 53.351 21.3959 54.715C22.1439 55.871 22.9909 57.182 23.7379 57.424C24.4079 57.642 25.8259 57.102 27.0759 56.625C28.5589 56.058 30.2409 55.416 31.9989 55.416C33.7569 55.416 35.4389 56.059 36.9229 56.625C38.1729 57.102 39.5839 57.638 40.2609 57.424C41.0079 57.182 41.8549 55.871 42.6019 54.715C43.4839 53.352 44.3959 51.942 45.7609 50.947C47.1439 49.942 48.8519 49.484 50.3599 49.08C51.6789 48.726 53.1739 48.325 53.6239 47.708C54.0609 47.109 53.9819 45.575 53.9139 44.221C53.8349 42.655 53.7449 40.879 54.2769 39.239C54.7919 37.657 55.8399 36.37 56.8519 35.125C57.7729 33.994 58.7249 32.824 58.7249 32C58.7249 31.176 57.7729 30.006 56.8529 28.875C55.8389 27.63 54.7909 26.342 54.2769 24.76C53.7449 23.119 53.8349 21.344 53.9139 19.777C53.9819 18.424 54.0599 16.89 53.6239 16.29C53.1749 15.673 51.6799 15.272 50.3599 14.919C48.8529 14.515 47.1439 14.057 45.7619 13.051C44.3959 12.057 43.4849 10.647 42.6029 9.28303C41.8559 8.12703 41.0079 6.81703 40.2609 6.57503C39.5869 6.35703 38.1719 6.89703 36.9229 7.37403C35.4399 7.94103 33.7589 8.58303 31.9999 8.58303C30.2409 8.58303 28.5599 7.94103 27.0769 7.37503C26.0239 6.97203 24.8539 6.52503 24.1079 6.52503Z" fill="white"/>
<path d="M32 49.5711C22.311 49.5711 14.429 41.6881 14.429 32.0001C14.429 22.3111 22.311 14.4291 32 14.4291C41.688 14.4291 49.571 22.3111 49.571 32.0001C49.571 41.6881 41.688 49.5711 32 49.5711ZM32 19.4291C25.068 19.4291 19.429 25.0691 19.429 32.0001C19.429 38.9311 25.068 44.5711 32 44.5711C38.932 44.5711 44.571 38.9321 44.571 32.0001C44.571 25.0681 38.932 19.4291 32 19.4291Z" fill="white"/>
<path d="M29.875 38.1291C29.235 38.1291 28.596 37.8851 28.107 37.3971L25.098 34.3891C24.121 33.4121 24.121 31.8301 25.098 30.8531C26.075 29.8761 27.657 29.8771 28.634 30.8531L29.875 32.0941L35.366 26.6031C36.343 25.6271 37.925 25.6271 38.901 26.6031C39.878 27.5791 39.878 29.1621 38.901 30.1391L31.642 37.3971C31.155 37.8851 30.515 38.1291 29.875 38.1291Z" fill="white"/>
</svg>
