<svg width="54" height="54" viewBox="0 0 54 54" fill="none" xmlns="http://www.w3.org/2000/svg">
<path d="M36.8354 33.1833H32.9666V29.3145C32.9666 29.1131 32.8866 28.9199 32.7442 28.7775C32.6017 28.6351 32.4086 28.5551 32.2072 28.5551H26.4215C26.2201 28.5551 26.0269 28.6351 25.8845 28.7775C25.7421 28.9199 25.6621 29.1131 25.6621 29.3145V33.1833H21.7926C21.5912 33.1833 21.398 33.2633 21.2556 33.4057C21.1132 33.5481 21.0332 33.7413 21.0332 33.9427V39.7284C21.0332 39.9298 21.1132 40.1229 21.2556 40.2653C21.398 40.4077 21.5912 40.4877 21.7926 40.4877H25.6621V44.3573C25.6621 44.5587 25.7421 44.7518 25.8845 44.8942C26.0269 45.0367 26.2201 45.1167 26.4215 45.1167H32.2072C32.4086 45.1167 32.6017 45.0367 32.7442 44.8942C32.8866 44.7518 32.9666 44.5587 32.9666 44.3573V40.4877H36.8354C37.0368 40.4877 37.2299 40.4077 37.3723 40.2653C37.5147 40.1229 37.5947 39.9298 37.5947 39.7284V33.9427C37.5947 33.7413 37.5147 33.5481 37.3723 33.4057C37.2299 33.2633 37.0368 33.1833 36.8354 33.1833ZM36.076 38.969H32.2072C32.0058 38.969 31.8126 39.049 31.6702 39.1914C31.5278 39.3338 31.4478 39.527 31.4478 39.7284V43.5979H27.1809V39.7284C27.1809 39.527 27.1009 39.3338 26.9585 39.1914C26.816 39.049 26.6229 38.969 26.4215 38.969H22.552V34.702H26.4215C26.6229 34.702 26.816 34.622 26.9585 34.4796C27.1009 34.3372 27.1809 34.1441 27.1809 33.9427V30.0739H31.4478V33.9427C31.4478 34.1441 31.5278 34.3372 31.6702 34.4796C31.8126 34.622 32.0058 34.702 32.2072 34.702H36.076V38.969Z" fill="white"/>
<path d="M46.6709 12.3546C45.5017 12.4348 37.9715 12.1379 37.0163 12.5856V4.81717C37.0156 4.05454 36.7123 3.32334 36.1731 2.78405C35.6338 2.24476 34.9027 1.94142 34.14 1.94061H9.6425C9.44248 1.94948 9.25201 2.02862 9.10461 2.1641L2.16392 9.10479C2.02839 9.25217 1.94925 9.44266 1.94043 9.64268V44.5539C1.94116 45.3166 2.24445 46.0478 2.78376 46.5871C3.32306 47.1264 4.0543 47.4297 4.81698 47.4304H6.62925C6.81263 48.7135 7.45208 49.8876 8.43048 50.7377C9.40889 51.5878 10.6608 52.057 11.9569 52.0594H46.6709C48.0994 52.0576 49.4689 51.4894 50.4791 50.4793C51.4892 49.4691 52.0574 48.0996 52.0592 46.6711V17.7429C52.0574 16.3144 51.4892 14.9448 50.4791 13.9347C49.4689 12.9246 48.0994 12.3563 46.6709 12.3546ZM8.88312 4.53314V8.8833H4.53296L8.88312 4.53314ZM3.45918 44.5539V10.4021H9.6425C9.84389 10.4021 10.037 10.322 10.1795 10.1796C10.3219 10.0372 10.4019 9.84408 10.4019 9.64268V3.45936H34.14C34.5 3.4597 34.8452 3.60286 35.0998 3.85742C35.3543 4.11199 35.4975 4.45716 35.4978 4.81717V13.3236C34.7842 13.8189 34.2009 14.4795 33.7979 15.249C33.3949 16.0185 33.1841 16.8741 33.1834 17.7428V20.4547H11.9569C10.5284 20.4565 9.15901 21.0247 8.14901 22.0349C7.139 23.045 6.57091 24.4145 6.56935 25.843V45.9116H4.81698C4.45699 45.9113 4.11184 45.7681 3.85728 45.5136C3.60272 45.259 3.45954 44.9139 3.45918 44.5539ZM50.5404 46.6711C50.5392 47.697 50.1312 48.6805 49.4057 49.4059C48.6803 50.1313 47.6968 50.5394 46.6709 50.5406H11.9569C10.9311 50.5394 9.94764 50.1313 9.22234 49.4058C8.49704 48.6804 8.08913 47.6969 8.0881 46.6711V25.8431C8.08913 24.8173 8.49704 23.8338 9.22234 23.1083C9.94764 22.3829 10.9311 21.9748 11.9569 21.9736H40.8858C41.8729 21.9659 41.8915 20.4684 40.8858 20.4548H34.7019V17.7429C34.7031 16.717 35.1111 15.7335 35.8366 15.008C36.562 14.2826 37.5455 13.8745 38.5714 13.8733H46.6714C47.6972 13.8747 48.6806 14.2828 49.4059 15.0082C50.1312 15.7336 50.5392 16.7171 50.5404 17.7429V46.6711Z" fill="white"/>
<path d="M14.2718 8.08827H31.658C32.6456 8.08542 32.6555 6.57353 31.658 6.56952H14.2718C13.2842 6.57247 13.2742 8.08426 14.2718 8.08827Z" fill="white"/>
<path d="M14.2718 12.7164H31.658C32.6456 12.7136 32.6555 11.2017 31.658 11.1977H14.2718C13.2842 11.2008 13.2742 12.7124 14.2718 12.7164Z" fill="white"/>
<path d="M7.32826 17.3454H29.3139C30.2997 17.3427 30.3126 15.8306 29.3139 15.8266H7.32826C6.34234 15.8292 6.32947 17.3413 7.32826 17.3454Z" fill="white"/>
</svg>
