<svg width="54" height="54" viewBox="0 0 54 54" fill="none" xmlns="http://www.w3.org/2000/svg">
<path d="M41.0906 13.6688L37.5469 10.5469L41.2594 4.64065C41.5125 4.21877 41.3437 3.71252 41.0062 3.4594C40.5844 3.20627 40.0781 3.37502 39.825 3.71252L36.2812 9.45002L34.3406 7.76252C34.1719 7.67815 33.9187 7.59377 33.75 7.59377H10.125C9.95625 7.59377 9.70312 7.67815 9.53437 7.76252L2.78437 13.6688C2.61562 13.9219 2.53125 14.0906 2.53125 14.3438V48.0938C2.53125 48.6 2.86875 48.9375 3.375 48.9375H23.4562C23.4562 49.275 23.5406 49.5282 23.7094 49.8657C23.9625 50.2032 24.3844 50.625 25.3969 50.625C26.1562 50.625 26.8312 50.3719 27.3375 50.0344C27.5906 50.3719 28.0969 50.625 29.025 50.625C29.7844 50.625 30.4594 50.3719 30.9656 50.0344C31.2187 50.3719 31.725 50.625 32.6531 50.625C34.2562 50.625 35.1844 49.6125 35.6906 48.9375H40.7531C41.2594 48.9375 41.5969 48.6 41.5969 48.0938V37.9688H42.1875C42.525 37.9688 42.7781 37.8 42.9469 37.5469L51.3844 23.2032C51.6375 22.7813 51.4687 22.275 51.0469 22.0219C50.625 21.7688 50.1187 21.9375 49.8656 22.3594L41.6812 36.2813C39.15 36.1969 35.2687 33.8344 34.6781 32.0625L50.5406 4.64065C50.7094 4.21877 50.625 3.71252 50.2031 3.4594C49.7812 3.29065 49.275 3.37502 49.0219 3.7969L41.3437 17.2125V14.3438C41.3437 14.0906 41.2594 13.9219 41.0906 13.6688ZM38.2219 13.5H29.1937L26.7469 9.28127H33.4125L38.2219 13.5ZM16.0312 15.1875H27.8437V23.9625L22.275 21.1782C22.0219 21.0938 21.7687 21.0938 21.5156 21.1782L16.0312 23.9625V15.1875ZM24.8062 9.28127L27.2531 13.5H16.6219L19.0687 9.28127H24.8062ZM10.4625 9.28127H17.1281L14.6812 13.5H5.65312L10.4625 9.28127ZM4.21875 15.1875H14.3437V25.3125C14.3437 25.5657 14.5125 25.9032 14.7656 26.0719C15.0187 26.2407 15.3562 26.2407 15.6094 26.0719L22.0219 22.8657L28.4344 26.0719C28.4344 26.1563 28.5187 26.1563 28.6875 26.1563C28.8562 26.1563 29.025 26.1563 29.1094 26.0719C29.3625 25.9032 29.5312 25.65 29.5312 25.3125V15.1875H39.6562V20.0813L32.9906 31.6407C32.8219 31.8938 32.8219 32.1469 32.9906 32.4C33.1594 32.7375 33.3281 33.075 33.4969 33.3282L33.2437 33.75L28.6031 34.5938C28.2656 34.5938 27.3375 34.7625 26.4094 35.6907L23.0344 39.0657C22.7812 39.3188 22.6969 39.7407 22.8656 40.0782C23.3719 41.0907 24.7219 42.1875 26.4937 41.2594C26.4937 41.2594 26.5781 41.2594 26.5781 41.175L26.6625 41.0907L23.9625 47.25H4.21875V15.1875ZM32.4844 48.9375C32.2312 48.9375 32.0625 48.8532 32.0625 48.9375C32.0625 48.8532 32.0625 48.7688 32.1469 48.6C32.1469 48.5157 32.2312 48.5157 32.2312 48.5157L34.5937 44.2969C34.8469 43.875 34.6781 43.3688 34.2562 43.1157C33.8344 42.8625 33.3281 43.0313 33.075 43.4532L30.7969 47.5875L30.7125 47.6719C30.7125 47.6719 30.7125 47.7563 30.6281 47.8407C30.4594 48.1782 29.8687 48.9375 28.9406 48.9375C28.6875 48.9375 28.5187 48.8532 28.5187 48.9375C28.5187 48.8532 28.5187 48.6 28.6031 48.5157L31.1344 43.4532C31.3031 43.0313 31.1344 42.525 30.7969 42.3563C30.375 42.1875 29.8687 42.3563 29.7 42.6938L27.1687 47.7563C27.1687 47.7563 26.4937 49.0219 25.3969 49.0219C25.3125 49.0219 25.2281 49.0219 25.1437 49.0219C25.1437 48.9375 25.2281 48.6844 25.3125 48.5157L29.5312 39.2344C29.7 38.8969 29.6156 38.475 29.2781 38.2219C29.025 37.9688 28.6031 37.9688 28.2656 38.1375L25.8187 39.825C25.3969 39.9938 25.0594 39.9094 24.8062 39.825L27.675 36.9563C28.1812 36.2813 28.6875 36.2813 28.6875 36.2813H28.8562L33.9187 35.4375C34.1719 35.4375 34.3406 35.2688 34.5094 35.1L34.6781 34.8469C35.9437 36.1969 37.5469 37.2094 39.3187 37.6313L34.2562 47.7563C34.2562 47.7563 33.5812 48.9375 32.4844 48.9375ZM36.3656 47.25L39.6562 40.6688V47.25H36.3656Z" fill="white"/>
<path d="M8.4375 39.6562H12.6562C13.1625 39.6562 13.5 39.3188 13.5 38.8125C13.5 38.3062 13.1625 37.9688 12.6562 37.9688H8.4375C7.93125 37.9688 7.59375 38.3062 7.59375 38.8125C7.59375 39.3188 7.93125 39.6562 8.4375 39.6562Z" fill="white"/>
<path d="M15.1875 42.1875H8.4375C7.93125 42.1875 7.59375 42.525 7.59375 43.0312C7.59375 43.5375 7.93125 43.875 8.4375 43.875H15.1875C15.6938 43.875 16.0312 43.5375 16.0312 43.0312C16.0312 42.525 15.6938 42.1875 15.1875 42.1875Z" fill="white"/>
</svg>
