<svg width="54" height="54" viewBox="0 0 54 54" fill="none" xmlns="http://www.w3.org/2000/svg">
<path d="M14.0608 16.9001C13.7287 16.5714 13.1956 16.5755 12.8668 16.9059C5.38322 24.1677 5.3195 37.1591 12.7072 44.528C13.4754 45.3135 14.6859 44.1605 13.9231 43.3571C7.16552 36.6193 7.22272 24.7331 14.0667 18.0933C14.3945 17.762 14.3912 17.2281 14.0608 16.9001Z" fill="white"/>
<path d="M16.2369 14.1501C15.5741 14.5957 15.9463 15.708 16.7329 15.6769C16.9043 15.6769 17.0773 15.6246 17.2273 15.5163C18.4031 14.6639 19.3589 13.7093 20.0634 12.6851C21.4427 10.7179 21.8959 8.70982 21.4485 6.54648C21.3579 6.10468 21.214 5.67318 21.033 5.25073C21.6113 5.36773 22.1702 5.53433 22.7026 5.75711C27.5664 7.49692 30.0427 14.9821 30.4148 19.3046C30.8006 23.8658 34.94 27.2274 38.9976 27.2607C39.4588 27.2809 39.857 26.9192 39.875 26.4525C39.894 25.9869 39.5323 25.5939 39.0667 25.5749C35.7942 25.5677 32.3749 22.8068 32.0911 19.1058C31.4657 12.4642 27.4577 3.08243 19.2154 3.4263C18.6773 3.59233 18.4802 4.26935 18.797 4.72219C21.2535 7.91859 19.3803 12.0224 16.2369 14.1501Z" fill="white"/>
<path d="M40.1002 44.5503C40.4347 44.8736 40.9696 44.8635 41.2933 44.528C50.1662 35.5841 47.966 19.9453 37.0546 13.7089C35.7262 13.0852 35.5497 15.1442 35.3269 15.9418C34.999 17.5841 35.0229 19.2604 35.3986 20.9253C35.6679 22.0059 37.2693 21.6358 37.0449 20.5536C36.6813 18.9377 36.6984 17.3118 37.105 15.733C46.342 21.7178 47.8934 35.535 40.0769 43.3572C39.7541 43.6929 39.764 44.2273 40.1002 44.5503Z" fill="white"/>
<path d="M34.7278 31.8814C27.9073 25.0574 16.0453 29.9074 16.0312 39.6563C16.0325 45.7037 20.9526 50.6237 27 50.625C36.7849 50.6083 41.6133 38.6798 34.7278 31.8814ZM36.2385 38.8125H35.7407C35.2743 38.8125 34.8969 39.1903 34.8969 39.6562C34.8969 40.1222 35.2743 40.5 35.7407 40.5H36.2385C36.0638 42.4261 35.3012 44.184 34.128 45.5909L33.7772 45.2399C33.4476 44.9103 32.9136 44.9103 32.584 45.2399C32.2545 45.5691 32.2545 46.1034 32.584 46.433L32.9349 46.784C31.528 47.9574 29.77 48.7201 27.8437 48.8947V48.3965C27.8437 47.9306 27.4663 47.5528 27 47.5528C26.5336 47.5528 26.1562 47.9306 26.1562 48.3965V48.8947C24.23 48.7201 22.4719 47.9574 21.065 46.784L21.4159 46.433C21.7455 46.1034 21.7455 45.5691 21.4159 45.2399C21.0863 44.9103 20.5523 44.9103 20.2228 45.2399L19.872 45.5909C18.6987 44.184 17.9361 42.4261 17.7615 40.5H18.2592C18.7256 40.5 19.103 40.1222 19.103 39.6562C19.103 39.1903 18.7256 38.8125 18.2592 38.8125H17.7615C17.9361 36.8864 18.6987 35.1284 19.872 33.7216C20.1254 33.9778 20.4319 34.3484 20.8194 34.3197C21.5431 34.3472 21.9525 33.3795 21.4159 32.8794C21.4159 32.8794 21.065 32.5285 21.065 32.5285C22.4719 31.355 24.23 30.5923 26.1562 30.4177V30.9159C26.1562 31.3819 26.5336 31.7597 27 31.7597C27.4663 31.7597 27.8437 31.3819 27.8437 30.9159V30.4177C29.77 30.5923 31.528 31.355 32.9349 32.5285L32.584 32.8794C32.2545 33.209 32.2545 33.7434 32.584 34.0726C32.9136 34.4021 33.4476 34.4021 33.7772 34.0726L34.128 33.7216C35.3013 35.1284 36.0638 36.8864 36.2385 38.8125Z" fill="white"/>
<path d="M26.9996 34.1179C26.5332 34.1179 26.1559 34.4957 26.1559 34.9617V38.8125H24.3818C23.9155 38.8125 23.5381 39.1903 23.5381 39.6563C23.5381 40.1222 23.9155 40.5 24.3818 40.5H26.9996C27.466 40.5 27.8434 40.1222 27.8434 39.6563V34.9617C27.8434 34.4957 27.466 34.1179 26.9996 34.1179Z" fill="white"/>
</svg>
