<svg width="580" height="444" viewBox="0 0 580 444" fill="none" xmlns="http://www.w3.org/2000/svg">
<path d="M65.7221 48.2876L56.142 47.7455L78.4166 93.6645L210.088 344.196L213.076 346.343L308.626 376.058L319.008 379.895L327.168 383.043L328.057 383.319L329.39 383.734L344.18 387.114L312.027 325.938L185.715 85.6039L65.7221 48.2876Z" fill="white" fill-opacity="0.12"/>
<path d="M283.173 391.294L266.854 385L200.191 364.269L165.925 380.419L162.246 380.494C121.358 367.778 80.6181 354.987 39.8004 342.049C19.0579 335.476 -1.8288 328.981 -22.6474 322.263C-40.0564 316.727 -60.8807 306.109 -79.2743 306.481L-18.0318 423.007L-12.8217 425.846C11.8861 439.257 45.8348 443.721 72.507 452.382C117.846 466.847 163.013 483.818 209.388 494.95L323.001 435.239L356.502 417.631L354.205 413.261L283.173 391.294Z" fill="white" fill-opacity="0.12"/>
<path d="M29.2371 318.416L44.0267 321.795L33.3092 301.403L20.2955 276.642L-31.7605 177.595L-44.328 174.906L-60.6482 168.611L-107.312 154.099L-160.643 137.514L-168 137.664L-94.5095 277.495L7.70739 309.283L29.2371 318.416Z" fill="white" fill-opacity="0.12"/>
<path d="M120.136 45.7139L151.246 55.3886L176.455 64.4468L197.219 72.1227L230.029 56.7378L232.251 57.4289C317.136 83.8269 402.365 109.113 487.028 135.442L491.398 133.146C472.03 96.2938 453.751 58.6844 431.761 23.2119L428.774 21.0642C420.409 15.0506 403.963 13.4695 394.33 10.3528C375.144 4.26475 355.812 -1.74832 336.555 -7.61458C292.557 -21.2972 247.991 -33.938 204.339 -48.7318L95.0968 8.68268L61.5955 26.2899L62.3611 27.7466L120.136 45.7139Z" fill="white" fill-opacity="0.12"/>
<path d="M577.975 301.416L555.701 255.497L507.473 163.733C492.772 153.8 463.199 150.939 446.088 145.619C419.056 137.334 392.077 128.09 364.568 121.729L386.002 162.512L436.527 258.646C483.191 273.158 529.855 287.67 576.519 302.182L576.274 301.009L577.975 301.416Z" fill="white" fill-opacity="0.12"/>
</svg>
