<svg width="52" height="52" viewBox="0 0 52 52" fill="none" xmlns="http://www.w3.org/2000/svg">
<path d="M45.5 9.75H25.7692C25.0425 6.95459 22.5197 4.875 19.5 4.875C16.4803 4.875 13.9575 6.95459 13.2308 9.75H6.5C5.60259 9.75 4.875 10.4776 4.875 11.375C4.875 12.2724 5.60259 13 6.5 13H13.2308C13.9575 15.7954 16.4803 17.875 19.5 17.875C22.5197 17.875 25.0425 15.7954 25.7692 13H45.5C46.3974 13 47.125 12.2724 47.125 11.375C47.125 10.4776 46.3974 9.75 45.5 9.75ZM19.5 14.625C17.7076 14.625 16.25 13.1674 16.25 11.375C16.25 9.58262 17.7076 8.125 19.5 8.125C21.2924 8.125 22.75 9.58262 22.75 11.375C22.75 13.1674 21.2924 14.625 19.5 14.625ZM45.5 24.375H38.7692C38.0425 21.5796 35.5197 19.5 32.5 19.5C29.4803 19.5 26.9575 21.5796 26.2308 24.375H6.5C5.60259 24.375 4.875 25.1026 4.875 26C4.875 26.8974 5.60259 27.625 6.5 27.625H26.2308C26.9575 30.4204 29.4803 32.5 32.5 32.5C35.5197 32.5 38.0425 30.4204 38.7692 27.625H45.5C46.3974 27.625 47.125 26.8974 47.125 26C47.125 25.1026 46.3974 24.375 45.5 24.375ZM32.5 29.25C30.7076 29.25 29.25 27.7924 29.25 26C29.25 24.2076 30.7076 22.75 32.5 22.75C34.2924 22.75 35.75 24.2076 35.75 26C35.75 27.7924 34.2924 29.25 32.5 29.25ZM45.5 39H25.7692C25.0425 36.2046 22.5197 34.125 19.5 34.125C16.4803 34.125 13.9575 36.2046 13.2308 39H6.5C5.60259 39 4.875 39.7276 4.875 40.625C4.875 41.5224 5.60259 42.25 6.5 42.25H13.2308C13.9575 45.0454 16.4803 47.125 19.5 47.125C22.5197 47.125 25.0425 45.0454 25.7692 42.25H45.5C46.3974 42.25 47.125 41.5224 47.125 40.625C47.125 39.7276 46.3974 39 45.5 39ZM19.5 43.875C17.7076 43.875 16.25 42.4174 16.25 40.625C16.25 38.8326 17.7076 37.375 19.5 37.375C21.2924 37.375 22.75 38.8326 22.75 40.625C22.75 42.4174 21.2924 43.875 19.5 43.875Z" fill="url(#paint0_radial_845_41254)"/>
<defs>
<radialGradient id="paint0_radial_845_41254" cx="0" cy="0" r="1" gradientUnits="userSpaceOnUse" gradientTransform="translate(47.4955 14.5249) scale(50.8849 56.2836)">
<stop stop-color="#FFE5CA"/>
<stop offset="0.5" stop-color="#F6921E"/>
<stop offset="1" stop-color="#D83B20"/>
</radialGradient>
</defs>
</svg>
