<svg width="52" height="52" viewBox="0 0 52 52" fill="none" xmlns="http://www.w3.org/2000/svg">
<path d="M36.4858 49.9201H36.139C35.5082 49.9201 34.8915 49.866 34.305 49.76C25.0698 48.1038 18.7278 44.8538 12.4171 38.543C6.1064 32.2323 2.85588 25.8904 1.19916 16.6526C1.09412 16.0686 1.04004 15.4514 1.04004 14.8206V14.4738C1.04004 11.7651 2.09512 9.21868 4.00976 7.30352L6.36588 4.9474C7.5442 3.76908 9.112 3.12012 10.7786 3.12012H11.3277C13.1857 3.12012 14.9329 3.93912 16.1221 5.36548L21.6144 11.9565C22.4308 12.9351 22.8806 14.1769 22.8806 15.4519V15.7915C22.8806 17.027 22.4557 18.2381 21.684 19.2027L16.9567 25.1109C17.6088 26.1925 18.9187 28.1534 20.863 30.0972C22.8192 32.0524 24.7708 33.3566 25.8477 34.005L31.758 29.2772C32.7216 28.505 33.9326 28.0801 35.1682 28.0801H35.5077C36.7828 28.0801 38.0245 28.5294 39.0032 29.3463L45.5942 34.8391C47.021 36.0273 47.84 37.7745 47.84 39.6324V40.1816C47.84 41.8482 47.1911 43.416 46.0117 44.5943L43.6556 46.9504C41.741 48.865 39.1945 49.9201 36.4858 49.9201ZM10.7786 6.24012C9.94504 6.24012 9.1614 6.5646 8.57172 7.15428L6.2156 9.5104C4.89064 10.8364 4.16004 12.5992 4.16004 14.4743V14.8212C4.16004 15.2658 4.19748 15.6963 4.26976 16.0998C5.8048 24.6554 8.80364 30.5179 14.623 36.3372C20.4423 42.1565 26.3048 45.1554 34.8588 46.6899C35.2638 46.7627 35.6944 46.8001 36.1395 46.8001H36.4864C38.3615 46.8001 40.1243 46.0695 41.4503 44.744L43.8064 42.3879C44.3956 41.7988 44.72 41.0151 44.72 40.1816V39.6324C44.72 38.7037 44.3108 37.8301 43.5974 37.2363L37.0064 31.7425C36.5862 31.393 36.0537 31.2001 35.5077 31.2001H35.1682C34.6388 31.2001 34.1198 31.3821 33.707 31.7128L26.9745 37.098C26.5008 37.4786 25.8466 37.5467 25.3027 37.2753C25.1665 37.2066 21.9191 35.5645 18.6576 32.303C15.3962 29.0416 13.7535 25.7942 13.6854 25.658C13.4134 25.1135 13.4826 24.4604 13.8627 23.9862L19.2473 17.2537C19.578 16.8403 19.76 16.3214 19.76 15.792V15.4524C19.76 14.9064 19.5671 14.374 19.2177 13.9543L13.7249 7.3628C13.13 6.64936 12.2564 6.24012 11.3277 6.24012H10.7786ZM36.92 21.8401C36.92 20.9785 36.2217 20.2801 35.36 20.2801H29.12V17.1601C29.12 16.3 29.82 15.6001 30.68 15.6001H32.24C34.8208 15.6001 36.92 13.5009 36.92 10.9201V9.36012C36.92 6.77936 34.8208 4.68012 32.24 4.68012H27.56C26.6984 4.68012 26 5.37848 26 6.24012C26 7.10176 26.6984 7.80012 27.56 7.80012H32.24C33.1001 7.80012 33.8 8.50004 33.8 9.36012V10.9201C33.8 11.7802 33.1001 12.4801 32.24 12.4801H30.68C28.0993 12.4801 26 14.5794 26 17.1601V21.8401C26 22.7018 26.6984 23.4001 27.56 23.4001H35.36C36.2217 23.4001 36.92 22.7018 36.92 21.8401ZM49.4 4.68012C48.5384 4.68012 47.84 5.37848 47.84 6.24012V12.4801H43.16V6.24012C43.16 5.37848 42.4617 4.68012 41.6 4.68012C40.7384 4.68012 40.04 5.37848 40.04 6.24012V14.0401C40.04 14.9018 40.7384 15.6001 41.6 15.6001H47.84V21.8401C47.84 22.7018 48.5384 23.4001 49.4 23.4001C50.2617 23.4001 50.96 22.7018 50.96 21.8401V6.24012C50.96 5.37848 50.2617 4.68012 49.4 4.68012Z" fill="url(#paint0_radial_845_41260)"/>
<defs>
<radialGradient id="paint0_radial_845_41260" cx="0" cy="0" r="1" gradientUnits="userSpaceOnUse" gradientTransform="translate(51.3978 13.8093) scale(60.1225 62.3449)">
<stop stop-color="#FFE5CA"/>
<stop offset="0.5" stop-color="#F6921E"/>
<stop offset="1" stop-color="#D83B20"/>
</radialGradient>
</defs>
</svg>
