<svg width="52" height="52" viewBox="0 0 52 52" fill="none" xmlns="http://www.w3.org/2000/svg">
<path d="M43.875 39H43.4757L41.9096 33.5173C40.9179 30.0483 37.7053 27.625 34.0974 27.625H32.5C31.6042 27.625 30.875 26.8958 30.875 26C30.875 25.1042 31.6042 24.375 32.5 24.375H34.0974C37.7053 24.375 40.9179 21.9517 41.9096 18.4827L43.4757 13H43.875C46.5632 13 48.75 10.8132 48.75 8.125C48.75 5.43684 46.5632 3.25 43.875 3.25H8.125C5.43684 3.25 3.25 5.43684 3.25 8.125C3.25 10.8132 5.43684 13 8.125 13H8.52434L10.0904 18.4827C11.0821 21.9517 14.2951 24.375 17.9026 24.375H19.5C20.3958 24.375 21.125 25.1042 21.125 26C21.125 26.8958 20.3958 27.625 19.5 27.625H17.9026C14.2947 27.625 11.0821 30.0483 10.0904 33.5173L8.52434 39H8.125C5.43684 39 3.25 41.1868 3.25 43.875C3.25 46.5632 5.43684 48.75 8.125 48.75H43.875C46.5632 48.75 48.75 46.5632 48.75 43.875C48.75 41.1868 46.5632 39 43.875 39ZM6.5 8.125C6.5 7.22922 7.22922 6.5 8.125 6.5H43.875C44.7708 6.5 45.5 7.22922 45.5 8.125C45.5 9.02078 44.7708 9.75 43.875 9.75H8.125C7.22922 9.75 6.5 9.02078 6.5 8.125ZM13.2149 34.4106C13.8101 32.3286 15.7373 30.875 17.9026 30.875H19.5C22.1882 30.875 24.375 28.6882 24.375 26C24.375 23.3118 22.1882 21.125 19.5 21.125H17.9026C15.7373 21.125 13.8101 19.6714 13.2149 17.5894L11.9039 13H40.0957L38.7847 17.5894C38.1899 19.6714 36.2627 21.125 34.0974 21.125H32.5C29.8118 21.125 27.625 23.3118 27.625 26C27.625 28.6882 29.8118 30.875 32.5 30.875H34.0974C36.2627 30.875 38.1899 32.3286 38.7851 34.4106L40.0961 39H11.9039L13.2149 34.4106ZM43.875 45.5H8.125C7.22922 45.5 6.5 44.7708 6.5 43.875C6.5 42.9792 7.22922 42.25 8.125 42.25H43.875C44.7708 42.25 45.5 42.9792 45.5 43.875C45.5 44.7708 44.7708 45.5 43.875 45.5Z" fill="url(#paint0_radial_845_41272)"/>
<defs>
<radialGradient id="paint0_radial_845_41272" cx="0" cy="0" r="1" gradientUnits="userSpaceOnUse" gradientTransform="translate(49.149 13.6422) scale(54.7992 60.6131)">
<stop stop-color="#FFE5CA"/>
<stop offset="0.5" stop-color="#F6921E"/>
<stop offset="1" stop-color="#D83B20"/>
</radialGradient>
</defs>
</svg>
