<svg width="52" height="52" viewBox="0 0 52 52" fill="none" xmlns="http://www.w3.org/2000/svg">
<path d="M46.28 7.28004H26V4.16004C26 2.43936 24.6007 1.04004 22.88 1.04004H10.4C8.67936 1.04004 7.28004 2.43936 7.28004 4.16004V7.28004H5.72004C3.13928 7.28004 1.04004 9.37928 1.04004 11.96V40.04C1.04004 42.6208 3.13928 44.72 5.72004 44.72C5.72004 48.1609 8.5192 50.96 11.96 50.96C15.4009 50.96 18.2 48.1609 18.2 44.72H46.28C48.8608 44.72 50.96 42.6208 50.96 40.04V11.96C50.96 9.37928 48.8608 7.28004 46.28 7.28004ZM10.4 4.16004H22.88L22.8821 35.36H10.4V4.16004ZM4.16004 40.04V11.96C4.16004 11.1 4.85996 10.4 5.72004 10.4H7.28004V35.36C7.28004 37.0807 8.67936 38.48 10.4 38.48H15.08V41.6H5.72004C4.85996 41.6 4.16004 40.9001 4.16004 40.04ZM11.96 47.84C10.2394 47.84 8.84004 46.4407 8.84004 44.72H15.08C15.08 46.4407 13.6807 47.84 11.96 47.84ZM47.84 40.04C47.84 40.9001 47.1401 41.6 46.28 41.6H18.2V38.48H22.88C24.6007 38.48 26 37.0807 26 35.36V10.4H46.28C47.1401 10.4 47.84 11.1 47.84 11.96V40.04ZM41.6 15.08H32.24C30.5194 15.08 29.12 16.4794 29.12 18.2V22.88C29.12 24.6007 30.5194 26 32.24 26H41.6C43.3207 26 44.72 24.6007 44.72 22.88V18.2C44.72 16.4794 43.3207 15.08 41.6 15.08ZM32.24 22.88V18.2H41.6L41.6021 22.88H32.24ZM33.8 30.68C33.8 31.5417 33.1017 32.24 32.24 32.24C31.3784 32.24 30.68 31.5417 30.68 30.68C30.68 29.8184 31.3784 29.12 32.24 29.12C33.1017 29.12 33.8 29.8184 33.8 30.68ZM38.48 30.68C38.48 31.5417 37.7817 32.24 36.92 32.24C36.0584 32.24 35.36 31.5417 35.36 30.68C35.36 29.8184 36.0584 29.12 36.92 29.12C37.7817 29.12 38.48 29.8184 38.48 30.68ZM43.16 30.68C43.16 31.5417 42.4617 32.24 41.6 32.24C40.7384 32.24 40.04 31.5417 40.04 30.68C40.04 29.8184 40.7384 29.12 41.6 29.12C42.4617 29.12 43.16 29.8184 43.16 30.68ZM33.8 35.36C33.8 36.2217 33.1017 36.92 32.24 36.92C31.3784 36.92 30.68 36.2217 30.68 35.36C30.68 34.4984 31.3784 33.8 32.24 33.8C33.1017 33.8 33.8 34.4984 33.8 35.36ZM38.48 35.36C38.48 36.2217 37.7817 36.92 36.92 36.92C36.0584 36.92 35.36 36.2217 35.36 35.36C35.36 34.4984 36.0584 33.8 36.92 33.8C37.7817 33.8 38.48 34.4984 38.48 35.36ZM43.16 35.36C43.16 36.2217 42.4617 36.92 41.6 36.92C40.7384 36.92 40.04 36.2217 40.04 35.36C40.04 34.4984 40.7384 33.8 41.6 33.8C42.4617 33.8 43.16 34.4984 43.16 35.36Z" fill="url(#paint0_radial_845_41266)"/>
<defs>
<radialGradient id="paint0_radial_845_41266" cx="0" cy="0" r="1" gradientUnits="userSpaceOnUse" gradientTransform="translate(51.3978 12.4418) scale(60.1225 66.5012)">
<stop stop-color="#FFE5CA"/>
<stop offset="0.5" stop-color="#F6921E"/>
<stop offset="1" stop-color="#D83B20"/>
</radialGradient>
</defs>
</svg>
