<svg width="59" height="59" viewBox="0 0 59 59" fill="none" xmlns="http://www.w3.org/2000/svg">
<path d="M0.921875 34.8469C0.36875 34.8469 0 34.4781 0 33.925V12.4453C0 9.86406 2.02813 7.83594 4.60938 7.83594H36.9672C39.5484 7.83594 41.5766 9.86406 41.5766 12.4453V14.1969C41.5766 14.75 41.2078 15.1187 40.6547 15.1187C40.1016 15.1187 39.7328 14.75 39.7328 14.1969V12.4453C39.7328 10.8781 38.5344 9.67969 36.9672 9.67969H4.60938C3.04219 9.67969 1.84375 10.8781 1.84375 12.4453V33.925C1.84375 34.4781 1.475 34.8469 0.921875 34.8469Z" fill="#FF7D44"/>
<path d="M39.1796 46.0015H21.5718C21.0187 46.0015 20.6499 45.6327 20.6499 45.0796C20.6499 44.5265 21.0187 44.1577 21.5718 44.1577H39.1796C39.7327 44.1577 40.1015 44.5265 40.1015 45.0796C40.1015 45.6327 39.7327 46.0015 39.1796 46.0015Z" fill="#FF7D44"/>
<path d="M55.1281 46.0015H54.8516C54.2984 46.0015 53.9297 45.6327 53.9297 45.0796C53.9297 44.5265 54.2984 44.1577 54.8516 44.1577H55.1281C56.2344 44.1577 57.1562 43.2358 57.1562 42.1296V36.8749C57.1562 36.414 56.9719 35.953 56.6953 35.6765L53.0078 31.3437C52.3625 30.6062 52.0859 29.6843 52.0859 28.7624V20.6499C52.0859 19.6358 51.1641 18.714 50.15 18.714H41.6688V37.5202C41.6688 38.0733 41.3 38.4421 40.7469 38.4421H1.84375V41.2999C1.84375 42.8671 3.04219 44.0655 4.60938 44.0655H5.9C6.45312 44.0655 6.82188 44.4343 6.82188 44.9874C6.82188 45.5405 6.45312 45.9093 5.9 45.9093H4.60938C2.02813 45.9093 0 43.8812 0 41.2999V37.5202C0 36.9671 0.36875 36.5983 0.921875 36.5983H39.7328V17.8843C39.7328 17.3312 40.1016 16.9624 40.6547 16.9624H50.0578C52.1781 16.9624 53.8375 18.6218 53.8375 20.7421V28.8546C53.8375 29.3155 54.0219 29.7765 54.3906 30.2374L58.0781 34.478C58.7234 35.1233 59 35.953 59 36.9671V42.2218C59 44.2499 57.2484 46.0015 55.1281 46.0015Z" fill="#FF7D44"/>
<path d="M49.4126 30.8829H47.1079C45.5407 30.8829 44.3423 29.6845 44.3423 28.1173V24.061C44.3423 22.4938 45.5407 21.2954 47.1079 21.2954H49.3204C49.8735 21.2954 50.2423 21.6642 50.2423 22.2173C50.2423 22.7704 49.8735 23.1392 49.3204 23.1392H47.1079C46.5548 23.1392 46.186 23.5079 46.186 24.061V28.1173C46.186 28.6704 46.5548 29.0392 47.1079 29.0392H49.4126C49.9657 29.0392 50.3345 29.4079 50.3345 29.961C50.3345 30.5142 49.9657 30.8829 49.4126 30.8829Z" fill="#FF7D44"/>
<path d="M47.0156 51.0718C43.6969 51.0718 41.0234 48.3983 41.0234 45.0796C41.0234 41.7608 43.6969 39.0874 47.0156 39.0874C50.3344 39.0874 53.0078 41.7608 53.0078 45.0796C53.0078 48.3983 50.3344 51.0718 47.0156 51.0718ZM47.0156 40.9312C44.7109 40.9312 42.8672 42.7749 42.8672 45.0796C42.8672 47.3843 44.7109 49.228 47.0156 49.228C49.3203 49.228 51.1641 47.3843 51.1641 45.0796C51.1641 42.7749 49.3203 40.9312 47.0156 40.9312Z" fill="#FF7D44"/>
<path d="M13.7358 51.0718C10.4171 51.0718 7.74365 48.3983 7.74365 45.0796C7.74365 41.7608 10.4171 39.0874 13.7358 39.0874C17.0546 39.0874 19.728 41.7608 19.728 45.0796C19.728 48.3983 17.0546 51.0718 13.7358 51.0718ZM13.7358 40.9312C11.4312 40.9312 9.5874 42.7749 9.5874 45.0796C9.5874 47.3843 11.4312 49.228 13.7358 49.228C16.0405 49.228 17.8843 47.3843 17.8843 45.0796C17.8843 42.7749 16.0405 40.9312 13.7358 40.9312Z" fill="#FF7D44"/>
<path d="M13.8281 24.0609C13.7359 24.0609 13.5516 24.0609 13.4594 23.9688C13.0906 23.7844 12.9062 23.5078 12.9062 23.1391V12.4453C12.9062 11.8922 13.275 11.5234 13.8281 11.5234C14.3812 11.5234 14.75 11.8922 14.75 12.4453V20.8344L16.6859 18.8062C16.8703 18.6219 17.1469 18.5297 17.3312 18.5297C17.6078 18.5297 17.7922 18.6219 17.9766 18.8062L20.7422 21.7563L23.6 18.8062C23.9688 18.4375 24.6141 18.4375 24.9828 18.8062L26.9187 20.8344V12.4453C26.9187 11.8922 27.2875 11.5234 27.8406 11.5234C28.3938 11.5234 28.7625 11.8922 28.7625 12.4453V23.1391C28.7625 23.5078 28.5781 23.8766 28.2094 23.9688C27.8406 24.0609 27.4719 24.0609 27.1953 23.7844L24.3375 20.8344L21.4797 23.7844C21.2953 23.9687 21.1109 24.0609 20.8344 24.0609C20.5578 24.0609 20.3734 23.9687 20.1891 23.7844L17.4234 20.8344L14.5656 23.7844C14.2891 23.9687 14.1047 24.0609 13.8281 24.0609Z" fill="#FF7D44"/>
</svg>
