<svg width="59" height="59" viewBox="0 0 59 59" fill="none" xmlns="http://www.w3.org/2000/svg">
<g clip-path="url(#clip0_845_94083)">
<path d="M50.8875 23.0469C50.3344 23.0469 49.9656 22.6782 49.9656 22.125V11.3391H38.2578C37.7047 11.3391 37.3359 10.9704 37.3359 10.4172C37.3359 9.86411 37.7047 9.49536 38.2578 9.49536H50.8875C51.4406 9.49536 51.8094 9.86411 51.8094 10.4172V22.125C51.8094 22.6782 51.4406 23.0469 50.8875 23.0469Z" fill="#FF7D44"/>
<path d="M29.5 44.6188H7.55942C5.07036 44.6188 3.04224 42.5907 3.04224 40.1016V10.4172C3.04224 9.86411 3.41099 9.49536 3.96411 9.49536H16.5938C17.1469 9.49536 17.5157 9.86411 17.5157 10.4172C17.5157 10.9704 17.1469 11.3391 16.5938 11.3391H4.88599V40.1016C4.88599 41.5766 6.08442 42.7751 7.55942 42.7751H29.5C30.0532 42.7751 30.4219 43.1438 30.4219 43.6969C30.4219 44.25 30.0532 44.6188 29.5 44.6188Z" fill="#FF7D44"/>
<path d="M22.125 17.4234C21.7562 17.4234 21.2953 17.3313 20.9266 17.1469C19.9125 16.6859 19.3594 15.7641 19.3594 14.6578V4.60938C19.3594 4.05625 19.7281 3.6875 20.2812 3.6875C20.8344 3.6875 21.2031 4.05625 21.2031 4.60938V14.6578C21.2031 15.2109 21.5719 15.3953 21.7563 15.4875C21.8484 15.5797 22.3094 15.6719 22.7703 15.3953L25.7203 12.9062C26.6422 12.0766 28.2094 12.0766 29.2234 12.9062L32.1734 15.3953C32.6344 15.7641 33.0953 15.5797 33.1875 15.4875C33.3719 15.3953 33.7406 15.2109 33.7406 14.6578V4.60938C33.7406 4.05625 34.1094 3.6875 34.6625 3.6875C35.2156 3.6875 35.5844 4.05625 35.5844 4.60938V14.6578C35.5844 15.7641 34.9391 16.6859 34.0172 17.1469C33.0031 17.6078 31.8969 17.4234 31.0672 16.7781L28.1172 14.2891C27.7484 14.0125 27.1953 14.0125 26.9188 14.2891L23.9688 16.7781C23.4156 17.1469 22.7703 17.4234 22.125 17.4234Z" fill="#FF7D44"/>
<path d="M50.3344 11.4312H38.2578C37.7047 11.4312 37.3359 11.0625 37.3359 10.5094C37.3359 9.95625 37.7047 9.5875 38.2578 9.5875H50.3344C51.8094 9.5875 53.0078 8.38906 53.0078 6.91406V4.51719C53.0078 3.04219 51.8094 1.84375 50.3344 1.84375H4.51719C2.95 1.84375 1.84375 2.95 1.84375 4.51719V6.82188C1.84375 8.38906 2.95 9.49531 4.51719 9.49531H16.5938C17.1469 9.49531 17.5156 9.86406 17.5156 10.4172C17.5156 10.9703 17.1469 11.3391 16.5938 11.3391H4.51719C2.02813 11.3391 0 9.31094 0 6.82188V4.51719C0 2.02813 2.02813 0 4.51719 0H50.3344C52.8234 0 54.8516 2.02813 54.8516 4.51719V6.91406C54.8516 9.40312 52.8234 11.4312 50.3344 11.4312Z" fill="#FF7D44"/>
<path d="M55.4048 58.9078H35.9532C33.9251 58.9078 32.3579 57.2484 32.3579 55.3125V28.4859C32.3579 26.4578 34.0173 24.8906 35.9532 24.8906H55.4048C57.4329 24.8906 59.0001 26.4578 59.0001 28.4859V55.3125C59.0001 57.3406 57.4329 58.9078 55.4048 58.9078ZM35.9532 26.7344C35.0313 26.7344 34.2017 27.5641 34.2017 28.4859V55.3125C34.2017 56.2344 35.0313 57.0641 35.9532 57.0641H55.4048C56.3267 57.0641 57.1563 56.2344 57.1563 55.3125V28.4859C57.1563 27.5641 56.3267 26.7344 55.4048 26.7344H35.9532Z" fill="#FF7D44"/>
<path d="M53.653 54.575H37.7046C37.1515 54.575 36.7827 54.2062 36.7827 53.6531C36.7827 53.1 37.1515 52.7312 37.7046 52.7312H53.653C54.2062 52.7312 54.5749 53.1 54.5749 53.6531C54.5749 54.2062 54.2062 54.575 53.653 54.575Z" fill="#FF7D44"/>
<path d="M53.653 31.2515H48.3062C47.753 31.2515 47.3843 30.8827 47.3843 30.3296C47.3843 29.7765 47.753 29.4077 48.3062 29.4077H53.653C54.2062 29.4077 54.5749 29.7765 54.5749 30.3296C54.5749 30.8827 54.2062 31.2515 53.653 31.2515Z" fill="#FF7D44"/>
<path d="M53.6531 35.8608H49.5046C48.9515 35.8608 48.5828 35.4921 48.5828 34.939C48.5828 34.3858 48.9515 34.0171 49.5046 34.0171H53.6531C54.2062 34.0171 54.575 34.3858 54.575 34.939C54.575 35.4921 54.2062 35.8608 53.6531 35.8608Z" fill="#FF7D44"/>
<path d="M53.653 40.5625H47.3843C46.8312 40.5625 46.4624 40.1938 46.4624 39.6406C46.4624 39.0875 46.8312 38.7188 47.3843 38.7188H53.653C54.2062 38.7188 54.5749 39.0875 54.5749 39.6406C54.5749 40.1938 54.2062 40.5625 53.653 40.5625Z" fill="#FF7D44"/>
<path d="M53.653 45.1719H37.7046C37.1515 45.1719 36.7827 44.8031 36.7827 44.25C36.7827 43.6969 37.1515 43.3281 37.7046 43.3281H53.653C54.2062 43.3281 54.5749 43.6969 54.5749 44.25C54.5749 44.8031 54.2062 45.1719 53.653 45.1719Z" fill="#FF7D44"/>
<path d="M53.653 49.8735H37.7046C37.1515 49.8735 36.7827 49.5048 36.7827 48.9517C36.7827 48.3985 37.1515 48.0298 37.7046 48.0298H53.653C54.2062 48.0298 54.5749 48.3985 54.5749 48.9517C54.5749 49.5048 54.2062 49.8735 53.653 49.8735Z" fill="#FF7D44"/>
<path d="M41.761 39.4563C38.9954 39.4563 36.6907 37.1516 36.6907 34.386C36.6907 31.6204 38.9954 29.3157 41.761 29.3157C44.5266 29.3157 46.8313 31.6204 46.8313 34.386C46.8313 37.1516 44.5266 39.4563 41.761 39.4563ZM41.761 31.1594C40.0094 31.1594 38.5344 32.6344 38.5344 34.386C38.5344 36.1375 40.0094 37.6125 41.761 37.6125C43.5125 37.6125 44.9875 36.1375 44.9875 34.386C44.9875 32.6344 43.5125 31.1594 41.761 31.1594Z" fill="#FF7D44"/>
</g>
<defs>
<clipPath id="clip0_845_94083">
<rect width="59" height="59" fill="white"/>
</clipPath>
</defs>
</svg>
