<svg width="59" height="59" viewBox="0 0 59 59" fill="none" xmlns="http://www.w3.org/2000/svg">
<g clip-path="url(#clip0_845_94114)">
<path d="M0.921875 38.1657C0.36875 38.1657 0 37.7047 0 37.2438V9.67974C0 8.02036 1.29063 6.72974 2.95 6.72974H39.0875C40.7469 6.72974 42.0375 8.02036 42.0375 9.67974V20.0969C42.0375 20.65 41.5766 21.0188 41.1156 21.0188C40.6547 21.0188 40.1937 20.5579 40.1937 20.0969V9.67974C40.1937 9.12661 39.7328 8.57349 39.0875 8.57349H2.95C2.39687 8.57349 1.84375 9.12661 1.84375 9.67974V37.2438C1.84375 37.7969 1.475 38.1657 0.921875 38.1657Z" fill="#FF7D44"/>
<path d="M41.7609 46.2781H18.1609C17.6078 46.2781 17.239 45.8171 17.239 45.3562C17.239 44.8953 17.7 44.4343 18.1609 44.4343H41.7609C42.314 44.4343 42.6828 44.8953 42.6828 45.3562C42.6828 45.8171 42.314 46.2781 41.7609 46.2781Z" fill="#FF7D44"/>
<path d="M56.2344 46.2782H52.6391C52.0859 46.2782 51.7172 45.8173 51.7172 45.3563C51.7172 44.8954 52.1781 44.4345 52.6391 44.4345H56.2344C56.6953 44.4345 57.1562 44.0657 57.1562 43.5126V32.1735C57.1562 31.8048 57.0641 31.5282 56.9719 31.3438L51.8094 21.3876C51.4406 20.8345 50.7953 20.4657 50.15 20.4657H42.0375V36.5985C42.0375 37.1517 41.5766 37.5204 41.1156 37.5204H1.84375V44.4345C1.84375 44.4345 1.84375 44.5267 1.93594 44.5267H7.28281C7.83594 44.5267 8.20469 44.9876 8.20469 45.4485C8.20469 45.9095 7.74375 46.3704 7.28281 46.3704H1.93594C0.829687 46.3704 0 45.4485 0 44.4345V36.5985C0 36.0454 0.460938 35.6767 0.921875 35.6767H40.1937V19.4517C40.1937 18.8985 40.6547 18.5298 41.1156 18.5298H50.15C51.5328 18.5298 52.7313 19.2673 53.4688 20.4657L58.6312 30.422C58.9078 30.8829 59 31.5282 59 32.1735V43.5126C59 45.0798 57.8016 46.2782 56.2344 46.2782Z" fill="#FF7D44"/>
<path d="M53.1923 30.9751H44.8032C44.2501 30.9751 43.8813 30.5142 43.8813 30.0532V23.1392C43.8813 22.586 44.3423 22.2173 44.8032 22.2173H49.597C49.9657 22.2173 50.2423 22.4017 50.4267 22.7704L54.022 29.6845C54.2063 29.961 54.2063 30.3298 54.022 30.6063C53.8376 30.8829 53.561 30.9751 53.1923 30.9751ZM45.7251 29.1313H51.6251L49.0438 24.1532H45.8173V29.1313H45.7251Z" fill="#FF7D44"/>
<path d="M12.7218 52.2705C9.21865 52.2705 6.36084 49.4126 6.36084 45.9095C6.36084 42.4064 9.21865 39.5486 12.7218 39.5486C16.2249 39.5486 19.0827 42.4064 19.0827 45.9095C19.0827 49.4126 16.2249 52.2705 12.7218 52.2705ZM12.7218 41.3923C10.2327 41.3923 8.20459 43.4205 8.20459 45.9095C8.20459 48.3986 10.2327 50.4267 12.7218 50.4267C15.2108 50.4267 17.239 48.3986 17.239 45.9095C17.239 43.4205 15.2108 41.3923 12.7218 41.3923Z" fill="#FF7D44"/>
<path d="M47.2001 52.2705C43.6969 52.2705 40.8391 49.4126 40.8391 45.9095C40.8391 42.4064 43.6969 39.5486 47.2001 39.5486C50.7032 39.5486 53.561 42.4064 53.561 45.9095C53.561 49.4126 50.7032 52.2705 47.2001 52.2705ZM47.2001 41.3923C44.711 41.3923 42.6829 43.4205 42.6829 45.9095C42.6829 48.3986 44.711 50.4267 47.2001 50.4267C49.6891 50.4267 51.7172 48.3986 51.7172 45.9095C51.7172 43.4205 49.6891 41.3923 47.2001 41.3923Z" fill="#FF7D44"/>
<path d="M32.5422 16.4094H9.49536C8.94224 16.4094 8.57349 15.9485 8.57349 15.4875C8.57349 15.0266 9.03442 14.5657 9.49536 14.5657H32.5422C33.0954 14.5657 33.4641 15.0266 33.4641 15.4875C33.4641 15.9485 33.0954 16.4094 32.5422 16.4094Z" fill="#FF7D44"/>
<path d="M32.5422 23.0469H9.49536C8.94224 23.0469 8.57349 22.5859 8.57349 22.125C8.57349 21.6641 9.03442 21.2031 9.49536 21.2031H32.5422C33.0954 21.2031 33.4641 21.6641 33.4641 22.125C33.4641 22.5859 33.0954 23.0469 32.5422 23.0469Z" fill="#FF7D44"/>
<path d="M32.5422 29.5923H9.49536C8.94224 29.5923 8.57349 29.1313 8.57349 28.6704C8.57349 28.2095 9.03442 27.7485 9.49536 27.7485H32.5422C33.0954 27.7485 33.4641 28.2095 33.4641 28.6704C33.4641 29.1313 33.0954 29.5923 32.5422 29.5923Z" fill="#FF7D44"/>
</g>
<defs>
<clipPath id="clip0_845_94114">
<rect width="59" height="59" fill="white"/>
</clipPath>
</defs>
</svg>
