<svg width="59" height="59" viewBox="0 0 59 59" fill="none" xmlns="http://www.w3.org/2000/svg">
<g clip-path="url(#clip0_845_94137)">
<path d="M43.8811 24.9829C43.6968 24.9829 43.5124 24.8907 43.328 24.7985L30.7905 16.4095C29.9608 15.8563 29.039 15.8563 28.2093 16.4095L15.6718 24.7985C15.2108 25.0751 14.6577 24.9829 14.3812 24.522C14.1046 24.061 14.1968 23.5079 14.6577 23.2313L27.1952 14.8423C28.578 13.9204 30.4218 13.9204 31.8046 14.8423L44.3421 23.2313C44.803 23.5079 44.8952 24.061 44.6187 24.522C44.4343 24.7985 44.1577 24.9829 43.8811 24.9829Z" fill="#FF7D44"/>
<path d="M29.5 19.0828C27.1031 19.0828 25.3516 17.3312 25.3516 14.9343C25.3516 13.3671 26.1812 11.9843 27.5641 11.2468C28.1172 10.9703 28.4859 10.4171 28.4859 9.86401C28.4859 9.31089 28.8547 8.94214 29.4078 8.94214C29.9609 8.94214 30.3297 9.31089 30.3297 9.86401C30.3297 11.0625 29.5922 12.2609 28.4859 12.9062C27.6562 13.3671 27.1953 14.1046 27.1953 14.9343C27.1953 16.225 28.2094 17.239 29.5 17.239C30.7906 17.239 31.8047 16.225 31.8047 14.9343C31.8047 14.3812 32.1734 14.0125 32.7266 14.0125C33.2797 14.0125 33.6484 14.3812 33.6484 14.9343C33.6484 17.239 31.8047 19.0828 29.5 19.0828Z" fill="#FF7D44"/>
<path d="M32.5421 10.2328H26.5499C25.8124 10.2328 25.1671 9.77187 24.9827 8.94219L22.5858 2.02813V1.93594C22.4937 1.475 22.5858 0.921875 22.8624 0.553125C23.2312 0.184375 23.6921 0 24.153 0H34.8468C35.3077 0 35.7687 0.184375 36.0452 0.553125C36.3218 0.921875 36.5062 1.38281 36.3218 1.93594V2.02813L34.1093 9.03438C33.8327 9.67969 33.2796 10.2328 32.5421 10.2328ZM26.7343 8.38906H32.3577L34.478 1.84375H24.5218L26.7343 8.38906Z" fill="#FF7D44"/>
<path d="M54.3906 59.0923H4.51719C3.04219 59.0923 1.84375 57.8938 1.84375 56.4188V29.5001C1.84375 28.0251 3.04219 26.8267 4.51719 26.8267H54.3906C55.8656 26.8267 57.0641 28.0251 57.0641 29.5001V56.4188C57.0641 57.8938 55.8656 59.0923 54.3906 59.0923ZM4.51719 28.6704C3.96406 28.6704 3.6875 29.1313 3.6875 29.5001V56.4188C3.6875 56.972 4.14844 57.2485 4.51719 57.2485H54.3906C54.9437 57.2485 55.2203 56.7876 55.2203 56.4188V29.5001C55.2203 29.1313 54.9437 28.6704 54.3906 28.6704H4.51719Z" fill="#FF7D44"/>
<path d="M9.03442 54.7594C8.4813 54.7594 8.11255 54.3907 8.11255 53.8376V32.0813C8.11255 31.5282 8.4813 31.1594 9.03442 31.1594C9.58755 31.1594 9.9563 31.5282 9.9563 32.0813V53.8376C9.9563 54.3907 9.58755 54.7594 9.03442 54.7594Z" fill="#FF7D44"/>
<path d="M14.9343 54.7594C14.3812 54.7594 14.0125 54.3907 14.0125 53.8376V32.0813C14.0125 31.5282 14.3812 31.1594 14.9343 31.1594C15.4875 31.1594 15.8562 31.5282 15.8562 32.0813V53.8376C15.8562 54.3907 15.4875 54.7594 14.9343 54.7594Z" fill="#FF7D44"/>
<path d="M20.7422 54.7594C20.1891 54.7594 19.8203 54.3907 19.8203 53.8376V32.0813C19.8203 31.5282 20.1891 31.1594 20.7422 31.1594C21.2953 31.1594 21.6641 31.5282 21.6641 32.0813V53.8376C21.6641 54.3907 21.2953 54.7594 20.7422 54.7594Z" fill="#FF7D44"/>
<path d="M26.55 54.7594C25.9969 54.7594 25.6282 54.3907 25.6282 53.8376V32.0813C25.6282 31.5282 25.9969 31.1594 26.55 31.1594C27.1032 31.1594 27.4719 31.5282 27.4719 32.0813V53.8376C27.4719 54.3907 27.1032 54.7594 26.55 54.7594Z" fill="#FF7D44"/>
<path d="M32.45 54.7594C31.8968 54.7594 31.5281 54.3907 31.5281 53.8376V32.0813C31.5281 31.5282 31.8968 31.1594 32.45 31.1594C33.0031 31.1594 33.3718 31.5282 33.3718 32.0813V53.8376C33.3718 54.3907 33.0031 54.7594 32.45 54.7594Z" fill="#FF7D44"/>
<path d="M38.2578 54.7594C37.7047 54.7594 37.3359 54.3907 37.3359 53.8376V32.0813C37.3359 31.5282 37.7047 31.1594 38.2578 31.1594C38.8109 31.1594 39.1797 31.5282 39.1797 32.0813V53.8376C39.1797 54.3907 38.8109 54.7594 38.2578 54.7594Z" fill="#FF7D44"/>
<path d="M44.0657 54.7594C43.5125 54.7594 43.1438 54.3907 43.1438 53.8376V32.0813C43.1438 31.5282 43.5125 31.1594 44.0657 31.1594C44.6188 31.1594 44.9875 31.5282 44.9875 32.0813V53.8376C44.9875 54.3907 44.6188 54.7594 44.0657 54.7594Z" fill="#FF7D44"/>
<path d="M49.9656 54.7594C49.4125 54.7594 49.0437 54.3907 49.0437 53.8376V32.0813C49.0437 31.5282 49.4125 31.1594 49.9656 31.1594C50.5187 31.1594 50.8875 31.5282 50.8875 32.0813V53.8376C50.8875 54.3907 50.5187 54.7594 49.9656 54.7594Z" fill="#FF7D44"/>
</g>
<defs>
<clipPath id="clip0_845_94137">
<rect width="59" height="59" fill="white"/>
</clipPath>
</defs>
</svg>
