<svg width="51" height="51" viewBox="0 0 51 51" fill="none" xmlns="http://www.w3.org/2000/svg">
<path d="M47.9401 14.2801C47.7864 14.1616 47.6081 14.0791 47.4184 14.0385C47.2287 13.9979 47.0323 14.0003 46.8436 14.0455L41.9527 15.3001C40.1473 15.1981 34.3894 12.9847 31.1101 11.5771L31.0438 11.5516C26.6884 9.98586 22.9195 10.3378 19.7677 12.5716C15.5755 11.1385 10.2052 14.1628 8.54766 15.1981L4.14126 14.0659C3.95298 14.0166 3.75589 14.0113 3.56523 14.0503C3.37456 14.0894 3.19542 14.1717 3.04164 14.291C2.88786 14.4103 2.76355 14.5633 2.67832 14.7383C2.59308 14.9132 2.5492 15.1054 2.55006 15.3001V33.1501C2.55006 33.4882 2.68439 33.8125 2.9235 34.0516C3.16261 34.2907 3.48691 34.4251 3.82506 34.4251H6.53316L18.1255 43.5643C18.5704 43.9923 19.1123 44.3062 19.7049 44.4793C20.2975 44.6524 20.9232 44.6795 21.5286 44.5582C22.1339 44.4369 22.7009 44.1709 23.1812 43.7829C23.6614 43.3949 24.0405 42.8964 24.2863 42.3301C24.864 42.661 25.5176 42.8367 26.1835 42.8401C26.9308 42.8404 27.6619 42.6217 28.2864 42.2111C28.9109 41.8006 29.4014 41.216 29.6974 40.5298C30.274 40.8634 30.9284 41.0393 31.5946 41.0398C32.3411 41.0391 33.071 40.82 33.6945 40.4094C34.318 39.9989 34.8077 39.4149 35.1034 38.7295C35.6921 39.0638 36.3593 39.2354 37.0363 39.2266C37.7133 39.2179 38.3758 39.0291 38.9557 38.6797C39.5356 38.3303 40.0121 37.8328 40.3363 37.2383C40.6604 36.6439 40.8205 35.9739 40.8001 35.2972L43.5286 34.4251H47.1751C47.5132 34.4251 47.8375 34.2907 48.0766 34.0516C48.3157 33.8125 48.4501 33.4882 48.4501 33.1501V15.3001C48.4509 15.102 48.4051 14.9065 48.3165 14.7293C48.228 14.5521 48.099 14.3983 47.9401 14.2801ZM5.10006 16.9321L7.37976 17.5186L6.46686 26.0101L5.83446 31.8751H5.10006V16.9321ZM37.9033 36.2917C37.6609 36.5254 37.3373 36.656 37.0006 36.656C36.6638 36.656 36.3402 36.5254 36.0979 36.2917L34.2976 34.4914L27.0862 27.2749C26.8439 27.057 26.5274 26.9402 26.2017 26.9484C25.8759 26.9565 25.5657 27.0891 25.3347 27.3188C25.1036 27.5486 24.9693 27.8581 24.9593 28.1837C24.9493 28.5094 25.0643 28.8265 25.2808 29.0701L32.4973 36.2968C32.7292 36.5375 32.8573 36.8598 32.8539 37.1941C32.8505 37.5284 32.716 37.848 32.4793 38.0841C32.2425 38.3202 31.9225 38.4538 31.5882 38.4562C31.2539 38.4587 30.932 38.3297 30.6919 38.0971L28.8865 36.2917L23.4601 30.8806C23.3415 30.762 23.2008 30.668 23.0459 30.6038C22.891 30.5397 22.725 30.5066 22.5574 30.5066C22.3897 30.5066 22.2237 30.5397 22.0688 30.6038C21.9139 30.668 21.7732 30.762 21.6547 30.8806C21.5361 30.9991 21.4421 31.1398 21.3779 31.2947C21.3138 31.4496 21.2807 31.6156 21.2807 31.7833C21.2807 31.9509 21.3138 32.1169 21.3779 32.2718C21.4421 32.4267 21.5361 32.5674 21.6547 32.686L27.0862 38.0971C27.2078 38.2148 27.3047 38.3557 27.3713 38.5113C27.4379 38.667 27.4728 38.8343 27.474 39.0036C27.4752 39.1729 27.4427 39.3407 27.3784 39.4973C27.3141 39.6539 27.2192 39.7961 27.0993 39.9157C26.9795 40.0352 26.837 40.1297 26.6802 40.1936C26.5234 40.2575 26.3555 40.2895 26.1862 40.2878C26.0169 40.2861 25.8497 40.2507 25.6942 40.1836C25.5388 40.1166 25.3982 40.0193 25.2808 39.8974L19.8901 34.4914C19.7721 34.3728 19.6318 34.2787 19.4773 34.2145C19.3228 34.1503 19.1572 34.1172 18.9899 34.1172C18.8226 34.1172 18.657 34.1503 18.5025 34.2145C18.348 34.2787 18.2078 34.3728 18.0898 34.4914C17.9709 34.6085 17.8767 34.7483 17.8128 34.9025C17.7488 35.0566 17.7164 35.2221 17.7175 35.389C17.7169 35.5565 17.7495 35.7226 17.8134 35.8775C17.8773 36.0324 17.9712 36.1732 18.0898 36.2917L21.6955 39.8974C21.934 40.1372 22.0679 40.4618 22.0679 40.8001C22.0679 41.1383 21.934 41.4629 21.6955 41.7028C21.4519 41.9341 21.1287 42.0632 20.7928 42.0632C20.4568 42.0632 20.1336 41.9341 19.8901 41.7028C19.8551 41.6661 19.8176 41.632 19.7779 41.6008L8.31816 32.584L9.59826 20.7571L9.97056 17.3095C11.5924 16.2895 14.7595 14.7136 17.386 14.7595C16.6054 15.6607 15.9073 16.6302 15.3001 17.6563C14.7376 18.6147 14.5585 19.7505 14.7988 20.8355C15.039 21.9206 15.6809 22.8746 16.5955 23.506C18.4009 24.7402 21.6955 25.8877 25.7755 22.3636L37.9033 34.4863C38.1406 34.7268 38.2737 35.0511 38.2737 35.389C38.2737 35.7268 38.1406 36.0511 37.9033 36.2917ZM39.9076 32.9104C39.8454 32.832 39.779 32.757 39.7087 32.686L27.5707 20.548C28.0807 19.9666 28.5907 19.3189 29.1007 18.5845C29.2166 18.45 29.3031 18.2927 29.3548 18.1228C29.4064 17.9529 29.422 17.7741 29.4005 17.5979C29.379 17.4216 29.321 17.2518 29.2301 17.0992C29.1392 16.9467 29.0174 16.8149 28.8726 16.7121C28.7277 16.6094 28.563 16.538 28.389 16.5027C28.215 16.4673 28.0356 16.4686 27.8621 16.5066C27.6886 16.5446 27.525 16.6184 27.3818 16.7233C27.2385 16.8281 27.1187 16.9618 27.0301 17.1157C24.7657 20.3236 21.3793 23.6692 18.0541 21.3997C17.6765 21.1307 17.4143 20.7293 17.3197 20.2755C17.2252 19.8217 17.3053 19.349 17.5441 18.9517C18.3706 17.475 19.4514 16.156 20.7367 15.0553C20.778 15.0258 20.8172 14.9934 20.854 14.9584C23.404 12.9184 26.464 12.6073 30.1768 13.9384C31.1407 14.3464 37.5616 17.0647 40.9276 17.7124L42.0496 32.2423L39.9076 32.9104ZM45.9001 31.8751H44.5333L43.4266 17.5492L45.9001 16.9321V31.8751Z" fill="#FF7D44"/>
</svg>
