<svg width="51" height="51" viewBox="0 0 51 51" fill="none" xmlns="http://www.w3.org/2000/svg">
<path fill-rule="evenodd" clip-rule="evenodd" d="M25.5 11.4219C29.2528 11.4219 32.3 14.4691 32.3 18.2219C32.3 20.2704 31.3204 22.9309 29.784 24.7244C28.5961 26.112 27.0853 26.9748 25.5 26.9748C23.9148 26.9748 22.4039 26.112 21.216 24.7244C19.6796 22.9309 18.7 20.2704 18.7 18.2219C18.7 14.4691 21.7473 11.4219 25.5 11.4219ZM25.5 14.6094C23.5068 14.6094 21.8875 16.2286 21.8875 18.2219C21.8875 19.6222 22.5866 21.4264 23.6364 22.6525C24.1719 23.2772 24.786 23.7873 25.5 23.7873C26.214 23.7873 26.8281 23.2772 27.3636 22.6525C28.4134 21.4264 29.1125 19.6222 29.1125 18.2219C29.1125 16.2286 27.4933 14.6094 25.5 14.6094Z" fill="#FF7D44"/>
<path fill-rule="evenodd" clip-rule="evenodd" d="M39.3125 5.57812C42.245 5.57812 44.625 7.95813 44.625 10.8906C44.625 12.4461 43.8855 14.4691 42.7189 15.8313C41.7775 16.932 40.5684 17.5971 39.3125 17.5971C38.0566 17.5971 36.8475 16.932 35.9061 15.8313C34.7395 14.4691 34 12.4461 34 10.8906C34 7.95813 36.38 5.57812 39.3125 5.57812ZM39.3125 8.76563C38.1395 8.76563 37.1875 9.71763 37.1875 10.8906C37.1875 11.798 37.6486 12.9646 38.3286 13.7594C38.6176 14.0973 38.9258 14.4096 39.3125 14.4096C39.6993 14.4096 40.0074 14.0973 40.2964 13.7594C40.9764 12.9646 41.4375 11.798 41.4375 10.8906C41.4375 9.71763 40.4855 8.76563 39.3125 8.76563Z" fill="#FF7D44"/>
<path fill-rule="evenodd" clip-rule="evenodd" d="M11.6875 5.57812C14.62 5.57812 17 7.95813 17 10.8906C17 12.4461 16.2605 14.4691 15.0939 15.8313C14.1525 16.932 12.9434 17.5971 11.6875 17.5971C10.4316 17.5971 9.2225 16.932 8.28113 15.8313C7.1145 14.4691 6.375 12.4461 6.375 10.8906C6.375 7.95813 8.755 5.57812 11.6875 5.57812ZM11.6875 8.76563C10.5145 8.76563 9.5625 9.71763 9.5625 10.8906C9.5625 11.798 10.0236 12.9646 10.7036 13.7594C10.9926 14.0973 11.3008 14.4096 11.6875 14.4096C12.0743 14.4096 12.3824 14.0973 12.6714 13.7594C13.3514 12.9646 13.8125 11.798 13.8125 10.8906C13.8125 9.71763 12.8605 8.76563 11.6875 8.76563Z" fill="#FF7D44"/>
<path fill-rule="evenodd" clip-rule="evenodd" d="M25.5 28.103C32.13 28.103 37.5063 33.4793 37.5063 40.1093V42.3405C37.5063 44.0427 36.1271 45.4218 34.425 45.4218H16.575C14.8729 45.4218 13.4938 44.0427 13.4938 42.3405V40.1093C13.4938 33.4793 18.87 28.103 25.5 28.103ZM16.6813 42.2343H34.3188V40.1093C34.3188 35.2388 30.3705 31.2905 25.5 31.2905C20.6295 31.2905 16.6813 35.2388 16.6813 40.1093V42.2343Z" fill="#FF7D44"/>
<path fill-rule="evenodd" clip-rule="evenodd" d="M45.1562 28.9531V27.8906C45.1562 24.6628 42.5404 22.0469 39.3125 22.0469C38.4157 22.0469 37.5679 22.2488 36.8092 22.6079C36.0145 22.9861 35.0625 22.6483 34.6864 21.8535C34.3081 21.0588 34.646 20.1068 35.4407 19.7285C36.6137 19.1718 37.927 18.8594 39.3125 18.8594C44.2999 18.8594 48.3437 22.9033 48.3437 27.8906V29.4844C48.3437 30.9506 47.1537 32.1406 45.6875 32.1406H37.1875C36.3077 32.1406 35.5937 31.4266 35.5937 30.5469C35.5937 29.6671 36.3077 28.9531 37.1875 28.9531H45.1562Z" fill="#FF7D44"/>
<path fill-rule="evenodd" clip-rule="evenodd" d="M5.84375 28.9531H13.8125C14.6923 28.9531 15.4063 29.6671 15.4063 30.5469C15.4063 31.4266 14.6923 32.1406 13.8125 32.1406H5.3125C3.84625 32.1406 2.65625 30.9506 2.65625 29.4844V27.8906C2.65625 22.9033 6.70013 18.8594 11.6875 18.8594C13.073 18.8594 14.3863 19.1718 15.5593 19.7285C16.354 20.1068 16.6919 21.0588 16.3136 21.8535C15.9375 22.6483 14.9855 22.9861 14.1908 22.6079C13.4321 22.2488 12.5843 22.0469 11.6875 22.0469C8.45963 22.0469 5.84375 24.6628 5.84375 27.8906V28.9531Z" fill="#FF7D44"/>
</svg>
