<svg width="51" height="51" viewBox="0 0 51 51" fill="none" xmlns="http://www.w3.org/2000/svg">
<path d="M46.5617 44.1238L41.554 18.5007C41.067 16.0112 38.6989 14.0603 36.161 14.0603H25.4674C22.9509 14.0428 20.9092 11.9911 20.9092 9.47138C20.9092 6.94002 22.9684 4.88009 25.4996 4.88009C28.0309 4.88009 30.0901 6.94011 30.0901 9.47138C30.0901 10.0108 29.9983 10.5378 29.8163 11.0362C29.5303 11.8215 29.9352 12.6897 30.7213 12.9757C31.5041 13.2585 32.3739 12.856 32.66 12.0707C32.9624 11.2395 33.1165 10.3648 33.1165 9.47138C33.1165 5.27108 29.6991 1.85449 25.4996 1.85449C21.3002 1.85449 17.8827 5.27108 17.8827 9.47138C17.8827 11.1934 18.458 12.7832 19.4255 14.0603H14.8399C12.302 14.0603 9.93381 16.0104 9.44603 18.5007L4.43836 44.1238C4.18593 45.4124 4.48999 46.6977 5.27362 47.6495C6.05734 48.6003 7.2591 49.1454 8.57308 49.1454H42.4262C43.7402 49.1454 44.9427 48.6003 45.7255 47.6494C46.5093 46.6985 46.8142 45.4132 46.5617 44.1238ZM43.3894 45.7255C43.1803 45.9796 42.8385 46.1198 42.4262 46.1198H8.57308C8.1616 46.1198 7.81975 45.9796 7.61073 45.7247C7.40171 45.4714 7.32957 45.109 7.4091 44.7049L12.4169 19.0827C12.625 18.0195 13.7571 17.0867 14.84 17.0867H36.161C37.2439 17.0867 38.376 18.0196 38.5833 19.0827L43.5911 44.7058C43.6705 45.109 43.5984 45.4714 43.3894 45.7255Z" fill="#FF7D44"/>
<path d="M30.482 24.5576H20.5182C19.6829 24.5576 19.005 25.2347 19.005 26.0708V27.498C19.005 28.3341 19.6821 29.0112 20.5182 29.0112C21.3248 29.0112 21.9839 28.38 22.0289 27.584H23.9856V35.6223H23.9463C23.111 35.6223 22.433 36.2994 22.433 37.1355C22.433 37.9716 23.1102 38.6487 23.9463 38.6487H27.0497C27.8858 38.6487 28.5638 37.9716 28.5638 37.1355C28.5638 36.2994 27.8859 35.6223 27.0497 35.6223H27.0129V27.584H28.9704C29.0154 28.3792 29.6753 29.0112 30.4819 29.0112C31.318 29.0112 31.9951 28.3341 31.9951 27.498V26.0708C31.9952 25.2347 31.3181 24.5576 30.482 24.5576Z" fill="#FF7D44"/>
</svg>
