<svg width="51" height="51" viewBox="0 0 51 51" fill="none" xmlns="http://www.w3.org/2000/svg">
<path fill-rule="evenodd" clip-rule="evenodd" d="M25.5 45.1562C26.3798 45.1562 27.0938 45.8703 27.0938 46.75C27.0938 47.6297 26.3798 48.3438 25.5 48.3438H8.5C6.95088 48.3438 5.46338 47.7275 4.36688 46.6331C3.2725 45.5366 2.65625 44.0491 2.65625 42.5V8.5C2.65625 6.95088 3.2725 5.46338 4.36688 4.36688C5.46338 3.2725 6.95088 2.65625 8.5 2.65625H26.7453C27.7313 2.65625 28.6769 3.04725 29.3739 3.74638L38.7536 13.1261C39.4528 13.8231 39.8438 14.7688 39.8438 15.7548V23.375C39.8438 24.2547 39.1298 24.9688 38.25 24.9688C37.3703 24.9688 36.6563 24.2547 36.6563 23.375V15.7548C36.6563 15.6145 36.601 15.4785 36.5011 15.3786L27.1214 5.99887C27.0215 5.899 26.8855 5.84375 26.7453 5.84375H8.5C7.7945 5.84375 7.12088 6.12425 6.6215 6.6215C6.12425 7.12087 5.84375 7.7945 5.84375 8.5V42.5C5.84375 43.2055 6.12425 43.8791 6.6215 44.3785C7.12088 44.8758 7.7945 45.1562 8.5 45.1562H25.5Z" fill="#FF7D44"/>
<path fill-rule="evenodd" clip-rule="evenodd" d="M26.0312 5.3125C26.0312 4.43275 26.7452 3.71875 27.625 3.71875C28.5048 3.71875 29.2188 4.43275 29.2188 5.3125V12.75C29.2188 13.0433 29.4567 13.2812 29.75 13.2812H37.1875C38.0673 13.2812 38.7812 13.9952 38.7812 14.875C38.7812 15.7548 38.0673 16.4688 37.1875 16.4688H29.75C27.6951 16.4688 26.0312 14.8049 26.0312 12.75V5.3125Z" fill="#FF7D44"/>
<path fill-rule="evenodd" clip-rule="evenodd" d="M12.75 23.9062C11.8703 23.9062 11.1562 23.1923 11.1562 22.3125C11.1562 21.4327 11.8703 20.7188 12.75 20.7188H29.75C30.6298 20.7188 31.3438 21.4327 31.3438 22.3125C31.3438 23.1923 30.6298 23.9062 29.75 23.9062H12.75Z" fill="#FF7D44"/>
<path fill-rule="evenodd" clip-rule="evenodd" d="M12.75 31.3438C11.8702 31.3438 11.1562 30.6298 11.1562 29.75C11.1562 28.8702 11.8702 28.1562 12.75 28.1562H22.3125C23.1923 28.1562 23.9062 28.8702 23.9062 29.75C23.9062 30.6298 23.1923 31.3438 22.3125 31.3438H12.75Z" fill="#FF7D44"/>
<path fill-rule="evenodd" clip-rule="evenodd" d="M12.75 38.7812C11.8702 38.7812 11.1562 38.0673 11.1562 37.1875C11.1562 36.3077 11.8702 35.5938 12.75 35.5938H22.3125C23.1923 35.5938 23.9062 36.3077 23.9062 37.1875C23.9062 38.0673 23.1923 38.7812 22.3125 38.7812H12.75Z" fill="#FF7D44"/>
<path d="M37.9546 40.6406C39.715 40.6406 41.1421 39.2135 41.1421 37.4531C41.1421 35.6927 39.715 34.2656 37.9546 34.2656C36.1942 34.2656 34.7671 35.6927 34.7671 37.4531C34.7671 39.2135 36.1942 40.6406 37.9546 40.6406Z" fill="#FF7D44"/>
<path fill-rule="evenodd" clip-rule="evenodd" d="M41.2165 27.7185C41.2165 27.7185 41.9709 29.5354 41.9688 29.5354C42.2556 29.6799 42.534 29.8414 42.8039 30.0156L44.7546 29.7606C45.2816 29.6926 45.8108 29.8924 46.1614 30.294C47.0879 31.3565 47.7998 32.5911 48.2588 33.9256C48.4309 34.4293 48.3395 34.9881 48.0144 35.411C48.0144 35.411 46.8201 36.9729 46.8201 36.9708C46.8371 37.2916 46.8371 37.6146 46.8201 37.9334L48.0144 39.4953C48.3395 39.9181 48.4309 40.477 48.2588 40.9806C47.7998 42.3151 47.0879 43.5498 46.1614 44.6123C45.8108 45.0139 45.2816 45.2136 44.7546 45.1456C44.7546 45.1456 42.8039 44.8906 42.806 44.8885C42.5361 45.0649 42.2556 45.2264 41.9709 45.3709L41.2165 47.1878C41.0125 47.6808 40.5748 48.0378 40.052 48.1398C38.6665 48.4118 37.2428 48.4118 35.8573 48.1398C35.3345 48.0378 34.8968 47.6808 34.6928 47.1878C34.6928 47.1878 33.9384 45.3709 33.9405 45.3709C33.6536 45.2264 33.3731 45.0649 33.1054 44.8906L31.1546 45.1456C30.6255 45.2136 30.0985 45.0139 29.7479 44.6123C28.8193 43.5498 28.1074 42.3151 27.6505 40.9806C27.4784 40.477 27.5698 39.9181 27.8928 39.4953C27.8928 39.4953 29.0891 37.9334 29.0891 37.9355C29.0721 37.6146 29.0721 37.2916 29.0891 36.9729L27.8928 35.411C27.5698 34.9881 27.4784 34.4293 27.6505 33.9256C28.1074 32.5911 28.8193 31.3565 29.7479 30.294C30.0985 29.8924 30.6255 29.6926 31.1546 29.7606C31.1546 29.7606 33.1054 30.0156 33.1033 30.0178C33.3731 29.8414 33.6515 29.6799 33.9384 29.5354L34.6928 27.7185C34.8968 27.2255 35.3345 26.8685 35.8573 26.7665C37.2428 26.4945 38.6665 26.4945 40.052 26.7665C40.5748 26.8685 41.0125 27.2255 41.2165 27.7185ZM38.6198 29.7798C38.1778 29.7415 37.7315 29.7394 37.2895 29.7798L36.6435 31.3331C36.482 31.722 36.1718 32.0323 35.7808 32.1938C35.3175 32.385 34.884 32.6358 34.4866 32.9418C34.153 33.1989 33.728 33.3115 33.3094 33.2584L31.6413 33.0395C31.3863 33.405 31.1631 33.7896 30.9761 34.1934L31.9983 35.5279C32.2554 35.8636 32.368 36.2886 32.3128 36.7073C32.2469 37.2024 32.2469 37.7039 32.3128 38.199C32.368 38.6176 32.2554 39.0426 31.9983 39.3784C31.9983 39.3784 30.9761 40.7129 30.9761 40.715C31.1631 41.1166 31.3863 41.5034 31.6413 41.8668L33.3094 41.6479C33.728 41.5948 34.153 41.7074 34.4866 41.9645C34.884 42.2705 35.3175 42.5213 35.7808 42.7125C36.1718 42.874 36.482 43.1842 36.6435 43.5731L37.2895 45.1265C37.7315 45.1669 38.1778 45.1669 38.6198 45.1265L39.2658 43.5731C39.4273 43.1842 39.7375 42.874 40.1285 42.7125C40.5896 42.5213 41.0253 42.2705 41.4226 41.9645C41.7563 41.7074 42.1813 41.5948 42.5999 41.6479L44.268 41.8668C44.523 41.5013 44.7461 41.1166 44.9331 40.7129L43.911 39.3784C43.6539 39.0426 43.5413 38.6176 43.5965 38.199C43.6603 37.7039 43.6603 37.2024 43.5965 36.7073C43.5413 36.2886 43.6539 35.8636 43.911 35.5279C43.911 35.5279 44.9331 34.1934 44.9331 34.1913C44.744 33.7896 44.523 33.4029 44.268 33.0395L42.5999 33.2584C42.1813 33.3115 41.7563 33.1989 41.4226 32.9418C41.0253 32.6358 40.5896 32.385 40.1285 32.1938C39.7375 32.0323 39.4273 31.722 39.2658 31.3331L38.6198 29.7798Z" fill="#FF7D44"/>
</svg>
