<svg width="32" height="32" viewBox="0 0 32 32" fill="none" xmlns="http://www.w3.org/2000/svg">
<g clip-path="url(#clip0_845_115694)">
<path d="M21.7009 18.8258L17.2392 15.4796V8.6632C17.2392 7.97783 16.6852 7.42383 15.9999 7.42383C15.3145 7.42383 14.7605 7.97783 14.7605 8.6632V16.0993C14.7605 16.4897 14.9439 16.8578 15.2562 17.0908L20.2136 20.8089C20.4367 20.9762 20.697 21.0568 20.956 21.0568C21.334 21.0568 21.7058 20.887 21.9487 20.5598C22.3603 20.0131 22.2487 19.2361 21.7009 18.8258Z" fill="white"/>
<path d="M16 0C7.17706 0 0 7.17706 0 16C0 24.8229 7.17706 32 16 32C24.8229 32 32 24.8229 32 16C32 7.17706 24.8229 0 16 0ZM16 29.5213C8.54531 29.5213 2.47869 23.4547 2.47869 16C2.47869 8.54531 8.54531 2.47869 16 2.47869C23.4559 2.47869 29.5213 8.54531 29.5213 16C29.5213 23.4547 23.4547 29.5213 16 29.5213Z" fill="white"/>
</g>
<defs>
<clipPath id="clip0_845_115694">
<rect width="32" height="32" fill="white"/>
</clipPath>
</defs>
</svg>
