<svg width="97" height="97" viewBox="0 0 97 97" fill="none" xmlns="http://www.w3.org/2000/svg">
<path d="M20.0001 58.3245C18.0094 63.348 14.8627 68.3211 10.6488 73.1077C9.30787 74.6308 9.13764 76.805 10.2255 78.5175C11.0633 79.8348 12.4723 80.5852 13.9643 80.5852C14.3846 80.5852 14.8124 80.526 15.2342 80.4032C24.1652 77.7937 44.9976 68.5253 45.5571 38.8996C45.7732 27.4599 37.4062 17.632 26.5111 16.5249C20.5063 15.924 14.4986 17.8748 10.0464 21.8992C5.58838 25.928 3.03076 31.6797 3.03076 37.6815C3.03076 47.6944 10.1382 56.4506 20.0001 58.3245ZM14.1108 26.3972C16.9422 23.8381 20.5063 22.4749 24.285 22.4749C24.8194 22.4749 25.3581 22.5015 25.8984 22.5578C33.6792 23.3466 39.6515 30.4748 39.4946 38.7841C39.1083 59.2836 28.009 68.512 18.8175 72.64C21.7259 68.7059 24.0112 64.6593 25.6364 60.5579C26.2698 58.9609 26.1648 57.1759 25.3492 55.6603C24.4952 54.0707 22.9722 52.9428 21.1739 52.5654C14.173 51.1016 9.09326 44.8407 9.09326 37.6815C9.09326 33.3921 10.9227 29.279 14.1108 26.3972Z" fill="url(#paint0_radial_853_47797)"/>
<path d="M58.6352 78.5175C59.4729 79.8348 60.882 80.5852 62.3739 80.5852C62.7943 80.5852 63.2206 80.526 63.6439 80.4032C72.5748 77.7937 93.4058 68.5253 93.9652 38.8996C94.1784 27.4599 85.8129 17.632 74.9163 16.5249C68.9041 15.9136 62.9068 17.8733 58.4546 21.8992C53.9966 25.928 51.439 31.6797 51.439 37.6815C51.439 47.6944 58.5464 56.4507 68.4069 58.3245C66.4146 63.3524 63.268 68.3255 59.0556 73.1092C57.7146 74.6337 57.5458 76.8065 58.6352 78.5175ZM74.043 60.5609C74.6765 58.9639 74.5729 57.1789 73.7588 55.6633C72.9033 54.0722 71.3818 52.9443 69.582 52.5654C62.5811 51.1016 57.5014 44.8408 57.5014 37.6815C57.5014 33.3907 59.3308 29.279 62.5189 26.3972C65.3489 23.8381 68.913 22.4749 72.6932 22.4749C73.226 22.4749 73.7648 22.5015 74.3065 22.5578C82.0859 23.3466 88.0596 30.4748 87.9027 38.7841C87.5179 59.285 76.4171 68.512 67.2257 72.64C70.1326 68.7089 72.4149 64.6623 74.043 60.5609Z" fill="url(#paint1_radial_853_47797)"/>
<defs>
<radialGradient id="paint0_radial_853_47797" cx="0" cy="0" r="1" gradientUnits="userSpaceOnUse" gradientTransform="translate(45.9341 31.0738) scale(51.2227 85.4808)">
<stop stop-color="#FFE5CA"/>
<stop offset="0.5" stop-color="#F6921E"/>
<stop offset="1" stop-color="#D83B20"/>
</radialGradient>
<radialGradient id="paint1_radial_853_47797" cx="0" cy="0" r="1" gradientUnits="userSpaceOnUse" gradientTransform="translate(94.3422 31.0716) scale(51.2225 85.4847)">
<stop stop-color="#FFE5CA"/>
<stop offset="0.5" stop-color="#F6921E"/>
<stop offset="1" stop-color="#D83B20"/>
</radialGradient>
</defs>
</svg>
