<svg width="26" height="26" viewBox="0 0 26 26" fill="none" xmlns="http://www.w3.org/2000/svg">
<g clip-path="url(#clip0_845_29516)">
<path d="M23.8184 2.95336C20.815 -0.0669913 15.8583 0.0831513 12.9988 3.2227C10.139 0.0832623 5.18251 -0.0670468 2.17911 2.95342C-0.80752 5.92771 -0.705776 10.8255 2.37148 13.6962C0.79715 15.1998 1.69906 17.9017 3.8419 18.1651C3.71354 19.6324 4.96241 20.9779 6.43966 20.953C6.53024 22.5682 8.15147 23.7245 9.70579 23.2976C10.2157 25.222 12.6671 25.8796 14.0734 24.4633C14.8722 23.6693 15.5073 23.1687 15.5479 21.9662C16.8676 21.9294 18.0095 20.772 18.0296 19.453C19.3621 19.4324 20.523 18.2711 20.5435 16.9391C21.9258 16.9181 23.1243 15.6705 23.06 14.2621L23.8183 13.5038C26.7271 10.595 26.7271 5.86208 23.8184 2.95336ZM3.51489 14.9103L4.22715 14.198C4.41124 14.0139 4.65296 13.9219 4.89479 13.9219C5.72396 13.9164 6.15677 14.9415 5.56231 15.5332L4.85005 16.2454C3.92808 17.0942 2.66599 15.8326 3.51489 14.9103ZM5.50091 18.3432C5.50091 18.091 5.59916 17.8539 5.77747 17.6756L6.49012 16.963C6.66838 16.7849 6.90532 16.6868 7.15732 16.6868C7.99355 16.6853 8.41741 17.7081 7.8249 18.2985L7.19643 18.927C7.00434 19.1447 6.74045 19.292 6.445 19.2873C5.93761 19.2977 5.49041 18.8507 5.50091 18.3432ZM8.37518 21.4408C8.00894 21.0894 8.00894 20.4571 8.37518 20.1057L9.00365 19.4772C9.37006 19.0422 10.0133 18.9856 10.4227 19.3934C10.7907 19.7616 10.7907 20.3604 10.4227 20.7286L9.71035 21.4409C9.34227 21.8091 8.74331 21.8091 8.37518 21.4408ZM13.607 22.5723L12.8947 23.2845C12.7164 23.4628 12.4793 23.5611 12.2272 23.5611C11.9749 23.5611 11.7378 23.4628 11.5595 23.2845C11.1933 22.933 11.1932 22.3007 11.5596 21.9493L12.2718 21.2371C12.6399 20.8689 13.2389 20.8689 13.6069 21.237C13.9732 21.5885 13.9733 22.2208 13.607 22.5723ZM21.1174 14.999C20.7659 15.3652 20.1336 15.3653 19.7822 14.999L16.0727 11.2895L14.894 12.4682L18.6035 16.1777C18.9716 16.5459 18.9716 17.1448 18.6035 17.5129C18.2354 17.8812 17.6365 17.881 17.2683 17.5129L13.6217 13.8663L13.5588 13.8034L12.3801 14.9822L12.443 15.0451L16.0896 18.6917C16.4577 19.0598 16.4577 19.6588 16.0896 20.0269C15.7214 20.395 15.1225 20.395 14.7544 20.0269L14.7536 20.0276C14.0763 19.3728 13.1297 19.1572 12.2748 19.3808C12.0026 18.2687 10.8847 17.4267 9.76042 17.4512C9.7059 16.2542 8.69392 15.1729 7.498 15.0437C7.65581 12.9899 5.40022 11.5756 3.62019 12.5873C1.14111 10.3728 0.988412 6.48538 3.35796 4.13211C5.7139 1.75967 9.60661 1.91687 11.8201 4.40144L9.75936 6.46221L11.4107 8.1135C12.6791 9.38204 14.6337 9.55658 16.0911 8.63728L21.1176 13.6638C21.4855 14.0319 21.4855 14.6309 21.1174 14.999ZM22.6397 12.325L22.3857 12.579C22.3567 12.5471 22.3269 12.5158 22.2962 12.4851L16.1566 6.34541L15.5672 6.93475C14.7462 7.7557 13.4104 7.75581 12.5893 6.93475L12.1167 6.46221L14.4468 4.13211C20.107 -1.07748 27.8481 6.66859 22.6397 12.325Z" fill="#FF7D44"/>
</g>
<defs>
<clipPath id="clip0_845_29516">
<rect width="26" height="26" fill="white"/>
</clipPath>
</defs>
</svg>
