<svg width="26" height="26" viewBox="0 0 26 26" fill="none" xmlns="http://www.w3.org/2000/svg">
<g clip-path="url(#clip0_845_29524)">
<path d="M26 14.8394C26 13.0415 24.7926 11.4409 23.064 10.947L20.4159 10.1904L18.331 6.02043C17.6927 4.74393 16.4096 3.95093 14.9824 3.95093H7.16254C5.61075 3.95093 4.20201 4.92715 3.65713 6.38014L2.19333 10.2836L1.37509 10.6926C0.526933 11.1168 0 11.9694 0 12.9178V19.245H3.65198C4.00308 20.8464 5.43196 22.049 7.13726 22.049C8.84255 22.049 10.2714 20.8464 10.6225 19.245H15.3775C15.7286 20.8464 17.1575 22.049 18.8628 22.049C20.5681 22.049 21.997 20.8464 22.3481 19.245H26V14.8394ZM16.963 6.70443L18.645 10.0686H11.7255V5.48034H14.9824C15.8265 5.48034 16.5855 5.94936 16.963 6.70443ZM5.08917 6.91717C5.41142 6.05779 6.24469 5.48034 7.16254 5.48034H10.1961V10.0686H3.90739L5.08917 6.91717ZM7.13726 20.5196C6.01283 20.5196 5.09804 19.6048 5.09804 18.4803C5.09804 17.3559 6.01283 16.4411 7.13726 16.4411C8.26168 16.4411 9.17647 17.3559 9.17647 18.4803C9.17647 19.6048 8.26168 20.5196 7.13726 20.5196ZM18.8627 20.5196C17.7383 20.5196 16.8235 19.6048 16.8235 18.4803C16.8235 17.3559 17.7383 16.4411 18.8627 16.4411C19.9872 16.4411 20.902 17.3559 20.902 18.4803C20.902 19.6048 19.9872 20.5196 18.8627 20.5196ZM22.348 17.7156C21.9969 16.1142 20.568 14.9117 18.8627 14.9117C17.1575 14.9117 15.7286 16.1142 15.3775 17.7156H10.6225C10.2714 16.1142 8.8425 14.9117 7.1372 14.9117C5.43191 14.9117 4.00303 16.1142 3.65193 17.7156H1.52941V12.9178C1.52941 12.5524 1.73236 12.224 2.05915 12.0606L2.98444 11.598H19.6275V11.5558L22.6438 12.4176C23.4006 12.6339 23.9964 13.1912 24.2833 13.8922H22.9412V15.4216H24.4706V17.7157H22.348V17.7156Z" fill="#FF7D44"/>
</g>
<defs>
<clipPath id="clip0_845_29524">
<rect width="26" height="26" fill="white"/>
</clipPath>
</defs>
</svg>
