<svg width="26" height="26" viewBox="0 0 26 26" fill="none" xmlns="http://www.w3.org/2000/svg">
<g clip-path="url(#clip0_845_29531)">
<path d="M23.737 4.72199V2.74603C23.737 1.6104 22.8136 0.687012 21.6784 0.687012H4.32182C3.18643 0.687012 2.26279 1.6104 2.26279 2.74603V4.72199C1.50975 4.84411 0.931274 5.49375 0.931274 6.28088V8.21543C0.931274 9.26229 1.45957 10.1871 2.26279 10.74V23.5361C2.26279 24.4099 2.97343 25.1205 3.84698 25.1205H22.153C23.0263 25.1205 23.737 24.4099 23.737 23.5361V10.74C24.5402 10.1872 25.0685 9.2623 25.0685 8.21543V6.28088C25.0685 5.49356 24.49 4.84386 23.737 4.72199ZM18.9415 8.21543C18.9415 9.00889 18.2958 9.65456 17.5024 9.65456C16.7094 9.65456 16.0637 9.00889 16.0637 8.21543V6.32105H18.9415V8.21543ZM14.4391 8.21543C14.4391 9.00889 13.7935 9.65456 13 9.65456C12.2068 9.65456 11.5614 9.00889 11.5614 8.21543V6.32105H14.4391V8.21543ZM9.93627 8.21543C9.93627 9.00889 9.29084 9.65456 8.49763 9.65456C7.70417 9.65456 7.05874 9.00889 7.05874 8.21543V6.32105H9.93626L9.93627 8.21543ZM5.43365 8.21543C5.43365 9.00889 4.78822 9.65456 3.99501 9.65456C3.2018 9.65456 2.55637 9.00889 2.55637 8.21543V6.32105H5.43365V8.21543ZM20.5661 6.32105H23.4439V8.21543C23.4439 9.00889 22.7982 9.65456 22.0048 9.65456C21.2118 9.65456 20.5661 9.00889 20.5661 8.21543V6.32105ZM3.8879 2.74603C3.8879 2.50651 4.08254 2.31162 4.32182 2.31162H21.6784C21.9175 2.31162 22.1124 2.50651 22.1124 2.74603V4.69645H3.8879V2.74603ZM8.06768 23.4959V16.9906C8.06768 16.0107 8.86485 15.2132 9.84478 15.2132C10.8249 15.2132 11.6221 16.0107 11.6221 16.9906V23.4959H8.06768ZM22.1124 23.4959H13.2472V16.9906C13.2472 15.1145 11.7208 13.5886 9.84478 13.5886C7.96874 13.5886 6.44258 15.1145 6.44258 16.9906V23.4959H3.8879V11.2737C3.92376 11.275 3.95884 11.2792 3.99501 11.2792C4.88548 11.2792 5.68588 10.895 6.2462 10.2865C6.80652 10.895 7.60704 11.2792 8.49763 11.2792C9.3881 11.2792 10.1885 10.895 10.7488 10.2865C11.3091 10.895 12.1095 11.2792 13 11.2792C13.8907 11.2792 14.6911 10.895 15.2514 10.2864C15.8116 10.895 16.612 11.2792 17.5024 11.2792C18.393 11.2792 19.1935 10.895 19.7538 10.2864C20.314 10.895 21.1143 11.2792 22.0048 11.2792C22.0411 11.2792 22.0764 11.275 22.1124 11.2737V23.4959Z" fill="#FF7D44"/>
<path d="M19.6065 13.5886H16.4506C15.7112 13.5886 15.1096 14.1902 15.1096 14.9296V17.4716C15.1096 18.211 15.7112 18.8125 16.4506 18.8125H19.6065C20.3459 18.8125 20.9475 18.211 20.9475 17.4716V14.9296C20.9475 14.1902 20.3459 13.5886 19.6065 13.5886ZM19.3229 17.1879H16.7342V15.2132H19.3229V17.1879Z" fill="#FF7D44"/>
</g>
<defs>
<clipPath id="clip0_845_29531">
<rect width="26" height="26" fill="white"/>
</clipPath>
</defs>
</svg>
