<svg width="26" height="26" viewBox="0 0 26 26" fill="none" xmlns="http://www.w3.org/2000/svg">
<g clip-path="url(#clip0_3198_14)">
<mask id="mask0_3198_14" style="mask-type:luminance" maskUnits="userSpaceOnUse" x="0" y="0" width="26" height="26">
<path d="M26 0H0V26H26V0Z" fill="white"/>
</mask>
<g mask="url(#mask0_3198_14)">
<path d="M23.7369 4.72199V2.74603C23.7369 1.6104 22.8135 0.687012 21.6783 0.687012H4.3217C3.18631 0.687012 2.26267 1.6104 2.26267 2.74603V4.72199C1.50963 4.84411 0.931152 5.49375 0.931152 6.28088V8.21543C0.931152 9.26229 1.45945 10.1871 2.26267 10.74V23.5361C2.26267 24.4099 2.97331 25.1205 3.84686 25.1205H22.1529C23.0262 25.1205 23.7369 24.4099 23.7369 23.5361V10.74C24.5401 10.1872 25.0684 9.2623 25.0684 8.21543V6.28088C25.0684 5.49356 24.4899 4.84386 23.7369 4.72199ZM18.9414 8.21543C18.9414 9.00889 18.2957 9.65456 17.5023 9.65456C16.7093 9.65456 16.0636 9.00889 16.0636 8.21543V6.32105H18.9414V8.21543ZM14.439 8.21543C14.439 9.00889 13.7934 9.65456 12.9999 9.65456C12.2067 9.65456 11.5613 9.00889 11.5613 8.21543V6.32105H14.439V8.21543ZM9.93615 8.21543C9.93615 9.00889 9.29072 9.65456 8.49751 9.65456C7.70405 9.65456 7.05862 9.00889 7.05862 8.21543V6.32105H9.93614L9.93615 8.21543ZM5.43353 8.21543C5.43353 9.00889 4.7881 9.65456 3.99489 9.65456C3.20168 9.65456 2.55625 9.00889 2.55625 8.21543V6.32105H5.43353V8.21543ZM20.566 6.32105H23.4438V8.21543C23.4438 9.00889 22.7981 9.65456 22.0047 9.65456C21.2117 9.65456 20.566 9.00889 20.566 8.21543V6.32105ZM3.88778 2.74603C3.88778 2.50651 4.08242 2.31162 4.3217 2.31162H21.6783C21.9174 2.31162 22.1123 2.50651 22.1123 2.74603V4.69645H3.88778V2.74603ZM8.06756 23.4959V16.9906C8.06756 16.0107 8.86473 15.2132 9.84466 15.2132C10.8248 15.2132 11.622 16.0107 11.622 16.9906V23.4959H8.06756ZM22.1123 23.4959H13.2471V16.9906C13.2471 15.1145 11.7207 13.5886 9.84466 13.5886C7.96862 13.5886 6.44246 15.1145 6.44246 16.9906V23.4959H3.88778V11.2737C3.92364 11.275 3.95872 11.2792 3.99489 11.2792C4.88536 11.2792 5.68576 10.895 6.24608 10.2865C6.8064 10.895 7.60692 11.2792 8.49751 11.2792C9.38798 11.2792 10.1884 10.895 10.7487 10.2865C11.309 10.895 12.1094 11.2792 12.9999 11.2792C13.8906 11.2792 14.691 10.895 15.2513 10.2864C15.8115 10.895 16.6119 11.2792 17.5023 11.2792C18.3929 11.2792 19.1934 10.895 19.7537 10.2864C20.3139 10.895 21.1142 11.2792 22.0047 11.2792C22.041 11.2792 22.0763 11.275 22.1123 11.2737V23.4959Z" fill="white"/>
<path d="M19.6063 13.5886H16.4504C15.711 13.5886 15.1094 14.1902 15.1094 14.9296V17.4716C15.1094 18.211 15.711 18.8125 16.4504 18.8125H19.6063C20.3457 18.8125 20.9473 18.211 20.9473 17.4716V14.9296C20.9473 14.1902 20.3457 13.5886 19.6063 13.5886ZM19.3227 17.1879H16.734V15.2132H19.3227V17.1879Z" fill="white"/>
</g>
</g>
<defs>
<clipPath id="clip0_3198_14">
<rect width="26" height="26" fill="white"/>
</clipPath>
</defs>
</svg>
