<svg width="26" height="26" viewBox="0 0 26 26" fill="none" xmlns="http://www.w3.org/2000/svg">
<path d="M19.5163 3.83593L18.7536 1.69775C18.6292 1.34983 18.4003 1.04882 18.0984 0.835841C17.7964 0.622863 17.4361 0.508303 17.0665 0.507812H8.93362C8.56407 0.508407 8.2037 0.623 7.90168 0.835957C7.59966 1.04891 7.3707 1.34986 7.24603 1.69775L6.48385 3.83593C5.8596 3.97255 5.30071 4.31822 4.89967 4.81573C4.49863 5.31325 4.27948 5.93278 4.2785 6.57181V19.428C4.27945 20.0671 4.49858 20.6867 4.89962 21.1842C5.30067 21.6818 5.85958 22.0275 6.48385 22.1641L7.24603 24.3026C7.3708 24.6504 7.59979 24.9513 7.9018 25.1642C8.2038 25.3771 8.56411 25.4916 8.93362 25.4923H17.0665C17.436 25.4917 17.7964 25.3772 18.0983 25.1642C18.4003 24.9512 18.6291 24.6502 18.7536 24.3023L19.5163 22.1642C20.1405 22.0275 20.6993 21.6817 21.1003 21.1842C21.5013 20.6866 21.7203 20.0671 21.7212 19.428V13.8126H22.523C22.7385 13.8126 22.9452 13.727 23.0976 13.5746C23.25 13.4222 23.3356 13.2156 23.3356 13.0001C23.3356 12.7845 23.25 12.5779 23.0976 12.4255C22.9452 12.2731 22.7385 12.1875 22.523 12.1875H21.7212V6.57181C21.7203 5.93283 21.5012 5.31332 21.1003 4.8158C20.6993 4.31828 20.1405 3.97259 19.5163 3.83593ZM8.77641 2.24402C8.788 2.21158 8.80931 2.1835 8.83745 2.16362C8.86558 2.14374 8.89917 2.13303 8.93362 2.13294H17.0665C17.1009 2.13305 17.1343 2.14373 17.1623 2.16351C17.1904 2.1833 17.2116 2.21123 17.2233 2.24353L17.7678 3.77068H8.2319L8.77641 2.24402ZM17.2228 23.7568C17.2113 23.7891 17.1901 23.817 17.1621 23.8368C17.1342 23.8565 17.1008 23.8671 17.0665 23.8672H8.93362C8.89923 23.8671 8.86571 23.8564 8.83759 23.8367C8.80947 23.8169 8.78811 23.7889 8.77641 23.7566L8.2319 22.2294H17.7678L17.2228 23.7568ZM20.0966 19.428C20.0962 19.7399 19.9722 20.0389 19.7517 20.2594C19.5311 20.48 19.2321 20.604 18.9203 20.6043H7.07991C6.76799 20.604 6.46893 20.48 6.24832 20.2595C6.02771 20.039 5.90357 19.74 5.90311 19.428V6.57181C5.90362 6.25993 6.02778 5.96097 6.24839 5.74051C6.46899 5.52004 6.76802 5.39606 7.07991 5.39576H18.9203C19.2321 5.39608 19.5311 5.52009 19.7516 5.74056C19.9721 5.96104 20.0962 6.25998 20.0966 6.57181V19.428Z" fill="#FF7D44"/>
<path d="M13 17.2083C13.8414 17.2083 14.5234 16.5262 14.5234 15.6848C14.5234 14.8434 13.8414 14.1614 13 14.1614C12.1586 14.1614 11.4766 14.8434 11.4766 15.6848C11.4766 16.5262 12.1586 17.2083 13 17.2083Z" fill="#FF7D44"/>
<path d="M15.6889 12.1515C14.917 11.5609 13.972 11.241 13.0001 11.241C12.0282 11.241 11.0833 11.5609 10.3113 12.1515C10.1398 12.2821 10.0273 12.4754 9.99842 12.689C9.96954 12.9026 10.0267 13.1189 10.1573 13.2903C10.2879 13.4618 10.4813 13.5743 10.6948 13.6032C10.9084 13.6321 11.1247 13.5749 11.2962 13.4443C11.7878 13.0759 12.3857 12.8767 13.0001 12.8767C13.6145 12.8767 14.2124 13.0759 14.7041 13.4443C14.8755 13.5749 15.0918 13.6321 15.3054 13.6032C15.5189 13.5743 15.7123 13.4618 15.8429 13.2903C15.9735 13.1189 16.0307 12.9026 16.0018 12.689C15.9729 12.4754 15.8604 12.2821 15.6889 12.1515Z" fill="#FF7D44"/>
<path d="M13.0001 7.979C11.1457 7.98078 9.35424 8.65158 7.95472 9.86818C7.79196 10.0094 7.69198 10.2096 7.67677 10.4245C7.66156 10.6395 7.73238 10.8517 7.87363 11.0145C8.01489 11.1772 8.21502 11.2772 8.42999 11.2924C8.64496 11.3076 8.85717 11.2368 9.01993 11.0956C10.1228 10.134 11.5366 9.60416 12.9998 9.60411C14.4631 9.60406 15.8768 10.1338 16.9798 11.0953C17.0603 11.1656 17.1539 11.2193 17.2552 11.2534C17.3565 11.2874 17.4635 11.3012 17.5701 11.2938C17.6768 11.2864 17.7809 11.2581 17.8765 11.2104C17.9722 11.1627 18.0575 11.0967 18.1275 11.016C18.1976 10.9353 18.2511 10.8415 18.2849 10.7401C18.3186 10.6387 18.3321 10.5317 18.3244 10.4251C18.3167 10.3185 18.2881 10.2144 18.2402 10.1189C18.1922 10.0234 18.1259 9.93828 18.045 9.86844C16.6458 8.6516 14.8544 7.98068 13.0001 7.979Z" fill="#FF7D44"/>
</svg>
