<svg width="26" height="26" viewBox="0 0 26 26" fill="none" xmlns="http://www.w3.org/2000/svg">
<g clip-path="url(#clip0_3198_23)">
<mask id="mask0_3198_23" style="mask-type:luminance" maskUnits="userSpaceOnUse" x="0" y="0" width="26" height="26">
<path d="M26 0H0V26H26V0Z" fill="white"/>
</mask>
<g mask="url(#mask0_3198_23)">
<path d="M20.7441 4.82445H19.4746V1.77686C19.4746 1.20826 19.1995 0.669881 18.7388 0.336705C18.2781 0.00352913 17.6806 -0.0891466 17.1406 0.088994L4.69909 4.19242C3.96901 4.43328 3.47852 5.11161 3.47852 5.88034V20.0755V24.2226C3.47852 25.2027 4.27583 26 5.25586 26H20.7441C21.7242 26 22.5215 25.2027 22.5215 24.2226V6.60179C22.5215 5.62181 21.7242 4.82445 20.7441 4.82445ZM20.998 24.2226C20.998 24.3626 20.8841 24.4765 20.7441 24.4765H5.25586C5.11586 24.4765 5.00195 24.3626 5.00195 24.2226V19.3139V6.60179C5.00195 6.46179 5.11586 6.34788 5.25586 6.34788H20.7441C20.8841 6.34788 20.998 6.46179 20.998 6.60179V24.2226ZM17.6177 1.53575C17.725 1.50041 17.8068 1.54276 17.8461 1.57115C17.8854 1.59953 17.9512 1.66397 17.9512 1.77686V4.8245H7.64654L17.6177 1.53575Z" fill="white"/>
<path d="M7.92188 15.1571H8.84518H18.0781C18.4988 15.1571 18.8398 14.8161 18.8398 14.3954C18.8398 13.9747 18.4988 13.6337 18.0781 13.6337H17.8575C17.5291 11.5314 15.864 9.86627 13.7617 9.53792V9.15625C13.7617 8.73558 13.4207 8.39453 13 8.39453C12.5793 8.39453 12.2383 8.73558 12.2383 9.15625V9.53792C10.136 9.86627 8.47087 11.5314 8.14252 13.6337H7.92188C7.5012 13.6337 7.16016 13.9747 7.16016 14.3954C7.16016 14.8161 7.5012 15.1571 7.92188 15.1571ZM13 11.0023C14.6092 11.0023 15.9602 12.1283 16.3069 13.6337H9.69307C10.0398 12.1283 11.3909 11.0023 13 11.0023Z" fill="white"/>
<path d="M8.21729 17.2151C7.79661 17.2151 7.45557 17.5561 7.45557 17.9768C7.45557 18.3975 7.79661 18.7385 8.21729 18.7385H11.8735C12.2942 18.7385 12.6353 18.3975 12.6353 17.9768C12.6353 17.5561 12.2942 17.2151 11.8735 17.2151H8.21729Z" fill="white"/>
<path d="M17.8877 20.262H8.1123C7.69163 20.262 7.35059 20.603 7.35059 21.0237C7.35059 21.4444 7.69163 21.7854 8.1123 21.7854H17.8877C18.3084 21.7854 18.6494 21.4444 18.6494 21.0237C18.6494 20.603 18.3084 20.262 17.8877 20.262Z" fill="white"/>
</g>
</g>
<defs>
<clipPath id="clip0_3198_23">
<rect width="26" height="26" fill="white"/>
</clipPath>
</defs>
</svg>
