<svg width="26" height="26" viewBox="0 0 26 26" fill="none" xmlns="http://www.w3.org/2000/svg">
<path d="M22.2371 5.79414H17.3926V4.20469C17.3926 2.99102 16.4074 2.00586 15.1938 2.00586H10.8063C9.59258 2.00586 8.60742 2.99102 8.60742 4.20469V5.79414H3.76289C1.96523 5.79414 0.507812 7.25664 0.507812 9.04922V20.7391C0.507812 22.5316 1.97031 23.9941 3.76289 23.9941H22.2371C24.0348 23.9941 25.4922 22.5316 25.4922 20.7391V9.04922C25.4922 7.25664 24.0297 5.79414 22.2371 5.79414ZM10.2324 4.20469C10.2324 3.88984 10.4914 3.63086 10.8063 3.63086H15.1938C15.5086 3.63086 15.7676 3.88984 15.7676 4.20469V5.79414H10.2273V4.20469H10.2324ZM22.2371 7.41914C22.5063 7.41914 22.7551 7.49023 22.9785 7.60195L20.2973 12.152C19.8961 12.8273 19.1598 13.2488 18.3727 13.2488H13.8125V12.2891C13.8125 11.8422 13.4469 11.4766 13 11.4766C12.5531 11.4766 12.1875 11.8422 12.1875 12.2891V13.2488H7.62734C6.84023 13.2488 6.10391 12.8273 5.70781 12.152L3.02656 7.60195C3.25 7.48516 3.49883 7.41914 3.76797 7.41914H22.2422H22.2371ZM22.2371 22.3691H3.76289C2.86406 22.3691 2.13281 21.6379 2.13281 20.7391V9.29297L4.30625 12.9797C4.99687 14.1477 6.26641 14.8789 7.62734 14.8789H12.1875V15.9809C12.1875 16.4277 12.5531 16.7934 13 16.7934C13.4469 16.7934 13.8125 16.4277 13.8125 15.9809V14.8789H18.3727C19.7285 14.8789 21.0031 14.1527 21.6938 12.9797L23.8672 9.29297V20.7391C23.8672 21.6379 23.1359 22.3691 22.2371 22.3691Z" fill="white"/>
</svg>
