<svg width="26" height="26" viewBox="0 0 26 26" fill="none" xmlns="http://www.w3.org/2000/svg">
<path d="M23.6973 4.96646C23.0736 4.16436 22.2846 3.50582 21.3839 3.03552C20.4833 2.56522 19.492 2.29416 18.4773 2.24075C17.4627 2.18734 16.4484 2.35282 15.5033 2.72596C14.5582 3.0991 13.7045 3.67117 13 4.40335C12.2956 3.67118 11.4419 3.09911 10.4968 2.72597C9.55181 2.35283 8.53757 2.18736 7.52294 2.24077C6.50832 2.29418 5.51706 2.56523 4.61643 3.03553C3.71581 3.50583 2.92689 4.16437 2.30321 4.96646C1.02233 6.61576 0.390561 8.67743 0.527508 10.7612C0.664456 12.845 1.56061 14.8062 3.04634 16.2737L8.96057 22.1113C10.0395 23.1683 11.4897 23.7602 13.0001 23.7602C14.5105 23.7602 15.9607 23.1683 17.0397 22.1113L22.9539 16.2737C24.4395 14.8062 25.3356 12.845 25.4726 10.7612C25.6096 8.67751 24.978 6.61586 23.6973 4.96646ZM21.8123 15.1173L15.8981 20.9549C15.1241 21.7132 14.0837 22.138 13.0001 22.138C11.9165 22.138 10.8761 21.7132 10.1021 20.9549L4.18793 15.1173C2.98521 13.9293 2.25973 12.3416 2.14882 10.6548C2.03792 8.96793 2.54929 7.29895 3.58613 5.96376C4.0931 5.30524 4.74508 4.77249 5.49141 4.4069C6.23775 4.04132 7.05833 3.85276 7.88938 3.85586C7.9288 3.85586 7.96848 3.85637 8.00815 3.8571C8.85921 3.87121 9.69493 4.08599 10.4473 4.48397C11.1997 4.88195 11.8476 5.4519 12.3382 6.14746C12.417 6.24761 12.5176 6.32857 12.6322 6.38423C12.7469 6.43989 12.8727 6.46882 13.0001 6.46882C13.1276 6.46882 13.2534 6.43989 13.368 6.38423C13.4827 6.32857 13.5832 6.24761 13.662 6.14746C14.1553 5.45462 14.8036 4.88669 15.5554 4.48901C16.3072 4.09134 17.1415 3.87494 17.9918 3.85709C18.8421 3.83924 19.6848 4.02044 20.4526 4.38622C21.2204 4.752 21.892 5.29222 22.4139 5.96376C23.4508 7.29891 23.9622 8.96788 23.8513 10.6547C23.7405 12.3416 23.015 13.9293 21.8123 15.1173Z" fill="white"/>
<path d="M18.6633 11.9732H16.5676C16.4249 11.9731 16.2847 12.0107 16.1612 12.0821C16.0376 12.1535 15.9351 12.2562 15.8639 12.3798L14.5215 14.7079L11.9608 9.18791C11.8956 9.04735 11.7915 8.92838 11.6609 8.845C11.5303 8.76162 11.3786 8.7173 11.2237 8.71729H11.2227C11.0676 8.71751 10.9158 8.7621 10.7852 8.8458C10.6546 8.92949 10.5507 9.0488 10.4857 9.18964L9.20232 11.9732H7.33671C7.22983 11.9729 7.12395 11.9937 7.02513 12.0345C6.92632 12.0752 6.8365 12.135 6.76083 12.2105C6.68517 12.2859 6.62513 12.3756 6.58417 12.4743C6.54321 12.573 6.52213 12.6789 6.52213 12.7857C6.52213 12.8926 6.54321 12.9984 6.58417 13.0972C6.62513 13.1959 6.68517 13.2855 6.76083 13.361C6.8365 13.4365 6.92632 13.4963 7.02513 13.537C7.12395 13.5777 7.22983 13.5985 7.33671 13.5983H9.72228C9.87755 13.5983 10.0296 13.5538 10.1603 13.4701C10.2911 13.3863 10.3952 13.2669 10.4602 13.1259L11.2259 11.4654L13.7062 16.812C13.7687 16.947 13.8672 17.0622 13.9907 17.1451C14.1143 17.228 14.2583 17.2753 14.4069 17.2819C14.4193 17.2824 14.4312 17.2827 14.4431 17.2827C14.5858 17.2827 14.7259 17.2451 14.8495 17.1737C14.973 17.1023 15.0756 16.9996 15.1468 16.876L17.0372 13.5983H18.6633C18.8785 13.5978 19.0846 13.5119 19.2365 13.3596C19.3885 13.2073 19.4738 13.0009 19.4738 12.7857C19.4738 12.5706 19.3885 12.3642 19.2365 12.2119C19.0846 12.0596 18.8785 11.9737 18.6633 11.9732Z" fill="white"/>
</svg>
