<svg width="26" height="26" viewBox="0 0 26 26" fill="none" xmlns="http://www.w3.org/2000/svg">
<path d="M25.4922 17.2098C25.4922 16.7629 25.1266 16.3973 24.6797 16.3973H22.8668V5.90078C22.8668 4.23008 21.5058 2.86914 19.8351 2.86914H6.16991C4.49921 2.86914 3.13827 4.23008 3.13827 5.90078V16.3973H1.32538C0.878503 16.3973 0.512878 16.7629 0.512878 17.2098V18.1746C0.512878 20.9066 2.7371 23.1309 5.46913 23.1309H20.5359C23.268 23.1309 25.4922 20.9066 25.4922 18.1746V17.2098ZM4.75819 5.90078C4.75819 5.12383 5.39296 4.49414 6.16483 4.49414H19.8301C20.607 4.49414 21.2367 5.12383 21.2367 5.90078V16.3973H4.75819V5.90078ZM23.8672 18.1746C23.8672 20.0129 22.3691 21.5059 20.5359 21.5059H5.46405C3.62577 21.5059 2.1328 20.0129 2.1328 18.1746V18.0273H23.8672V18.1746Z" fill="#FF7D44"/>
<path d="M14.5336 18.6926H11.4664C11.0196 18.6926 10.6539 19.0583 10.6539 19.5051C10.6539 19.952 11.0196 20.3176 11.4664 20.3176H14.5336C14.9805 20.3176 15.3461 19.952 15.3461 19.5051C15.3461 19.0583 14.9805 18.6926 14.5336 18.6926Z" fill="#FF7D44"/>
<path d="M16.1992 6.67266L9.18633 13.6855C8.87148 14.0004 8.87148 14.5184 9.18633 14.8332C9.34375 14.9906 9.55195 15.0719 9.76016 15.0719C9.96836 15.0719 10.1766 14.9906 10.334 14.8332L17.3469 7.82031C17.6617 7.50547 17.6617 6.9875 17.3469 6.67266C17.032 6.35781 16.5141 6.35781 16.1992 6.67266Z" fill="#FF7D44"/>
<path d="M9.80078 10.0801L12.5937 7.28711C12.9086 6.97227 12.9086 6.4543 12.5937 6.13945C12.2789 5.82461 11.7609 5.82461 11.4461 6.13945L8.65312 8.93242C8.33828 9.24727 8.33828 9.76523 8.65312 10.0801C8.81055 10.2375 9.01875 10.3187 9.22695 10.3187C9.43516 10.3187 9.64336 10.2375 9.80078 10.0801Z" fill="#FF7D44"/>
</svg>
