<svg width="26" height="26" viewBox="0 0 26 26" fill="none" xmlns="http://www.w3.org/2000/svg">
<path d="M19.5161 3.83593L18.7534 1.69775C18.629 1.34983 18.4001 1.04882 18.0982 0.835841C17.7962 0.622863 17.4359 0.508304 17.0663 0.507812H8.93344C8.56389 0.508407 8.20352 0.623 7.9015 0.835957C7.59948 1.04891 7.37052 1.34986 7.24585 1.69775L6.48367 3.83593C5.85942 3.97255 5.30053 4.31822 4.89949 4.81573C4.49845 5.31325 4.2793 5.93278 4.27832 6.57181V19.428C4.27927 20.0671 4.4984 20.6867 4.89944 21.1842C5.30049 21.6818 5.8594 22.0275 6.48367 22.1641L7.24585 24.3026C7.37062 24.6504 7.59961 24.9513 7.90162 25.1642C8.20362 25.3771 8.56393 25.4916 8.93344 25.4923H17.0663C17.4358 25.4917 17.7962 25.3772 18.0981 25.1642C18.4001 24.9512 18.6289 24.6502 18.7534 24.3023L19.5161 22.1642C20.1403 22.0275 20.6991 21.6817 21.1001 21.1842C21.5011 20.6866 21.7201 20.0671 21.721 19.428V13.8126H22.5228C22.7383 13.8126 22.945 13.727 23.0974 13.5746C23.2498 13.4222 23.3354 13.2156 23.3354 13.0001C23.3354 12.7845 23.2498 12.5779 23.0974 12.4255C22.945 12.2731 22.7383 12.1875 22.5228 12.1875H21.721V6.57181C21.7201 5.93283 21.501 5.31332 21.1001 4.8158C20.6991 4.31828 20.1403 3.97259 19.5161 3.83593ZM8.77623 2.24402C8.78782 2.21158 8.80913 2.1835 8.83727 2.16362C8.8654 2.14374 8.89899 2.13303 8.93344 2.13294H17.0663C17.1007 2.13305 17.1341 2.14373 17.1621 2.16351C17.1902 2.1833 17.2114 2.21123 17.2231 2.24353L17.7676 3.77068H8.23172L8.77623 2.24402ZM17.2226 23.7568C17.2111 23.7891 17.1899 23.817 17.1619 23.8368C17.134 23.8565 17.1006 23.8671 17.0663 23.8672H8.93344C8.89905 23.8671 8.86553 23.8564 8.83741 23.8367C8.80929 23.8169 8.78793 23.7889 8.77623 23.7566L8.23172 22.2294H17.7676L17.2226 23.7568ZM20.0964 19.428C20.096 19.7399 19.972 20.0389 19.7515 20.2594C19.5309 20.48 19.2319 20.604 18.9201 20.6043H7.07973C6.76781 20.604 6.46875 20.48 6.24814 20.2595C6.02753 20.039 5.90339 19.74 5.90293 19.428V6.57181C5.90344 6.25993 6.0276 5.96097 6.24821 5.74051C6.46881 5.52004 6.76784 5.39606 7.07973 5.39576H18.9201C19.2319 5.39608 19.5309 5.52009 19.7514 5.74056C19.9719 5.96104 20.096 6.25998 20.0964 6.57181V19.428Z" fill="white"/>
<path d="M13 17.2083C13.8414 17.2083 14.5234 16.5262 14.5234 15.6848C14.5234 14.8434 13.8414 14.1614 13 14.1614C12.1586 14.1614 11.4766 14.8434 11.4766 15.6848C11.4766 16.5262 12.1586 17.2083 13 17.2083Z" fill="white"/>
<path d="M15.689 12.1515C14.9171 11.5609 13.9721 11.241 13.0002 11.241C12.0283 11.241 11.0834 11.5609 10.3114 12.1515C10.1399 12.2821 10.0274 12.4754 9.99854 12.689C9.96966 12.9026 10.0268 13.1189 10.1574 13.2903C10.288 13.4618 10.4814 13.5743 10.6949 13.6032C10.9085 13.6321 11.1248 13.5749 11.2963 13.4443C11.7879 13.0759 12.3858 12.8767 13.0002 12.8767C13.6146 12.8767 14.2125 13.0759 14.7042 13.4443C14.8756 13.5749 15.0919 13.6321 15.3055 13.6032C15.519 13.5743 15.7124 13.4618 15.843 13.2903C15.9736 13.1189 16.0308 12.9026 16.0019 12.689C15.973 12.4754 15.8605 12.2821 15.689 12.1515Z" fill="white"/>
<path d="M13.0002 7.979C11.1458 7.98078 9.3543 8.65158 7.95478 9.86818C7.79202 10.0094 7.69204 10.2096 7.67683 10.4245C7.66162 10.6395 7.73244 10.8517 7.87369 11.0145C8.01495 11.1772 8.21508 11.2772 8.43005 11.2924C8.64502 11.3076 8.85723 11.2368 9.01999 11.0956C10.1229 10.134 11.5367 9.60416 12.9999 9.60411C14.4632 9.60406 15.8769 10.1338 16.9799 11.0953C17.0604 11.1656 17.154 11.2193 17.2553 11.2534C17.3566 11.2874 17.4636 11.3012 17.5702 11.2938C17.6769 11.2864 17.781 11.2581 17.8766 11.2104C17.9723 11.1627 18.0576 11.0967 18.1276 11.016C18.1977 10.9353 18.2512 10.8415 18.285 10.7401C18.3187 10.6387 18.3322 10.5317 18.3245 10.4251C18.3168 10.3185 18.2882 10.2144 18.2403 10.1189C18.1923 10.0234 18.126 9.93828 18.0451 9.86844C16.6459 8.6516 14.8545 7.98068 13.0002 7.979Z" fill="white"/>
</svg>
