<svg width="38" height="38" viewBox="0 0 38 38" fill="none" xmlns="http://www.w3.org/2000/svg">
<path d="M14.8438 3.5625H6.53125C5.74418 3.56344 4.98961 3.87652 4.43307 4.43307C3.87652 4.98961 3.56344 5.74418 3.5625 6.53125V14.8438C3.56344 15.6308 3.87652 16.3854 4.43307 16.9419C4.98961 17.4985 5.74418 17.8116 6.53125 17.8125H14.8438C15.6308 17.8116 16.3854 17.4985 16.9419 16.9419C17.4985 16.3854 17.8116 15.6308 17.8125 14.8438V6.53125C17.8116 5.74418 17.4985 4.98961 16.9419 4.43307C16.3854 3.87652 15.6308 3.56344 14.8438 3.5625ZM16.625 14.8438C16.625 15.3162 16.4373 15.7692 16.1033 16.1033C15.7692 16.4373 15.3162 16.625 14.8438 16.625H6.53125C6.05883 16.625 5.60577 16.4373 5.27172 16.1033C4.93767 15.7692 4.75 15.3162 4.75 14.8438V6.53125C4.75 6.05883 4.93767 5.60577 5.27172 5.27172C5.60577 4.93767 6.05883 4.75 6.53125 4.75H14.8438C15.3162 4.75 15.7692 4.93767 16.1033 5.27172C16.4373 5.60577 16.625 6.05883 16.625 6.53125V14.8438ZM31.4688 3.5625H23.1562C22.3692 3.56344 21.6146 3.87652 21.0581 4.43307C20.5015 4.98961 20.1884 5.74418 20.1875 6.53125V14.8438C20.1884 15.6308 20.5015 16.3854 21.0581 16.9419C21.6146 17.4985 22.3692 17.8116 23.1562 17.8125H31.4688C32.2558 17.8116 33.0104 17.4985 33.5669 16.9419C34.1235 16.3854 34.4366 15.6308 34.4375 14.8438V6.53125C34.4366 5.74418 34.1235 4.98961 33.5669 4.43307C33.0104 3.87652 32.2558 3.56344 31.4688 3.5625ZM33.25 14.8438C33.25 15.3162 33.0623 15.7692 32.7283 16.1033C32.3942 16.4373 31.9412 16.625 31.4688 16.625H23.1562C22.6838 16.625 22.2308 16.4373 21.8967 16.1033C21.5627 15.7692 21.375 15.3162 21.375 14.8438V6.53125C21.375 6.05883 21.5627 5.60577 21.8967 5.27172C22.2308 4.93767 22.6838 4.75 23.1562 4.75H31.4688C31.9412 4.75 32.3942 4.93767 32.7283 5.27172C33.0623 5.60577 33.25 6.05883 33.25 6.53125V14.8438ZM14.8438 20.1875H6.53125C5.74418 20.1884 4.98961 20.5015 4.43307 21.0581C3.87652 21.6146 3.56344 22.3692 3.5625 23.1562V31.4688C3.56344 32.2558 3.87652 33.0104 4.43307 33.5669C4.98961 34.1235 5.74418 34.4366 6.53125 34.4375H14.8438C15.6308 34.4366 16.3854 34.1235 16.9419 33.5669C17.4985 33.0104 17.8116 32.2558 17.8125 31.4688V23.1562C17.8116 22.3692 17.4985 21.6146 16.9419 21.0581C16.3854 20.5015 15.6308 20.1884 14.8438 20.1875ZM16.625 31.4688C16.625 31.9412 16.4373 32.3942 16.1033 32.7283C15.7692 33.0623 15.3162 33.25 14.8438 33.25H6.53125C6.05883 33.25 5.60577 33.0623 5.27172 32.7283C4.93767 32.3942 4.75 31.9412 4.75 31.4688V23.1562C4.75 22.6838 4.93767 22.2308 5.27172 21.8967C5.60577 21.5627 6.05883 21.375 6.53125 21.375H14.8438C15.3162 21.375 15.7692 21.5627 16.1033 21.8967C16.4373 22.2308 16.625 22.6838 16.625 23.1562V31.4688ZM27.3125 20.1875C25.9033 20.1875 24.5258 20.6054 23.3541 21.3883C22.1824 22.1712 21.2691 23.284 20.7299 24.5859C20.1906 25.8878 20.0495 27.3204 20.3244 28.7025C20.5993 30.0846 21.2779 31.3542 22.2744 32.3506C23.2708 33.3471 24.5404 34.0257 25.9225 34.3006C27.3046 34.5755 28.7372 34.4344 30.0391 33.8951C31.341 33.3559 32.4538 32.4426 33.2367 31.2709C34.0196 30.0992 34.4375 28.7217 34.4375 27.3125C34.4355 25.4235 33.6841 23.6124 32.3484 22.2766C31.0126 20.9409 29.2015 20.1895 27.3125 20.1875ZM27.3125 33.25C26.1382 33.25 24.9902 32.9018 24.0138 32.2494C23.0374 31.5969 22.2764 30.6696 21.827 29.5847C21.3776 28.4997 21.26 27.3059 21.4891 26.1542C21.7182 25.0024 22.2837 23.9444 23.1141 23.1141C23.9444 22.2837 25.0024 21.7182 26.1542 21.4891C27.3059 21.26 28.4997 21.3776 29.5847 21.827C30.6696 22.2764 31.5969 23.0374 32.2494 24.0138C32.9018 24.9902 33.25 26.1382 33.25 27.3125C33.2483 28.8867 32.6222 30.3959 31.509 31.509C30.3959 32.6222 28.8867 33.2483 27.3125 33.25Z" fill="#FF7D44"/>
</svg>
