<svg width="38" height="38" viewBox="0 0 38 38" fill="none" xmlns="http://www.w3.org/2000/svg">
<g clip-path="url(#clip0_934_9)">
<path d="M37.4062 34.4375H21.9094C21.793 33.867 21.5115 33.3433 21.0997 32.9315C20.688 32.5198 20.1643 32.2383 19.5938 32.1219V27.3125C23.1608 27.1573 26.5252 25.6112 28.9662 23.0056C31.4072 20.3999 32.7307 16.9418 32.653 13.3722C32.5754 9.80265 31.1028 6.40542 28.5509 3.90834C25.9989 1.41126 22.5704 0.0129395 19 0.0129395C15.4296 0.0129395 12.0011 1.41126 9.44914 3.90834C6.89715 6.40542 5.42462 9.80265 5.34698 13.3722C5.26934 16.9418 6.59278 20.3999 9.03378 23.0056C11.4748 25.6112 14.8392 27.1573 18.4062 27.3125V32.1219C17.8357 32.2383 17.312 32.5198 16.9003 32.9315C16.4885 33.3433 16.207 33.867 16.0906 34.4375H0.59375C0.436278 34.4375 0.285255 34.5001 0.173905 34.6114C0.0625556 34.7228 0 34.8738 0 35.0313C0 35.1887 0.0625556 35.3398 0.173905 35.4511C0.285255 35.5625 0.436278 35.625 0.59375 35.625H16.0906C16.2269 36.2961 16.591 36.8995 17.1212 37.3329C17.6514 37.7663 18.3152 38.003 19 38.003C19.6848 38.003 20.3486 37.7663 20.8788 37.3329C21.409 36.8995 21.7731 36.2961 21.9094 35.625H37.4062C37.5637 35.625 37.7147 35.5625 37.8261 35.4511C37.9374 35.3398 38 35.1887 38 35.0313C38 34.8738 37.9374 34.7228 37.8261 34.6114C37.7147 34.5001 37.5637 34.4375 37.4062 34.4375ZM19 26.125C16.2193 26.1271 13.5186 25.1944 11.3317 23.4769C11.3873 21.4801 12.2196 19.5837 13.6516 18.191C15.0836 16.7983 17.0024 16.0191 19 16.0191C20.9976 16.0191 22.9164 16.7983 24.3484 18.191C25.7804 19.5837 26.6127 21.4801 26.6683 23.4769C24.4814 25.1944 21.7807 26.1271 19 26.125ZM6.53125 13.6563C6.52995 11.6035 7.03548 9.5822 8.00297 7.77174C8.97045 5.96127 10.37 4.41768 12.0773 3.27798C13.7846 2.13827 15.7468 1.43772 17.7899 1.2385C19.833 1.03928 21.8936 1.34756 23.7889 2.13597C25.6842 2.92438 27.3556 4.16854 28.6546 5.75799C29.9536 7.34745 30.8401 9.23303 31.2354 11.2474C31.6307 13.2617 31.5225 15.3425 30.9205 17.305C30.3185 19.2675 29.2413 21.051 27.7845 22.4972C27.5635 20.8303 26.8741 19.2603 25.7962 17.9696C24.7184 16.6789 23.2965 15.7206 21.6956 15.206C22.6578 14.6183 23.4016 13.7322 23.8137 12.6827C24.2259 11.6332 24.2837 10.4778 23.9784 9.3924C23.6732 8.307 23.0216 7.3511 22.1228 6.67026C21.2241 5.98941 20.1275 5.62094 19 5.62094C17.8725 5.62094 16.7759 5.98941 15.8772 6.67026C14.9784 7.3511 14.3268 8.307 14.0216 9.3924C13.7163 10.4778 13.7741 11.6332 14.1863 12.6827C14.5984 13.7322 15.3422 14.6183 16.3044 15.206C14.7035 15.7206 13.2816 16.6789 12.2038 17.9696C11.1259 19.2603 10.4365 20.8303 10.2155 22.4972C9.04748 21.3402 8.12048 19.9632 7.4881 18.4457C6.85571 16.9281 6.53049 15.3003 6.53125 13.6563ZM19 14.7844C18.212 14.7844 17.4417 14.5507 16.7866 14.113C16.1314 13.6752 15.6208 13.053 15.3192 12.325C15.0177 11.597 14.9388 10.7959 15.0925 10.0231C15.2462 9.25025 15.6257 8.54036 16.1828 7.98318C16.74 7.426 17.4499 7.04655 18.2227 6.89283C18.9956 6.7391 19.7966 6.818 20.5246 7.11954C21.2526 7.42109 21.8749 7.93174 22.3126 8.58691C22.7504 9.24209 22.9841 10.0124 22.9841 10.8003C22.9833 11.8567 22.5633 12.8696 21.8163 13.6166C21.0693 14.3636 20.0564 14.7836 19 14.7844ZM19 36.8125C18.6477 36.8125 18.3033 36.7081 18.0104 36.5123C17.7175 36.3166 17.4892 36.0384 17.3543 35.7129C17.2195 35.3875 17.1842 35.0293 17.253 34.6838C17.3217 34.3382 17.4914 34.0209 17.7405 33.7717C17.9896 33.5226 18.307 33.353 18.6525 33.2843C18.998 33.2155 19.3562 33.2508 19.6817 33.3856C20.0071 33.5204 20.2853 33.7487 20.4811 34.0417C20.6768 34.3346 20.7812 34.679 20.7812 35.0313C20.7812 35.5037 20.5936 35.9568 20.2595 36.2908C19.9255 36.6249 19.4724 36.8125 19 36.8125Z" fill="#FF7D44"/>
</g>
<defs>
<clipPath id="clip0_934_9">
<rect width="38" height="38" fill="white"/>
</clipPath>
</defs>
</svg>
