<svg width="38" height="38" viewBox="0 0 38 38" fill="none" xmlns="http://www.w3.org/2000/svg">
<g clip-path="url(#clip0_934_20)">
<path d="M36.2009 1.1875H1.79906C0.806139 1.18913 0.00162971 1.99364 0 2.98656V35.0135C0.00162971 36.0064 0.806139 36.8109 1.79906 36.8125H36.2009C37.1939 36.8109 37.9984 36.0064 38 35.0135V2.98656C37.9984 1.99364 37.1939 1.18913 36.2009 1.1875ZM36.8125 35.0135C36.8125 35.3512 36.5387 35.625 36.2009 35.625H1.79906C1.46128 35.625 1.18749 35.3512 1.18749 35.0135V2.98656C1.18749 2.64878 1.46128 2.37499 1.79906 2.37499H36.2009C36.5387 2.37499 36.8125 2.64878 36.8125 2.98656V35.0135Z" fill="#FF7D44"/>
<path d="M14.8438 4.75006C13.86 4.75006 13.0625 5.54756 13.0625 6.53133C13.0625 7.51511 13.86 8.31261 14.8438 8.31261C15.8275 8.31261 16.625 7.51511 16.625 6.53133C16.625 5.54756 15.8275 4.75006 14.8438 4.75006ZM14.8438 7.12504C14.5158 7.12504 14.25 6.85919 14.25 6.53126C14.25 6.20334 14.5158 5.93748 14.8438 5.93748C15.1717 5.93748 15.4376 6.20334 15.4376 6.53126C15.4376 6.85919 15.1717 7.12504 14.8438 7.12504Z" fill="#FF7D44"/>
<path d="M20.7813 4.75006C19.7975 4.75006 19 5.54756 19 6.53133C19 7.51511 19.7975 8.31261 20.7813 8.31261C21.7651 8.31261 22.5625 7.51511 22.5625 6.53133C22.5625 5.54756 21.7651 4.75006 20.7813 4.75006ZM20.7813 7.12504C20.4533 7.12504 20.1875 6.85919 20.1875 6.53126C20.1875 6.20334 20.4533 5.93748 20.7813 5.93748C21.1092 5.93748 21.3751 6.20334 21.3751 6.53126C21.375 6.85919 21.1092 7.12504 20.7813 7.12504Z" fill="#FF7D44"/>
<path d="M26.7188 4.75006C25.735 4.75006 24.9375 5.54756 24.9375 6.53133C24.9375 7.51511 25.735 8.31261 26.7188 8.31261C27.7026 8.31261 28.5 7.51511 28.5 6.53133C28.5 5.54756 27.7025 4.75006 26.7188 4.75006ZM26.7188 7.12504C26.3908 7.12504 26.125 6.85919 26.125 6.53126C26.125 6.20334 26.3908 5.93748 26.7188 5.93748C27.0467 5.93748 27.3126 6.20334 27.3126 6.53126C27.3125 6.85919 27.0466 7.12504 26.7188 7.12504Z" fill="#FF7D44"/>
<path d="M32.6563 4.75006C31.6725 4.75006 30.875 5.54756 30.875 6.53133C30.875 7.51511 31.6725 8.31261 32.6563 8.31261C33.6401 8.31261 34.4375 7.51511 34.4375 6.53133C34.4375 5.54756 33.6401 4.75006 32.6563 4.75006ZM32.6563 7.12504C32.3283 7.12504 32.0625 6.85919 32.0625 6.53126C32.0625 6.20334 32.3283 5.93748 32.6563 5.93748C32.9842 5.93748 33.2501 6.20334 33.2501 6.53126C33.2501 6.85919 32.9842 7.12504 32.6563 7.12504Z" fill="#FF7D44"/>
<path d="M8.90632 13.0625H4.15628C3.82836 13.0625 3.5625 13.3284 3.5625 13.6563C3.5625 13.9842 3.82836 14.2501 4.15628 14.2501H8.90632C9.23424 14.2501 9.5001 13.9842 9.5001 13.6563C9.50003 13.3284 9.23417 13.0625 8.90632 13.0625Z" fill="#FF7D44"/>
<path d="M15.7344 13.0625H13.9532C13.6252 13.0625 13.3594 13.3284 13.3594 13.6563C13.3594 13.9842 13.6252 14.2501 13.9532 14.2501H15.7344C16.0624 14.2501 16.3282 13.9842 16.3282 13.6563C16.3281 13.3284 16.0623 13.0625 15.7344 13.0625Z" fill="#FF7D44"/>
<path d="M21.6719 13.0625H19.8907C19.5627 13.0625 19.2969 13.3284 19.2969 13.6563C19.2969 13.9842 19.5627 14.2501 19.8907 14.2501H21.6719C21.9999 14.2501 22.2657 13.9842 22.2657 13.6563C22.2657 13.3284 21.9999 13.0625 21.6719 13.0625Z" fill="#FF7D44"/>
<path d="M27.6094 13.0625H25.8282C25.5002 13.0625 25.2344 13.3284 25.2344 13.6563C25.2344 13.9842 25.5002 14.2501 25.8282 14.2501H27.6094C27.9374 14.2501 28.2032 13.9842 28.2032 13.6563C28.2031 13.3284 27.9374 13.0625 27.6094 13.0625Z" fill="#FF7D44"/>
<path d="M33.5469 13.0625H31.7657C31.4377 13.0625 31.1719 13.3284 31.1719 13.6563C31.1719 13.9842 31.4377 14.2501 31.7657 14.2501H33.5469C33.8749 14.2501 34.1407 13.9842 34.1407 13.6563C34.1406 13.3284 33.8748 13.0625 33.5469 13.0625Z" fill="#FF7D44"/>
<path d="M4.15628 20.1875H6.53126C6.85919 20.1875 7.12504 19.9216 7.12504 19.5937C7.12504 19.2658 6.85919 18.9999 6.53126 18.9999H4.15628C3.82836 18.9999 3.5625 19.2658 3.5625 19.5937C3.5625 19.9216 3.82836 20.1875 4.15628 20.1875Z" fill="#FF7D44"/>
<path d="M15.7344 19H13.9532C13.6252 19 13.3594 19.2659 13.3594 19.5938C13.3594 19.9217 13.6252 20.1876 13.9532 20.1876H15.7344C16.0624 20.1876 16.3282 19.9217 16.3282 19.5938C16.3282 19.2659 16.0623 19 15.7344 19Z" fill="#FF7D44"/>
<path d="M21.6719 19H19.8907C19.5627 19 19.2969 19.2659 19.2969 19.5938C19.2969 19.9217 19.5627 20.1876 19.8907 20.1876H21.6719C21.9999 20.1876 22.2657 19.9217 22.2657 19.5938C22.2657 19.2659 21.9999 19 21.6719 19Z" fill="#FF7D44"/>
<path d="M27.6094 19H25.8282C25.5002 19 25.2344 19.2659 25.2344 19.5938C25.2344 19.9217 25.5002 20.1876 25.8282 20.1876H27.6094C27.9374 20.1876 28.2032 19.9217 28.2032 19.5938C28.2032 19.2659 27.9374 19 27.6094 19Z" fill="#FF7D44"/>
<path d="M33.5469 19H31.7657C31.4377 19 31.1719 19.2659 31.1719 19.5938C31.1719 19.9217 31.4377 20.1876 31.7657 20.1876H33.5469C33.8749 20.1876 34.1407 19.9217 34.1407 19.5938C34.1407 19.2659 33.8748 19 33.5469 19Z" fill="#FF7D44"/>
<path d="M8.90632 24.9376H4.15628C3.82836 24.9376 3.5625 25.2034 3.5625 25.5313C3.5625 25.8593 3.82836 26.1251 4.15628 26.1251H8.90632C9.23424 26.1251 9.5001 25.8593 9.5001 25.5313C9.50003 25.2033 9.23417 24.9376 8.90632 24.9376Z" fill="#FF7D44"/>
<path d="M15.7344 24.9376H13.9532C13.6252 24.9376 13.3594 25.2034 13.3594 25.5313C13.3594 25.8593 13.6252 26.1251 13.9532 26.1251H15.7344C16.0624 26.1251 16.3282 25.8593 16.3282 25.5313C16.3281 25.2033 16.0623 24.9376 15.7344 24.9376Z" fill="#FF7D44"/>
<path d="M21.6719 24.9376H19.8907C19.5627 24.9376 19.2969 25.2034 19.2969 25.5313C19.2969 25.8593 19.5627 26.1251 19.8907 26.1251H21.6719C21.9999 26.1251 22.2657 25.8593 22.2657 25.5313C22.2657 25.2033 21.9999 24.9376 21.6719 24.9376Z" fill="#FF7D44"/>
<path d="M27.6094 24.9376H25.8282C25.5002 24.9376 25.2344 25.2034 25.2344 25.5313C25.2344 25.8593 25.5002 26.1251 25.8282 26.1251H27.6094C27.9374 26.1251 28.2032 25.8593 28.2032 25.5313C28.2031 25.2033 27.9374 24.9376 27.6094 24.9376Z" fill="#FF7D44"/>
<path d="M33.5469 24.9376H31.7657C31.4377 24.9376 31.1719 25.2034 31.1719 25.5313C31.1719 25.8593 31.4377 26.1251 31.7657 26.1251H33.5469C33.8749 26.1251 34.1407 25.8593 34.1407 25.5313C34.1406 25.2033 33.8748 24.9376 33.5469 24.9376Z" fill="#FF7D44"/>
<path d="M6.53126 30.875H4.15628C3.82836 30.875 3.5625 31.1409 3.5625 31.4688C3.5625 31.7967 3.82836 32.0626 4.15628 32.0626H6.53126C6.85919 32.0626 7.12504 31.7967 7.12504 31.4688C7.12504 31.1409 6.85919 30.875 6.53126 30.875Z" fill="#FF7D44"/>
<path d="M15.7344 30.875H13.9532C13.6252 30.875 13.3594 31.1409 13.3594 31.4688C13.3594 31.7967 13.6252 32.0626 13.9532 32.0626H15.7344C16.0624 32.0626 16.3282 31.7967 16.3282 31.4688C16.3282 31.1409 16.0623 30.875 15.7344 30.875Z" fill="#FF7D44"/>
<path d="M21.6719 30.875H19.8907C19.5627 30.875 19.2969 31.1409 19.2969 31.4688C19.2969 31.7967 19.5627 32.0626 19.8907 32.0626H21.6719C21.9999 32.0626 22.2657 31.7967 22.2657 31.4688C22.2657 31.1409 21.9999 30.875 21.6719 30.875Z" fill="#FF7D44"/>
<path d="M27.6094 30.875H25.8282C25.5002 30.875 25.2344 31.1409 25.2344 31.4688C25.2344 31.7967 25.5002 32.0626 25.8282 32.0626H27.6094C27.9374 32.0626 28.2032 31.7967 28.2032 31.4688C28.2032 31.1409 27.9374 30.875 27.6094 30.875Z" fill="#FF7D44"/>
<path d="M33.5469 30.875H31.7657C31.4377 30.875 31.1719 31.1409 31.1719 31.4688C31.1719 31.7967 31.4377 32.0626 31.7657 32.0626H33.5469C33.8749 32.0626 34.1407 31.7967 34.1407 31.4688C34.1407 31.1409 33.8748 30.875 33.5469 30.875Z" fill="#FF7D44"/>
</g>
<defs>
<clipPath id="clip0_934_20">
<rect width="38" height="38" fill="white"/>
</clipPath>
</defs>
</svg>
