<svg width="38" height="38" viewBox="0 0 38 38" fill="none" xmlns="http://www.w3.org/2000/svg">
<g clip-path="url(#clip0_934_50)">
<path d="M33.2949 6.49562C33.2588 6.44002 33.2137 6.39085 33.1613 6.35016C31.3822 4.35142 29.2002 2.75182 26.7588 1.65649C24.3174 0.56115 21.6718 -0.00512695 18.9959 -0.00512695C16.3201 -0.00512695 13.6745 0.56115 11.2331 1.65649C8.79167 2.75182 6.6097 4.35142 4.83056 6.35016C4.78083 6.38955 4.73773 6.43666 4.7029 6.48969V6.50453C2.30105 9.25215 0.74131 12.6333 0.210148 16.2439C-0.321014 19.8545 0.198878 23.5416 1.70767 26.8645C3.21646 30.1875 5.65031 33.0056 8.71825 34.9819C11.7862 36.9583 15.3584 38.0093 19.0078 38.0093C22.6572 38.0093 26.2295 36.9583 29.2974 34.9819C32.3653 33.0056 34.7992 30.1875 36.308 26.8645C37.8168 23.5416 38.3367 19.8545 37.8055 16.2439C37.2743 12.6333 35.7146 9.25215 33.3127 6.50453L33.2949 6.49562ZM32.7012 30.3673C31.3522 29.58 29.9206 28.9438 28.4321 28.4703C29.3552 25.6004 29.8425 22.6082 29.8779 19.5938H36.7981C36.6714 23.5421 35.2295 27.335 32.7012 30.3703V30.3673ZM1.20275 19.5938H8.1229C8.158 22.6092 8.64535 25.6024 9.56868 28.4733C8.08024 28.9467 6.64857 29.5829 5.29962 30.3703C2.77136 27.335 1.32943 23.5421 1.20275 19.5938ZM5.34415 7.58516C6.68644 8.36537 8.11 8.99652 9.58946 9.46734C8.65267 12.356 8.15822 15.3697 8.1229 18.4062H1.20275C1.33213 14.4372 2.79054 10.6265 5.34415 7.58516ZM19.5942 10.8775C22.2021 10.8405 24.7951 10.4775 27.3129 9.79688C28.2016 12.5816 28.6699 15.4833 28.7023 18.4062H19.5942V10.8775ZM19.5942 9.69V1.22312C22.6045 1.55859 25.2348 4.42641 26.8973 8.67766C24.5135 9.3129 22.0608 9.65289 19.5942 9.69ZM18.4067 9.69C15.94 9.65292 13.4873 9.31293 11.1035 8.67766C12.766 4.42641 15.3963 1.55859 18.4067 1.22312V9.69ZM18.4067 10.8775V18.4062H9.3104C9.33898 15.4839 9.80325 12.5822 10.6879 9.79688C13.2057 10.4775 15.7987 10.8405 18.4067 10.8775ZM9.3104 19.5938H18.4067V27.0572C15.7985 27.096 13.2054 27.461 10.6879 28.1438C9.80974 25.3772 9.34555 22.4961 9.3104 19.5938ZM18.4067 28.2447V36.7769C15.3845 36.4384 12.7304 33.5469 11.0798 29.263C13.4709 28.6236 15.9318 28.2816 18.4067 28.2447ZM19.5942 28.2447C22.069 28.2817 24.5299 28.6237 26.921 29.263C25.2704 33.5469 22.6163 36.4384 19.5942 36.7769V28.2447ZM19.5942 27.0572V19.5938H28.6904C28.655 22.4951 28.1908 25.3752 27.3129 28.1408C24.7953 27.459 22.2022 27.095 19.5942 27.0572ZM29.8779 18.4062C29.8426 15.3697 29.3481 12.356 28.4113 9.46734C29.8908 8.99652 31.3144 8.36537 32.6567 7.58516C35.2103 10.6265 36.6687 14.4372 36.7981 18.4062H29.8779ZM31.8521 6.68562C30.632 7.37006 29.3447 7.92716 28.0106 8.34812C26.9151 5.53375 25.3951 3.26562 23.6138 1.79609C26.7549 2.64304 29.6041 4.33405 31.8521 6.68562ZM14.387 1.79609C12.6057 3.25672 11.0887 5.53078 9.99321 8.34812C8.65907 7.92716 7.37177 7.37006 6.15165 6.68562C8.39889 4.33451 11.247 2.64354 14.387 1.79609ZM6.10712 31.2728C7.33194 30.5806 8.62534 30.0175 9.9665 29.5925C11.0649 32.4366 12.5909 34.7344 14.384 36.2039C11.2245 35.3517 8.36074 33.6456 6.10712 31.2728ZM23.6227 36.2039C25.404 34.7195 26.9418 32.4366 28.0402 29.5925C29.3814 30.0175 30.6748 30.5806 31.8996 31.2728C29.6436 33.647 26.7766 35.3532 23.6138 36.2039H23.6227Z" fill="#FF7D44"/>
</g>
<defs>
<clipPath id="clip0_934_50">
<rect width="38" height="38" fill="white"/>
</clipPath>
</defs>
</svg>
