<svg width="38" height="38" viewBox="0 0 38 38" fill="none" xmlns="http://www.w3.org/2000/svg">
<path d="M17.4091 19C15.7763 18.4062 14.7788 17.9639 14.8144 16.815C14.8229 16.4837 14.9227 16.1611 15.1029 15.8829C15.2832 15.6048 15.5367 15.3818 15.8356 15.2386C16.8747 14.6834 18.3531 14.7992 19.5198 15.5355C19.6537 15.6189 19.8152 15.6458 19.9689 15.6102C20.1225 15.5745 20.2558 15.4793 20.3392 15.3455C20.4227 15.2116 20.4496 15.0501 20.4139 14.8964C20.3783 14.7428 20.2831 14.6096 20.1492 14.5261C19.4424 14.0823 18.643 13.807 17.8128 13.7216V11.875C17.8128 11.7175 17.7503 11.5665 17.6389 11.4552C17.5276 11.3438 17.3765 11.2812 17.2191 11.2812C17.0616 11.2812 16.9106 11.3438 16.7992 11.4552C16.6879 11.5665 16.6253 11.7175 16.6253 11.875V13.7512C16.1542 13.8175 15.6981 13.9652 15.2775 14.1877C14.7942 14.4298 14.3855 14.7984 14.0949 15.2542C13.8043 15.71 13.6425 16.236 13.6269 16.7764C13.5616 18.8337 15.4675 19.5403 16.9964 20.1103C18.7331 20.7545 19.79 21.2177 19.6683 22.5684C19.6428 22.9614 19.5042 23.3386 19.2693 23.6546C19.0344 23.9706 18.7131 24.212 18.3442 24.3497C17.0588 24.8959 15.3131 24.608 14.5502 24.0083C14.4269 23.9095 14.2695 23.8636 14.1125 23.8809C13.9555 23.8982 13.8118 23.9771 13.713 24.1003C13.6142 24.2235 13.5683 24.381 13.5856 24.538C13.6029 24.695 13.6818 24.8387 13.805 24.9375C14.6304 25.5188 15.6158 25.8299 16.6253 25.8281V27.6094C16.6253 27.7668 16.6879 27.9179 16.7992 28.0292C16.9106 28.1406 17.0616 28.2031 17.2191 28.2031C17.3765 28.2031 17.5276 28.1406 17.6389 28.0292C17.7503 27.9179 17.8128 27.7668 17.8128 27.6094V25.7212C18.1524 25.6593 18.4839 25.5598 18.8014 25.4244C19.3648 25.2032 19.8547 24.8283 20.2153 24.3422C20.5759 23.8562 20.7927 23.2786 20.8409 22.6753C21.0784 20.3537 19.0389 19.5938 17.4091 19Z" fill="#FF7D44"/>
<path d="M27.3125 27.5292V12.5578C27.3145 11.5429 26.9167 10.5681 26.2052 9.84438L20.143 3.61001C19.7643 3.21726 19.3099 2.90534 18.8073 2.69307C18.3047 2.48081 17.7643 2.37261 17.2188 2.37501C16.6736 2.37184 16.1335 2.47911 15.6309 2.69034C15.1283 2.90157 14.6738 3.2124 14.2946 3.60407L8.23237 9.83844C7.51939 10.5636 7.12144 11.5409 7.12502 12.5578V27.5292C7.13833 28.5859 7.57029 29.5941 8.32611 30.3327C9.08193 31.0713 10.0999 31.4798 11.1566 31.4688H23.281C24.3377 31.4798 25.3556 31.0713 26.1114 30.3327C26.8673 29.5941 27.2992 28.5859 27.3125 27.5292ZM8.31252 27.5292V12.5578C8.31627 11.8576 8.59322 11.1865 9.0844 10.6875L15.1406 4.42048C15.4115 4.144 15.7349 3.92436 16.0917 3.77442C16.4485 3.62447 16.8317 3.54724 17.2188 3.54724C17.6058 3.54724 17.989 3.62447 18.3458 3.77442C18.7027 3.92436 19.026 4.144 19.2969 4.42048L25.3531 10.6875C25.8443 11.1865 26.1213 11.8576 26.125 12.5578V27.5292C26.1117 28.271 25.8049 28.9772 25.2718 29.4931C24.7387 30.0089 24.0227 30.2924 23.281 30.2813H11.1566C10.4148 30.2924 9.69889 30.0089 9.16576 29.4931C8.63263 28.9772 8.3258 28.271 8.31252 27.5292Z" fill="#FF7D44"/>
<path d="M28.8742 12.8606C28.819 12.9158 28.7752 12.9812 28.7453 13.0533C28.7155 13.1254 28.7001 13.2027 28.7001 13.2807C28.7001 13.3587 28.7155 13.436 28.7453 13.5081C28.7752 13.5801 28.819 13.6456 28.8742 13.7008C29.1319 13.953 29.3365 14.2541 29.4762 14.5865C29.6159 14.9189 29.6878 15.2758 29.6877 15.6364V30.5069C29.6829 31.2381 29.3884 31.9376 28.8685 32.4518C28.3487 32.9661 27.6461 33.2531 26.9148 33.25H15.0547C14.8972 33.25 14.7462 33.3125 14.6348 33.4239C14.5235 33.5352 14.4609 33.6863 14.4609 33.8437C14.4609 34.0012 14.5235 34.1522 14.6348 34.2636C14.7462 34.3749 14.8972 34.4375 15.0547 34.4375H26.9148C27.9608 34.4399 28.965 34.0274 29.7073 33.2906C30.4497 32.5539 30.8697 31.5528 30.8752 30.5069V15.6364C30.8764 15.119 30.7741 14.6066 30.5742 14.1294C30.3743 13.6521 30.081 13.2197 29.7114 12.8576C29.5998 12.7474 29.4491 12.6859 29.2922 12.6865C29.1353 12.687 28.9851 12.7496 28.8742 12.8606Z" fill="#FF7D44"/>
<path d="M17.2184 8.90624C17.8612 8.90624 18.3822 8.38521 18.3822 7.74249C18.3822 7.09976 17.8612 6.57874 17.2184 6.57874C16.5757 6.57874 16.0547 7.09976 16.0547 7.74249C16.0547 8.38521 16.5757 8.90624 17.2184 8.90624Z" fill="#FF7D44"/>
</svg>
