<svg width="41" height="41" viewBox="0 0 41 41" fill="none" xmlns="http://www.w3.org/2000/svg">
<g clip-path="url(#clip0_932_21068)">
<path d="M32.0312 41H20.5C19.7928 41 19.2188 40.426 19.2188 39.7187V30.3229C19.2188 29.6156 19.7928 29.0416 20.5 29.0416H32.0312C32.7385 29.0416 33.3125 29.6156 33.3125 30.3229V39.7187C33.3125 40.426 32.7385 41 32.0312 41ZM21.7812 38.4375H30.75V31.6041H21.7812V38.4375Z" fill="white"/>
<path d="M26.0519 31.6041H14.9478C14.2405 31.6041 13.6665 31.0301 13.6665 30.3229V20.0729C13.6665 19.3656 14.2405 18.7916 14.9478 18.7916H26.0519C26.7592 18.7916 27.3332 19.3656 27.3332 20.0729V30.3229C27.3332 31.0301 26.7592 31.6041 26.0519 31.6041ZM16.229 29.0416H24.7707V21.3541H16.229V29.0416Z" fill="white"/>
<path d="M20.5 41H8.96875C8.2615 41 7.6875 40.426 7.6875 39.7187V30.3229C7.6875 29.6156 8.2615 29.0416 8.96875 29.0416H20.5C21.2073 29.0416 21.7812 29.6156 21.7812 30.3229V39.7187C21.7812 40.426 21.2073 41 20.5 41ZM10.25 38.4375H19.2188V31.6041H10.25V38.4375Z" fill="white"/>
<path d="M20.5 23.9166C19.7928 23.9166 19.2188 23.3426 19.2188 22.6354V20.0729C19.2188 19.3656 19.7928 18.7916 20.5 18.7916C21.2072 18.7916 21.7812 19.3656 21.7812 20.0729V22.6354C21.7812 23.3426 21.2072 23.9166 20.5 23.9166Z" fill="white"/>
<path d="M14.9478 34.1666C14.2405 34.1666 13.6665 33.5926 13.6665 32.8854V30.3229C13.6665 29.6156 14.2405 29.0416 14.9478 29.0416C15.655 29.0416 16.229 29.6156 16.229 30.3229V32.8854C16.229 33.5926 15.655 34.1666 14.9478 34.1666Z" fill="white"/>
<path d="M26.0522 34.1666C25.345 34.1666 24.771 33.5926 24.771 32.8854V30.3229C24.771 29.6156 25.345 29.0416 26.0522 29.0416C26.7595 29.0416 27.3335 29.6156 27.3335 30.3229V32.8854C27.3335 33.5926 26.7595 34.1666 26.0522 34.1666Z" fill="white"/>
<path d="M38.0104 40.9999H2.98958C1.34104 40.9999 0 39.6589 0 38.0104V14.5208C0 14.0988 0.208417 13.7042 0.555208 13.465L19.774 0.225438C20.2113 -0.0769365 20.7904 -0.0769365 21.2278 0.225438L40.4465 13.465C40.7916 13.7042 41 14.0988 41 14.5208V38.0104C41 39.6589 39.659 40.9999 38.0104 40.9999ZM2.5625 15.1939V38.0104C2.5625 38.2461 2.75383 38.4374 2.98958 38.4374H38.0104C38.2462 38.4374 38.4375 38.2461 38.4375 38.0104V15.1939L20.5 2.83748L2.5625 15.1939Z" fill="white"/>
</g>
<defs>
<clipPath id="clip0_932_21068">
<rect width="41" height="41" fill="white"/>
</clipPath>
</defs>
</svg>
