<svg width="41" height="41" viewBox="0 0 41 41" fill="none" xmlns="http://www.w3.org/2000/svg">
<g clip-path="url(#clip0_845_93751)">
<path d="M5.82983 11.147C5.25327 11.147 4.74077 10.8907 4.42046 10.5064L3.90796 9.99386C3.52358 9.60948 3.26733 9.03292 3.26733 8.45636C3.26733 7.94386 3.52358 7.43136 3.90796 7.11104L4.54858 6.47042C4.74077 6.27823 4.99702 6.21417 5.18921 6.34229L8.84077 7.68761C9.03296 7.75167 9.16108 7.94386 9.22515 8.13604C9.28921 8.32823 9.22515 8.58448 9.03296 8.71261L7.23921 10.5064C6.9189 10.9548 6.4064 11.147 5.82983 11.147ZM5.12515 7.68761L4.74077 8.07198C4.54858 8.20011 4.48452 8.39229 4.48452 8.58448C4.48452 8.77667 4.54858 9.03292 4.74077 9.16104L5.25327 9.67354C5.57358 10.0579 6.02202 9.99386 6.34233 9.67354L7.4314 8.58448L5.12515 7.68761Z" fill="#FF7D44"/>
<path d="M18.194 18.0657C18.0018 18.0657 17.8736 18.0017 17.7455 17.8736L10.5705 9.73762L2.7549 6.79074C2.11427 6.53449 1.66584 6.02199 1.47365 5.38137L0.768961 3.13918C0.576773 2.43449 0.704898 1.72981 1.08927 1.15324C1.60177 0.512618 2.43459 0.192306 3.2674 0.384493L27.483 7.75168C27.6752 7.81574 27.8674 8.00793 27.9315 8.20012C27.9955 8.3923 27.9315 8.64855 27.7393 8.77668L18.6424 17.8736C18.5143 18.0017 18.3861 18.0657 18.194 18.0657ZM2.81896 1.53762C2.49865 1.53762 2.30646 1.66574 2.11427 1.92199C1.92209 2.17824 1.85802 2.49856 1.92209 2.75481L2.62677 4.99699C2.69084 5.31731 2.88302 5.50949 3.20334 5.63762L11.2111 8.64855C11.2752 8.71262 11.4033 8.71262 11.4674 8.84074L18.258 16.5282L26.1377 8.64855L2.94709 1.53762C2.94709 1.53762 2.88302 1.53762 2.81896 1.53762Z" fill="#FF7D44"/>
<path d="M10.8908 9.86565C10.6987 9.86565 10.5065 9.80159 10.3783 9.6094C10.1862 9.35315 10.2502 8.96878 10.5065 8.71253L13.7096 6.34221C13.9658 6.15003 14.3502 6.21409 14.6065 6.47034C14.7987 6.72659 14.7346 7.11097 14.4783 7.36722L11.2752 9.73753C11.1471 9.80159 11.019 9.86565 10.8908 9.86565Z" fill="#FF7D44"/>
<path d="M8.07199 26.4579C8.00793 26.4579 7.94387 26.4579 7.87981 26.3938L4.10012 25.0485C3.52356 24.8563 3.07512 24.3438 2.94699 23.7032C2.81887 23.0626 2.94699 22.422 3.39543 21.9095L4.2923 21.0126C4.67668 20.6282 5.12512 20.436 5.63762 20.436L11.0829 20.5642C11.4032 20.5642 11.7236 20.8845 11.6595 21.2048C11.6595 21.5251 11.4032 21.7813 11.0189 21.7813L5.57355 21.6532C5.44543 21.6532 5.25324 21.7173 5.12512 21.8454L4.22824 22.7423C4.10012 22.9345 4.03606 23.1267 4.10012 23.3829C4.16418 23.5751 4.2923 23.7673 4.48449 23.8313L8.26418 25.1767C8.58449 25.3048 8.77668 25.6251 8.64856 25.9454C8.58449 26.2657 8.32824 26.4579 8.07199 26.4579Z" fill="#FF7D44"/>
<path d="M24.8564 24.536C24.7283 24.536 24.5361 24.4719 24.4721 24.4078L22.5502 22.7422C22.2939 22.486 22.2939 22.1016 22.4861 21.8453C22.7424 21.5891 23.1267 21.5891 23.383 21.7813L25.3049 23.4469C25.5611 23.7032 25.5611 24.0875 25.3689 24.3438C25.1767 24.4719 25.0486 24.536 24.8564 24.536Z" fill="#FF7D44"/>
<path d="M35.2987 24.472C35.0424 24.472 34.7862 24.2798 34.7221 24.0235L31.4549 13.261C31.3268 12.9407 31.519 12.5563 31.8393 12.4923C32.1596 12.3642 32.544 12.5563 32.6081 12.8767L35.8752 23.6392C36.0034 23.9595 35.8112 24.3438 35.4909 24.4079C35.4268 24.472 35.3627 24.472 35.2987 24.472Z" fill="#FF7D44"/>
<path d="M17.1049 37.4765C16.9768 37.4765 16.8486 37.4765 16.7205 37.4124C16.0799 37.2843 15.5674 36.8358 15.3752 36.2593L14.0299 32.4796C13.9018 32.1593 14.0939 31.7749 14.4143 31.7108C14.7346 31.5827 15.1189 31.7749 15.183 32.0952L16.5283 35.8749C16.5924 36.0671 16.7846 36.1952 16.9768 36.2593C17.1049 36.2593 17.3611 36.3233 17.5533 36.0671L18.3861 35.1062C18.3861 35.0421 18.4502 35.0421 18.5143 35.0421C18.5783 34.978 18.6424 34.8499 18.6424 34.6577L18.5143 29.2124C18.5143 28.8921 18.7705 28.5718 19.0908 28.5718C19.4111 28.5718 19.7314 28.828 19.7314 29.1483L19.8596 34.5937C19.8596 35.0421 19.7314 35.6187 19.283 35.939L18.5143 36.8358C18.0658 37.2843 17.6174 37.4765 17.1049 37.4765Z" fill="#FF7D44"/>
<path d="M9.54549 32.2875C9.09706 32.2875 8.77674 32.1594 8.52049 31.9031C7.94393 31.3266 7.62362 30.1734 10.1221 26.1375C11.4033 23.9594 13.133 21.7172 13.8377 20.9484L32.1596 2.5625C33.1846 1.5375 36.0033 0 37.9892 0C38.758 0 39.3346 0.192188 39.7189 0.640625C40.4877 1.40938 40.5517 2.81875 39.8471 4.6125C39.3346 6.08594 38.5658 7.49531 37.733 8.2L19.4111 26.5859C18.3221 27.675 12.0439 32.2875 9.54549 32.2875ZM9.35331 31.0063H9.54549C11.4674 31.0063 17.2971 26.9062 18.5142 25.6891L36.9002 7.30312C37.5408 6.72656 38.2455 5.44531 38.6939 4.22813C39.1424 3.01094 39.2064 1.92188 38.8221 1.5375C38.6299 1.28125 38.2455 1.28125 37.9892 1.28125C36.3877 1.28125 33.9533 2.5625 33.0564 3.45938L14.6705 21.8453C12.8767 23.6391 8.84081 30.0453 9.35331 31.0063Z" fill="#FF7D44"/>
<path d="M36.8362 5.95779C36.7081 5.95779 36.5799 5.95779 36.5159 5.89373C36.1956 5.70154 36.1315 5.31717 36.3237 5.06092C36.5159 4.80467 36.3877 4.48436 36.1956 4.29217C36.0034 4.09998 35.6831 4.03592 35.4268 4.16404C35.1065 4.35623 34.7221 4.22811 34.594 3.97186C34.4018 3.65154 34.5299 3.26717 34.7862 3.13904C35.4909 2.69061 36.4518 2.81873 37.0924 3.39529C37.7331 4.03592 37.7971 4.99686 37.3487 5.70154C37.2206 5.82967 37.0284 5.95779 36.8362 5.95779Z" fill="#FF7D44"/>
<path d="M7.23926 33.825C7.11113 33.825 6.91895 33.761 6.79082 33.6329C6.53457 33.3766 6.53457 32.9922 6.79082 32.736L13.5814 25.9454C13.8377 25.6891 14.2221 25.6891 14.4783 25.9454C14.7346 26.2016 14.7346 26.586 14.4783 26.8422L7.6877 33.6329C7.55957 33.761 7.36738 33.825 7.23926 33.825Z" fill="#FF7D44"/>
<path d="M37.2846 40.9999H25.433C23.7033 40.9999 22.2939 39.5905 22.2939 37.8608V28.828C22.2939 27.0983 23.7033 25.689 25.433 25.689H37.2846C39.0143 25.689 40.4236 27.0983 40.4236 28.828V37.9249C40.2955 39.6546 38.9502 40.9999 37.2846 40.9999ZM25.433 26.9702C24.408 26.9702 23.5752 27.803 23.5752 28.828V37.8608C23.5752 38.8858 24.408 39.7187 25.433 39.7187H37.2846C38.3096 39.7187 39.1424 38.8858 39.1424 37.8608V28.764C39.1424 27.739 38.3096 26.9062 37.2846 26.9062H25.433V26.9702Z" fill="#FF7D44"/>
<path d="M33.5048 32.0953C33.3767 32.0953 33.1845 32.0313 33.1205 31.9672L31.3267 30.4297L29.597 31.9031C29.4048 32.0953 29.1486 32.0953 28.9564 32.0312C28.7642 31.9031 28.572 31.7109 28.572 31.4547V28.1875C28.572 27.8672 28.8283 27.5469 29.2126 27.5469C29.597 27.5469 29.8533 27.8031 29.8533 28.1875V30.1094L30.9423 29.1484C31.1986 28.9562 31.5189 28.9562 31.7751 29.1484L32.9283 30.1094V28.1875C32.9283 27.8672 33.1845 27.5469 33.5689 27.5469C33.9533 27.5469 34.2095 27.8031 34.2095 28.1875V31.4547C34.2095 31.7109 34.0814 31.9031 33.8251 32.0312C33.697 32.0312 33.5689 32.0953 33.5048 32.0953Z" fill="#FF7D44"/>
<path d="M37.2204 36.5796H34.2095C33.8892 36.5796 33.5688 36.3233 33.5688 35.939C33.5688 35.5546 33.8251 35.2983 34.2095 35.2983H37.2204C37.5407 35.2983 37.861 35.5546 37.861 35.939C37.861 36.3233 37.5407 36.5796 37.2204 36.5796Z" fill="#FF7D44"/>
<path d="M37.2204 38.5015H34.2095C33.8892 38.5015 33.5688 38.2452 33.5688 37.8608C33.5688 37.4765 33.8251 37.2202 34.2095 37.2202H37.2204C37.5407 37.2202 37.861 37.4765 37.861 37.8608C37.861 38.2452 37.5407 38.5015 37.2204 38.5015Z" fill="#FF7D44"/>
</g>
<defs>
<clipPath id="clip0_845_93751">
<rect width="41" height="41" fill="white" transform="translate(0.000244141)"/>
</clipPath>
</defs>
</svg>
