<svg width="41" height="41" viewBox="0 0 41 41" fill="none" xmlns="http://www.w3.org/2000/svg">
<g clip-path="url(#clip0_845_93736)">
<path d="M18.322 41C18.1939 41 18.1298 41 18.0017 41L16.5283 40.7437C15.5673 40.6156 14.8626 39.7828 14.8626 38.8218V34.7859C14.8626 34.6578 14.7986 34.5296 14.7345 34.4015C14.5423 34.1453 14.6064 33.6968 14.8626 33.5046C15.1189 33.3124 15.5673 33.3765 15.7595 33.6328C16.0158 33.9531 16.1439 34.3374 16.1439 34.7859V38.8218C16.1439 39.1421 16.4001 39.4624 16.7204 39.5265L18.1939 39.7828C18.5142 39.8468 18.8986 39.6546 18.9626 39.3343L20.2439 35.4906C20.5001 34.7218 21.1408 34.2093 21.9095 34.1453C22.422 34.0812 22.8704 34.0171 23.3189 33.889C24.0876 33.6968 24.8564 34.0171 25.3048 34.6578L27.6751 37.9249C27.8673 38.1812 28.2517 38.3093 28.572 38.1171L29.9173 37.4124C30.2376 37.2843 30.3658 36.8999 30.3017 36.5796L29.0845 32.7359C28.8283 31.9671 29.0845 31.1984 29.597 30.6859C29.7892 30.5578 29.9814 30.3656 30.1095 30.1734C30.2376 30.0453 30.4298 29.8531 30.5579 29.6609C31.0704 29.0843 31.9033 28.8281 32.6079 29.0843L36.4517 30.3015C36.772 30.4296 37.1564 30.2374 37.2845 29.9171L37.9892 28.5718C38.1173 28.2515 38.0533 27.8671 37.797 27.6749L34.5939 25.3046C33.9533 24.8562 33.6329 24.0875 33.8251 23.3187C33.9533 22.8062 34.0173 22.3578 34.0814 21.9093C34.1454 21.1406 34.6579 20.4999 35.4267 20.2437L39.2704 18.9625C39.5908 18.8343 39.7829 18.514 39.7189 18.1937L39.4626 16.7203C39.3986 16.4 39.0783 16.1437 38.7579 16.1437H34.722C33.9533 16.1437 33.2486 15.6953 32.9283 14.9906C32.7361 14.5421 32.5439 14.1578 32.2876 13.7093C31.9033 13.0687 31.9673 12.2359 32.4158 11.5953L34.7861 8.32807C34.9783 8.07183 34.9783 7.68745 34.722 7.4312L33.6329 6.34214C33.3767 6.08589 32.9923 6.08589 32.7361 6.27807L29.4689 8.58432C28.8283 9.03276 27.9954 9.09682 27.3548 8.71245C26.9064 8.4562 26.522 8.26401 26.0736 8.07183C25.3689 7.75151 24.9204 7.04682 24.9204 6.27807L24.8564 2.24214C24.8564 1.92182 24.6001 1.60151 24.2798 1.53745L22.8064 1.2812C22.422 1.21714 22.1017 1.40932 22.0376 1.72964L20.7564 5.57339C20.5001 6.34214 19.8595 6.85464 19.0908 6.9187C18.6423 6.98276 18.1939 7.04682 17.6814 7.17495C16.9126 7.30307 16.1439 7.04682 15.6954 6.4062L13.3251 3.13901C13.1329 2.88276 12.7486 2.75464 12.4283 2.94682L11.0829 3.65151C10.7626 3.77964 10.6345 4.16401 10.7626 4.48432L11.9798 8.32807C12.2361 9.09682 11.9798 9.86557 11.4033 10.3781C11.2111 10.5062 11.0829 10.6984 10.8908 10.8265C10.6986 11.0187 10.5704 11.1468 10.3783 11.339C9.86575 11.9156 9.097 12.1078 8.32825 11.8515L4.4845 10.6343C4.16419 10.5062 3.77982 10.6984 3.65169 11.0187L2.947 12.364C2.81888 12.6843 2.88294 13.0687 3.13919 13.2609L6.40638 15.6312C7.047 16.0796 7.36732 16.8484 7.17513 17.6171C7.047 18.0656 6.98294 18.514 6.91888 19.0265C6.85482 19.8593 6.34232 20.5 5.57357 20.7562L1.72982 22.0375C1.4095 22.1015 1.21732 22.4218 1.28138 22.8062L1.53763 24.2796C1.60169 24.6 1.922 24.8562 2.24232 24.8562L6.27825 24.9203C6.66263 24.9203 7.047 25.0484 7.43138 25.2406C7.75169 25.4328 7.81575 25.8171 7.62357 26.1374C7.43138 26.4578 7.047 26.5218 6.72669 26.3296C6.59857 26.2656 6.47044 26.2015 6.34232 26.2015L2.30638 26.1374C1.34544 26.1374 0.512628 25.4328 0.384503 24.4718L0.00012829 22.9984C-0.127997 22.0375 0.384503 21.0765 1.34544 20.8203L5.18919 19.539C5.44544 19.4749 5.63763 19.2187 5.63763 18.9625C5.70169 18.3859 5.76575 17.8734 5.89388 17.4249C5.95794 17.1687 5.82982 16.9124 5.63763 16.7203L2.37044 14.3499C1.60169 13.7734 1.34544 12.7484 1.79388 11.8515L2.49857 10.5062C2.947 9.67339 3.972 9.22495 4.86888 9.4812L8.71263 10.6984C8.96888 10.7624 9.22513 10.6984 9.41732 10.5062L9.99388 9.92964C10.1861 9.73745 10.3783 9.54526 10.5704 9.41714C10.7626 9.22495 10.8267 8.9687 10.7626 8.64839L9.54544 4.80464C9.22513 3.8437 9.67357 2.88276 10.5064 2.43432L11.8517 1.72964C12.7486 1.2812 13.7736 1.53745 14.3501 2.3062L16.7204 5.50933C16.9126 5.70151 17.1689 5.82964 17.4251 5.76557C17.9376 5.76557 18.4501 5.70151 18.9626 5.63745C19.2189 5.63745 19.4111 5.44526 19.5392 5.18901L20.8204 1.34526C21.1408 0.448387 22.0376 -0.128176 22.9986 -5.0582e-05L24.472 0.256199C25.4329 0.384324 26.1376 1.21714 26.1376 2.17807L26.2017 6.21401C26.2017 6.47026 26.3298 6.72651 26.5861 6.85464C27.0345 7.04682 27.547 7.30307 27.9954 7.55932C28.1876 7.68745 28.5079 7.68745 28.7642 7.49526L32.0314 5.12495C32.8001 4.54839 33.8892 4.67651 34.5939 5.31714L35.6829 6.4062C36.3876 7.11089 36.4517 8.19995 35.8751 8.9687L33.5048 12.2359C33.3126 12.4921 33.3126 12.8124 33.4408 13.0046C33.697 13.4531 33.9533 13.9656 34.1454 14.414C34.2736 14.6703 34.4658 14.7984 34.7861 14.7984H38.822C39.7829 14.7984 40.6158 15.5031 40.8079 16.464L41.0642 17.9374C41.1923 18.8984 40.6798 19.8593 39.7189 20.1156L35.8751 21.3968C35.6189 21.4609 35.4267 21.7171 35.4267 21.9734C35.3626 22.4859 35.2986 22.9984 35.1704 23.5109C35.1064 23.7671 35.2345 24.0234 35.4267 24.2156L38.6298 26.5859C39.3986 27.1624 39.6548 28.1875 39.2064 29.0843L38.5017 30.4296C38.0533 31.3265 37.0283 31.7109 36.1314 31.4546L32.2876 30.2374C32.0314 30.1734 31.7111 30.2374 31.5189 30.4296C31.3267 30.6218 31.1986 30.814 31.0064 31.0062C30.8142 31.1984 30.622 31.3906 30.4298 31.5828C30.2376 31.7749 30.1736 32.0312 30.2376 32.2874L31.4548 36.1312C31.7751 37.0281 31.3267 38.0531 30.4298 38.5015L29.0845 39.2062C28.1876 39.6546 27.1626 39.3984 26.5861 38.6296L24.2158 35.3624C24.0236 35.1703 23.7673 35.0421 23.5111 35.1062C22.9986 35.2343 22.4861 35.2984 21.9736 35.3624C21.7173 35.3624 21.4611 35.5546 21.397 35.8109L20.1158 39.6546C19.9236 40.4874 19.1548 41 18.322 41Z" fill="#FF7D44"/>
<path d="M20.5002 31.9032C19.7955 31.9032 19.0268 31.8391 18.3221 31.711C18.0018 31.6469 17.7455 31.3266 17.8096 30.9422C17.8737 30.6219 18.194 30.3657 18.5783 30.4297C21.9096 31.0704 25.3049 30.0454 27.6752 27.675C31.583 23.7032 31.583 17.2969 27.6752 13.3891C23.7033 9.4813 17.2971 9.4813 13.3893 13.3891C11.019 15.7594 9.99397 19.1547 10.6346 22.486C10.6987 22.8063 10.5065 23.1907 10.1221 23.2547C9.80178 23.3188 9.41741 23.1266 9.35335 22.7422C8.64866 19.0266 9.80178 15.1829 12.4924 12.4922C16.9127 8.07192 24.1518 8.07192 28.6362 12.4922C33.0565 16.9125 33.0565 24.1516 28.6362 28.636C26.394 30.75 23.5112 31.9032 20.5002 31.9032Z" fill="#FF7D44"/>
<path d="M6.40645 39.8469C6.21426 39.8469 6.08613 39.7829 5.95801 39.6547C5.70176 39.3985 5.70176 39.0141 5.95801 38.7579L15.3752 29.3407C16.5283 28.1875 18.1299 27.5469 19.9236 27.5469H19.9877C21.7174 27.5469 23.383 26.8422 24.6002 25.625C26.0096 24.2157 26.6502 22.2938 26.458 20.3719L23.8314 22.9985C22.4861 24.3438 20.2439 24.3438 18.8346 22.9985L18.0018 22.1657C16.6564 20.8204 16.6564 18.5782 18.0018 17.1688L20.6283 14.5422C18.6424 14.35 16.7205 15.0547 15.3752 16.4C14.158 17.6172 13.4533 19.2829 13.4533 21.0125C13.4533 22.8063 12.8127 24.4079 11.6596 25.625L2.24238 35.0422C1.98613 35.2985 1.60176 35.2985 1.34551 35.0422C1.08926 34.786 1.08926 34.4016 1.34551 34.1454L10.7627 24.7282C11.6596 23.8313 12.1721 22.486 12.1721 21.0766C12.1721 18.9625 13.0049 17.0407 14.4783 15.5032C16.1439 13.8375 18.4502 13.0047 20.7564 13.261C21.2689 13.325 21.6533 13.6454 21.8455 14.0938C22.0377 14.5422 21.9096 15.0547 21.5252 15.4391L18.8986 18.0657C18.0018 18.9625 18.0018 20.3719 18.8986 21.2047L19.7314 22.0375C20.6283 22.9344 22.0377 22.9344 22.8705 22.0375L25.4971 19.411C25.8814 19.0266 26.3939 18.9625 26.8424 19.0907C27.2908 19.2829 27.6111 19.6672 27.6752 20.1797C27.9314 22.55 27.0986 24.7922 25.433 26.4579C23.9596 27.9313 21.9736 28.7641 19.8596 28.7641C18.3861 28.7641 17.1049 29.2766 16.208 30.1735L6.85488 39.6547C6.72676 39.7829 6.53457 39.8469 6.40645 39.8469Z" fill="#FF7D44"/>
<path d="M6.40645 39.8469C6.21426 39.8469 6.08613 39.7829 5.95801 39.6547C5.70176 39.3985 5.70176 39.0141 5.95801 38.7579L15.3752 29.3407C16.5283 28.1875 18.1299 27.5469 19.9236 27.5469H19.9877C21.7174 27.5469 23.383 26.8422 24.6002 25.625C26.0096 24.2157 26.6502 22.2938 26.458 20.3719L23.8314 22.9985C22.4861 24.3438 20.2439 24.3438 18.8346 22.9985L18.0018 22.1657C16.6564 20.8204 16.6564 18.5782 18.0018 17.1688L20.6283 14.5422C18.6424 14.35 16.7205 15.0547 15.3752 16.4C14.158 17.6172 13.4533 19.2829 13.4533 21.0125C13.4533 22.8063 12.8127 24.4079 11.6596 25.625L2.24238 35.0422C1.98613 35.2985 1.60176 35.2985 1.34551 35.0422C1.08926 34.786 1.08926 34.4016 1.34551 34.1454L10.7627 24.7282C11.6596 23.8313 12.1721 22.486 12.1721 21.0766C12.1721 18.9625 13.0049 17.0407 14.4783 15.5032C16.1439 13.8375 18.4502 13.0047 20.7564 13.261C21.2689 13.325 21.6533 13.6454 21.8455 14.0938C22.0377 14.5422 21.9096 15.0547 21.5252 15.4391L18.8986 18.0657C18.0018 18.9625 18.0018 20.3719 18.8986 21.2047L19.7314 22.0375C20.6283 22.9344 22.0377 22.9344 22.8705 22.0375L25.4971 19.411C25.8814 19.0266 26.3939 18.9625 26.8424 19.0907C27.2908 19.2829 27.6111 19.6672 27.6752 20.1797C27.9314 22.55 27.0986 24.7922 25.433 26.4579C23.9596 27.9313 21.9736 28.7641 19.8596 28.7641C18.3861 28.7641 17.1049 29.2766 16.208 30.1735L6.85488 39.6547C6.72676 39.7829 6.53457 39.8469 6.40645 39.8469Z" fill="#FF7D44"/>
</g>
<defs>
<clipPath id="clip0_845_93736">
<rect width="41" height="41" fill="white" transform="translate(0.000244141)"/>
</clipPath>
</defs>
</svg>
