<svg width="41" height="41" viewBox="0 0 41 41" fill="none" xmlns="http://www.w3.org/2000/svg">
<path d="M36.1314 41.0001C35.9392 41.0001 35.747 40.936 35.6189 40.7438L31.7111 35.2345C31.5189 34.9141 31.583 34.5298 31.8392 34.3376C32.0955 34.1454 32.5439 34.2095 32.7361 34.4657L36.6439 39.9751C36.8361 40.2954 36.772 40.6798 36.5158 40.872C36.3877 40.936 36.2596 41.0001 36.1314 41.0001Z" fill="#FF7D44"/>
<path d="M4.86886 41.0001C4.74073 41.0001 4.61261 40.936 4.48448 40.8719C4.16417 40.6797 4.10011 40.2954 4.35636 39.9751L8.26417 34.4657C8.45636 34.1454 8.84073 34.0813 9.16105 34.3376C9.48136 34.5297 9.54542 34.9141 9.28917 35.2344L5.38136 40.7438C5.25323 40.936 5.06105 41.0001 4.86886 41.0001Z" fill="#FF7D44"/>
<path d="M30.2377 37.0923H10.7627C10.3783 37.0923 10.1221 36.836 10.1221 36.4517C10.1221 36.0673 10.3783 35.811 10.7627 35.811H30.2377C30.6221 35.811 30.8783 36.0673 30.8783 36.4517C30.8783 36.836 30.6221 37.0923 30.2377 37.0923Z" fill="#FF7D44"/>
<path d="M31.8393 39.3984H9.16113C8.77676 39.3984 8.52051 39.1422 8.52051 38.7578C8.52051 38.3734 8.77676 38.1172 9.16113 38.1172H31.8393C32.2236 38.1172 32.4799 38.3734 32.4799 38.7578C32.4799 39.1422 32.2236 39.3984 31.8393 39.3984Z" fill="#FF7D44"/>
<path d="M28.7002 3.45938C28.3158 3.45938 28.0596 3.20312 28.0596 2.81875C28.0596 1.98594 27.3549 1.28125 26.5221 1.28125H14.5424C13.7096 1.28125 13.0049 1.98594 13.0049 2.81875C13.0049 3.20312 12.7486 3.45938 12.3643 3.45938C11.9799 3.45938 11.7236 3.20312 11.7236 2.81875C11.7236 1.21719 12.9408 0 14.5424 0H26.5221C28.1236 0 29.3408 1.21719 29.3408 2.81875C29.3408 3.20312 29.0846 3.45938 28.7002 3.45938Z" fill="#FF7D44"/>
<path d="M31.5188 32.9921H9.48126C8.52032 32.9921 7.55938 32.6077 6.91876 31.839C6.27813 31.1343 5.95782 30.1733 6.08595 29.2124L8.07188 7.36709C8.20001 5.57334 9.67345 4.22803 11.4672 4.22803H29.5328C31.3266 4.22803 32.7359 5.57334 32.9281 7.36709L34.9141 29.2124C34.9781 30.2374 34.6578 31.1983 34.0172 31.903C33.3766 32.6077 32.4156 32.9921 31.5188 32.9921ZM11.4672 5.50928C10.3781 5.50928 9.4172 6.34209 9.35313 7.49521L7.3672 29.3405C7.30313 29.9812 7.49532 30.5577 7.8797 31.0062C8.26407 31.4546 8.84063 31.7108 9.48126 31.7108H31.5188C32.0953 31.7108 32.6719 31.4546 33.0563 31.0062C33.5047 30.5577 33.6969 29.9171 33.6328 29.2765L31.6469 7.43115C31.5188 6.27803 30.6859 5.44521 29.5328 5.44521H11.4672V5.50928Z" fill="#FF7D44"/>
<path d="M29.7251 23.5108H11.2751C10.6985 23.5108 10.2501 23.3187 9.8657 22.8702C9.48133 22.4858 9.28914 21.9093 9.3532 21.3968L10.5063 8.52021C10.6345 7.55928 11.4673 6.79053 12.4282 6.79053H28.572C29.5329 6.79053 30.3657 7.55928 30.4938 8.52021L31.647 21.3968C31.711 21.9093 31.5188 22.4858 31.1345 22.8702C30.7501 23.3187 30.2376 23.5108 29.7251 23.5108ZM12.4282 8.07178C12.1079 8.07178 11.7876 8.32803 11.7876 8.64834L10.6345 21.5249C10.6345 21.7171 10.6985 21.9093 10.8266 22.0374C10.9548 22.1655 11.147 22.2296 11.2751 22.2296H29.7251C29.9813 22.2296 30.1095 22.1015 30.1735 22.0374C30.3016 21.9093 30.3657 21.7171 30.3657 21.5249L29.2126 8.64834C29.2126 8.32803 28.8923 8.07178 28.572 8.07178H12.4282Z" fill="#FF7D44"/>
<path d="M23.0627 5.5093C22.9986 5.5093 22.8705 5.5093 22.8064 5.44524C22.4861 5.31712 22.358 4.93274 22.4861 4.61243L24.2799 0.384303C24.408 0.0639905 24.7924 -0.0641345 25.1127 0.0639905C25.433 0.192116 25.5611 0.576491 25.433 0.896803L23.6392 5.12493C23.5752 5.38118 23.3189 5.5093 23.0627 5.5093Z" fill="#FF7D44"/>
<path d="M17.9377 5.5093C17.6815 5.5093 17.4252 5.38118 17.3612 5.12493L15.5674 0.896803C15.4393 0.576491 15.5674 0.192116 15.8877 0.0639905C16.208 -0.0641345 16.5924 0.0639905 16.7205 0.384303L18.5143 4.61243C18.6424 4.93274 18.5143 5.31712 18.194 5.44524C18.1299 5.5093 18.0018 5.5093 17.9377 5.5093Z" fill="#FF7D44"/>
<path d="M12.7486 30.5578C11.1471 30.5578 9.80176 29.2125 9.80176 27.6109C9.80176 26.0094 11.1471 24.6641 12.7486 24.6641C14.3502 24.6641 15.6955 26.0094 15.6955 27.6109C15.6955 29.2125 14.3502 30.5578 12.7486 30.5578ZM12.7486 25.9453C11.8518 25.9453 11.083 26.7141 11.083 27.6109C11.083 28.5078 11.8518 29.2766 12.7486 29.2766C13.6455 29.2766 14.4143 28.5078 14.4143 27.6109C14.4143 26.7141 13.6455 25.9453 12.7486 25.9453Z" fill="#FF7D44"/>
<path d="M28.2516 30.5578C26.65 30.5578 25.3047 29.2125 25.3047 27.6109C25.3047 26.0094 26.65 24.6641 28.2516 24.6641C29.8531 24.6641 31.1984 26.0094 31.1984 27.6109C31.1984 29.2125 29.8531 30.5578 28.2516 30.5578ZM28.2516 25.9453C27.3547 25.9453 26.5859 26.7141 26.5859 27.6109C26.5859 28.5078 27.3547 29.2766 28.2516 29.2766C29.1484 29.2766 29.9172 28.5078 29.9172 27.6109C29.9172 26.7141 29.1484 25.9453 28.2516 25.9453Z" fill="#FF7D44"/>
<path d="M28.636 5.50947C28.2516 5.50947 27.9954 5.25322 27.9954 4.86885V2.81885C27.9954 2.43447 28.2516 2.17822 28.636 2.17822C29.0204 2.17822 29.2766 2.43447 29.2766 2.81885V4.86885C29.2766 5.25322 29.0204 5.50947 28.636 5.50947Z" fill="#FF7D44"/>
<path d="M12.3643 5.50947C11.9799 5.50947 11.7236 5.25322 11.7236 4.86885V2.81885C11.7236 2.43447 11.9799 2.17822 12.3643 2.17822C12.7486 2.17822 13.0049 2.43447 13.0049 2.81885V4.86885C13.0049 5.25322 12.7486 5.50947 12.3643 5.50947Z" fill="#FF7D44"/>
</svg>
