<svg width="41" height="41" viewBox="0 0 41 41" fill="none" xmlns="http://www.w3.org/2000/svg">
<path fill-rule="evenodd" clip-rule="evenodd" d="M12.1702 30.681C11.04 30.5486 9.98062 30.0404 9.16748 29.2286C8.21617 28.2757 7.68115 26.9857 7.68115 25.641V7.60918C7.68115 6.26447 8.21617 4.97448 9.16748 4.02153C10.1188 3.07036 11.4103 2.53564 12.7566 2.53564H28.2293C29.5756 2.53564 30.8671 3.07036 31.8184 4.02153C32.7697 4.97448 33.3047 6.26447 33.3047 7.60918V25.641C33.3047 26.9857 32.7697 28.2757 31.8184 29.2286C31.0053 30.0404 29.9459 30.5486 28.8156 30.681L32.9221 37.5104L31.4588 38.391L29.4109 34.9833H11.575L9.5271 38.391L8.06381 37.5104L12.1702 30.681ZM26.8422 30.7145H14.1437L12.6025 33.2751H28.3834L26.8422 30.7145ZM28.2293 4.24389H12.7566C11.8638 4.24389 11.0063 4.59859 10.3757 5.23036C9.74323 5.86036 9.38893 6.718 9.38893 7.60918V25.641C9.38893 26.5322 9.74323 27.3898 10.3757 28.0198C11.0063 28.6516 11.8638 29.0063 12.7566 29.0063H28.2293C29.1221 29.0063 29.9795 28.6516 30.6102 28.0198C31.2427 27.3898 31.597 26.5322 31.597 25.641V7.60918C31.597 6.718 31.2427 5.86036 30.6102 5.23036C29.9795 4.59859 29.1221 4.24389 28.2293 4.24389ZM14.514 22.1751C15.4565 22.1751 16.2218 22.941 16.2218 23.8833C16.2218 24.8257 15.4565 25.5916 14.514 25.5916C13.5715 25.5916 12.8062 24.8257 12.8062 23.8833C12.8062 22.941 13.5715 22.1751 14.514 22.1751ZM26.4719 22.1751C27.4144 22.1751 28.1797 22.941 28.1797 23.8833C28.1797 24.8257 27.4144 25.5916 26.4719 25.5916C25.5294 25.5916 24.7641 24.8257 24.7641 23.8833C24.7641 22.941 25.5294 22.1751 26.4719 22.1751ZM27.9795 5.95212C29.0335 5.95212 29.8892 6.80624 29.8892 7.85977V16.851C29.8892 17.9063 29.0335 18.7604 27.9795 18.7604H13.0064C11.9523 18.7604 11.0967 17.9063 11.0967 16.851V7.85977C11.0967 6.80624 11.9523 5.95212 13.0064 5.95212H27.9795ZM27.9795 7.65859H13.0064C12.8948 7.65859 12.8062 7.7486 12.8062 7.85977V16.851C12.8062 16.9621 12.8948 17.0521 13.0064 17.0521H27.9795C28.0911 17.0521 28.1797 16.9621 28.1797 16.851V7.85977C28.1797 7.7486 28.0911 7.65859 27.9795 7.65859Z" fill="white"/>
</svg>
