<svg width="41" height="41" viewBox="0 0 41 41" fill="none" xmlns="http://www.w3.org/2000/svg">
<g clip-path="url(#clip0_845_93815)">
<path d="M17.8096 27.8672H25.1768C25.5611 27.8672 25.8174 27.6109 25.8174 27.2266C25.8174 26.8422 25.5611 26.5859 25.1768 26.5859H17.8096C17.4252 26.5859 17.1689 26.8422 17.1689 27.2266C17.1689 27.6109 17.4252 27.8672 17.8096 27.8672Z" fill="#FF7D44"/>
<path d="M5.44554 27.8031H7.30335C7.68773 27.8031 7.94398 27.5468 7.94398 27.1625C7.94398 26.7781 7.68773 26.5218 7.30335 26.5218H5.5096C4.93304 26.3937 4.4846 25.8812 4.4846 25.3046V10.3781C4.4846 9.73745 5.06116 9.16089 5.70179 9.16089H24.0237C24.6002 9.16089 25.0487 9.4812 25.2408 9.9937L26.9705 14.9906C27.3549 15.8875 28.0596 16.464 28.9565 16.6562L36.7721 17.9375C37.2846 18.0015 37.669 18.3859 37.7971 18.9625L38.3737 21.525C38.4377 21.8453 38.8221 22.1015 39.1424 22.0375C39.4627 21.9734 39.719 21.589 39.6549 21.2687L39.0784 18.7062C38.8221 17.6812 38.0534 16.9125 37.0284 16.7203L29.1487 15.439C28.5721 15.3109 28.3159 14.9265 28.1877 14.6062L26.458 9.60933C26.1377 8.58433 25.1768 7.87964 24.0877 7.87964H5.76585C4.35648 7.87964 3.26741 8.9687 3.26741 10.3781V25.3046C3.26741 26.5859 4.16429 27.6109 5.44554 27.8031Z" fill="#FF7D44"/>
<path d="M35.7472 27.8672H37.605C38.9503 27.8031 39.9753 26.65 39.9753 25.3047C39.9753 24.9203 39.7191 24.6641 39.3347 24.6641C38.9503 24.6641 38.6941 24.9203 38.6941 25.3047C38.6941 26.0094 38.1816 26.5219 37.541 26.5859H35.7472C35.3628 26.5859 35.1066 26.8422 35.1066 27.2266C35.1066 27.6109 35.3628 27.8672 35.7472 27.8672Z" fill="#FF7D44"/>
<path d="M17.4893 17.6172H24.344C24.8565 17.6172 25.3049 17.361 25.6252 16.9766C25.9456 16.5922 26.0096 16.0157 25.8815 15.5032L24.4721 11.5313C24.2799 10.8907 23.7034 10.3782 22.9987 10.3782H17.5534C16.6565 10.3782 15.9518 11.0829 15.9518 11.9797V16.0157C15.8877 16.9125 16.5924 17.6172 17.4893 17.6172ZM22.9346 11.6594C23.0627 11.6594 23.1909 11.7235 23.1909 11.9157L24.6002 15.9516C24.6643 16.0797 24.6002 16.2079 24.5362 16.2719C24.4721 16.336 24.4081 16.4 24.2799 16.4H17.4252C17.2971 16.4 17.1049 16.2079 17.1049 16.0797V12.0438C17.1049 11.9157 17.2971 11.7235 17.4252 11.7235H22.9346V11.6594Z" fill="#FF7D44"/>
<path d="M7.30337 17.6172H13.1331C14.0299 17.6172 14.7346 16.9125 14.7346 16.0157V11.9797C14.7346 11.0829 14.0299 10.3782 13.1331 10.3782H7.30337C6.4065 10.3782 5.70181 11.0829 5.70181 11.9797V16.0157C5.70181 16.9125 6.4065 17.6172 7.30337 17.6172ZM13.1331 11.6594C13.2612 11.6594 13.4534 11.8516 13.4534 11.9797V16.0157C13.4534 16.1438 13.2612 16.336 13.1331 16.336H7.30337C7.17525 16.336 6.98306 16.1438 6.98306 16.0157V11.9797C6.98306 11.8516 7.04712 11.6594 7.30337 11.6594H13.1331Z" fill="#FF7D44"/>
<path d="M30.4939 33.1203C33.7611 33.1203 36.3877 30.4937 36.3877 27.2265C36.3877 23.9593 33.7611 21.3328 30.4939 21.3328C27.2268 21.3328 24.6002 23.9593 24.6002 27.2265C24.6002 30.4937 27.2268 33.1203 30.4939 33.1203ZM30.4939 22.614C33.0564 22.614 35.1064 24.664 35.1064 27.2265C35.1064 29.789 33.0564 31.839 30.4939 31.839C27.9314 31.839 25.8814 29.789 25.8814 27.2265C25.8814 24.664 27.9314 22.614 30.4939 22.614Z" fill="#FF7D44"/>
<path d="M30.4941 30.6219C32.416 30.6219 33.8894 29.1485 33.8894 27.2266C33.8894 25.3047 32.416 23.8313 30.4941 23.8313C28.5722 23.8313 27.0988 25.3047 27.0988 27.2266C27.0347 28.0594 27.355 28.8922 27.9957 29.5329C28.6363 30.2375 29.5332 30.6219 30.4941 30.6219ZM30.4941 25.1125C31.7113 25.1125 32.6082 26.0094 32.6082 27.2266C32.6082 28.4438 31.7113 29.3407 30.4941 29.3407C29.9175 29.3407 29.341 29.0844 28.9566 28.7C28.5722 28.3157 28.38 27.8032 28.38 27.2907C28.38 26.0094 29.2769 25.1125 30.4941 25.1125Z" fill="#FF7D44"/>
<path d="M12.5564 33.1203C15.8236 33.1203 18.4502 30.4937 18.4502 27.2265C18.4502 23.9593 15.8236 21.3328 12.5564 21.3328C9.28926 21.3328 6.6627 23.9593 6.6627 27.2265C6.6627 30.4937 9.28926 33.1203 12.5564 33.1203ZM12.5564 22.614C15.1189 22.614 17.1689 24.664 17.1689 27.2265C17.1689 29.789 15.1189 31.839 12.5564 31.839C9.99395 31.839 7.94395 29.789 7.94395 27.2265C7.94395 24.664 9.99395 22.614 12.5564 22.614Z" fill="#FF7D44"/>
<path d="M12.5566 30.6219C14.4785 30.6219 15.9519 29.1485 15.9519 27.2266C15.9519 25.3047 14.4785 23.8313 12.5566 23.8313C10.6347 23.8313 9.16128 25.3047 9.16128 27.2266C9.16128 29.0844 10.6988 30.6219 12.5566 30.6219ZM12.5566 25.1125C13.7738 25.1125 14.6707 26.0094 14.6707 27.2266C14.6707 28.4438 13.7097 29.3407 12.5566 29.3407C11.4035 29.3407 10.4425 28.3797 10.4425 27.2266C10.4425 26.0094 11.3394 25.1125 12.5566 25.1125Z" fill="#FF7D44"/>
<path d="M1.92212 23.8952H3.84399C4.22837 23.8952 4.48462 23.6389 4.48462 23.2545C4.48462 22.8702 4.22837 22.6139 3.84399 22.6139H1.92212C1.66587 22.6139 1.34556 22.4217 1.34556 22.0374V14.9264C1.34556 14.6702 1.53774 14.3499 1.92212 14.3499H3.84399C4.22837 14.3499 4.48462 14.0936 4.48462 13.7092C4.48462 13.3249 4.22837 13.0686 3.84399 13.0686H1.92212C0.897119 13.0686 0.0643058 13.9014 0.0643058 14.9264V22.0374C0.0643058 23.0624 0.897119 23.8952 1.92212 23.8952Z" fill="#FF7D44"/>
<path d="M39.1424 25.9453C40.1674 25.9453 41.0002 25.1125 41.0002 24.0875V22.55C41.0002 21.525 40.1674 20.6921 39.1424 20.6921C38.1174 20.6921 37.2846 21.525 37.2846 22.55V24.0875C37.2846 25.1765 38.0534 25.9453 39.1424 25.9453ZM39.1424 21.9734C39.3987 21.9734 39.719 22.1656 39.719 22.55V24.0875C39.719 24.3437 39.5268 24.664 39.1424 24.664C38.8221 24.664 38.5659 24.4078 38.5659 24.0875V22.55C38.5659 22.2937 38.7581 21.9734 39.1424 21.9734Z" fill="#FF7D44"/>
<path d="M18.5144 19.603H19.9878C20.3722 19.603 20.6284 19.3468 20.6284 18.9624C20.6284 18.578 20.3722 18.3218 19.9878 18.3218H18.5144C18.13 18.3218 17.8737 18.578 17.8737 18.9624C17.8737 19.3468 18.13 19.603 18.5144 19.603Z" fill="#FF7D44"/>
</g>
<defs>
<clipPath id="clip0_845_93815">
<rect width="41" height="41" fill="white" transform="matrix(-1 0 0 1 41.0002 0)"/>
</clipPath>
</defs>
</svg>
