<svg width="41" height="41" viewBox="0 0 41 41" fill="none" xmlns="http://www.w3.org/2000/svg">
<g clip-path="url(#clip0_845_93786)">
<path d="M19.9234 9.03276C19.7313 9.03276 19.6031 8.9687 19.475 8.84058C19.2188 8.58433 19.2188 8.19995 19.475 7.9437L19.8594 7.55933C20.1797 7.17495 20.1797 6.59839 19.8594 6.27808C19.5391 5.95776 18.9625 5.95776 18.5781 6.27808L16.4641 8.39214C16.2078 8.64839 15.8234 8.64839 15.5672 8.39214C15.3109 8.13589 15.3109 7.75151 15.5672 7.49526L17.6813 5.3812C18.5781 4.54839 19.9234 4.54839 20.7563 5.3812C21.5891 6.21401 21.5891 7.55933 20.7563 8.4562L20.3719 8.84058C20.2438 8.9687 20.1156 9.03276 19.9234 9.03276Z" fill="#FF7D44"/>
<path d="M11.5953 8.07178C11.4031 8.07178 11.275 8.00772 11.1469 7.87959C10.8906 7.62334 10.8906 7.23896 11.1469 6.98271L11.7875 6.34209C12.1078 5.95771 12.1078 5.38115 11.7875 5.06084C11.4672 4.74053 10.8266 4.74053 10.5062 5.06084L8.13594 7.43115C7.87969 7.6874 7.49531 7.6874 7.23906 7.43115C6.98281 7.1749 6.98281 6.79053 7.23906 6.53428L9.60937 4.16396C10.3781 3.39521 11.9156 3.39521 12.6844 4.16396C13.5172 4.99678 13.5172 6.34209 12.6844 7.23897L12.0437 7.87959C11.9156 8.00772 11.7875 8.07178 11.5953 8.07178Z" fill="#FF7D44"/>
<path d="M17.3608 18.8983C17.2327 18.8983 17.1046 18.8343 16.9765 18.7702C13.1327 16.2077 6.47021 12.428 1.08896 10.2499C0.896777 10.1858 0.70459 10.0577 0.512402 9.86553C-0.192285 9.16085 -0.192285 8.07178 0.512402 7.30303C0.512402 7.30303 0.512402 7.30303 0.576465 7.23897C1.60146 6.27803 3.01084 5.8296 4.48428 5.95772L19.9233 7.75147L25.753 8.71241C26.0733 8.77647 26.3296 9.09678 26.2655 9.4171C26.2015 9.73741 25.8812 9.99366 25.5608 9.9296L19.7312 8.96866L4.35615 7.23897C3.26709 7.11085 2.24209 7.49522 1.40928 8.19991C1.21709 8.45616 1.21709 8.77647 1.40928 8.96866C1.47334 9.03272 1.5374 9.03272 1.60146 9.09678C6.98271 11.2749 13.7733 15.1187 17.6812 17.7452C18.0015 17.9374 18.0655 18.3218 17.8733 18.6421C17.7452 18.7702 17.553 18.8983 17.3608 18.8983Z" fill="#FF7D44"/>
<path d="M33.3125 25.4968C33.1203 25.4968 32.9921 25.4328 32.864 25.3046C32.6078 25.0484 32.6078 24.664 32.864 24.4078L34.9781 22.2937C35.2984 21.9093 35.2984 21.3328 34.9781 21.0125C34.6578 20.6921 34.0812 20.6921 33.6968 21.0125L33.3125 21.3968C33.0562 21.6531 32.6718 21.6531 32.4156 21.3968C32.1593 21.1406 32.1593 20.7562 32.4156 20.5L32.8 20.1156C33.6968 19.2828 35.0421 19.2828 35.875 20.1156C36.7078 20.9484 36.7078 22.2937 35.875 23.1906L33.7609 25.3046C33.6328 25.4328 33.5046 25.4968 33.3125 25.4968Z" fill="#FF7D44"/>
<path d="M34.2732 33.7609C34.0811 33.7609 33.9529 33.6968 33.8248 33.5687C33.5686 33.3125 33.5686 32.9281 33.8248 32.6718L36.1311 30.3015C36.4514 29.9171 36.4514 29.3406 36.1311 29.0203C35.8107 28.6999 35.2342 28.6999 34.8498 29.0203L34.2092 29.6609C33.9529 29.9171 33.5686 29.9171 33.3123 29.6609C33.0561 29.4046 33.0561 29.0203 33.3123 28.764L33.9529 28.1234C34.8498 27.2906 36.1951 27.2906 37.0279 28.1234C37.8607 28.9562 37.8607 30.3015 37.0279 31.1984L34.7217 33.5687C34.5936 33.6968 34.4654 33.7609 34.2732 33.7609Z" fill="#FF7D44"/>
<path d="M32.6077 40.8078C32.1593 40.8078 31.6468 40.6156 31.3265 40.2953C31.1343 40.1031 31.0062 39.911 30.9421 39.7188C28.6999 34.2735 24.9202 27.4188 22.2937 23.4469C22.1015 23.1266 22.1655 22.7422 22.4858 22.55C22.8062 22.3578 23.1905 22.4219 23.3827 22.7422C26.0733 26.7781 29.9171 33.6969 32.1593 39.2063C32.2233 39.2703 32.2233 39.3344 32.2874 39.3985C32.4796 39.5906 32.864 39.5906 33.0562 39.3985C33.8249 38.6297 34.2093 37.5406 34.0812 36.4516L32.2874 20.9485L31.3905 14.8625C31.3265 14.5422 31.5827 14.1578 31.903 14.1578C32.2233 14.0938 32.6077 14.35 32.6077 14.6703L33.5046 20.7563L35.2983 36.2594C35.4265 37.7328 34.914 39.2063 33.889 40.2313C33.5687 40.6797 33.0562 40.8078 32.6077 40.8078Z" fill="#FF7D44"/>
<path d="M9.09687 30.6218C8.96875 30.6218 8.84063 30.5578 8.7125 30.4937L1.85781 25.8812C1.5375 25.625 1.34531 25.2406 1.28125 24.8562C1.28125 24.4718 1.40937 24.1515 1.66562 23.8312L2.81875 22.6781C3.20313 22.2937 3.5875 22.2937 3.90781 22.2937H4.03594L11.3391 24.0875C11.6594 24.1515 11.9156 24.5359 11.7875 24.8562C11.7234 25.1765 11.3391 25.4328 11.0188 25.3046L3.90781 23.639C3.84375 23.639 3.77969 23.639 3.77969 23.639L2.62656 24.7921L9.48125 29.4687C9.80156 29.6609 9.86563 30.0453 9.67344 30.3656C9.48125 30.4937 9.28906 30.6218 9.09687 30.6218Z" fill="#FF7D44"/>
<path d="M16.3359 39.6548C16.2718 39.6548 16.2078 39.6548 16.1437 39.6548C15.7593 39.5907 15.439 39.3985 15.2468 39.0782L10.25 31.6469C10.0578 31.3266 10.1218 30.9423 10.4421 30.7501C10.7625 30.5579 11.1468 30.6219 11.339 30.9423L16.3359 38.3094L17.425 37.2204L15.2468 29.5969C15.1187 29.2766 15.375 28.8923 15.6953 28.8282C16.0156 28.7641 16.4 28.9563 16.464 29.2766L18.6421 36.9001C18.7703 37.2844 18.6421 37.7969 18.2578 38.1813L17.1046 39.3344C16.9765 39.5266 16.6562 39.6548 16.3359 39.6548Z" fill="#FF7D44"/>
<path d="M11.5951 31.7108C11.4029 31.7108 11.1467 31.7108 10.9545 31.6468C10.6342 31.5827 10.3779 31.2624 10.442 30.9421C10.5061 30.6218 10.8264 30.3655 11.1467 30.4296C12.492 30.6218 14.7342 29.7249 15.3748 29.0843L36.7076 9.60928C38.8217 7.55928 40.4873 3.26709 39.2061 1.92178C38.8857 1.60146 38.3732 1.40928 37.6686 1.47334C35.7467 1.47334 32.9279 2.81865 31.3904 4.35615L11.6592 25.2405C11.0186 25.8812 10.0576 27.9952 10.3139 29.4046C10.3779 29.7249 10.1217 30.1093 9.80137 30.1093C9.48106 30.1733 9.09668 29.9171 9.09668 29.5968C8.77637 27.739 9.9295 25.2405 10.8264 24.3437L30.5576 3.39522C32.3514 1.5374 35.4904 0.128027 37.7326 0.0639648H37.7967C38.8217 0.0639648 39.6545 0.320215 40.2311 0.896777C42.2811 3.01084 40.167 8.00772 37.7326 10.378L16.3357 29.9171C15.567 30.7499 13.3889 31.7108 11.5951 31.7108Z" fill="#FF7D44"/>
<path d="M36.3875 7.04688C36.0671 7.04688 35.7468 6.79063 35.7468 6.47031C35.6828 5.89375 35.2343 5.50937 34.5937 5.44531H34.4656C34.0812 5.44531 33.825 5.18906 33.825 4.80469C33.825 4.42031 34.0812 4.16406 34.4656 4.16406H34.6578C36.0031 4.22812 36.964 5.125 37.0281 6.34219C37.0281 6.72656 36.7718 7.04688 36.3875 7.04688Z" fill="#FF7D44"/>
<path d="M8.77656 33.5046C8.32812 33.5046 7.87969 33.3125 7.55938 32.9921C7.23906 32.6718 7.04688 32.2875 7.04688 31.839C7.04688 31.3906 7.23906 30.9421 7.49531 30.6218L11.1469 26.9703C11.7234 26.3937 12.9406 26.3937 13.5172 26.9703C13.8375 27.2906 13.9656 27.675 13.9656 28.1875C13.9656 28.7 13.7734 29.0843 13.5172 29.4046L9.86562 33.0562C9.67344 33.3125 9.225 33.5046 8.77656 33.5046ZM12.4281 27.8031C12.3 27.8031 12.2359 27.8671 12.1719 27.9312L8.52031 31.5828C8.45625 31.6468 8.39219 31.775 8.39219 31.839C8.39219 31.9671 8.45625 32.0312 8.52031 32.0953C8.7125 32.2875 8.90469 32.2875 9.03281 32.1593L12.7484 28.4437C12.8125 28.3796 12.8766 28.2515 12.8766 28.1875C12.8766 28.1234 12.8125 27.9953 12.7484 27.9312C12.6203 27.8031 12.4922 27.8031 12.4281 27.8031Z" fill="#FF7D44"/>
</g>
<defs>
<clipPath id="clip0_845_93786">
<rect width="41" height="41" fill="white"/>
</clipPath>
</defs>
</svg>
