<svg width="41" height="41" viewBox="0 0 41 41" fill="none" xmlns="http://www.w3.org/2000/svg">
<path d="M37.3329 36.1252L31.8762 30.6685C32.9426 29.2949 33.4453 27.5666 33.2822 25.8353C33.1191 24.1041 32.3023 22.5001 30.9982 21.3499C29.694 20.1996 28.0005 19.5897 26.2625 19.6441C24.5244 19.6985 22.8724 20.4133 21.6428 21.6429C20.4132 22.8725 19.6984 24.5245 19.644 26.2626C19.5895 28.0006 20.1995 29.6941 21.3497 30.9983C22.5 32.3024 24.104 33.1192 25.8352 33.2823C27.5665 33.4455 29.2948 32.9427 30.6684 31.8763L36.1251 37.333C36.2044 37.4123 36.2985 37.4752 36.4022 37.5182C36.5058 37.5611 36.6168 37.5832 36.729 37.5832C36.8412 37.5832 36.9522 37.5611 37.0558 37.5182C37.1594 37.4752 37.2536 37.4123 37.3329 37.333C37.4122 37.2537 37.4751 37.1596 37.518 37.056C37.561 36.9523 37.5831 36.8413 37.5831 36.7291C37.5831 36.617 37.561 36.5059 37.518 36.4023C37.4751 36.2987 37.4122 36.2045 37.3329 36.1252ZM22.8548 30.1033C22.0164 29.2649 21.4946 28.1617 21.3784 26.9818C21.2621 25.8018 21.5587 24.618 22.2174 23.6321C22.8761 22.6462 23.8563 21.9193 24.991 21.5751C26.1256 21.2309 27.3445 21.2908 28.4399 21.7445C29.5354 22.1982 30.4396 23.0178 30.9985 24.0635C31.5575 25.1092 31.7365 26.3163 31.5052 27.4792C31.2739 28.6421 30.6465 29.6889 29.73 30.4411C28.8134 31.1933 27.6644 31.6044 26.4787 31.6044C25.8054 31.6062 25.1385 31.4744 24.5165 31.2167C23.8945 30.959 23.3298 30.5805 22.855 30.1031L22.8548 30.1033Z" fill="white"/>
<path d="M35.3677 9.46943L19.9927 2.63613C19.8834 2.58766 19.7652 2.56262 19.6457 2.56262C19.5261 2.56262 19.4079 2.58766 19.2986 2.63613L3.92364 9.46943C3.77269 9.53658 3.64445 9.64604 3.55444 9.78457C3.46444 9.9231 3.41652 10.0848 3.4165 10.25V29.0416C3.41653 29.2068 3.46445 29.3684 3.55446 29.5069C3.64447 29.6454 3.77271 29.7548 3.92364 29.8219L19.2986 36.6552C19.4079 36.7039 19.5261 36.7291 19.6457 36.7291C19.7652 36.7291 19.8835 36.7039 19.9927 36.6552L21.9146 35.801C22.1187 35.7072 22.2776 35.5367 22.3569 35.3265C22.4362 35.1163 22.4295 34.8833 22.3382 34.678C22.2469 34.4727 22.0784 34.3117 21.8692 34.2298C21.66 34.1479 21.4269 34.1517 21.2205 34.2405L19.6456 34.9404L5.12481 28.4865V11.5644L19.2986 17.8639C19.4079 17.9124 19.5261 17.9375 19.6457 17.9375C19.7652 17.9375 19.8834 17.9124 19.9927 17.8639L34.1665 11.5644V21.3542C34.1654 21.467 34.1867 21.579 34.2291 21.6836C34.2716 21.7882 34.3343 21.8833 34.4137 21.9635C34.4932 22.0437 34.5877 22.1074 34.6919 22.1508C34.796 22.1942 34.9078 22.2166 35.0207 22.2166C35.1335 22.2166 35.2453 22.1942 35.3495 22.1508C35.4536 22.1074 35.5482 22.0437 35.6276 21.9635C35.707 21.8833 35.7697 21.7882 35.8122 21.6836C35.8546 21.579 35.8759 21.467 35.8748 21.3542V10.25C35.8748 10.0848 35.8269 9.9231 35.7369 9.78457C35.6469 9.64604 35.5186 9.53658 35.3677 9.46943ZM19.6456 4.35132L24.7712 6.62938L11.6111 12.4781C11.5762 12.494 11.5423 12.5122 11.5098 12.5326L6.37403 10.25L19.6456 4.35132ZM19.6456 16.1487L13.6024 13.4627L26.826 7.58568C26.842 7.57871 26.8563 7.57046 26.8713 7.5627L32.9174 10.25L19.6456 16.1487Z" fill="white"/>
</svg>
