<svg width="41" height="41" viewBox="0 0 41 41" fill="none" xmlns="http://www.w3.org/2000/svg">
<g clip-path="url(#clip0_852_47326)">
<path d="M39.2849 39.0382H34.7008L37.5497 29.5151C37.9174 28.2963 37.465 26.9786 36.426 26.2423L33.0446 23.8371V13.0917C33.0419 12.5695 32.8312 12.0704 32.4592 11.7042C32.0873 11.338 31.5851 11.1347 31.0629 11.1397H30.7772V2.00128C30.7579 0.900325 29.8673 0.013863 28.7663 0H18.277C17.1799 0.0154033 16.2958 0.904176 16.2857 2.00128V6.01346H12.2832C11.1988 6.01346 10.2723 6.9007 10.2723 7.99511V11.1397H9.98654C8.90061 11.1328 8.01453 12.0061 8.0049 13.0917V23.8371L4.62348 26.2327C3.58876 26.9716 3.13706 28.2863 3.49981 29.5055L6.35867 39.0282H1.76462C1.22011 39.0282 0.778809 39.4699 0.778809 40.014C0.778809 40.5585 1.22011 40.9998 1.76462 40.9998H39.2748C39.8186 40.9983 40.2591 40.5582 40.2607 40.014C40.2618 39.7549 40.1594 39.5061 39.9761 39.3228C39.7928 39.1395 39.544 39.0371 39.2849 39.0382ZM35.657 28.9437L32.6306 39.0382H21.5106V18.0797L35.2823 27.8492C35.6262 28.098 35.7764 28.5362 35.657 28.9437ZM18.2574 1.97163H28.8056V11.1397H21.1162V7.99511C21.1239 7.47563 20.9245 6.97463 20.5617 6.60264C20.1993 6.23104 19.7034 6.01886 19.1839 6.01346H18.2574V1.97163ZM12.2439 7.98509H19.1446V11.1397H12.2439V7.98509ZM9.97653 13.1113H31.0729V22.4373L21.0966 15.3687C20.755 15.1222 20.2945 15.1222 19.9529 15.3687L9.97653 22.4373V13.1113ZM5.3925 28.9437C5.27312 28.5362 5.4233 28.098 5.76718 27.8492L19.5389 18.0797V39.0382H8.41887L5.3925 28.9437Z" fill="white"/>
</g>
<defs>
<clipPath id="clip0_852_47326">
<rect width="41" height="41" fill="white"/>
</clipPath>
</defs>
</svg>
