<svg width="41" height="41" viewBox="0 0 41 41" fill="none" xmlns="http://www.w3.org/2000/svg">
<g clip-path="url(#clip0_852_47343)">
<path d="M30.9654 24.376C28.1157 24.376 25.7974 26.6943 25.7974 29.5441C25.7974 32.3938 28.1157 34.7121 30.9654 34.7121C33.8157 34.7121 36.1335 32.3938 36.1335 29.5441C36.1335 26.6943 33.8152 24.376 30.9654 24.376ZM30.9654 32.1281C29.5404 32.1281 28.3814 30.9691 28.3814 29.5441C28.3814 28.119 29.5404 26.96 30.9654 26.96C32.3905 26.96 33.5495 28.119 33.5495 29.5441C33.5495 30.9692 32.3905 32.1281 30.9654 32.1281Z" fill="white"/>
<path d="M13.3077 24.376C10.458 24.376 8.13965 26.6943 8.13965 29.5441C8.13965 32.3938 10.458 34.7121 13.3077 34.7121C16.1575 34.7121 18.4758 32.3938 18.4758 29.5441C18.4758 26.6943 16.1575 24.376 13.3077 24.376ZM13.3077 32.1281C11.8827 32.1281 10.7237 30.9691 10.7237 29.5441C10.7237 28.119 11.8827 26.96 13.3077 26.96C14.7324 26.96 15.8918 28.119 15.8918 29.5441C15.8918 30.9692 14.7328 32.1281 13.3077 32.1281Z" fill="white"/>
<path d="M34.4456 9.58332C34.226 9.14705 33.7794 8.87183 33.291 8.87183H26.4863V11.4559H32.4942L36.0123 18.4534L38.3216 17.2923L34.4456 9.58332Z" fill="white"/>
<path d="M27.0892 28.2952H17.313V30.8792H27.0892V28.2952Z" fill="white"/>
<path d="M9.43155 28.2952H4.95262C4.23897 28.2952 3.66064 28.8736 3.66064 29.5871C3.66064 30.3008 4.23905 30.8791 4.95262 30.8791H9.43163C10.1453 30.8791 10.7236 30.3007 10.7236 29.5871C10.7236 28.8735 10.1452 28.2952 9.43155 28.2952Z" fill="white"/>
<path d="M40.7286 20.3966L38.1872 17.1235C37.9431 16.8083 37.5662 16.6239 37.1669 16.6239H27.7783V7.57982C27.7783 6.86617 27.1998 6.28784 26.4863 6.28784H4.95262C4.23897 6.28784 3.66064 6.86625 3.66064 7.57982C3.66064 8.2934 4.23905 8.8718 4.95262 8.8718H25.1942V17.9159C25.1942 18.6296 25.7726 19.2079 26.4862 19.2079H36.5342L38.4158 21.6317V28.2951H34.8412C34.1276 28.2951 33.5492 28.8735 33.5492 29.5871C33.5492 30.3007 34.1276 30.879 34.8412 30.879H39.7078C40.4215 30.879 40.9998 30.3006 40.9999 29.5871V21.1891C40.9999 20.9023 40.9043 20.6232 40.7286 20.3966Z" fill="white"/>
<path d="M9.34565 21.749H3.40233C2.68868 21.749 2.11035 22.3274 2.11035 23.041C2.11035 23.7547 2.68876 24.333 3.40233 24.333H9.34557C10.0592 24.333 10.6376 23.7546 10.6376 23.041C10.6376 22.3274 10.0592 21.749 9.34565 21.749Z" fill="white"/>
<path d="M12.3172 16.667H1.29198C0.578404 16.667 0 17.2454 0 17.9591C0 18.6727 0.578404 19.251 1.29198 19.251H12.3172C13.0309 19.251 13.6092 18.6726 13.6092 17.9591C13.6092 17.2455 13.0309 16.667 12.3172 16.667Z" fill="white"/>
<path d="M14.4276 11.5851H3.40233C2.68868 11.5851 2.11035 12.1635 2.11035 12.8771C2.11035 13.5907 2.68876 14.169 3.40233 14.169H14.4276C15.1412 14.169 15.7195 13.5906 15.7195 12.8771C15.7196 12.1635 15.1412 11.5851 14.4276 11.5851Z" fill="white"/>
</g>
<defs>
<clipPath id="clip0_852_47343">
<rect width="41" height="41" fill="white"/>
</clipPath>
</defs>
</svg>
