<svg width="41" height="41" viewBox="0 0 41 41" fill="none" xmlns="http://www.w3.org/2000/svg">
<g clip-path="url(#clip0_845_93706)">
<path d="M32.3518 28.2516C31.9674 28.2516 31.7112 27.9954 31.7112 27.611V27.1625C31.7112 26.5219 31.1987 26.0094 30.5581 26.0094H11.7237C11.3393 26.0094 11.0831 25.7532 11.0831 25.3688V20.3079H2.75493C1.98618 20.3079 1.28149 21.0125 1.28149 21.7813V25.2407C1.28149 25.625 1.02524 25.8813 0.640869 25.8813C0.256494 25.8813 0.000244141 25.625 0.000244141 25.2407V21.7813C0.000244141 20.2438 1.21743 19.0266 2.75493 19.0266H11.7237C12.1081 19.0266 12.3643 19.2829 12.3643 19.6672V24.7282H30.5581C31.9034 24.7282 32.9924 25.8172 32.9924 27.1625V27.611C32.9924 27.9954 32.7362 28.2516 32.3518 28.2516Z" fill="#FF7D44"/>
<path d="M23.255 33.825H14.2222C13.8378 33.825 13.5815 33.5687 13.5815 33.1843C13.5815 32.8 13.8378 32.5437 14.2222 32.5437H23.255C23.6394 32.5437 23.8956 32.8 23.8956 33.1843C23.8956 33.5687 23.6394 33.825 23.255 33.825Z" fill="#FF7D44"/>
<path d="M28.5721 19.2828C28.3158 19.2828 28.0596 19.0906 27.9314 18.8344L25.1127 7.94373H12.3643V17.1687C12.3643 17.5531 12.108 17.8094 11.7236 17.8094C11.3393 17.8094 11.083 17.5531 11.083 17.1687V7.3031C11.083 6.91873 11.3393 6.66248 11.7236 6.66248H25.6252C25.9455 6.66248 26.2018 6.85466 26.2658 7.11091L29.2127 18.45C29.2768 18.7703 29.0846 19.1547 28.7643 19.2187C28.7002 19.2828 28.6361 19.2828 28.5721 19.2828Z" fill="#FF7D44"/>
<path d="M35.683 28.5718H34.7861C34.4018 28.5718 34.1455 28.3155 34.1455 27.9312C34.1455 27.5468 34.4018 27.2905 34.7861 27.2905H35.683C36.0674 27.2905 36.3236 27.5468 36.3236 27.9312C36.3236 28.3155 36.0674 28.5718 35.683 28.5718Z" fill="#FF7D44"/>
<path d="M40.3597 33.825H35.6831C35.2987 33.825 35.0425 33.5688 35.0425 33.1844V10.3782C35.0425 9.9938 35.2987 9.73755 35.6831 9.73755C36.0675 9.73755 36.3237 9.9938 36.3237 10.3782V32.5438H40.3597C40.744 32.5438 41.0003 32.8 41.0003 33.1844C41.0003 33.5688 40.744 33.825 40.3597 33.825Z" fill="#FF7D44"/>
<path d="M25.9456 7.87969H11.1471C9.99399 7.87969 8.96899 6.85469 8.96899 5.70156C8.96899 5.125 9.22524 4.54844 9.60962 4.16406C9.99399 3.77969 10.5706 3.52344 11.1471 3.52344H25.9456C27.0987 3.52344 28.1237 4.54844 28.1237 5.70156C28.1237 6.27812 27.8674 6.85469 27.4831 7.23906C27.0987 7.62344 26.5221 7.87969 25.9456 7.87969ZM11.1471 4.80469C10.8268 4.80469 10.5706 4.99688 10.5065 5.06094C10.4424 5.125 10.2502 5.38125 10.2502 5.70156C10.2502 6.15 10.6987 6.59844 11.1471 6.59844H25.9456C26.2659 6.59844 26.5221 6.40625 26.5862 6.34219C26.6502 6.27812 26.8424 6.02187 26.8424 5.70156C26.8424 5.25312 26.394 4.80469 25.9456 4.80469H11.1471Z" fill="#FF7D44"/>
<path d="M29.4689 37.4767C27.0986 37.4767 25.1768 35.5548 25.1768 33.1845C25.1768 30.8142 27.0986 28.8923 29.4689 28.8923C31.8393 28.8923 33.7611 30.8142 33.7611 33.1845C33.7611 35.5548 31.8393 37.4767 29.4689 37.4767ZM29.4689 30.1736C27.8033 30.1736 26.458 31.5189 26.458 33.1845C26.458 34.8501 27.8033 36.1955 29.4689 36.1955C31.1346 36.1955 32.4799 34.8501 32.4799 33.1845C32.4799 31.5189 31.1346 30.1736 29.4689 30.1736Z" fill="#FF7D44"/>
<path d="M6.27837 37.4767C2.81899 37.4767 0.000244141 34.6579 0.000244141 31.1985C0.000244141 27.7392 2.81899 24.9204 6.27837 24.9204C9.73774 24.9204 12.5565 27.7392 12.5565 31.1985C12.5565 34.6579 9.73774 37.4767 6.27837 37.4767ZM6.27837 26.2017C3.52368 26.2017 1.28149 28.4438 1.28149 31.1985C1.28149 33.9532 3.52368 36.1954 6.27837 36.1954C9.03306 36.1954 11.2752 33.9532 11.2752 31.1985C11.2752 28.4438 9.03306 26.2017 6.27837 26.2017Z" fill="#FF7D44"/>
<path d="M22.358 23.511C22.1658 23.511 21.9736 23.4469 21.8455 23.2547C21.1408 22.3579 20.1799 21.9094 19.0908 21.9094H14.2861C13.9018 21.9094 13.6455 21.6532 13.6455 21.2688C13.6455 20.8844 13.9018 20.6282 14.2861 20.6282H19.0908C20.5643 20.6282 21.9096 21.2688 22.8705 22.486C23.0627 22.7422 23.0627 23.1907 22.7424 23.3829C22.6143 23.4469 22.4861 23.511 22.358 23.511Z" fill="#FF7D44"/>
<path d="M30.3658 26.0735C30.1736 26.0735 29.9814 26.0094 29.8532 25.8172L23.5751 17.1688C23.3829 16.9125 23.447 16.4641 23.7033 16.2719C23.9595 16.0797 24.4079 16.1438 24.6001 16.4L30.8783 25.0485C31.0704 25.3047 31.0064 25.7532 30.7501 25.9453C30.622 26.0094 30.4939 26.0735 30.3658 26.0735Z" fill="#FF7D44"/>
<path d="M22.4862 18.5142C22.294 18.5142 22.1018 18.4501 21.9737 18.322C21.7174 18.0657 21.7815 17.6813 22.0377 17.4251L24.9846 14.8626C25.2409 14.6063 25.6252 14.6704 25.8815 14.9267C26.1377 15.1829 26.0737 15.5673 25.8174 15.8235L22.8706 18.386C22.8065 18.4501 22.6143 18.5142 22.4862 18.5142Z" fill="#FF7D44"/>
</g>
<defs>
<clipPath id="clip0_845_93706">
<rect width="41" height="41" fill="white" transform="translate(0.000244141)"/>
</clipPath>
</defs>
</svg>
