<svg width="37" height="34" viewBox="0 0 37 34" fill="none" xmlns="http://www.w3.org/2000/svg">
<g clip-path="url(#clip0_847_648)">
<path d="M7.52246 22.7376V25.9251C7.52246 26.0942 7.58963 26.2563 7.70918 26.3759C7.82873 26.4954 7.99089 26.5626 8.15996 26.5626C8.32904 26.5626 8.49119 26.4954 8.61074 26.3759C8.7303 26.2563 8.79746 26.0942 8.79746 25.9251V22.7376C8.79746 22.5685 8.7303 22.4064 8.61074 22.2868C8.49119 22.1673 8.32904 22.1001 8.15996 22.1001C7.99089 22.1001 7.82873 22.1673 7.70918 22.2868C7.58963 22.4064 7.52246 22.5685 7.52246 22.7376Z" fill="white"/>
<path d="M9.43506 22.7376V25.9251C9.43506 26.0942 9.50222 26.2563 9.62178 26.3759C9.74133 26.4954 9.90348 26.5626 10.0726 26.5626C10.2416 26.5626 10.4038 26.4954 10.5233 26.3759C10.6429 26.2563 10.7101 26.0942 10.7101 25.9251V22.7376C10.7101 22.5685 10.6429 22.4064 10.5233 22.2868C10.4038 22.1673 10.2416 22.1001 10.0726 22.1001C9.90348 22.1001 9.74133 22.1673 9.62178 22.2868C9.50222 22.4064 9.43506 22.5685 9.43506 22.7376Z" fill="white"/>
<path d="M11.3477 22.7376V25.9251C11.3477 26.0942 11.4148 26.2563 11.5344 26.3759C11.6539 26.4954 11.8161 26.5626 11.9852 26.5626C12.1542 26.5626 12.3164 26.4954 12.4359 26.3759C12.5555 26.2563 12.6227 26.0942 12.6227 25.9251V22.7376C12.6227 22.5685 12.5555 22.4064 12.4359 22.2868C12.3164 22.1673 12.1542 22.1001 11.9852 22.1001C11.8161 22.1001 11.6539 22.1673 11.5344 22.2868C11.4148 22.4064 11.3477 22.5685 11.3477 22.7376Z" fill="white"/>
<path d="M35.9868 12.8564C35.9159 12.795 35.8322 12.75 35.7419 12.7247C35.6515 12.6994 35.5566 12.6943 35.4641 12.7098C34.0502 12.9516 32.5961 12.7279 31.3203 12.0723C30.6151 11.705 29.9702 11.232 29.4078 10.6698C29.2887 10.553 29.1285 10.4876 28.9616 10.4876C28.7947 10.4876 28.6345 10.553 28.5153 10.6698C27.953 11.232 27.3081 11.705 26.6028 12.0723C25.327 12.7279 23.8729 12.9516 22.4591 12.7098C22.3507 12.7098 22.185 12.6142 22.185 12.5377V7.4377H31.11V9.98769C31.11 10.1568 31.1771 10.3189 31.2967 10.4385C31.4162 10.558 31.5784 10.6252 31.7475 10.6252C31.9165 10.6252 32.0787 10.558 32.1982 10.4385C32.3178 10.3189 32.385 10.1568 32.385 9.98769V6.8002C32.3697 6.60986 32.2832 6.4323 32.1427 6.30295L26.5072 1.84045C26.3951 1.75046 26.2558 1.70103 26.112 1.7002H10.608C10.4642 1.70103 10.3249 1.75046 10.2127 1.84045L4.57721 6.30295C4.50435 6.36432 4.44515 6.44027 4.40342 6.52591C4.3617 6.61156 4.33838 6.70499 4.33496 6.8002V28.4752C4.33496 28.6443 4.40213 28.8064 4.52168 28.926C4.64123 29.0455 4.80339 29.1127 4.97246 29.1127H31.7475C31.9165 29.1127 32.0787 29.0455 32.1982 28.926C32.3178 28.8064 32.385 28.6443 32.385 28.4752C32.385 28.3061 32.3178 28.144 32.1982 28.0244C32.0787 27.9049 31.9165 27.8377 31.7475 27.8377H5.60996V7.4377H14.535V12.5377C14.535 12.7068 14.6021 12.8689 14.7217 12.9885C14.8412 13.108 15.0034 13.1752 15.1725 13.1752H21.5475C21.5892 13.1815 21.6277 13.201 21.6576 13.2308C21.6874 13.2607 21.7069 13.2992 21.7132 13.3409V18.4856C21.7132 25.6766 28.764 27.2002 28.8341 27.2002C28.9183 27.2165 29.0049 27.2165 29.0891 27.2002C29.1592 27.2002 36.21 25.6447 36.21 18.4856V13.3409C36.21 13.2489 36.19 13.1579 36.1515 13.0742C36.113 12.9906 36.0568 12.9163 35.9868 12.8564ZM29.9178 6.1627H22.0256L21.1203 2.9752H25.8888L29.9178 6.1627ZM19.7943 2.9752L20.6996 6.1627H16.0203L16.9256 2.9752H19.7943ZM10.8311 2.9752H15.5996L14.6943 6.1627H6.80209L10.8311 2.9752ZM20.91 11.9002H15.81V7.4377H20.91V11.9002ZM34.935 18.4856C34.935 24.1721 29.835 25.6829 28.9616 25.9061C28.0563 25.6893 22.9882 24.1976 22.9882 18.4856V14.0613C24.4371 14.1704 25.8882 13.8793 27.183 13.2198C27.8233 12.8905 28.4206 12.4837 28.9616 12.0086C29.5025 12.4837 30.0999 12.8905 30.7402 13.2198C32.0347 13.8799 33.486 14.1711 34.935 14.0613V18.4856Z" fill="white"/>
<path d="M31.9704 16.5158L27.9541 19.9583L26.4624 18.4602C26.3423 18.3402 26.1795 18.2727 26.0097 18.2727C25.84 18.2727 25.6772 18.3402 25.5571 18.4602C25.4371 18.5802 25.3696 18.7431 25.3696 18.9128C25.3696 19.0826 25.4371 19.2454 25.5571 19.3655L27.4696 21.278C27.5292 21.337 27.5998 21.3838 27.6775 21.4155C27.7552 21.4472 27.8383 21.4633 27.9222 21.4628C28.0742 21.4628 28.2211 21.4086 28.3366 21.3098L32.7991 17.4848C32.9276 17.3749 33.0072 17.2185 33.0203 17.0499C33.0335 16.8813 32.9791 16.7144 32.8692 16.586C32.7593 16.4575 32.6029 16.3779 32.4343 16.3647C32.2658 16.3516 32.0989 16.4059 31.9704 16.5158Z" fill="white"/>
</g>
<defs>
<clipPath id="clip0_847_648">
<rect width="36.72" height="34" fill="white"/>
</clipPath>
</defs>
</svg>
