<svg width="34" height="34" viewBox="0 0 34 34" fill="none" xmlns="http://www.w3.org/2000/svg">
<path d="M32.7046 1.95254C32.6818 1.85769 32.6334 1.77095 32.5646 1.70185C32.4957 1.63274 32.4092 1.58396 32.3144 1.56085C26.6661 0.0950001 19.0243 1.80615 14.8318 6.46765C7.68645 5.49799 2.75254 10.9062 1.67376 15.4456C1.64844 15.5536 1.65739 15.6669 1.69936 15.7697C1.74133 15.8725 1.81423 15.9596 1.90797 16.0191C2.0017 16.0785 2.11162 16.1073 2.22247 16.1015C2.33332 16.0957 2.43961 16.0555 2.52659 15.9865C4.03956 14.6024 7.5247 13.2683 10.4672 13.9618C10.236 14.7071 10.0518 15.4662 9.91583 16.2346C9.90079 16.3342 9.91266 16.4361 9.95019 16.5296C9.98772 16.6232 10.0496 16.705 10.1293 16.7666L9.00636 17.8895C8.70786 18.1886 8.54022 18.5938 8.54022 19.0164C8.54022 19.4389 8.70786 19.8441 9.00636 20.1432L14.0626 25.1994C14.3617 25.4978 14.7669 25.6653 15.1894 25.6653C15.6119 25.6653 16.0171 25.4978 16.3162 25.1994L17.4392 24.0765C17.5039 24.1712 17.5931 24.2467 17.6973 24.2948C17.8015 24.3429 17.9168 24.3618 18.0309 24.3496C18.7993 24.2136 19.5585 24.0294 20.3038 23.7982C20.9988 26.7446 19.6593 30.23 18.2787 31.7388C18.2163 31.8171 18.1771 31.9112 18.1656 32.0107C18.154 32.1101 18.1705 32.2107 18.2133 32.3012C18.256 32.3917 18.3233 32.4684 18.4074 32.5226C18.4915 32.5768 18.5892 32.6063 18.6892 32.6078C23.3018 31.6374 28.784 26.5478 27.7977 19.4337C32.4426 15.1931 34.1717 7.79203 32.7046 1.95254ZM27.7878 2.1312C29.1168 2.12113 30.4432 2.25149 31.7448 2.52011C32.0089 3.78534 32.1397 5.07476 32.1351 6.36726C31.0098 6.30109 29.9438 5.84043 29.1245 5.06622C28.3051 4.29201 27.7849 3.2538 27.6551 2.13403C27.6989 2.13348 27.7445 2.13146 27.7878 2.1312ZM26.5928 2.17511C26.7349 3.56333 27.3686 4.85504 28.3794 5.81716C29.3901 6.77928 30.7115 7.34847 32.105 7.42201C32.0928 7.77894 32.0533 8.1276 32.018 8.4886C30.3778 8.38429 28.8273 7.70319 27.6409 6.5658C26.4545 5.42841 25.7087 3.90804 25.5353 2.27368C25.8994 2.22498 26.259 2.19854 26.5928 2.17511ZM7.37266 12.7965C5.90769 12.9751 4.4955 13.4548 3.22487 14.2055C4.76889 10.2864 9.07691 7.0453 13.9483 7.45612C12.6003 9.09675 11.5398 10.9538 10.8118 12.9485C9.68086 12.715 8.51984 12.6636 7.37266 12.7965ZM15.565 24.4482C15.5157 24.4975 15.4571 24.5367 15.3927 24.5634C15.3282 24.5901 15.2592 24.6038 15.1894 24.6038C15.1196 24.6038 15.0506 24.5901 14.9861 24.5634C14.9217 24.5367 14.8631 24.4975 14.8138 24.4482L9.75758 19.392C9.65816 19.2922 9.60233 19.1572 9.60233 19.0164C9.60233 18.8755 9.65816 18.7405 9.75758 18.6407L10.8805 17.5178L16.688 23.3252L15.565 24.4482ZM25.7153 25.8365C24.506 28.1862 22.5019 30.0304 20.0599 31.0406C21.3918 28.7501 21.8389 26.0512 21.317 23.4535C23.3116 22.7256 25.1685 21.6652 26.8091 20.3173C26.9388 22.2214 26.5613 24.1258 25.7153 25.8365ZM28.7684 16.7539C26.1299 20.1467 22.3423 22.4581 18.1185 23.2534C18.0613 23.1955 11.1328 16.2668 11.012 16.1469C11.8907 10.7467 16.566 3.7845 24.4908 2.447C24.6812 4.3096 25.5263 6.04423 26.8756 7.34225C28.225 8.64027 29.991 9.41749 31.8596 9.5356C31.4204 12.154 30.3604 14.6291 28.7684 16.7539Z" fill="white"/>
<path d="M22.3125 6.90625C21.5556 6.91101 20.8106 7.09469 20.1382 7.4423C19.4658 7.78991 18.8852 8.2916 18.4437 8.90641C18.0022 9.52123 17.7123 10.2317 17.5978 10.9799C17.4833 11.7281 17.5473 12.4928 17.7846 13.2115L16.5606 14.4356C16.1623 14.8339 15.9385 15.3742 15.9385 15.9375C15.9385 16.5008 16.1623 17.0411 16.5606 17.4394C16.9589 17.8378 17.4992 18.0615 18.0625 18.0615C18.6258 18.0615 19.1661 17.8378 19.5644 17.4394L20.7885 16.2154C21.4454 16.4366 22.1425 16.5124 22.8315 16.4373C23.5206 16.3623 24.1851 16.1383 24.7789 15.7808C25.3728 15.4234 25.8818 14.9411 26.2706 14.3673C26.6595 13.7935 26.9189 13.1421 27.0309 12.458C27.1429 11.774 27.1048 11.0738 26.9192 10.406C26.7336 9.73819 26.4049 9.11873 25.9561 8.59058C25.5072 8.06243 24.9488 7.63823 24.3197 7.34738C23.6905 7.05654 23.0056 6.90602 22.3125 6.90625ZM18.8132 16.6882C18.6131 16.8825 18.3446 16.9903 18.0657 16.9883C17.7868 16.9862 17.5199 16.8745 17.3227 16.6773C17.1255 16.4801 17.0138 16.2132 17.0118 15.9342C17.0097 15.6553 17.1175 15.3868 17.3119 15.1868L18.2698 14.2288C18.6522 14.8349 19.1652 15.3478 19.7712 15.7302L18.8132 16.6882ZM22.3125 15.4062C21.3266 15.4051 20.3814 15.0129 19.6843 14.3157C18.9871 13.6186 18.595 12.6734 18.5938 11.6875C18.781 6.76093 25.8448 6.76228 26.0313 11.6875C26.0301 12.6734 25.6379 13.6186 24.9407 14.3158C24.2436 15.0129 23.2984 15.4051 22.3125 15.4062Z" fill="white"/>
<path d="M22.3125 9.03125C21.7871 9.03125 21.2736 9.18704 20.8368 9.47891C20.3999 9.77079 20.0595 10.1856 19.8584 10.671C19.6574 11.1564 19.6048 11.6905 19.7073 12.2057C19.8098 12.721 20.0628 13.1943 20.4343 13.5658C20.8057 13.9372 21.2791 14.1902 21.7943 14.2927C22.3096 14.3952 22.8437 14.3426 23.329 14.1415C23.8144 13.9405 24.2292 13.6 24.5211 13.1632C24.813 12.7264 24.9688 12.2128 24.9688 11.6875C24.9679 10.9832 24.6878 10.3081 24.1898 9.81015C23.6919 9.31219 23.0167 9.03208 22.3125 9.03125ZM22.3125 13.2812C21.8929 13.2765 21.4921 13.1065 21.1971 12.8081C20.9021 12.5098 20.7366 12.1071 20.7366 11.6875C20.7366 11.2679 20.9021 10.8652 21.1971 10.5668C21.4922 10.2685 21.893 10.0985 22.3125 10.0938C22.7321 10.0985 23.1329 10.2685 23.428 10.5669C23.723 10.8652 23.8884 11.2679 23.8884 11.6875C23.8884 12.1071 23.723 12.5098 23.4279 12.8082C23.1329 13.1065 22.7321 13.2765 22.3125 13.2812Z" fill="white"/>
<path d="M4.02169 23.026C1.7969 25.0545 0.791655 29.2614 1.26854 32.146C1.41513 33.411 4.99997 31.6158 5.54592 31.1363L5.32128 31.7195C5.28834 31.8085 5.27968 31.9048 5.2962 31.9983C5.31273 32.0918 5.35383 32.1792 5.41529 32.2516C5.47676 32.324 5.55638 32.3788 5.64598 32.4102C5.73558 32.4417 5.83194 32.4488 5.92518 32.4307C17.7042 29.5474 10.6154 17.5116 4.02169 23.026ZM9.65999 26.0625C7.80798 27.8028 6.06976 26.0615 7.80894 24.2109C9.54515 22.5287 11.4541 24.0945 9.65999 26.0625ZM10.0937 29.0985C9.10761 29.9941 7.95047 30.681 6.69195 31.1177L7.4136 29.2458C7.45725 29.1265 7.45677 28.9954 7.41227 28.8764C7.36776 28.7573 7.28215 28.6581 7.1709 28.5967C7.05965 28.5352 6.93009 28.5156 6.80562 28.5413C6.68116 28.567 6.56999 28.6364 6.4922 28.7369C5.45662 30.1229 3.95495 31.0878 2.26398 31.4538C1.90892 28.4276 3.56589 22.0845 8.09482 22.7373C6.36614 23.4255 5.32951 26.0573 6.62406 27.2474C8.03207 28.5927 10.4229 27.4297 11.1333 25.7769C11.2405 26.3734 11.202 26.9869 11.021 27.5653C10.84 28.1436 10.5219 28.6696 10.0937 29.0985Z" fill="white"/>
</svg>
