<svg width="34" height="34" viewBox="0 0 34 34" fill="none" xmlns="http://www.w3.org/2000/svg">
<g clip-path="url(#clip0_847_353)">
<path d="M31.1667 18.4165V4.24984C31.1667 4.06198 31.092 3.88181 30.9592 3.74897C30.8264 3.61613 30.6462 3.5415 30.4583 3.5415H10.625C10.4371 3.5415 10.257 3.61613 10.1241 3.74897C9.99129 3.88181 9.91667 4.06198 9.91667 4.24984V15.824C8.82583 15.7532 8.57792 15.824 5.66667 16.1994V15.5832C5.66667 15.3953 5.59204 15.2151 5.4592 15.0823C5.32636 14.9495 5.14619 14.8748 4.95833 14.8748H0.708333C0.520472 14.8748 0.340304 14.9495 0.207466 15.0823C0.0746278 15.2151 0 15.3953 0 15.5832L0 27.6248C0 27.8127 0.0746278 27.9929 0.207466 28.1257C0.340304 28.2585 0.520472 28.3332 0.708333 28.3332H4.95833C5.14619 28.3332 5.32636 28.2585 5.4592 28.1257C5.59204 27.9929 5.66667 27.8127 5.66667 27.6248V26.9165C8.17417 26.9165 6.86375 26.5694 13.9046 29.7498C15.035 30.2631 16.2695 30.5056 17.51 30.4582C19.9892 30.4582 20.0954 30.0898 32.4629 23.7715C33.0292 23.4814 33.4813 23.0091 33.7465 22.4308C34.0117 21.8524 34.0745 21.2016 33.9248 20.5832C33.7751 19.9648 33.4217 19.4148 32.9213 19.0218C32.421 18.6287 31.8029 18.4155 31.1667 18.4165ZM22.6667 4.95817V7.35234C20.1025 6.07025 20.9737 6.07734 18.4167 7.35234V4.95817H22.6667ZM11.3333 4.95817H17V8.49984C17.0004 8.62058 17.0316 8.73923 17.0907 8.84451C17.1498 8.94979 17.2349 9.03822 17.3378 9.10138C17.4407 9.16454 17.558 9.20035 17.6787 9.20541C17.7993 9.21046 17.9193 9.18459 18.0271 9.13025L20.5417 7.8765C23.2121 9.20817 23.2971 9.37817 23.7504 9.10192C24.2037 8.82567 24.0833 8.769 24.0833 4.95817H29.75V18.7919L21.9583 22.7728C21.9708 22.4115 21.9155 22.0512 21.7954 21.7103C21.25 20.2298 20.8392 20.3361 12.75 16.5253C12.2936 16.3215 11.8194 16.1602 11.3333 16.0436V4.95817ZM4.25 26.9165H1.41667V16.2915H4.25V26.9165ZM31.8183 22.5107C19.4225 28.8432 19.5217 29.0415 17.51 29.0415C16.4736 29.0924 15.4398 28.8982 14.4925 28.4748C7.32417 25.2236 8.5 25.4998 5.66667 25.4998V17.6232C11.4892 16.9148 9.52 16.5819 19.7271 21.3773C19.8966 21.457 20.0486 21.5695 20.1744 21.7083C20.3001 21.8472 20.3971 22.0096 20.4597 22.1861C20.5222 22.3626 20.5492 22.5498 20.5389 22.7369C20.5287 22.9239 20.4815 23.107 20.4 23.2757C20.3235 23.4456 20.2142 23.5988 20.0783 23.7264C19.9425 23.854 19.7828 23.9536 19.6084 24.0194C19.4341 24.0852 19.2484 24.1159 19.0622 24.1098C18.8759 24.1038 18.6926 24.061 18.5229 23.984L12.9342 21.3207C12.7675 21.2552 12.5821 21.2553 12.4155 21.321C12.2489 21.3866 12.1133 21.513 12.0361 21.6746C11.9589 21.8362 11.9458 22.0211 11.9994 22.192C12.053 22.3629 12.1693 22.5071 12.325 22.5957L17.9137 25.2236C18.3552 25.4371 18.8453 25.53 19.3343 25.4926C19.8232 25.4553 20.2936 25.2892 20.6975 25.0111L30.515 19.989C30.6806 19.9034 30.8614 19.8513 31.0471 19.8356C31.2328 19.8199 31.4198 19.8409 31.5974 19.8975C31.775 19.9541 31.9397 20.0451 32.0821 20.1653C32.2246 20.2855 32.3419 20.4326 32.4275 20.5982C32.5131 20.7637 32.5652 20.9446 32.5809 21.1303C32.5966 21.316 32.5756 21.503 32.519 21.6806C32.4624 21.8582 32.3714 22.0229 32.2512 22.1653C32.131 22.3077 31.9839 22.4251 31.8183 22.5107Z" fill="white"/>
<path d="M24.7918 17.7082H27.6252C27.813 17.7082 27.9932 17.6335 28.126 17.5007C28.2589 17.3679 28.3335 17.1877 28.3335 16.9998C28.3335 16.812 28.2589 16.6318 28.126 16.499C27.9932 16.3661 27.813 16.2915 27.6252 16.2915H24.7918C24.604 16.2915 24.4238 16.3661 24.291 16.499C24.1581 16.6318 24.0835 16.812 24.0835 16.9998C24.0835 17.1877 24.1581 17.3679 24.291 17.5007C24.4238 17.6335 24.604 17.7082 24.7918 17.7082Z" fill="white"/>
</g>
<defs>
<clipPath id="clip0_847_353">
<rect width="34" height="34" fill="white"/>
</clipPath>
</defs>
</svg>
