<svg width="60" height="60" viewBox="0 0 60 60" fill="none" xmlns="http://www.w3.org/2000/svg">
<g clip-path="url(#clip0_1_5263)">
<path d="M55 32.5V7.5C55 7.16848 54.8683 6.85054 54.6339 6.61612C54.3995 6.3817 54.0815 6.25 53.75 6.25H18.75C18.4185 6.25 18.1005 6.3817 17.8661 6.61612C17.6317 6.85054 17.5 7.16848 17.5 7.5V27.925C15.575 27.8 15.1375 27.925 10 28.5875V27.5C10 27.1685 9.8683 26.8505 9.63388 26.6161C9.39946 26.3817 9.08152 26.25 8.75 26.25H1.25C0.918479 26.25 0.600537 26.3817 0.366117 26.6161C0.131696 26.8505 0 27.1685 0 27.5L0 48.75C0 49.0815 0.131696 49.3995 0.366117 49.6339C0.600537 49.8683 0.918479 50 1.25 50H8.75C9.08152 50 9.39946 49.8683 9.63388 49.6339C9.8683 49.3995 10 49.0815 10 48.75V47.5C14.425 47.5 12.1125 46.8875 24.5375 52.5C26.5323 53.4057 28.7108 53.8337 30.9 53.75C35.275 53.75 35.4625 53.1 57.2875 41.95C58.2868 41.438 59.0847 40.6046 59.5527 39.584C60.0207 38.5634 60.1315 37.4149 59.8674 36.3237C59.6032 35.2324 58.9794 34.2617 58.0965 33.5681C57.2135 32.8745 56.1228 32.4983 55 32.5ZM40 8.75V12.975C35.475 10.7125 37.0125 10.725 32.5 12.975V8.75H40ZM20 8.75H30V15C30.0006 15.2131 30.0557 15.4225 30.1601 15.6082C30.2644 15.794 30.4145 15.9501 30.5961 16.0615C30.7777 16.173 30.9848 16.2362 31.1977 16.2451C31.4106 16.254 31.6222 16.2084 31.8125 16.1125L36.25 13.9C40.9625 16.25 41.1125 16.55 41.9125 16.0625C42.7125 15.575 42.5 15.475 42.5 8.75H52.5V33.1625L38.75 40.1875C38.772 39.55 38.6745 38.9141 38.4625 38.3125C37.5 35.7 36.775 35.8875 22.5 29.1625C21.6946 28.8029 20.8577 28.5183 20 28.3125V8.75ZM7.5 47.5H2.5V28.75H7.5V47.5ZM56.15 39.725C34.275 50.9 34.45 51.25 30.9 51.25C29.0711 51.3398 27.2467 50.9972 25.575 50.25C12.925 44.5125 15 45 10 45V31.1C20.275 29.85 16.8 29.2625 34.8125 37.725C35.1116 37.8656 35.3799 38.0642 35.6018 38.3091C35.8237 38.5541 35.9948 38.8407 36.1053 39.1522C36.2157 39.4638 36.2633 39.7941 36.2452 40.1241C36.2271 40.4542 36.1438 40.7774 36 41.075C35.8649 41.3749 35.672 41.6452 35.4323 41.8704C35.1926 42.0956 34.9109 42.2713 34.6031 42.3874C34.2954 42.5035 33.9678 42.5578 33.6391 42.5471C33.3104 42.5364 32.987 42.4609 32.6875 42.325L22.825 37.625C22.5308 37.5095 22.2038 37.5096 21.9097 37.6255C21.6157 37.7414 21.3764 37.9644 21.2402 38.2496C21.1039 38.5348 21.0807 38.861 21.1753 39.1626C21.2699 39.4642 21.4753 39.7187 21.75 39.875L31.6125 44.5125C32.3915 44.8894 33.2564 45.0532 34.1193 44.9873C34.9822 44.9214 35.8122 44.6282 36.525 44.1375L53.85 35.275C54.1422 35.124 54.4613 35.032 54.789 35.0043C55.1168 34.9766 55.4467 35.0137 55.7601 35.1135C56.0735 35.2133 56.3642 35.3739 56.6155 35.5861C56.8669 35.7982 57.074 36.0578 57.225 36.35C57.376 36.6422 57.468 36.9613 57.4957 37.289C57.5234 37.6168 57.4863 37.9467 57.3865 38.2601C57.2867 38.5735 57.1261 38.8642 56.9139 39.1155C56.7018 39.3669 56.4422 39.574 56.15 39.725Z" fill="white"/>
<path d="M43.75 31.25H48.75C49.0815 31.25 49.3995 31.1183 49.6339 30.8839C49.8683 30.6495 50 30.3315 50 30C50 29.6685 49.8683 29.3505 49.6339 29.1161C49.3995 28.8817 49.0815 28.75 48.75 28.75H43.75C43.4185 28.75 43.1005 28.8817 42.8661 29.1161C42.6317 29.3505 42.5 29.6685 42.5 30C42.5 30.3315 42.6317 30.6495 42.8661 30.8839C43.1005 31.1183 43.4185 31.25 43.75 31.25Z" fill="white"/>
</g>
<defs>
<clipPath id="clip0_1_5263">
<rect width="60" height="60" fill="white"/>
</clipPath>
</defs>
</svg>
