<svg width="60" height="60" viewBox="0 0 60 60" fill="none" xmlns="http://www.w3.org/2000/svg">
<path d="M57.7139 3.44584C57.6738 3.27846 57.5883 3.12538 57.4668 3.00343C57.3454 2.88148 57.1926 2.79539 57.0254 2.75462C47.0578 0.167819 33.5723 3.18749 26.1736 11.4137C13.5643 9.7025 4.85737 19.2465 2.95364 27.2571C2.90897 27.4478 2.92475 27.6477 2.99881 27.829C3.07287 28.0104 3.20153 28.1642 3.36695 28.2691C3.53236 28.374 3.72633 28.4249 3.92195 28.4146C4.11757 28.4043 4.30514 28.3334 4.45864 28.2117C7.12858 25.769 13.2788 23.4148 18.4715 24.6386C18.0635 25.9538 17.7385 27.2934 17.4985 28.6494C17.4719 28.8253 17.4929 29.005 17.5591 29.1701C17.6253 29.3351 17.7345 29.4795 17.8752 29.5883L15.8935 31.5699C15.3668 32.0976 15.0709 32.8128 15.0709 33.5584C15.0709 34.3041 15.3668 35.0192 15.8935 35.547L24.8163 44.4697C25.3441 44.9962 26.0592 45.2919 26.8048 45.2919C27.5503 45.2919 28.2655 44.9962 28.7933 44.4697L30.775 42.488C30.8892 42.6553 31.0466 42.7884 31.2305 42.8733C31.4143 42.9582 31.6178 42.9916 31.8191 42.97C33.1752 42.73 34.5149 42.405 35.8302 41.9969C37.0567 47.1966 34.6927 53.3472 32.2565 56.0099C32.1464 56.1479 32.0772 56.3141 32.0568 56.4896C32.0364 56.665 32.0656 56.8426 32.141 57.0023C32.2164 57.162 32.3351 57.2974 32.4836 57.393C32.6321 57.4886 32.8044 57.5407 32.981 57.5434C41.1208 55.8309 50.7952 46.8492 49.0547 34.295C57.2515 26.8116 60.303 13.7508 57.7139 3.44584ZM49.0372 3.76112C51.3825 3.74335 53.7232 3.97339 56.0202 4.44742C56.4862 6.68019 56.7171 8.95564 56.709 11.2365C54.7231 11.1197 52.842 10.3068 51.3961 8.94056C49.9502 7.5743 49.0321 5.74216 48.8031 3.7661C48.8803 3.76513 48.9608 3.76158 49.0372 3.76112ZM46.9284 3.8386C47.1793 6.2884 48.2974 8.56788 50.0812 10.2657C51.8649 11.9636 54.1967 12.9681 56.6559 13.0978C56.6343 13.7277 56.5646 14.343 56.5023 14.98C53.6078 14.796 50.8717 13.594 48.778 11.5869C46.6844 9.57972 45.3682 6.89671 45.0622 4.01254C45.7048 3.92661 46.3393 3.87995 46.9284 3.8386ZM13.0105 22.5822C10.4253 22.8974 7.93317 23.744 5.69089 25.0688C8.41564 18.1527 16.018 12.4331 24.6145 13.158C22.2357 16.0533 20.3643 19.3304 19.0797 22.8504C17.0838 22.4383 15.035 22.3478 13.0105 22.5822ZM27.4676 43.144C27.3806 43.2311 27.2773 43.3002 27.1635 43.3473C27.0498 43.3944 26.9279 43.4187 26.8048 43.4187C26.6817 43.4187 26.5598 43.3944 26.446 43.3473C26.3323 43.3002 26.229 43.2311 26.1419 43.144L17.2192 34.2213C17.0438 34.0453 16.9452 33.8069 16.9452 33.5584C16.9452 33.3099 17.0438 33.0716 17.2192 32.8956L19.2009 30.9139L29.4493 41.1624L27.4676 43.144ZM45.3799 45.594C43.2459 49.7406 39.7092 52.995 35.3998 54.7776C37.7501 50.7356 38.5393 45.9729 37.6182 41.3888C41.1381 40.1041 44.415 38.2328 47.3101 35.8542C47.5389 39.2143 46.8729 42.5751 45.3799 45.594ZM50.7678 29.5658C46.1115 35.5531 39.4276 39.6322 31.9738 41.0356C31.8729 40.9334 19.6461 28.7063 19.433 28.4947C20.9835 18.965 29.2341 6.67871 43.219 4.31841C43.5551 7.60535 45.0464 10.6665 47.4275 12.9571C49.8087 15.2477 52.9253 16.6193 56.2228 16.8277C55.4477 21.4484 53.5772 25.8163 50.7678 29.5658Z" fill="white"/>
<path d="M39.375 12.1875C38.0393 12.1959 36.7245 12.52 35.538 13.1335C34.3515 13.7469 33.3268 14.6322 32.5477 15.7172C31.7686 16.8022 31.2571 18.056 31.0549 19.3763C30.8528 20.6967 30.9658 22.0461 31.3846 23.3145L29.2246 25.4745C28.5216 26.1775 28.1267 27.1309 28.1267 28.125C28.1267 29.1191 28.5216 30.0725 29.2246 30.7755C29.9275 31.4784 30.8809 31.8733 31.875 31.8733C32.8691 31.8733 33.8225 31.4784 34.5255 30.7755L36.6855 28.6154C37.8447 29.0058 39.075 29.1395 40.2909 29.007C41.5069 28.8746 42.6795 28.4793 43.7275 27.8485C44.7755 27.2178 45.6737 26.3666 46.36 25.3541C47.0462 24.3415 47.504 23.1919 47.7016 21.9848C47.8992 20.7777 47.8319 19.542 47.5044 18.3635C47.1769 17.185 46.597 16.0919 45.8048 15.1598C45.0127 14.2278 44.0274 13.4792 42.9171 12.966C41.8068 12.4527 40.5982 12.1871 39.375 12.1875ZM33.1998 29.4498C32.8467 29.7927 32.3729 29.9829 31.8807 29.9793C31.3885 29.9757 30.9175 29.7785 30.5695 29.4305C30.2214 29.0825 30.0243 28.6114 30.0208 28.1193C30.0172 27.6271 30.2074 27.1533 30.5503 26.8002L32.2408 25.1097C32.9157 26.1792 33.8209 27.0844 34.8903 27.7592L33.1998 29.4498ZM39.375 27.1875C37.6352 27.1854 35.9672 26.4933 34.737 25.2631C33.5067 24.0328 32.8146 22.3648 32.8125 20.625C33.143 11.931 45.6084 11.9334 45.9375 20.6251C45.9354 22.3649 45.2433 24.0329 44.0131 25.2631C42.7828 26.4933 41.1148 27.1854 39.375 27.1875Z" fill="white"/>
<path d="M39.375 15.9375C38.4479 15.9375 37.5416 16.2124 36.7708 16.7275C35.9999 17.2426 35.3991 17.9747 35.0443 18.8312C34.6895 19.6877 34.5967 20.6302 34.7776 21.5395C34.9585 22.4488 35.4049 23.284 36.0605 23.9396C36.716 24.5951 37.5513 25.0416 38.4606 25.2224C39.3699 25.4033 40.3124 25.3105 41.1689 24.9557C42.0254 24.6009 42.7575 24 43.2726 23.2292C43.7876 22.4583 44.0625 21.552 44.0625 20.6249C44.061 19.3822 43.5667 18.1908 42.6879 17.312C41.8092 16.4333 40.6177 15.939 39.375 15.9375ZM39.375 23.4375C38.6346 23.4292 37.9273 23.1292 37.4066 22.6026C36.886 22.0761 36.594 21.3654 36.594 20.625C36.594 19.8845 36.886 19.1739 37.4067 18.6473C37.9274 18.1208 38.6346 17.8208 39.3751 17.8125C40.1155 17.8208 40.8228 18.1208 41.3434 18.6474C41.8641 19.1739 42.1561 19.8846 42.1561 20.625C42.1561 21.3655 41.864 22.0761 41.3434 22.6027C40.8227 23.1292 40.1154 23.4292 39.375 23.4375Z" fill="white"/>
<path d="M7.09718 40.6339C3.17109 44.2137 1.39712 51.6377 2.23869 56.7281C2.49736 58.9604 8.82356 55.7925 9.787 54.9464L9.39057 55.9754C9.33244 56.1326 9.31717 56.3024 9.34633 56.4674C9.37548 56.6325 9.44801 56.7868 9.55648 56.9145C9.66495 57.0423 9.80546 57.1389 9.96358 57.1944C10.1217 57.25 10.2917 57.2624 10.4563 57.2306C31.2428 52.1424 18.7331 30.9028 7.09718 40.6339ZM17.0471 45.9925C13.7789 49.0636 10.7114 45.9907 13.7806 42.7249C16.8445 39.7565 20.2133 42.5195 17.0471 45.9925ZM17.8125 51.3502C16.0723 52.9307 14.0303 54.1428 11.8094 54.9134L13.0829 51.6102C13.1599 51.3995 13.1591 51.1683 13.0806 50.9582C13.002 50.7481 12.8509 50.5731 12.6546 50.4646C12.4583 50.3562 12.2297 50.3215 12.01 50.3669C11.7904 50.4123 11.5942 50.5347 11.4569 50.7121C9.62941 53.1579 6.9794 54.8607 3.99534 55.5066C3.36877 50.1662 6.29282 38.9726 14.2851 40.1245C11.2344 41.3389 9.4051 45.9833 11.6896 48.0836C14.1743 50.4575 18.3934 48.4053 19.647 45.4886C19.8363 46.5411 19.7684 47.6238 19.449 48.6445C19.1295 49.6651 18.5681 50.5934 17.8125 51.3502Z" fill="white"/>
</svg>
