<svg width="57" height="49" viewBox="0 0 57 49" fill="none" xmlns="http://www.w3.org/2000/svg">
<path d="M6.27502 37.125V42.75C6.27502 43.0484 6.39355 43.3345 6.60453 43.5455C6.81551 43.7565 7.10166 43.875 7.40002 43.875C7.69839 43.875 7.98454 43.7565 8.19552 43.5455C8.4065 43.3345 8.52502 43.0484 8.52502 42.75V37.125C8.52502 36.8266 8.4065 36.5405 8.19552 36.3295C7.98454 36.1185 7.69839 36 7.40002 36C7.10166 36 6.81551 36.1185 6.60453 36.3295C6.39355 36.5405 6.27502 36.8266 6.27502 37.125Z" fill="white"/>
<path d="M9.65002 37.125V42.75C9.65002 43.0484 9.76855 43.3345 9.97953 43.5455C10.1905 43.7565 10.4767 43.875 10.775 43.875C11.0734 43.875 11.3595 43.7565 11.5705 43.5455C11.7815 43.3345 11.9 43.0484 11.9 42.75V37.125C11.9 36.8266 11.7815 36.5405 11.5705 36.3295C11.3595 36.1185 11.0734 36 10.775 36C10.4767 36 10.1905 36.1185 9.97953 36.3295C9.76855 36.5405 9.65002 36.8266 9.65002 37.125Z" fill="white"/>
<path d="M13.025 37.125V42.75C13.025 43.0484 13.1436 43.3345 13.3545 43.5455C13.5655 43.7565 13.8517 43.875 14.15 43.875C14.4484 43.875 14.7345 43.7565 14.9455 43.5455C15.1565 43.3345 15.275 43.0484 15.275 42.75V37.125C15.275 36.8266 15.1565 36.5405 14.9455 36.3295C14.7345 36.1185 14.4484 36 14.15 36C13.8517 36 13.5655 36.1185 13.3545 36.3295C13.1436 36.5405 13.025 36.8266 13.025 37.125Z" fill="white"/>
<path d="M56.5063 19.6875C56.381 19.5791 56.2334 19.4997 56.074 19.455C55.9145 19.4103 55.7471 19.4013 55.5838 19.4288C53.0888 19.8554 50.5227 19.4606 48.2713 18.3038C47.0267 17.6555 45.8886 16.8209 44.8963 15.8287C44.686 15.6226 44.4033 15.5072 44.1088 15.5072C43.8143 15.5072 43.5316 15.6226 43.3213 15.8287C42.329 16.8209 41.1908 17.6555 39.9463 18.3038C37.6949 19.4606 35.1288 19.8554 32.6338 19.4288C32.4425 19.4288 32.15 19.26 32.15 19.125V10.125H47.9V14.625C47.9 14.9234 48.0186 15.2095 48.2295 15.4205C48.4405 15.6315 48.7267 15.75 49.025 15.75C49.3234 15.75 49.6095 15.6315 49.8205 15.4205C50.0315 15.2095 50.15 14.9234 50.15 14.625V9C50.123 8.66412 49.9704 8.35078 49.7225 8.1225L39.7775 0.2475C39.5796 0.0886946 39.3338 0.00147195 39.08 0H11.72C11.4663 0.00147195 11.2205 0.0886946 11.0225 0.2475L1.07752 8.1225C0.948942 8.2308 0.844471 8.36484 0.770841 8.51597C0.697211 8.66711 0.656055 8.83199 0.650024 9V47.25C0.650024 47.5484 0.768551 47.8345 0.97953 48.0455C1.19051 48.2565 1.47666 48.375 1.77502 48.375H49.025C49.3234 48.375 49.6095 48.2565 49.8205 48.0455C50.0315 47.8345 50.15 47.5484 50.15 47.25C50.15 46.9516 50.0315 46.6655 49.8205 46.4545C49.6095 46.2435 49.3234 46.125 49.025 46.125H2.90002V10.125H18.65V19.125C18.65 19.4234 18.7686 19.7095 18.9795 19.9205C19.1905 20.1315 19.4767 20.25 19.775 20.25H31.025C31.0986 20.2612 31.1667 20.2956 31.2193 20.3482C31.272 20.4008 31.3064 20.4689 31.3175 20.5425V29.6213C31.3175 42.3113 43.76 45 43.8838 45C44.0324 45.0288 44.1852 45.0288 44.3338 45C44.4575 45 56.9 42.255 56.9 29.6213V20.5425C56.9 20.38 56.8649 20.2194 56.7969 20.0718C56.7289 19.9242 56.6298 19.7931 56.5063 19.6875ZM45.7963 7.875H31.8688L30.2713 2.25H38.6863L45.7963 7.875ZM27.9313 2.25L29.5288 7.875H21.2713L22.8688 2.25H27.9313ZM12.1138 2.25H20.5288L18.9313 7.875H5.00377L12.1138 2.25ZM29.9 18H20.9V10.125H29.9V18ZM54.65 29.6213C54.65 39.6563 45.65 42.3225 44.1088 42.7163C42.5113 42.3338 33.5675 39.7013 33.5675 29.6213V21.8137C36.1245 22.0062 38.6852 21.4925 40.97 20.3288C42.1 19.7477 43.1541 19.0298 44.1088 18.1912C45.0634 19.0298 46.1176 19.7477 47.2475 20.3288C49.532 21.4937 52.093 22.0074 54.65 21.8137V29.6213Z" fill="white"/>
<path d="M49.4187 26.1451L42.3312 32.2201L39.6987 29.5763C39.4869 29.3645 39.1996 29.2455 38.9 29.2455C38.6004 29.2455 38.3131 29.3645 38.1012 29.5763C37.8894 29.7882 37.7704 30.0755 37.7704 30.3751C37.7704 30.6746 37.8894 30.962 38.1012 31.1738L41.4762 34.5488C41.5814 34.6531 41.706 34.7356 41.8431 34.7915C41.9802 34.8475 42.1269 34.8759 42.275 34.8751C42.5431 34.8751 42.8025 34.7793 43.0062 34.6051L50.8812 27.8551C51.108 27.6611 51.2484 27.385 51.2716 27.0876C51.2948 26.7901 51.1989 26.4956 51.005 26.2688C50.811 26.042 50.535 25.9016 50.2375 25.8784C49.94 25.8552 49.6455 25.9511 49.4187 26.1451Z" fill="white"/>
</svg>
