<svg width="60" height="60" viewBox="0 0 60 60" fill="none" xmlns="http://www.w3.org/2000/svg">
<path d="M21.9415 37.3177H18.4231C17.3272 37.3177 16.4355 36.4265 16.4355 35.3301V33.3691C16.4355 33.2533 16.3536 33.153 16.2323 33.1196C15.0123 32.7873 13.8359 32.2984 12.7359 31.6671C12.6361 31.6099 12.5184 31.6213 12.4438 31.696L11.0431 33.0967C10.6677 33.4721 10.1687 33.6785 9.63774 33.6785C9.10719 33.6785 8.60777 33.4721 8.23241 33.0967L5.74447 30.6088C5.3691 30.2334 5.16219 29.734 5.16219 29.2034C5.16219 28.6724 5.3691 28.173 5.74447 27.7981L7.14476 26.3973C7.21984 26.3227 7.23128 26.2051 7.1736 26.1053C6.54281 25.0053 6.05392 23.8288 5.72158 22.6089C5.68816 22.4876 5.58791 22.4057 5.4721 22.4057H3.51104C2.41516 22.4057 1.52344 21.5139 1.52344 20.4181V16.8997C1.52344 15.8038 2.41516 14.9121 3.51104 14.9121H5.4721C5.58791 14.9121 5.68816 14.8306 5.72158 14.7088C6.05392 13.4894 6.54281 12.3129 7.17406 11.2124C7.23128 11.1126 7.21984 10.995 7.14522 10.9204L5.74447 9.51963C5.3691 9.14473 5.16219 8.64531 5.16219 8.1143C5.16219 7.58376 5.3691 7.08434 5.74447 6.70897L8.23241 4.22103C8.60777 3.84566 9.10674 3.63921 9.63774 3.63921C10.1687 3.63921 10.6682 3.84566 11.0435 4.22149L12.4438 5.62178C12.5184 5.6964 12.6356 5.70784 12.7359 5.65062C13.8359 5.01937 15.0119 4.53094 16.2318 4.19814C16.354 4.16473 16.4355 4.06448 16.4355 3.94866V1.98761C16.4355 0.891722 17.3272 0 18.4231 0H21.9415C23.0374 0 23.9291 0.891722 23.9291 1.98761V3.94866C23.9291 4.06448 24.0106 4.16473 24.1323 4.19768C25.3518 4.53048 26.5283 5.01937 27.6283 5.65062C27.7285 5.70784 27.8457 5.6964 27.9208 5.62178L29.3211 4.22103C30.0979 3.44466 31.3554 3.44421 32.1322 4.22149L32.3954 4.4847C33.2171 5.30593 31.9752 6.55013 31.1526 5.72753C30.9905 5.58745 30.7827 5.2455 30.5644 5.46431L29.1636 6.86461C28.5301 7.49815 27.539 7.62587 26.7535 7.17497C25.783 6.61833 24.7453 6.18712 23.67 5.8937C22.7874 5.65337 22.1708 4.8532 22.1708 3.9482V1.98761C22.1708 1.86081 22.0678 1.75781 21.941 1.75781H18.4227C18.2963 1.75781 18.1933 1.86081 18.1933 1.98761V3.94866C18.1933 4.85366 17.5767 5.65337 16.6942 5.89415C15.6184 6.18758 14.5807 6.61833 13.6102 7.17497C12.8251 7.62587 11.8341 7.49815 11.2005 6.86461L9.80025 5.46431C9.7444 5.40847 9.68123 5.39702 9.63774 5.39702C9.59425 5.39702 9.53108 5.40847 9.47569 5.46431L6.98729 7.95225C6.9319 8.00764 6.92 8.07127 6.92 8.1143C6.92 8.15779 6.9319 8.22142 6.98729 8.27681L8.38805 9.67756C9.02159 10.3111 9.14931 11.3017 8.69841 12.0872C8.14177 13.0581 7.71056 14.0954 7.41713 15.1712C7.17681 16.0537 6.37664 16.6699 5.4721 16.6699H3.51104C3.38424 16.6699 3.28125 16.7733 3.28125 16.8997V20.4181C3.28125 20.5449 3.38424 20.6478 3.51104 20.6478H5.4721C6.37664 20.6478 7.17681 21.264 7.41759 22.1466C7.71056 23.2228 8.14177 24.2601 8.69841 25.2305C9.14931 26.016 9.02159 27.0066 8.38805 27.6402L6.98775 29.0409C6.9319 29.0963 6.92046 29.1599 6.92046 29.2034C6.92046 29.2465 6.93236 29.3101 6.98775 29.3659L9.47569 31.8534C9.56541 31.9431 9.71098 31.9436 9.8007 31.8534L11.201 30.4531C11.8345 29.8196 12.8256 29.6919 13.6111 30.1428C14.5816 30.6994 15.6189 31.1306 16.6946 31.424C17.5772 31.6644 18.1938 32.4645 18.1938 33.3695V35.3301C18.1938 35.4569 18.2968 35.5599 18.4231 35.5599H21.9415C22.0683 35.5599 22.1713 35.4569 22.1713 35.3301V33.3695C22.1713 32.4645 22.7879 31.6644 23.6705 31.424C24.7934 31.1183 25.2539 32.8143 24.1328 33.1196C24.011 33.153 23.9291 33.2533 23.9291 33.3695V35.3301C23.9291 36.426 23.0374 37.3177 21.9415 37.3177Z" fill="#FF7D44"/>
<path d="M11.8987 18.6588C11.8987 12.8471 17.7425 8.86315 23.1276 10.9148C24.213 11.3291 23.589 12.972 22.5014 12.5578C18.2515 10.9377 13.656 14.0926 13.656 18.6588C13.656 22.3731 16.7844 25.3953 20.5719 25.1732C21.7301 25.1032 21.8385 26.8596 20.6754 26.9283C15.8995 27.2094 11.8987 23.4008 11.8987 18.6588Z" fill="#FF7D44"/>
<path d="M50.1608 39.0293L41.2555 37.2976V35.0971C43.7563 33.3911 45.1104 30.975 45.4052 28.2614C46.7034 28.1584 47.7278 27.0694 47.7278 25.7455V23.9392C49.8441 23.0191 49.5584 19.9305 47.3195 19.4096V18.7124C47.3195 12.4443 42.2379 7.36267 35.9702 7.36267H35.0185C28.7504 7.36267 23.6692 12.4443 23.6692 18.712V19.4096C21.4312 19.9301 21.1437 23.0191 23.2609 23.9392V25.7455C23.2609 27.0694 24.2853 28.1584 25.5836 28.2614C25.8408 30.6289 26.9504 32.796 28.7009 34.3029C29.036 34.5918 29.3802 34.8564 29.7332 35.0971V37.2976L20.8279 39.0293C16.1294 39.943 12.4673 42.5916 12.4673 47.4787V56.4184C12.4673 58.3964 14.0708 59.9999 16.0488 59.9999H54.9399C56.9179 59.9999 58.5214 58.3964 58.5214 56.4184V47.4787C58.5214 42.6077 54.8818 39.9471 50.1608 39.0293ZM42.8453 39.3974C42.2072 40.3252 41.2317 41.7416 40.178 43.2668C39.7486 43.8889 38.9782 43.9681 38.677 43.7878L37.2886 42.9551C38.6426 42.1554 40.5162 40.7821 41.0848 39.055L42.8453 39.3974ZM35.4941 41.9302C34.1593 41.2582 31.4983 39.5979 31.491 38.0287C31.491 38.0264 31.491 38.0241 31.491 38.0218V36.0676C34.049 37.1708 36.9365 37.1722 39.4977 36.0676V38.0218C39.4977 39.5937 36.8303 41.2577 35.4941 41.9302ZM25.427 18.712C25.427 15.1066 27.4265 11.9595 30.375 10.3216V11.4235C30.375 12.5853 32.1328 12.5871 32.1328 11.4235V9.56405C32.9215 9.31457 33.7537 9.16488 34.6152 9.12918V13.4752C34.6152 14.637 36.373 14.6388 36.373 13.4752V9.12918C37.2345 9.16488 38.0672 9.31457 38.8559 9.56405V11.4235C38.8559 12.5853 40.6137 12.5871 40.6137 11.4235V10.3216C43.5622 11.9595 45.5617 15.1066 45.5617 18.712V19.3474H25.427V18.712ZM24.2121 21.1052H46.7766C47.6189 21.1052 47.618 22.3782 46.7766 22.3782H24.2121C23.3694 22.3782 23.3703 21.1052 24.2121 21.1052ZM27.2855 27.3715C27.2755 26.8936 26.885 26.5113 26.4066 26.5113C26.2601 26.4752 25.0182 26.7398 25.0182 25.7455V24.1365H45.97V25.7455C45.97 26.7379 44.6952 26.4834 44.5816 26.5113C44.1037 26.5113 43.7133 26.8936 43.7027 27.3715C43.6556 29.5687 42.7217 31.6094 41.1411 32.9708C37.7843 35.8611 33.2044 35.8616 29.8476 32.9708C28.2665 31.6094 27.3327 29.5687 27.2855 27.3715ZM29.9035 39.055C30.4725 40.7821 32.3456 42.1554 33.7002 42.9551C32.3086 43.7003 32.407 43.9233 31.7748 43.8487C31.3816 43.8015 31.0287 43.5827 30.8034 43.2568C29.7524 41.7352 28.7801 40.323 28.1429 39.3974L29.9035 39.055ZM19.7627 58.2421H16.0484C15.0413 58.2421 14.2246 57.4254 14.2246 56.4184V47.4787C14.2246 44.8447 15.4212 43.0238 18.046 41.7658C18.1522 42.2337 19.7627 46.6048 19.7627 52.7128V58.2421ZM34.6152 58.2421H21.5205V52.7128C21.5205 46.0949 19.8496 41.8336 19.6853 41.1121C20.7116 40.7711 19.9494 41.0339 26.2615 39.7631C28.0756 42.3994 31.4612 47.318 33.4571 50.1548C34.2151 51.2319 34.6152 52.4972 34.6152 53.8141V58.2421ZM35.4941 50.1383C35.3193 49.7954 35.1192 49.4631 34.8949 49.1436C34.2202 48.185 33.3445 46.9271 32.4308 45.6083C32.7022 45.5483 32.9673 45.444 33.2158 45.2952L35.4941 43.9288L37.7729 45.2952C38.021 45.444 38.2865 45.5483 38.5579 45.6083C37.6442 46.9262 36.7685 48.1841 36.0938 49.1436C35.869 49.4631 35.669 49.7954 35.4941 50.1383ZM56.7636 56.4184C56.7636 57.4254 55.9474 58.2421 54.9399 58.2421H51.2256V54.9261C51.2256 53.7642 49.4678 53.7624 49.4678 54.9261V58.2421H36.373V53.8141C36.373 52.4972 36.7736 51.2319 37.5312 50.1552C38.6664 48.5416 43.3406 41.7965 44.7272 39.7631C51.0361 41.0334 50.2753 40.7707 51.303 41.1121C51.1753 41.6528 49.6962 45.6724 49.4921 51.3743C49.4499 52.5388 51.2068 52.596 51.2485 51.4374C51.4462 45.9196 52.7999 42.3692 52.9422 41.7658C55.567 43.0238 56.7636 44.8447 56.7636 47.4783V56.4184Z" fill="#FF7D44"/>
</svg>
