<svg width="54" height="60" viewBox="0 0 54 60" fill="none" xmlns="http://www.w3.org/2000/svg">
<path d="M27 7.01013C25.815 7.01013 24.6401 7.30392 23.6027 7.85962C23.3069 8.01806 23.1385 8.32158 23.1385 8.63529C23.1386 8.77533 23.1721 8.91736 23.2429 9.04931C23.4721 9.47716 24.0046 9.6383 24.4326 9.40908C25.2159 8.98955 26.1037 8.76783 27 8.76783C30.0042 8.76783 32.4481 11.2113 32.4481 14.2147C32.4481 17.2188 30.0042 19.6627 27 19.6627C23.9959 19.6627 21.552 17.2188 21.552 14.2147C21.552 13.4499 21.7077 12.71 22.0148 12.0154C22.066 11.8997 22.0902 11.7787 22.0901 11.6599C22.0899 11.3227 21.8947 11.0013 21.5664 10.8562C21.1226 10.6599 20.6035 10.8607 20.4071 11.3046C20.0003 12.2245 19.7942 13.2036 19.7942 14.2147C19.7942 18.1881 23.0267 21.4206 27 21.4206C30.9734 21.4206 34.2059 18.1881 34.2059 14.2147C34.2059 10.242 30.9734 7.01013 27 7.01013Z" fill="#FF7D44"/>
<path d="M37.8358 23.877L40.7857 18.7673C41.188 18.0701 40.9486 17.1732 40.2519 16.768C40.251 16.7675 40.25 16.767 40.2493 16.7665L38.9285 16.0043C39.0157 15.4161 39.0599 14.8152 39.0599 14.2148C39.0599 13.6153 39.0157 13.0143 38.9284 12.4254L40.2494 11.663C40.9487 11.2591 41.1892 10.3616 40.7855 9.66211L37.8357 4.55273C37.6401 4.21394 37.3243 3.9716 36.9463 3.87035C36.5686 3.7691 36.1735 3.82102 35.8349 4.0166L34.5121 4.78043C33.5696 4.02949 32.5295 3.42773 31.4144 2.98852V1.46484C31.4144 0.65707 30.7574 0 29.9496 0H24.0504C23.2426 0 22.5855 0.65707 22.5855 1.46484V2.98852C21.4705 3.42773 20.4303 4.02938 19.4879 4.78043L18.1651 4.0166C17.4656 3.61277 16.5679 3.85324 16.1642 4.55285L13.2146 9.66211C12.8108 10.3615 13.0512 11.2591 13.7508 11.6633L15.0716 12.4255C14.9843 13.0146 14.9401 13.6154 14.9401 14.215C14.9401 14.8155 14.9843 15.4167 15.0715 16.0044L13.7481 16.7681C13.0514 17.1735 12.812 18.0704 13.2145 18.7676L16.1641 23.8771C16.568 24.5764 17.4657 24.817 18.1651 24.4132L19.4878 23.6494C20.4303 24.4004 21.4705 25.0021 22.5854 25.4413V26.9648C22.5854 27.7726 23.2425 28.4297 24.0503 28.4297H26.121V31.4918H9.64463C8.43889 31.4918 7.45791 32.4728 7.45791 33.6785V36.7711H2.88408C1.48568 36.7711 0.348145 37.9088 0.348145 39.307V50.6848C0.348145 51.1702 0.741543 51.5637 1.22705 51.5637C1.71256 51.5637 2.10596 51.1702 2.10596 50.6848V39.307C2.10596 38.8779 2.45506 38.5289 2.88408 38.5289H13.7896C14.2187 38.5289 14.5678 38.878 14.5678 39.307V57.4641C14.5678 57.8931 14.2187 58.2422 13.7896 58.2422H2.88408C2.45506 58.2422 2.10596 57.8931 2.10596 57.4641V54.7863C2.10596 54.3009 1.71256 53.9074 1.22705 53.9074C0.741543 53.9074 0.348145 54.3009 0.348145 54.7863V57.4641C0.348145 58.8625 1.48568 60 2.88408 60H13.7896C15.188 60 16.3256 58.8623 16.3256 57.4641V39.307C16.3256 37.9086 15.188 36.7711 13.7896 36.7711H9.21572V33.6785C9.21572 33.442 9.40814 33.2496 9.64463 33.2496H26.1212V36.7711H21.5474C20.149 36.7711 19.0114 37.9088 19.0114 39.307V42.7746C19.0114 43.26 19.4048 43.6535 19.8903 43.6535C20.3758 43.6535 20.7692 43.26 20.7692 42.7746V39.307C20.7692 38.8779 21.1183 38.5289 21.5474 38.5289H32.4529C32.882 38.5289 33.2311 38.878 33.2311 39.307V57.4641C33.2311 57.8931 32.882 58.2422 32.4529 58.2422H21.5474C21.1183 58.2422 20.7692 57.8931 20.7692 57.4641V46.8762C20.7692 46.3908 20.3758 45.9973 19.8903 45.9973C19.4048 45.9973 19.0114 46.3908 19.0114 46.8762V57.4641C19.0114 58.8625 20.149 60 21.5474 60H32.4529C33.8513 60 34.9889 58.8623 34.9889 57.4641V39.307C34.9889 37.9086 33.8513 36.7711 32.4529 36.7711H27.879V33.2496H34.3056C34.7911 33.2496 35.1845 32.8561 35.1845 32.3707C35.1845 31.8853 34.7911 31.4918 34.3056 31.4918H27.879V28.4297H29.9497C30.7575 28.4297 31.4146 27.7726 31.4146 26.9648V25.4412C32.5295 25.0021 33.5696 24.4003 34.5122 23.6493L35.835 24.4131C36.1738 24.6088 36.5687 24.6606 36.9464 24.5593C37.3244 24.4581 37.6403 24.2157 37.8358 23.877ZM36.4601 22.7442L35.2146 22.025C34.6884 21.7226 34.0207 21.7782 33.553 22.164C32.6665 22.895 31.6754 23.4683 30.6072 23.8683C30.0387 24.0811 29.6567 24.6318 29.6567 25.2387V26.6719H24.3435V25.2387C24.3435 24.6318 23.9614 24.0811 23.3931 23.8683C22.3249 23.4683 21.3338 22.895 20.4472 22.164C19.9795 21.7785 19.3119 21.7226 18.7842 22.026L17.5403 22.7442L14.8836 18.1423L16.1266 17.425C16.6506 17.1223 16.9363 16.5168 16.8374 15.9178C16.745 15.3607 16.6981 14.7877 16.6981 14.2147C16.6981 13.643 16.745 13.0698 16.8376 12.5109C16.9363 11.9127 16.6505 11.3073 16.1262 11.0043L14.8835 10.2872L17.5401 5.68523L18.7856 6.40441C19.3117 6.70676 19.9795 6.65098 20.4472 6.26543C21.3336 5.53453 22.3247 4.96113 23.393 4.56117C23.9615 4.34836 24.3435 3.7977 24.3435 3.19078V1.75781H29.6567V3.19102C29.6567 3.79793 30.0388 4.34859 30.6071 4.56141C31.6754 4.96137 32.6665 5.53477 33.553 6.26566C34.0205 6.65121 34.6883 6.70699 35.216 6.40371L36.4599 5.68547L39.1167 10.2873L37.8736 11.0047C37.3496 11.3074 37.0639 11.9129 37.1627 12.5116C37.2552 13.07 37.3021 13.6431 37.3021 14.2148C37.3021 14.7878 37.2552 15.3607 37.1626 15.9187C37.0639 16.517 37.3497 17.1224 37.874 17.4254L39.1167 18.1425L36.4601 22.7442Z" fill="#FF7D44"/>
<path d="M29.1841 41.6937C29.6696 41.6937 30.063 41.3002 30.063 40.8148C30.063 40.3294 29.6696 39.9359 29.1841 39.9359H24.8162C24.3307 39.9359 23.9373 40.3294 23.9373 40.8148C23.9373 41.3002 24.3307 41.6937 24.8162 41.6937H29.1841Z" fill="#FF7D44"/>
<path d="M10.5208 41.6937C11.0063 41.6937 11.3997 41.3002 11.3997 40.8148C11.3997 40.3294 11.0063 39.9359 10.5208 39.9359H6.15283C5.66732 39.9359 5.27393 40.3294 5.27393 40.8148C5.27393 41.3002 5.66732 41.6937 6.15283 41.6937H10.5208Z" fill="#FF7D44"/>
<path d="M51.1161 36.7712H46.5424V33.6785C46.5424 32.4728 45.5614 31.4918 44.3557 31.4918H38.4072C37.9217 31.4918 37.5283 31.8853 37.5283 32.3707C37.5283 32.8561 37.9217 33.2496 38.4072 33.2496H44.3557C44.5923 33.2496 44.7846 33.4421 44.7846 33.6785V36.7712H40.211C38.8125 36.7712 37.6748 37.9089 37.6748 39.3073V57.464C37.6748 58.8624 38.8125 60 40.211 60H51.1162C52.5146 60 53.6523 58.8624 53.6523 57.464V39.3073C53.6521 37.9089 52.5145 36.7712 51.1161 36.7712ZM51.8943 57.464C51.8943 57.8931 51.5452 58.2422 51.1161 58.2422H40.2109C39.7817 58.2422 39.4325 57.8931 39.4325 57.464V39.3073C39.4325 38.8781 39.7816 38.529 40.2109 38.529H51.1161C51.5452 38.529 51.8943 38.8781 51.8943 39.3073V57.464Z" fill="#FF7D44"/>
<path d="M47.8472 39.9359H43.4792C42.9937 39.9359 42.6003 40.3294 42.6003 40.8148C42.6003 41.3002 42.9937 41.6937 43.4792 41.6937H47.8472C48.3327 41.6937 48.7261 41.3002 48.7261 40.8148C48.7261 40.3294 48.3327 39.9359 47.8472 39.9359Z" fill="#FF7D44"/>
</svg>
