<svg width="30" height="30" viewBox="0 0 30 30" fill="none" xmlns="http://www.w3.org/2000/svg">
<path d="M22.1 18.15C21.5626 17.4145 20.7552 16.9224 19.8552 16.7817C18.9552 16.6411 18.0362 16.8635 17.3 17.4L15.8875 18.425C13.8558 16.5865 12.2259 14.348 11.1 11.85L12.5 10.825C13.2383 10.2871 13.7331 9.47848 13.8761 8.57633C14.019 7.67418 13.7984 6.75216 13.2625 6.01246L11.8125 3.99996C11.5509 3.63238 11.218 3.32121 10.8336 3.08498C10.4492 2.84876 10.0211 2.69231 9.57501 2.62496C8.69368 2.49497 7.79645 2.71479 7.07501 3.23746L4.85001 4.81246C4.14322 5.32255 3.59311 6.02008 3.26179 6.82629C2.93048 7.6325 2.83114 8.51528 2.97501 9.37496C3.61014 13.0764 5.09111 16.5813 7.30259 19.6167C9.51407 22.652 12.3964 25.1359 15.725 26.875C16.3941 27.2187 17.1353 27.3987 17.8875 27.4C18.877 27.4027 19.8411 27.0872 20.6375 26.5L22.8125 25C23.55 24.4644 24.0445 23.6579 24.1875 22.7578C24.3305 21.8577 24.1102 20.9377 23.575 20.2L22.1 18.15ZM21.7125 23.4625L19.5375 25C19.1147 25.3065 18.6151 25.4898 18.0943 25.5295C17.5736 25.5692 17.052 25.4638 16.5875 25.225C13.5035 23.6108 10.8361 21.3031 8.79505 18.4834C6.75401 15.6637 5.39504 12.4089 4.82501 8.97496C4.7381 8.45913 4.79742 7.92926 4.99626 7.44542C5.1951 6.96158 5.5255 6.54312 5.95001 6.23746L8.11251 4.74996C8.38336 4.5586 8.70592 4.45399 9.03751 4.44996H9.27501C9.47863 4.48141 9.67402 4.55283 9.84993 4.66009C10.0258 4.76735 10.1788 4.90835 10.3 5.07496L11.775 7.12496C12.0158 7.46022 12.1141 7.87712 12.0485 8.28464C11.983 8.69215 11.7588 9.05716 11.425 9.29996L9.40001 10.775C9.23114 10.8988 9.10862 11.0757 9.05198 11.2773C8.99534 11.479 9.00785 11.6938 9.08751 11.8875C10.4105 15.1643 12.518 18.0659 15.225 20.3375C15.3886 20.4673 15.5912 20.5379 15.8 20.5379C16.0088 20.5379 16.2115 20.4673 16.375 20.3375L18.4 18.875C18.5664 18.7538 18.7552 18.6667 18.9554 18.6187C19.1555 18.5707 19.3632 18.5628 19.5665 18.5953C19.7698 18.6278 19.9646 18.7002 20.1398 18.8082C20.3151 18.9163 20.4672 19.0579 20.5875 19.225L22.05 21.25C22.1741 21.417 22.2638 21.607 22.3141 21.809C22.3643 22.0109 22.374 22.2209 22.3426 22.4266C22.3112 22.6323 22.2394 22.8298 22.1312 23.0076C22.0231 23.1854 21.8808 23.34 21.7125 23.4625ZM16.3625 7.38746C16.4036 7.26574 16.4697 7.15393 16.5564 7.05915C16.6432 6.96437 16.7487 6.88869 16.8663 6.83695C16.9839 6.78521 17.111 6.75853 17.2395 6.75862C17.3679 6.7587 17.495 6.78555 17.6125 6.83746C19.0372 7.3643 20.2732 8.30271 21.1635 9.5335C22.0538 10.7643 22.5581 12.2319 22.6125 13.75C22.6193 13.9965 22.5286 14.2358 22.3601 14.416C22.1917 14.5962 21.959 14.7027 21.7125 14.7125C21.4702 14.7127 21.2373 14.619 21.0625 14.4513C20.8877 14.2835 20.7847 14.0545 20.775 13.8125C20.7352 12.6687 20.3578 11.5623 19.6906 10.6326C19.0233 9.70283 18.0958 8.99126 17.025 8.58746C16.9003 8.55609 16.7835 8.49942 16.6816 8.42097C16.5798 8.34251 16.4952 8.24395 16.433 8.13141C16.3709 8.01886 16.3326 7.89474 16.3204 7.76676C16.3083 7.63878 16.3226 7.50967 16.3625 7.38746ZM27.0875 13.5125C27.1085 13.7606 27.0311 14.0071 26.8722 14.1988C26.7132 14.3905 26.4853 14.5121 26.2375 14.5375H26.15C25.9166 14.5357 25.692 14.4481 25.5191 14.2913C25.3462 14.1345 25.2371 13.9196 25.2125 13.6875C25.0313 11.6644 24.3058 9.72816 23.113 8.08418C21.9202 6.44019 20.3045 5.1498 18.4375 4.34996C18.2088 4.25216 18.0282 4.0675 17.9356 3.83659C17.843 3.60569 17.846 3.34746 17.9438 3.11871C18.0416 2.88996 18.2262 2.70943 18.4571 2.61683C18.688 2.52424 18.9463 2.52716 19.175 2.62496C21.3578 3.55074 23.2475 5.05318 24.6414 6.9712C26.0353 8.88921 26.8809 11.1504 27.0875 13.5125Z" fill="white"/>
</svg>
