<svg width="221" height="255" viewBox="0 0 221 255" fill="none" xmlns="http://www.w3.org/2000/svg">
<g clip-path="url(#clip0_845_72844)">
<path d="M4.80429 38.8044C2.95647 40.6523 1.72458 41.8841 -0.123244 43.732C-1.35513 45.5798 1.10864 47.4276 2.34053 46.1957L12.1956 36.3407C14.0434 34.4928 11.5797 32.645 9.73183 33.8769C7.884 35.7247 6.65212 36.9566 4.80429 38.8044Z" fill="#FF7D44" fill-opacity="0.12"/>
<path d="M57.7754 6.1594L-27.8405 91.7753V92.3913C-27.8405 92.3913 -27.8405 92.3913 -27.8405 93.0072C-28.4565 94.855 -25.9927 96.0869 -24.7608 94.855L60.2392 8.62317C61.4711 7.39128 60.2392 5.54346 58.3914 5.54346C58.3914 5.54346 58.3914 5.54346 57.7754 5.54346C58.3914 6.1594 57.7754 6.1594 57.7754 6.1594Z" fill="#FF7D44" fill-opacity="0.12"/>
<path d="M83.6449 0.615942L-33.3841 117.645C-33.3841 117.645 -34 118.261 -34 118.877C-34 120.725 -32.1522 121.341 -30.9203 120.109L86.1087 3.07971C87.3406 1.84783 86.1087 0 84.8768 0C84.2609 0.615942 84.2609 0.615942 83.6449 0.615942Z" fill="#FF7D44" fill-opacity="0.12"/>
<path d="M104.587 0.615942L-33.3841 138.587C-34 139.203 -34 139.819 -34 139.819C-34 141.667 -32.1522 142.283 -30.9203 141.667L107.667 3.07971C108.283 1.84783 107.667 0 106.435 0C105.819 0 105.203 0 104.587 0.615942Z" fill="#FF7D44" fill-opacity="0.12"/>
<path d="M123.065 3.07981L-30.9202 157.065C-31.5361 157.681 -31.5361 158.297 -31.5361 158.913C-31.5361 160.145 -29.6883 160.761 -28.4564 159.529L125.529 5.54358C126.145 4.31169 126.145 3.07981 124.913 2.46387C123.681 2.46387 123.065 2.46387 123.065 3.07981Z" fill="#FF7D44" fill-opacity="0.12"/>
<path d="M139.08 7.39118L-26.6087 173.08C-27.2246 173.696 -27.2246 174.311 -27.2246 174.927C-26.6087 176.159 -25.3768 176.159 -24.7608 175.543L141.544 9.85495C142.159 9.23901 142.159 7.39118 140.928 7.39118C140.312 6.77524 139.696 7.39118 139.08 7.39118Z" fill="#FF7D44" fill-opacity="0.12"/>
<path d="M153.246 13.5506L-20.4492 187.246C-21.0651 187.862 -21.0651 188.478 -20.4492 189.094C-19.8332 190.326 -18.6014 190.326 -17.9854 189.71L155.71 16.0144C156.326 15.3984 156.326 13.5506 155.094 13.5506C154.478 12.9347 153.862 13.5506 153.246 13.5506Z" fill="#FF7D44" fill-opacity="0.12"/>
<path d="M166.181 21.5581L-12.4421 200.181C-13.058 200.797 -13.058 201.413 -12.4421 202.029C-11.8262 202.645 -10.5943 203.261 -9.97833 202.029L168.645 23.4059C169.261 22.79 169.261 21.5581 168.645 20.9421C167.413 20.9421 166.797 20.9421 166.181 21.5581Z" fill="#FF7D44" fill-opacity="0.12"/>
<path d="M177.884 30.7972L-3.20284 211.884C-3.81878 212.5 -3.81878 213.732 -3.20284 214.348C-2.5869 214.964 -1.35501 214.964 -0.73907 214.348L180.348 33.2609C180.964 32.645 180.964 31.4131 180.348 30.7972C179.116 30.1812 178.5 30.1812 177.884 30.7972Z" fill="#FF7D44" fill-opacity="0.12"/>
<path d="M188.355 40.6521L6.65214 222.355C6.0362 222.971 6.0362 224.203 6.65214 224.819C7.26808 225.435 8.49997 225.435 9.11591 224.819L190.819 43.7319C191.435 43.1159 191.435 41.884 190.819 41.2681C189.587 40.0362 188.971 40.0362 188.355 40.6521Z" fill="#FF7D44" fill-opacity="0.12"/>
<path d="M196.978 52.355L18.355 230.978C17.7391 231.594 17.7391 232.826 18.355 233.442C18.971 234.058 20.2028 234.058 20.2028 233.442L198.826 54.8188C200.058 54.2028 200.058 53.5869 200.058 52.971C198.826 51.7391 197.594 51.7391 196.978 52.355Z" fill="#FF7D44" fill-opacity="0.12"/>
<path d="M204.985 65.2898L31.2898 238.985C30.6739 239.601 30.6739 241.449 31.9058 241.449C32.5217 242.065 33.1377 241.449 33.7536 241.449L207.449 67.7536C208.065 67.1377 208.065 66.5217 207.449 65.9058C206.833 64.6739 205.601 64.6739 204.985 65.2898Z" fill="#FF7D44" fill-opacity="0.12"/>
<path d="M211.145 79.4565L45.4566 245.145C44.8406 245.761 44.8406 247.609 46.0725 247.609C46.6885 247.609 47.3044 247.609 47.9204 246.993L212.993 81.9203C213.609 81.3044 213.609 80.6884 213.609 80.0725C213.609 79.4565 211.761 78.8406 211.145 79.4565Z" fill="#FF7D44" fill-opacity="0.12"/>
<path d="M216.072 95.471L62.087 249.456C60.8551 250.688 61.4711 251.92 62.7029 252.536C63.3189 252.536 63.9348 252.536 64.5508 251.92L218.536 97.9347C219.152 97.3188 219.152 96.7028 219.152 96.0869C218.536 95.471 216.688 94.855 216.072 95.471Z" fill="#FF7D44" fill-opacity="0.12"/>
<path d="M218.536 113.949L79.9492 252.536C78.7174 253.768 79.3333 255 81.1811 255.616C81.7971 255.616 82.413 255.616 82.413 255L221 116.413C221.616 115.797 221.616 115.797 221.616 115.181C221 113.333 219.152 112.717 218.536 113.949Z" fill="#FF7D44" fill-opacity="0.12"/>
<path d="M217.92 134.891L100.891 251.92C99.6595 253.152 100.891 255 102.123 255C102.739 255 102.739 255 103.355 254.384L220.384 137.355C220.384 137.355 221 136.739 221 136.123C221 134.275 219.152 133.66 217.92 134.891Z" fill="#FF7D44" fill-opacity="0.12"/>
<path d="M212.377 160.761L126.761 246.377C125.529 247.609 126.761 249.456 128.609 249.456C128.609 249.456 128.609 249.456 129.225 249.456C129.225 249.456 129.841 249.456 129.841 248.84L215.457 163.225L216.073 162.609C216.073 162.609 216.073 162.609 216.073 161.993C216.073 160.761 213.609 159.529 212.377 160.761Z" fill="#FF7D44" fill-opacity="0.12"/>
<path d="M175.42 218.659C173.572 220.507 176.036 222.355 177.884 221.123C179.732 219.891 180.964 218.044 182.812 216.196C184.659 214.348 185.891 213.116 187.739 211.268C188.971 209.42 187.123 207.573 185.275 208.804L175.42 218.659Z" fill="#FF7D44" fill-opacity="0.12"/>
</g>
<defs>
<clipPath id="clip0_845_72844">
<rect width="255" height="255" fill="white" transform="translate(-34)"/>
</clipPath>
</defs>
</svg>
