<svg width="40" height="177" viewBox="0 0 40 177" fill="none" xmlns="http://www.w3.org/2000/svg">
<path d="M3.47409 2.92422e-05L0.451904 3.02222L36.7852 39.3555L39.8074 36.3333L3.47409 2.92422e-05Z" fill="#FF7D44" fill-opacity="0.12"/>
<path d="M3.47458 19.6631L0.452393 22.6853L36.7857 59.0186L39.8078 55.9964L3.47458 19.6631Z" fill="#FF7D44" fill-opacity="0.12"/>
<path d="M3.47409 39.3252L0.451904 42.3474L36.7845 78.68L39.8067 75.6578L3.47409 39.3252Z" fill="#FF7D44" fill-opacity="0.12"/>
<path d="M3.47385 58.9878L0.45166 62.01L36.7849 98.3433L39.8071 95.3211L3.47385 58.9878Z" fill="#FF7D44" fill-opacity="0.12"/>
<path d="M3.47409 78.6507L0.451904 81.6729L36.7852 118.006L39.8074 114.984L3.47409 78.6507Z" fill="#FF7D44" fill-opacity="0.12"/>
<path d="M3.47385 98.313L0.45166 101.335L36.7849 137.668L39.8071 134.646L3.47385 98.313Z" fill="#FF7D44" fill-opacity="0.12"/>
<path d="M3.47336 117.976L0.451172 120.998L36.7844 157.331L39.8066 154.309L3.47336 117.976Z" fill="#FF7D44" fill-opacity="0.12"/>
<path d="M3.47629 137.645L0.454102 140.667L36.7874 177L39.8095 173.978L3.47629 137.645Z" fill="#FF7D44" fill-opacity="0.12"/>
</svg>
