<svg width="163" height="163" viewBox="0 0 163 163" fill="none" xmlns="http://www.w3.org/2000/svg">
<path d="M1.98178 26.4348C3.07746 26.4348 3.96606 27.3239 3.96606 28.4181C3.96606 29.5129 3.07843 30.4015 1.98266 30.4015C0.889789 30.4015 0.00120139 29.5129 0.00120139 28.4181C0.000317335 27.3234 0.888826 26.4348 1.98178 26.4348Z" fill="#FF7D44" fill-opacity="0.28"/>
<path d="M15.201 26.4348C16.2948 26.4348 17.1824 27.3234 17.1814 28.4181C17.1814 29.5129 16.2957 30.4015 15.2 30.4015C14.1052 30.4015 13.2166 29.5129 13.2166 28.4181C13.2176 27.3234 14.1062 26.4348 15.201 26.4348Z" fill="#FF7D44" fill-opacity="0.28"/>
<path d="M1.98178 13.2183C3.07746 13.2183 3.96606 14.1048 3.96606 15.1996C3.96606 16.2963 3.07746 17.183 1.98178 17.183C0.888825 17.183 0.00127959 16.2964 0.00127959 15.1996C0.00127959 14.1048 0.88987 13.2178 1.98178 13.2183Z" fill="#FF7D44" fill-opacity="0.28"/>
<path d="M15.201 13.2183C16.2948 13.2183 17.1814 14.1048 17.1814 15.1996C17.1814 16.2963 16.2948 17.183 15.201 17.183C14.1052 17.1825 13.2166 16.2964 13.2166 15.1996C13.2166 14.1048 14.1052 13.2178 15.201 13.2183Z" fill="#FF7D44" fill-opacity="0.28"/>
<path d="M21.8082 19.8281C22.9048 19.8281 23.7905 20.7148 23.7905 21.8092C23.7905 22.9036 22.9048 23.7901 21.8082 23.7901C20.7152 23.7906 19.8268 22.9035 19.8268 21.8092C19.8268 20.7149 20.7153 19.8272 21.8082 19.8281Z" fill="#FF7D44" fill-opacity="0.28"/>
<path d="M8.5909 19.8281C9.68666 19.8272 10.5732 20.7148 10.5732 21.8092C10.5732 22.9036 9.68666 23.7906 8.5909 23.7901C7.49803 23.791 6.60856 22.9044 6.60759 21.8092C6.60848 20.7138 7.49803 19.8272 8.5909 19.8281Z" fill="#FF7D44" fill-opacity="0.28"/>
<path d="M8.5909 6.60913C9.6857 6.60913 10.5742 7.49771 10.5732 8.593C10.5742 9.68531 9.68562 10.5739 8.5909 10.5739C7.49803 10.5744 6.60855 9.68539 6.60855 8.59203C6.60847 7.49771 7.49803 6.60865 8.5909 6.60913Z" fill="#FF7D44" fill-opacity="0.28"/>
<path d="M1.98266 3.96669C0.889789 3.96669 0.00120115 3.07762 0.00120115 1.9833C0.00120115 0.886092 0.888824 0 1.98266 0C3.07843 0 3.96606 0.886092 3.96606 1.9833C3.96606 3.07811 3.07843 3.96669 1.98266 3.96669Z" fill="#FF7D44" fill-opacity="0.28"/>
<path d="M1.98178 52.8701C3.07746 52.8701 3.96606 53.7578 3.96606 54.8534C3.96606 55.9482 3.07843 56.8368 1.98266 56.8368C0.889789 56.8368 0.00120115 55.9482 0.00120115 54.8534C0.0012815 53.7578 0.888825 52.8701 1.98178 52.8701Z" fill="#FF7D44" fill-opacity="0.28"/>
<path d="M15.2009 52.8701C16.2947 52.8701 17.1813 53.7577 17.1824 54.8525C17.1813 55.9482 16.2956 56.8367 15.2 56.8367C14.1052 56.8367 13.2166 55.9482 13.2166 54.8534C13.2165 53.7578 14.1061 52.8701 15.2009 52.8701Z" fill="#FF7D44" fill-opacity="0.28"/>
<path d="M1.98266 39.6526C3.07746 39.6536 3.96606 40.5397 3.96606 41.6345C3.96606 42.7302 3.07746 43.6178 1.98178 43.6178C0.88987 43.6174 0.00127959 42.7302 0.00127959 41.6345C0.00127959 40.5397 0.889869 39.6526 1.98266 39.6526Z" fill="#FF7D44" fill-opacity="0.28"/>
<path d="M15.201 39.6538C16.2948 39.6538 17.1814 40.5399 17.1814 41.6347C17.1814 42.7305 16.2948 43.6181 15.201 43.6181C14.1052 43.6176 13.2166 42.7305 13.2166 41.6347C13.2166 40.5399 14.1052 39.6528 15.201 39.6538Z" fill="#FF7D44" fill-opacity="0.28"/>
<path d="M21.8082 46.2629C22.9048 46.2629 23.7915 47.1495 23.7905 48.2424C23.7905 49.3381 22.9048 50.2247 21.8082 50.2247C20.7152 50.2257 19.8268 49.3381 19.8268 48.2424C19.8268 47.1495 20.7153 46.2625 21.8082 46.2629Z" fill="#FF7D44" fill-opacity="0.28"/>
<path d="M8.5909 46.2629C9.68666 46.2625 10.5732 47.1495 10.5732 48.2424C10.5732 49.3381 9.68666 50.2258 8.5909 50.2247C7.49803 50.2257 6.60856 49.339 6.60856 48.2433C6.60847 47.1485 7.49803 46.2625 8.5909 46.2629Z" fill="#FF7D44" fill-opacity="0.28"/>
<path d="M21.8082 33.0439C22.9048 33.0439 23.7905 33.932 23.7915 35.0278C23.7915 36.1201 22.9049 37.0087 21.8082 37.0087C20.7143 37.0087 19.8268 36.1206 19.8268 35.0278C19.8268 33.932 20.7153 33.0435 21.8082 33.0439Z" fill="#FF7D44" fill-opacity="0.28"/>
<path d="M8.5909 33.0439C9.6857 33.0439 10.5732 33.932 10.5732 35.0278C10.5742 36.1201 9.68562 37.0087 8.5909 37.0087C7.49706 37.0087 6.60855 36.1201 6.60855 35.0268C6.60847 33.9325 7.49803 33.0435 8.5909 33.0439Z" fill="#FF7D44" fill-opacity="0.28"/>
<path d="M1.98178 79.3049C3.07746 79.3049 3.96606 80.1925 3.96606 81.2882C3.96606 82.383 3.07843 83.2715 1.98266 83.2715C0.889789 83.2715 0.00120115 82.383 0.00120115 81.2882C0.0012815 80.1925 0.888825 79.3049 1.98178 79.3049Z" fill="#FF7D44" fill-opacity="0.28"/>
<path d="M15.2009 79.3049C16.2947 79.3049 17.1824 80.1915 17.1824 81.2873C17.1813 82.383 16.2956 83.2715 15.2 83.2715C14.1052 83.2715 13.2166 82.383 13.2166 81.2882C13.2165 80.1925 14.1061 79.3049 15.2009 79.3049Z" fill="#FF7D44" fill-opacity="0.28"/>
<path d="M1.98266 66.0874C3.07843 66.0874 3.96606 66.975 3.96606 68.0708C3.96606 69.1665 3.07746 70.0531 1.98178 70.0531C0.88987 70.0522 0.00127959 69.1665 0.00127959 68.0708C0.00127959 66.975 0.889869 66.0874 1.98266 66.0874Z" fill="#FF7D44" fill-opacity="0.28"/>
<path d="M15.2009 66.0886C16.2956 66.0877 17.1824 66.9743 17.1824 68.07C17.1824 69.1658 16.2947 70.0534 15.2009 70.0534C14.1051 70.0524 13.2165 69.1667 13.2165 68.071C13.2165 66.9752 14.1051 66.0876 15.2009 66.0886Z" fill="#FF7D44" fill-opacity="0.28"/>
<path d="M21.8091 72.6978C22.9048 72.6978 23.7914 73.5843 23.7905 74.6791C23.7914 75.7739 22.9048 76.6595 21.8082 76.6595C20.7152 76.6605 19.8268 75.7739 19.8268 74.6791C19.8268 73.5843 20.7153 72.6978 21.8091 72.6978Z" fill="#FF7D44" fill-opacity="0.28"/>
<path d="M8.59178 72.6978C9.68658 72.6978 10.5741 73.5843 10.5732 74.6791C10.5732 75.7739 9.68562 76.6595 8.5909 76.6595C7.49803 76.6605 6.60759 75.7739 6.60759 74.6791C6.6084 73.5843 7.49794 72.6978 8.59178 72.6978Z" fill="#FF7D44" fill-opacity="0.28"/>
<path d="M21.8082 59.4802C22.9048 59.4802 23.7905 60.3668 23.7915 61.4626C23.7906 62.5554 22.9049 63.444 21.8082 63.444C20.7152 63.443 19.8268 62.5554 19.8268 61.4626C19.8268 60.3668 20.7153 59.4793 21.8082 59.4802Z" fill="#FF7D44" fill-opacity="0.28"/>
<path d="M8.59163 59.4792C9.68643 59.4792 10.5731 60.3668 10.574 61.4627C10.573 62.5555 9.68539 63.444 8.59067 63.444C7.4978 63.4431 6.60736 62.5554 6.60833 61.4627C6.60825 60.3678 7.49779 59.4792 8.59163 59.4792Z" fill="#FF7D44" fill-opacity="0.28"/>
<path d="M1.98178 105.74C3.07746 105.74 3.96606 106.628 3.96606 107.723C3.96606 108.818 3.07843 109.707 1.98266 109.707C0.889789 109.707 0.00120115 108.818 0.00120115 107.723C0.0012815 106.628 0.888825 105.74 1.98178 105.74Z" fill="#FF7D44" fill-opacity="0.28"/>
<path d="M15.2009 105.74C16.2947 105.74 17.1824 106.629 17.1824 107.723C17.1813 108.818 16.2956 109.707 15.2 109.707C14.1052 109.707 13.2166 108.818 13.2176 107.723C13.2175 106.629 14.1061 105.74 15.2009 105.74Z" fill="#FF7D44" fill-opacity="0.28"/>
<path d="M1.98266 92.5234C3.07843 92.5225 3.96606 93.41 3.96606 94.5058C3.96606 95.6015 3.07746 96.4881 1.98266 96.4872C0.889789 96.4872 0.00120115 95.6015 0.00120115 94.5058C0.0012815 93.41 0.889869 92.5234 1.98266 92.5234Z" fill="#FF7D44" fill-opacity="0.28"/>
<path d="M15.2009 92.5234C16.2956 92.5225 17.1824 93.4091 17.1824 94.5048C17.1824 95.6006 16.2947 96.4882 15.2009 96.4882C14.1051 96.4872 13.2165 95.6016 13.2165 94.5059C13.2165 93.41 14.1051 92.5234 15.2009 92.5234Z" fill="#FF7D44" fill-opacity="0.28"/>
<path d="M21.8091 99.1326C22.9048 99.1326 23.7905 100.019 23.7905 101.114C23.7905 102.209 22.9048 103.095 21.8082 103.095C20.7152 103.095 19.8268 102.209 19.8268 101.114C19.8268 100.019 20.7153 99.1326 21.8091 99.1326Z" fill="#FF7D44" fill-opacity="0.28"/>
<path d="M8.59178 99.1326C9.68658 99.1326 10.5732 100.019 10.5732 101.114C10.5732 102.209 9.68562 103.095 8.5909 103.095C7.49803 103.095 6.60759 102.209 6.60856 101.113C6.60839 100.02 7.49794 99.1326 8.59178 99.1326Z" fill="#FF7D44" fill-opacity="0.28"/>
<path d="M21.8092 85.9141C22.9049 85.9141 23.7915 86.8018 23.7915 87.8974C23.7906 88.9902 22.9049 89.8788 21.8082 89.8788C20.7152 89.8779 19.8268 88.9902 19.8268 87.8974C19.8269 86.8017 20.7154 85.9141 21.8092 85.9141Z" fill="#FF7D44" fill-opacity="0.28"/>
<path d="M8.59163 85.9141C9.68643 85.9141 10.5731 86.8018 10.574 87.8974C10.573 88.9902 9.68539 89.8788 8.59067 89.8788C7.4978 89.8779 6.60736 88.9902 6.60833 87.8974C6.60825 86.8026 7.49779 85.9141 8.59163 85.9141Z" fill="#FF7D44" fill-opacity="0.28"/>
<path d="M1.9825 132.175C3.07827 132.175 3.96589 133.062 3.96484 134.157C3.96581 135.253 3.0773 136.14 1.9825 136.141C0.889627 136.141 0.00103903 135.253 0.00103903 134.158C0.00111938 133.062 0.889707 132.175 1.9825 132.175Z" fill="#FF7D44" fill-opacity="0.28"/>
<path d="M15.2 132.175C16.2957 132.175 17.1814 133.062 17.1824 134.157C17.1813 135.253 16.2947 136.14 15.2009 136.14C14.1051 136.141 13.2166 135.253 13.2175 134.157C13.2166 133.062 14.1052 132.175 15.2 132.175Z" fill="#FF7D44" fill-opacity="0.28"/>
<path d="M1.98266 118.958C3.07843 118.958 3.96606 119.845 3.96606 120.94C3.96606 122.036 3.07843 122.923 1.98266 122.923C0.889789 122.923 0.00120115 122.036 0.00120115 120.94C0.0012815 119.845 0.889869 118.958 1.98266 118.958Z" fill="#FF7D44" fill-opacity="0.28"/>
<path d="M15.2 118.958C16.2957 118.958 17.1824 119.845 17.1824 120.939C17.1824 122.036 16.2956 122.923 15.2 122.923C14.1052 122.923 13.2176 122.036 13.2176 120.939C13.2176 119.845 14.1052 118.958 15.2 118.958Z" fill="#FF7D44" fill-opacity="0.28"/>
<path d="M21.8082 125.566C22.9048 125.566 23.7915 126.454 23.7915 127.549C23.7915 128.643 22.9049 129.531 21.8082 129.531C20.7152 129.53 19.8268 128.643 19.8268 127.549C19.8268 126.454 20.7153 125.567 21.8082 125.566Z" fill="#FF7D44" fill-opacity="0.28"/>
<path d="M8.5909 125.566C9.68666 125.567 10.5732 126.454 10.5732 127.549C10.5732 128.643 9.68666 129.53 8.5909 129.531C7.49803 129.53 6.60759 128.643 6.60856 127.548C6.60847 126.455 7.49803 125.567 8.5909 125.566Z" fill="#FF7D44" fill-opacity="0.28"/>
<path d="M21.8082 112.349C22.9048 112.349 23.7905 113.237 23.7905 114.331C23.7914 115.425 22.9048 116.314 21.8082 116.314C20.7152 116.313 19.8268 115.425 19.8268 114.332C19.8268 113.237 20.7153 112.349 21.8082 112.349Z" fill="#FF7D44" fill-opacity="0.28"/>
<path d="M8.59163 112.349C9.68643 112.349 10.5731 113.237 10.574 114.332C10.573 115.425 9.68644 116.313 8.59067 116.314C7.4978 116.313 6.60736 115.425 6.60833 114.332C6.60825 113.238 7.49779 112.349 8.59163 112.349Z" fill="#FF7D44" fill-opacity="0.28"/>
<path d="M1.9825 158.609C3.07827 158.609 3.96589 159.498 3.96484 160.593C3.96484 161.687 3.0773 162.576 1.98154 162.576C0.88963 162.576 7.7486e-05 161.687 7.7486e-05 160.593C0.00112224 159.498 0.889707 158.609 1.9825 158.609Z" fill="#FF7D44" fill-opacity="0.28"/>
<path d="M15.2 158.609C16.2957 158.609 17.1814 159.498 17.1824 160.593C17.1824 161.687 16.2947 162.576 15.2009 162.576C14.1051 162.576 13.2175 161.687 13.2175 160.593C13.2166 159.498 14.1052 158.609 15.2 158.609Z" fill="#FF7D44" fill-opacity="0.28"/>
<path d="M1.98266 145.392C3.07843 145.392 3.96502 146.279 3.96606 147.375C3.9651 148.47 3.07843 149.357 1.98266 149.357C0.889789 149.357 0.000317335 148.47 0.00120139 147.375C0.000317335 146.279 0.889869 145.392 1.98266 145.392Z" fill="#FF7D44" fill-opacity="0.28"/>
<path d="M15.2 145.392C16.2957 145.392 17.1824 146.279 17.1814 147.375C17.1824 148.47 16.2957 149.357 15.2 149.357C14.1052 149.357 13.2176 148.47 13.2166 147.375C13.2176 146.279 14.1052 145.392 15.2 145.392Z" fill="#FF7D44" fill-opacity="0.28"/>
<path d="M21.8082 152.001C22.9048 152.001 23.7905 152.889 23.7905 153.984C23.7914 155.078 22.9048 155.967 21.8082 155.967C20.7152 155.965 19.8268 155.078 19.8268 153.984C19.8268 152.889 20.7153 152.002 21.8082 152.001Z" fill="#FF7D44" fill-opacity="0.28"/>
<path d="M8.5909 152.001C9.68666 152.002 10.5732 152.889 10.5732 153.984C10.5732 155.078 9.68666 155.965 8.5909 155.967C7.49803 155.965 6.60759 155.078 6.60856 153.984C6.60759 152.889 7.49803 152.002 8.5909 152.001Z" fill="#FF7D44" fill-opacity="0.28"/>
<path d="M21.8082 138.785C22.9048 138.785 23.7915 139.671 23.7905 140.766C23.7914 141.862 22.9048 142.748 21.8082 142.748C20.7152 142.748 19.8268 141.862 19.8268 140.766C19.8268 139.671 20.7153 138.786 21.8082 138.785Z" fill="#FF7D44" fill-opacity="0.28"/>
<path d="M8.5909 138.785C9.6857 138.785 10.5732 139.671 10.5732 140.766C10.5732 141.862 9.68666 142.748 8.5909 142.748C7.49803 142.748 6.60856 141.861 6.60856 140.767C6.60759 139.671 7.49803 138.786 8.5909 138.785Z" fill="#FF7D44" fill-opacity="0.28"/>
<path d="M28.4166 26.4348C28.8271 26.4348 29.2087 26.5601 29.5248 26.774C30.053 27.1306 30.4009 27.7345 30.4009 28.4181C30.4009 29.1024 30.0539 29.7056 29.5258 30.0618C29.2097 30.2761 28.8281 30.4015 28.4175 30.4015C27.7333 30.4015 27.1299 30.0545 26.7734 29.5264C26.5615 29.2104 26.4361 28.8287 26.4361 28.418C26.4351 28.0075 26.5604 27.6259 26.7734 27.3103C27.1309 26.7812 27.7343 26.4348 28.4166 26.4348Z" fill="#FF7D44" fill-opacity="0.28"/>
<path d="M28.4166 52.8701C28.8271 52.8701 29.2087 52.9954 29.5248 53.2093C30.0539 53.564 30.4009 54.1692 30.4009 54.8534C30.4009 55.5377 30.0539 56.141 29.5258 56.4976C29.2097 56.7115 28.8281 56.8368 28.4175 56.8368C27.7333 56.8368 27.1299 56.4898 26.7734 55.9618C26.5615 55.6458 26.4361 55.2641 26.4361 54.8534C26.4351 54.4429 26.5604 54.0613 26.7734 53.7452C27.1309 53.2171 27.7343 52.8701 28.4166 52.8701Z" fill="#FF7D44" fill-opacity="0.28"/>
<path d="M41.6339 52.8701C42.7296 52.8701 43.6162 53.7578 43.6162 54.8534C43.6162 55.9482 42.7305 56.8368 41.6348 56.8368C40.54 56.8368 39.6514 55.9482 39.6514 54.8534C39.6515 53.7578 40.5411 52.8701 41.6339 52.8701Z" fill="#FF7D44" fill-opacity="0.28"/>
<path d="M28.4166 39.6538C28.8281 39.6528 29.2097 39.7772 29.5258 39.9911C30.0539 40.3471 30.4009 40.9505 30.4009 41.6347C30.4009 42.32 30.0539 42.9233 29.5248 43.2788C29.2097 43.4922 28.8281 43.6176 28.4166 43.6181C27.7343 43.6181 27.13 43.2706 26.7734 42.744C26.5604 42.4269 26.4361 42.0463 26.4361 41.6347C26.4361 41.2242 26.5615 40.8426 26.7734 40.5265C27.1309 40.0003 27.7343 39.6538 28.4166 39.6538Z" fill="#FF7D44" fill-opacity="0.28"/>
<path d="M41.6339 39.6538C42.7296 39.6538 43.6162 40.5399 43.6162 41.6347C43.6162 42.7305 42.7296 43.6181 41.6339 43.6181C40.54 43.6176 39.6515 42.7305 39.6515 41.6347C39.6515 40.5399 40.54 39.6528 41.6339 39.6538Z" fill="#FF7D44" fill-opacity="0.28"/>
<path d="M48.2432 46.2625C49.339 46.2625 50.2266 47.1495 50.2266 48.2424C50.2266 49.3381 49.3381 50.2247 48.2423 50.2247C47.1484 50.2257 46.2619 49.3381 46.2619 48.2424C46.2619 47.1495 47.1484 46.2625 48.2432 46.2625Z" fill="#FF7D44" fill-opacity="0.28"/>
<path d="M35.0267 46.2629C36.1215 46.2625 37.0081 47.1495 37.0081 48.2424C37.009 49.3381 36.1205 50.2247 35.0267 50.2247C33.9329 50.2257 33.0424 49.3381 33.0424 48.2424C33.0433 47.149 33.9329 46.2625 35.0267 46.2629Z" fill="#FF7D44" fill-opacity="0.28"/>
<path d="M35.0267 33.0439C36.1205 33.0439 37.009 33.932 37.009 35.0278C37.009 36.1201 36.1205 37.0087 35.0267 37.0087C33.9319 37.0087 33.0433 36.1201 33.0433 35.0268C33.0433 33.9325 33.9329 33.0435 35.0267 33.0439Z" fill="#FF7D44" fill-opacity="0.28"/>
<path d="M28.4166 79.3049C28.8271 79.3049 29.2097 79.4293 29.5248 79.6441C30.053 80.0007 30.4009 80.6039 30.4009 81.2882C30.4009 81.9725 30.0539 82.5757 29.5258 82.9323C29.2097 83.1463 28.8281 83.2715 28.4175 83.2715C27.7333 83.2715 27.1299 82.9244 26.7734 82.3964C26.5615 82.0803 26.4361 81.6987 26.4361 81.2881C26.4351 80.8776 26.5604 80.4959 26.7734 80.1799C27.1309 79.6518 27.7343 79.3049 28.4166 79.3049Z" fill="#FF7D44" fill-opacity="0.28"/>
<path d="M41.6339 79.3049C42.7296 79.3049 43.6162 80.1925 43.6162 81.2882C43.6162 82.383 42.7296 83.2705 41.6348 83.2715C40.54 83.2715 39.6514 82.383 39.6514 81.2882C39.6515 80.1925 40.5411 79.3049 41.6339 79.3049Z" fill="#FF7D44" fill-opacity="0.28"/>
<path d="M28.4175 66.0874C28.8281 66.0874 29.2097 66.2117 29.5258 66.4258C30.0539 66.7823 30.4009 67.3856 30.4009 68.0708C30.4009 68.7549 30.0539 69.3573 29.5258 69.7139C29.2097 69.9269 28.8281 70.0522 28.4166 70.0532C27.7343 70.0532 27.13 69.7052 26.7734 69.1781C26.5615 68.862 26.4361 68.4803 26.4361 68.0708C26.4361 67.6593 26.5615 67.2777 26.7734 66.9616C27.1309 66.4335 27.7343 66.0884 28.4175 66.0874Z" fill="#FF7D44" fill-opacity="0.28"/>
<path d="M41.6339 66.0886C42.7296 66.0886 43.6162 66.9752 43.6162 68.071C43.6162 69.1667 42.7296 70.0533 41.6339 70.0533C40.54 70.0523 39.6515 69.1667 39.6515 68.071C39.6515 66.9752 40.54 66.0876 41.6339 66.0886Z" fill="#FF7D44" fill-opacity="0.28"/>
<path d="M48.2432 72.6978C49.339 72.6978 50.2266 73.5843 50.2266 74.6791C50.2266 75.7739 49.3381 76.6595 48.2423 76.6595C47.1484 76.6605 46.2619 75.7739 46.2619 74.6791C46.2619 73.5843 47.1484 72.6978 48.2432 72.6978Z" fill="#FF7D44" fill-opacity="0.28"/>
<path d="M35.0267 72.6978C36.1215 72.6978 37.009 73.5843 37.0081 74.6791C37.0081 75.7739 36.1205 76.6595 35.0267 76.6595C33.9329 76.6605 33.0424 75.7739 33.0424 74.6791C33.0433 73.5843 33.9329 72.6978 35.0267 72.6978Z" fill="#FF7D44" fill-opacity="0.28"/>
<path d="M48.2432 59.4792C49.339 59.4792 50.2266 60.3668 50.2266 61.4627C50.2266 62.5555 49.3381 63.444 48.2423 63.444C47.1494 63.444 46.2619 62.5554 46.2619 61.4627C46.2619 60.3668 47.1484 59.4792 48.2432 59.4792Z" fill="#FF7D44" fill-opacity="0.28"/>
<path d="M35.0267 59.4802C36.1215 59.4793 37.009 60.3668 37.0081 61.4626C37.009 62.5554 36.1205 63.444 35.0267 63.444C33.9319 63.444 33.0424 62.5554 33.0433 61.4626C33.0433 60.3678 33.9329 59.4793 35.0267 59.4802Z" fill="#FF7D44" fill-opacity="0.28"/>
<path d="M28.4164 105.74C28.828 105.739 29.2095 105.864 29.5247 106.079C30.0528 106.436 30.3997 107.039 30.3997 107.723C30.4007 108.408 30.0537 109.011 29.5256 109.367C29.2095 109.581 28.8279 109.707 28.4173 109.707C27.7331 109.707 27.1297 109.36 26.7732 108.832C26.5613 108.515 26.4359 108.134 26.4359 107.723C26.435 107.313 26.5603 106.931 26.7732 106.614C27.1308 106.087 27.7341 105.74 28.4164 105.74Z" fill="#FF7D44" fill-opacity="0.28"/>
<path d="M41.634 105.74C42.7298 105.74 43.6164 106.628 43.6174 107.723C43.6165 108.818 42.7299 109.706 41.634 109.706C40.5402 109.707 39.6517 108.818 39.6517 107.723C39.6517 106.628 40.5402 105.739 41.634 105.74Z" fill="#FF7D44" fill-opacity="0.28"/>
<path d="M28.4175 92.5225C28.8281 92.5225 29.2097 92.6468 29.5248 92.8607C30.0539 93.2173 30.4009 93.8207 30.4009 94.5058C30.4009 95.1901 30.053 95.7943 29.5258 96.1489C29.2097 96.3628 28.8281 96.4872 28.4166 96.4882C27.7333 96.4872 27.13 96.1412 26.7744 95.6151C26.5614 95.297 26.4361 94.9153 26.4361 94.5059C26.4361 94.0943 26.5604 93.7128 26.7734 93.3966C27.1309 92.8684 27.7333 92.5225 28.4175 92.5225Z" fill="#FF7D44" fill-opacity="0.28"/>
<path d="M41.6351 92.5234C42.7308 92.5225 43.6174 93.4091 43.6174 94.5048C43.6174 95.6016 42.7299 96.4882 41.634 96.4882C40.5402 96.4872 39.6517 95.6016 39.6517 94.5059C39.6517 93.41 40.5402 92.5224 41.6351 92.5234Z" fill="#FF7D44" fill-opacity="0.28"/>
<path d="M48.2432 99.1326C49.339 99.1326 50.2266 100.019 50.2266 101.114C50.2266 102.209 49.3381 103.095 48.2423 103.095C47.1484 103.095 46.2619 102.209 46.2619 101.114C46.2619 100.019 47.1484 99.1326 48.2432 99.1326Z" fill="#FF7D44" fill-opacity="0.28"/>
<path d="M35.0267 99.1316C36.1215 99.1326 37.009 100.019 37.009 101.114C37.0081 102.209 36.1205 103.095 35.0267 103.095C33.9329 103.095 33.0424 102.209 33.0424 101.114C33.0433 100.02 33.9329 99.1326 35.0267 99.1316Z" fill="#FF7D44" fill-opacity="0.28"/>
<path d="M48.243 85.9141C49.3388 85.9141 50.2263 86.8018 50.2253 87.8974C50.2262 88.9902 49.3378 89.8788 48.242 89.8788C47.1492 89.8788 46.2616 88.9902 46.2616 87.8974C46.2616 86.8017 47.1482 85.9141 48.243 85.9141Z" fill="#FF7D44" fill-opacity="0.28"/>
<path d="M35.0267 85.9141C36.1215 85.9141 37.0081 86.8018 37.009 87.8974C37.009 88.9902 36.1205 89.8788 35.0267 89.8788C33.9329 89.8779 33.0424 88.9902 33.0433 87.8974C33.0433 86.8026 33.9329 85.9141 35.0267 85.9141Z" fill="#FF7D44" fill-opacity="0.28"/>
<path d="M28.4173 132.175C28.8279 132.175 29.2095 132.299 29.5256 132.513C30.0528 132.87 30.3997 133.473 30.3997 134.157C30.3997 134.841 30.0528 135.446 29.5247 135.802C29.2086 136.016 28.828 136.141 28.4164 136.14C27.7332 136.141 27.1298 135.794 26.7742 135.267C26.5612 134.95 26.4359 134.569 26.435 134.157C26.435 133.747 26.5603 133.366 26.7732 133.049C27.1308 132.522 27.7331 132.175 28.4173 132.175Z" fill="#FF7D44" fill-opacity="0.28"/>
<path d="M41.6351 132.175C42.7308 132.175 43.6165 133.062 43.6174 134.157C43.6165 135.253 42.7299 136.14 41.634 136.14C40.5402 136.141 39.6517 135.253 39.6526 134.157C39.6517 133.062 40.5402 132.175 41.6351 132.175Z" fill="#FF7D44" fill-opacity="0.28"/>
<path d="M28.4173 118.958C28.8279 118.958 29.2095 119.081 29.5256 119.295C30.0528 119.651 30.3997 120.255 30.3997 120.939C30.4007 121.625 30.0528 122.229 29.5256 122.583C29.2095 122.797 28.8279 122.923 28.4173 122.923C27.7331 122.923 27.1297 122.576 26.7742 122.05C26.5612 121.732 26.435 121.352 26.435 120.939C26.435 120.529 26.5603 120.147 26.7732 119.831C27.1297 119.305 27.7331 118.958 28.4173 118.958Z" fill="#FF7D44" fill-opacity="0.28"/>
<path d="M41.6351 118.958C42.7308 118.958 43.6174 119.845 43.6174 120.939C43.6174 122.036 42.7299 122.923 41.634 122.923C40.5402 122.923 39.6517 122.036 39.6517 120.94C39.6517 119.845 40.5402 118.958 41.6351 118.958Z" fill="#FF7D44" fill-opacity="0.28"/>
<path d="M48.2432 125.567C49.339 125.567 50.2266 126.454 50.2266 127.549C50.2266 128.643 49.3381 129.531 48.2423 129.531C47.1484 129.53 46.2619 128.643 46.2619 127.549C46.2619 126.454 47.1484 125.567 48.2432 125.567Z" fill="#FF7D44" fill-opacity="0.28"/>
<path d="M35.0267 125.566C36.1215 125.567 37.0081 126.454 37.0081 127.549C37.009 128.643 36.1205 129.531 35.0267 129.531C33.9329 129.53 33.0424 128.643 33.0424 127.549C33.0424 126.454 33.9329 125.567 35.0267 125.566Z" fill="#FF7D44" fill-opacity="0.28"/>
<path d="M48.2432 112.349C49.339 112.349 50.2266 113.237 50.2266 114.331C50.2266 115.425 49.3381 116.314 48.2423 116.314C47.1484 116.313 46.2619 115.425 46.2608 114.332C46.2619 113.237 47.1484 112.349 48.2432 112.349Z" fill="#FF7D44" fill-opacity="0.28"/>
<path d="M35.0267 112.349C36.1215 112.349 37.0081 113.237 37.0081 114.331C37.0081 115.425 36.1205 116.314 35.0267 116.314C33.9329 116.313 33.0424 115.425 33.0433 114.332C33.0424 113.237 33.9329 112.349 35.0267 112.349Z" fill="#FF7D44" fill-opacity="0.28"/>
<path d="M28.4173 158.609C28.8279 158.609 29.2095 158.735 29.5256 158.949C30.0528 159.305 30.3997 159.908 30.3997 160.593C30.3997 161.277 30.0528 161.882 29.5256 162.237C29.2095 162.451 28.8279 162.576 28.4164 162.576C27.7341 162.576 27.1298 162.229 26.7732 161.701C26.5613 161.385 26.4359 161.003 26.435 160.593C26.4359 160.182 26.5603 159.801 26.7732 159.484C27.1297 158.956 27.7331 158.609 28.4173 158.609Z" fill="#FF7D44" fill-opacity="0.28"/>
<path d="M41.6351 158.609C42.7308 158.609 43.6165 159.498 43.6174 160.593C43.6174 161.687 42.7299 162.576 41.634 162.576C40.5402 162.576 39.6526 161.687 39.6526 160.593C39.6517 159.498 40.5402 158.609 41.6351 158.609Z" fill="#FF7D44" fill-opacity="0.28"/>
<path d="M28.4175 145.392C28.8281 145.392 29.2097 145.517 29.5258 145.73C30.053 146.088 30.3998 146.69 30.4009 147.375C30.4009 148.06 30.053 148.663 29.5248 149.019C29.2097 149.233 28.8281 149.357 28.4175 149.357C27.7333 149.357 27.1299 149.012 26.7734 148.484C26.5604 148.168 26.4351 147.786 26.4361 147.375C26.4361 146.964 26.5604 146.583 26.7734 146.266C27.1299 145.739 27.7333 145.392 28.4175 145.392Z" fill="#FF7D44" fill-opacity="0.28"/>
<path d="M41.6348 145.392C42.7305 145.392 43.6172 146.279 43.6162 147.375C43.6172 148.47 42.7305 149.357 41.6348 149.357C40.54 149.357 39.6525 148.47 39.6514 147.375C39.6524 146.279 40.5399 145.392 41.6348 145.392Z" fill="#FF7D44" fill-opacity="0.28"/>
<path d="M48.2432 152.002C49.339 152.002 50.2266 152.889 50.2266 153.984C50.2266 155.078 49.339 155.965 48.2432 155.965C47.1484 155.965 46.2619 155.078 46.2619 153.984C46.2619 152.889 47.1484 152.002 48.2432 152.002Z" fill="#FF7D44" fill-opacity="0.28"/>
<path d="M35.0267 152.001C36.1215 152.002 37.009 152.889 37.0081 153.984C37.0081 155.078 36.1215 155.965 35.0267 155.967C33.9329 155.965 33.0424 155.078 33.0433 153.984C33.0424 152.889 33.9329 152.002 35.0267 152.001Z" fill="#FF7D44" fill-opacity="0.28"/>
<path d="M48.2423 138.785C49.338 138.785 50.2266 139.671 50.2266 140.766C50.2266 141.862 49.3381 142.748 48.2432 142.748C47.1484 142.748 46.2619 141.862 46.2619 140.766C46.2619 139.671 47.1494 138.785 48.2423 138.785Z" fill="#FF7D44" fill-opacity="0.28"/>
<path d="M35.0267 138.785C36.1205 138.785 37.009 139.671 37.009 140.766C37.0081 141.862 36.1215 142.748 35.0267 142.748C33.9329 142.748 33.0433 141.861 33.0433 140.767C33.0424 139.671 33.9329 138.786 35.0267 138.785Z" fill="#FF7D44" fill-opacity="0.28"/>
<path d="M54.8514 52.8701C55.262 52.8701 55.6436 52.9954 55.9596 53.2093C56.4887 53.564 56.8337 54.1692 56.8337 54.8534C56.8337 55.5377 56.4887 56.141 55.9606 56.4976C55.6444 56.7115 55.2629 56.8368 54.8522 56.8368C54.3049 56.8368 53.8096 56.6152 53.451 56.2548C53.0925 55.8953 52.8699 55.4008 52.8708 54.8534C52.8708 54.306 53.0925 53.8088 53.451 53.4504C53.8096 53.0918 54.304 52.8701 54.8514 52.8701Z" fill="#FF7D44" fill-opacity="0.28"/>
<path d="M54.8514 79.3049C55.262 79.3049 55.6435 79.4301 55.9596 79.6441C56.4878 80.0007 56.8347 80.603 56.8337 81.2882C56.8337 81.9725 56.4887 82.5757 55.9606 82.9323C55.6444 83.1463 55.2629 83.2715 54.8513 83.2705C54.3049 83.2715 53.8095 83.0498 53.451 82.6895C53.0925 82.3299 52.8708 81.8347 52.8708 81.2882C52.8708 80.7408 53.0925 80.2436 53.451 79.8851C53.8096 79.5266 54.304 79.3049 54.8514 79.3049Z" fill="#FF7D44" fill-opacity="0.28"/>
<path d="M68.0687 79.3049C69.1644 79.3049 70.051 80.1925 70.051 81.2882C70.051 82.383 69.1644 83.2705 68.0687 83.2705C66.9739 83.2715 66.0863 82.383 66.0872 81.2882C66.0863 80.1925 66.9748 79.3049 68.0687 79.3049Z" fill="#FF7D44" fill-opacity="0.28"/>
<path d="M54.8514 66.0886C55.2629 66.0877 55.6436 66.212 55.9596 66.4249C56.4887 66.7825 56.8337 67.3859 56.8337 68.0711C56.8337 68.7552 56.4887 69.3576 55.9606 69.7142C55.6444 69.9271 55.2629 70.0524 54.8513 70.0535C54.3049 70.0525 53.8095 69.8318 53.451 69.4733C53.0925 69.1148 52.8699 68.6175 52.8708 68.0711C52.8699 67.5227 53.0925 67.0264 53.451 66.6679C53.8096 66.3093 54.305 66.0876 54.8514 66.0886Z" fill="#FF7D44" fill-opacity="0.28"/>
<path d="M68.0687 66.0886C69.1644 66.0886 70.051 66.9752 70.051 68.071C70.051 69.1667 69.1654 70.0533 68.0687 70.0533C66.9748 70.0533 66.0863 69.1667 66.0863 68.071C66.0873 66.9752 66.9748 66.0886 68.0687 66.0886Z" fill="#FF7D44" fill-opacity="0.28"/>
<path d="M74.678 72.6978C75.7737 72.6978 76.6604 73.5843 76.6614 74.6791C76.6614 75.7739 75.7728 76.6595 74.677 76.6595C73.5832 76.6605 72.6947 75.7739 72.6947 74.6791C72.6956 73.5843 73.5832 72.6978 74.678 72.6978Z" fill="#FF7D44" fill-opacity="0.28"/>
<path d="M61.4605 72.6978C62.5563 72.6978 63.4429 73.5843 63.4419 74.6791C63.4419 75.7739 62.5553 76.6595 61.4615 76.6595C60.3657 76.6605 59.4772 75.7739 59.4772 74.6791C59.4782 73.5843 60.3658 72.6978 61.4605 72.6978Z" fill="#FF7D44" fill-opacity="0.28"/>
<path d="M61.4615 59.4802C62.5563 59.4793 63.4429 60.3678 63.4429 61.4626C63.4419 62.5554 62.5553 63.444 61.4615 63.444C60.3667 63.444 59.4772 62.5554 59.4781 61.4626C59.4781 60.3678 60.3657 59.4793 61.4615 59.4802Z" fill="#FF7D44" fill-opacity="0.28"/>
<path d="M54.8514 105.74C55.262 105.74 55.6445 105.864 55.9596 106.079C56.4878 106.436 56.8347 107.039 56.8347 107.723C56.8338 108.408 56.4887 109.011 55.9607 109.367C55.6445 109.581 55.2629 109.707 54.8514 109.706C54.305 109.707 53.8096 109.485 53.4511 109.126C53.0926 108.766 52.8709 108.27 52.87 107.723C52.8709 107.176 53.0926 106.681 53.4511 106.32C53.8096 105.962 54.305 105.739 54.8514 105.74Z" fill="#FF7D44" fill-opacity="0.28"/>
<path d="M68.0687 105.74C69.1654 105.74 70.051 106.628 70.051 107.723C70.051 108.818 69.1654 109.706 68.0687 109.706C66.9739 109.707 66.0872 108.818 66.0863 107.723C66.0873 106.628 66.9748 105.74 68.0687 105.74Z" fill="#FF7D44" fill-opacity="0.28"/>
<path d="M54.8523 92.5234C55.2629 92.5234 55.6445 92.6468 55.9596 92.8607C56.4878 93.2164 56.8337 93.8207 56.8337 94.5058C56.8337 95.1901 56.4878 95.7943 55.9606 96.1489C55.6444 96.3628 55.2629 96.4872 54.8513 96.4882C54.3049 96.4872 53.8095 96.2666 53.451 95.9081C53.0925 95.5496 52.8708 95.0523 52.8699 94.5049C52.8708 93.9566 53.0925 93.4612 53.451 93.1027C53.8096 92.744 54.3051 92.5224 54.8523 92.5234Z" fill="#FF7D44" fill-opacity="0.28"/>
<path d="M68.0687 92.5234C69.1654 92.5234 70.051 93.41 70.051 94.5058C70.051 95.6015 69.1654 96.4881 68.0687 96.4881C66.9739 96.4872 66.0872 95.6015 66.0863 94.5058C66.0873 93.41 66.9739 92.5234 68.0687 92.5234Z" fill="#FF7D44" fill-opacity="0.28"/>
<path d="M74.678 99.1326C75.7737 99.1326 76.6614 100.019 76.6614 101.114C76.6614 102.209 75.7728 103.095 74.677 103.095C73.5832 103.095 72.6947 102.209 72.6947 101.114C72.6946 100.019 73.5832 99.1326 74.678 99.1326Z" fill="#FF7D44" fill-opacity="0.28"/>
<path d="M61.4605 99.1326C62.5563 99.1326 63.4419 100.019 63.4419 101.114C63.4419 102.209 62.5553 103.095 61.4615 103.095C60.3657 103.095 59.4772 102.209 59.4772 101.114C59.4773 100.019 60.3658 99.1326 61.4605 99.1326Z" fill="#FF7D44" fill-opacity="0.28"/>
<path d="M74.678 85.9141C75.7736 85.9141 76.6614 86.8018 76.6604 87.8974C76.6614 88.9902 75.7728 89.8788 74.677 89.8788C73.5832 89.8779 72.6947 88.9902 72.6956 87.8974C72.6946 86.8017 73.5832 85.9141 74.678 85.9141Z" fill="#FF7D44" fill-opacity="0.28"/>
<path d="M61.4603 85.9141C62.556 85.9141 63.4417 86.8018 63.4426 87.8974C63.4417 88.9902 62.5551 89.8788 61.4612 89.8788C60.3655 89.8779 59.477 88.9902 59.4779 87.8974C59.4771 86.8017 60.3656 85.9141 61.4603 85.9141Z" fill="#FF7D44" fill-opacity="0.28"/>
<path d="M54.8523 132.175C55.263 132.175 55.6445 132.299 55.9596 132.514C56.4878 132.87 56.8347 133.473 56.8347 134.157C56.8347 134.841 56.4878 135.446 55.9596 135.802C55.6436 136.016 55.263 136.141 54.8514 136.14C54.305 136.141 53.8096 135.92 53.4511 135.561C53.0926 135.202 52.8709 134.704 52.87 134.157C52.8709 133.611 53.0926 133.114 53.4511 132.757C53.8096 132.396 54.3051 132.175 54.8523 132.175Z" fill="#FF7D44" fill-opacity="0.28"/>
<path d="M68.0697 132.175C69.1654 132.175 70.051 133.062 70.052 134.157C70.051 135.253 69.1645 136.14 68.0687 136.14C66.9739 136.141 66.0864 135.253 66.0864 134.158C66.0864 133.062 66.9739 132.175 68.0697 132.175Z" fill="#FF7D44" fill-opacity="0.28"/>
<path d="M54.8523 118.958C55.263 118.958 55.6445 119.081 55.9596 119.296C56.4878 119.651 56.8347 120.255 56.8347 120.939C56.8338 121.625 56.4878 122.229 55.9607 122.584C55.6445 122.797 55.263 122.923 54.8514 122.923C54.305 122.923 53.8096 122.701 53.4511 122.343C53.0926 121.984 52.8709 121.489 52.87 120.939C52.8709 120.392 53.0926 119.896 53.4511 119.537C53.8096 119.179 54.3051 118.958 54.8523 118.958Z" fill="#FF7D44" fill-opacity="0.28"/>
<path d="M68.0697 118.958C69.1654 118.958 70.052 119.845 70.052 120.939C70.052 122.036 69.1645 122.923 68.0687 122.923C66.9739 122.923 66.0864 122.036 66.0872 120.94C66.0864 119.845 66.9739 118.958 68.0697 118.958Z" fill="#FF7D44" fill-opacity="0.28"/>
<path d="M74.678 125.567C75.7737 125.567 76.6614 126.454 76.6614 127.549C76.6614 128.643 75.7728 129.531 74.677 129.531C73.5832 129.53 72.6947 128.643 72.6947 127.549C72.6946 126.454 73.5832 125.567 74.678 125.567Z" fill="#FF7D44" fill-opacity="0.28"/>
<path d="M61.4615 125.566C62.5563 125.567 63.4419 126.454 63.4429 127.548C63.4419 128.643 62.5553 129.531 61.4615 129.531C60.3657 129.53 59.4772 128.643 59.4772 127.549C59.4772 126.454 60.3657 125.567 61.4615 125.566Z" fill="#FF7D44" fill-opacity="0.28"/>
<path d="M74.678 112.349C75.7736 112.349 76.6614 113.237 76.6604 114.332C76.6614 115.425 75.7728 116.314 74.677 116.314C73.5832 116.313 72.6947 115.425 72.6956 114.332C72.6946 113.237 73.5832 112.349 74.678 112.349Z" fill="#FF7D44" fill-opacity="0.28"/>
<path d="M61.4615 112.349C62.5563 112.349 63.4419 113.237 63.4429 114.332C63.4419 115.425 62.5553 116.314 61.4615 116.314C60.3657 116.313 59.4772 115.425 59.4781 114.332C59.4772 113.237 60.3657 112.349 61.4615 112.349Z" fill="#FF7D44" fill-opacity="0.28"/>
<path d="M54.8523 158.609C55.263 158.609 55.6445 158.735 55.9607 158.949C56.4878 159.305 56.8347 159.908 56.8347 160.593C56.8347 161.277 56.4878 161.882 55.9607 162.237C55.6445 162.451 55.263 162.576 54.8514 162.576C54.305 162.576 53.8096 162.354 53.4511 161.996C53.0926 161.637 52.8709 161.14 52.87 160.593C52.8709 160.045 53.0926 159.55 53.4511 159.192C53.8096 158.831 54.3051 158.609 54.8523 158.609Z" fill="#FF7D44" fill-opacity="0.28"/>
<path d="M68.0697 158.609C69.1654 158.609 70.052 159.498 70.052 160.593C70.052 161.689 69.1654 162.576 68.0697 162.576C66.9739 162.576 66.0873 161.687 66.0873 160.593C66.0864 159.498 66.9739 158.609 68.0697 158.609Z" fill="#FF7D44" fill-opacity="0.28"/>
<path d="M54.8522 145.392C55.2629 145.392 55.6444 145.517 55.9606 145.73C56.4877 146.088 56.8346 146.69 56.8337 147.375C56.8337 148.06 56.4878 148.663 55.9596 149.019C55.6445 149.233 55.2629 149.357 54.8523 149.357C54.305 149.357 53.8096 149.136 53.4511 148.778C53.0926 148.419 52.8709 147.924 52.8709 147.375C52.8709 146.828 53.0926 146.331 53.4511 145.972C53.8096 145.614 54.305 145.392 54.8522 145.392Z" fill="#FF7D44" fill-opacity="0.28"/>
<path d="M68.0696 145.392C69.1654 145.392 70.052 146.279 70.051 147.375C70.052 148.47 69.1654 149.358 68.0687 149.358C66.9739 149.357 66.0872 148.471 66.0863 147.375C66.0873 146.28 66.9739 145.392 68.0696 145.392Z" fill="#FF7D44" fill-opacity="0.28"/>
<path d="M74.678 152.001C75.7737 152.001 76.6604 152.889 76.6614 153.984C76.6604 155.078 75.7728 155.967 74.677 155.967C73.5842 155.967 72.6947 155.078 72.6956 153.984C72.6946 152.889 73.5841 152.002 74.678 152.001Z" fill="#FF7D44" fill-opacity="0.28"/>
<path d="M61.4615 152.001C62.5563 152.002 63.4419 152.889 63.4429 153.984C63.4419 155.078 62.5553 155.967 61.4615 155.967C60.3657 155.965 59.4772 155.078 59.4772 153.984C59.4772 152.889 60.3657 152.002 61.4615 152.001Z" fill="#FF7D44" fill-opacity="0.28"/>
<path d="M74.6768 138.785C75.7725 138.785 76.6611 139.671 76.6611 140.766C76.6611 141.862 75.7725 142.748 74.6768 142.748C73.5829 142.748 72.6944 141.862 72.6954 140.767C72.6944 139.671 73.584 138.785 74.6768 138.785Z" fill="#FF7D44" fill-opacity="0.28"/>
<path d="M61.4615 138.785C62.5553 138.785 63.4419 139.671 63.4429 140.767C63.4429 141.861 62.5553 142.748 61.4615 142.748C60.3657 142.748 59.4772 141.862 59.4781 140.767C59.4772 139.671 60.3667 138.785 61.4615 138.785Z" fill="#FF7D44" fill-opacity="0.28"/>
<path d="M81.2872 79.3049C81.6967 79.3049 82.0783 79.4301 82.3944 79.6441C82.9226 79.9998 83.2686 80.6039 83.2686 81.2882C83.2686 81.9725 82.9226 82.5757 82.3954 82.9323C82.0793 83.1463 81.6977 83.2715 81.2862 83.2705C80.7398 83.2715 80.2445 83.0498 79.8859 82.6895C79.5275 82.3299 79.3038 81.8347 79.3038 81.2882C79.3048 80.7408 79.5274 80.2436 79.8859 79.8851C80.2444 79.5266 80.7388 79.3049 81.2872 79.3049Z" fill="#FF7D44" fill-opacity="0.28"/>
<path d="M81.2872 105.74C81.6967 105.74 82.0783 105.865 82.3944 106.079C82.9226 106.435 83.2694 107.039 83.2686 107.723C83.2686 108.408 82.9226 109.011 82.3954 109.367C82.0793 109.581 81.6977 109.707 81.2872 109.706C80.7397 109.707 80.2444 109.485 79.8859 109.126C79.5275 108.766 79.3038 108.27 79.3038 107.723C79.3038 107.176 79.5274 106.681 79.8859 106.32C80.2444 105.962 80.7388 105.74 81.2872 105.74Z" fill="#FF7D44" fill-opacity="0.28"/>
<path d="M94.5026 105.74C95.5982 105.74 96.4868 106.628 96.4868 107.723C96.4868 108.818 95.5992 109.707 94.5034 109.707C93.4087 109.707 92.5201 108.818 92.5211 107.723C92.521 106.629 93.4096 105.74 94.5026 105.74Z" fill="#FF7D44" fill-opacity="0.28"/>
<path d="M81.2872 92.5234C81.6977 92.5234 82.0783 92.6468 82.3944 92.8607C82.9226 93.2173 83.2686 93.8207 83.2686 94.5058C83.2686 95.1901 82.9226 95.7943 82.3954 96.1489C82.0793 96.3628 81.6977 96.4872 81.2872 96.4882C80.7398 96.4872 80.2444 96.2666 79.8859 95.9081C79.5275 95.5495 79.3038 95.0523 79.3048 94.5059C79.3048 93.9566 79.5275 93.4612 79.8859 93.1026C80.2444 92.744 80.7398 92.5234 81.2872 92.5234Z" fill="#FF7D44" fill-opacity="0.28"/>
<path d="M94.5034 92.5225C95.5992 92.5234 96.4868 93.41 96.4868 94.5059C96.4868 95.6016 95.5992 96.4872 94.5034 96.4872C93.4087 96.4872 92.5211 95.6016 92.5211 94.5049C92.521 93.4092 93.4087 92.5225 94.5034 92.5225Z" fill="#FF7D44" fill-opacity="0.28"/>
<path d="M101.113 99.1326C102.208 99.1326 103.096 100.019 103.096 101.114C103.096 102.209 102.208 103.095 101.112 103.095C100.018 103.095 99.1285 102.209 99.1294 101.113C99.1294 100.02 100.017 99.1326 101.113 99.1326Z" fill="#FF7D44" fill-opacity="0.28"/>
<path d="M87.8952 99.1326C88.991 99.1326 89.8767 100.019 89.8767 101.114C89.8767 102.209 88.99 103.095 87.8943 103.095C86.8004 103.095 85.9119 102.209 85.9119 101.114C85.912 100.019 86.8005 99.1326 87.8952 99.1326Z" fill="#FF7D44" fill-opacity="0.28"/>
<path d="M87.8953 85.9141C88.9911 85.9141 89.8768 86.8018 89.8777 87.8974C89.8768 88.9902 88.9901 89.8788 87.8944 89.8788C86.8005 89.8779 85.912 88.9902 85.913 87.8974C85.9121 86.8017 86.8006 85.9141 87.8953 85.9141Z" fill="#FF7D44" fill-opacity="0.28"/>
<path d="M81.2873 132.175C81.6978 132.175 82.0794 132.299 82.3945 132.514C82.9227 132.869 83.2695 133.473 83.2695 134.157C83.2686 134.842 82.9227 135.446 82.3945 135.802C82.0784 136.016 81.6978 136.141 81.2873 136.14C80.7398 136.141 80.2445 135.92 79.8851 135.56C79.5276 135.202 79.304 134.704 79.3049 134.158C79.304 133.61 79.5275 133.114 79.886 132.756C80.2445 132.396 80.7398 132.175 81.2873 132.175Z" fill="#FF7D44" fill-opacity="0.28"/>
<path d="M94.5034 132.176C95.5992 132.176 96.4868 133.062 96.4878 134.158C96.4858 135.252 95.5992 136.141 94.5034 136.141C93.4087 136.141 92.5201 135.252 92.5211 134.158C92.5201 133.062 93.4087 132.175 94.5034 132.176Z" fill="#FF7D44" fill-opacity="0.28"/>
<path d="M81.2872 118.958C81.6977 118.958 82.0793 119.081 82.3944 119.296C82.9226 119.652 83.2694 120.255 83.2686 120.94C83.2686 121.625 82.9226 122.227 82.3954 122.584C82.0793 122.797 81.6977 122.923 81.2872 122.923C80.7397 122.923 80.2444 122.701 79.8859 122.343C79.5275 121.984 79.3038 121.489 79.3038 120.94C79.3048 120.392 79.5274 119.896 79.8859 119.537C80.2444 119.179 80.7397 118.958 81.2872 118.958Z" fill="#FF7D44" fill-opacity="0.28"/>
<path d="M94.5034 118.958C95.5992 118.958 96.4868 119.845 96.4868 120.94C96.4868 122.036 95.5992 122.923 94.5034 122.923C93.4087 122.923 92.5211 122.036 92.5211 120.939C92.521 119.845 93.4087 118.958 94.5034 118.958Z" fill="#FF7D44" fill-opacity="0.28"/>
<path d="M101.113 125.566C102.208 125.567 103.095 126.454 103.096 127.549C103.095 128.643 102.208 129.53 101.112 129.53C100.018 129.531 99.1285 128.644 99.1285 127.548C99.1285 126.455 100.017 125.566 101.113 125.566Z" fill="#FF7D44" fill-opacity="0.28"/>
<path d="M87.8952 125.567C88.991 125.567 89.8767 126.454 89.8767 127.549C89.8767 128.643 88.99 129.531 87.8943 129.531C86.8004 129.53 85.9119 128.643 85.9119 127.549C85.912 126.454 86.8005 125.567 87.8952 125.567Z" fill="#FF7D44" fill-opacity="0.28"/>
<path d="M101.113 112.349C102.208 112.349 103.096 113.237 103.095 114.332C103.096 115.425 102.208 116.313 101.112 116.314C100.018 116.314 99.1286 115.425 99.1295 114.332C99.1295 113.238 100.017 112.349 101.113 112.349Z" fill="#FF7D44" fill-opacity="0.28"/>
<path d="M87.8953 112.349C88.9911 112.349 89.8768 113.237 89.8777 114.332C89.8768 115.425 88.9901 116.314 87.8944 116.314C86.8005 116.313 85.912 115.425 85.913 114.332C85.9121 113.237 86.8006 112.349 87.8953 112.349Z" fill="#FF7D44" fill-opacity="0.28"/>
<path d="M81.2872 158.609C81.6977 158.611 82.0793 158.735 82.3954 158.949C82.9226 159.305 83.2705 159.908 83.2705 160.593C83.2705 161.277 82.9226 161.88 82.3954 162.237C82.0793 162.451 81.6977 162.576 81.2872 162.576C80.7388 162.576 80.2434 162.354 79.8859 161.996C79.5275 161.637 79.3048 161.14 79.3038 160.593C79.3038 160.045 79.5265 159.55 79.8849 159.192C80.2444 158.833 80.7388 158.609 81.2872 158.609Z" fill="#FF7D44" fill-opacity="0.28"/>
<path d="M94.5034 158.612C95.5992 158.612 96.4868 159.498 96.4878 160.593C96.4878 161.69 95.5992 162.576 94.5034 162.576C93.4087 162.576 92.5211 161.69 92.5211 160.593C92.5201 159.498 93.4087 158.61 94.5034 158.612Z" fill="#FF7D44" fill-opacity="0.28"/>
<path d="M81.2873 145.392C81.6978 145.393 82.0794 145.518 82.3955 145.731C82.9227 146.087 83.2706 146.691 83.2695 147.375C83.2695 148.06 82.9227 148.663 82.3945 149.019C82.0794 149.233 81.6978 149.357 81.2873 149.358C80.7398 149.358 80.2445 149.136 79.886 148.778C79.5275 148.419 79.3039 147.923 79.3039 147.375C79.3039 146.827 79.5275 146.331 79.886 145.972C80.2445 145.615 80.7389 145.392 81.2873 145.392Z" fill="#FF7D44" fill-opacity="0.28"/>
<path d="M94.5034 145.393C95.5992 145.393 96.4878 146.28 96.4868 147.375C96.4878 148.471 95.5982 149.357 94.5034 149.357C93.4096 149.358 92.5211 148.471 92.5201 147.375C92.521 146.28 93.4087 145.392 94.5034 145.393Z" fill="#FF7D44" fill-opacity="0.28"/>
<path d="M101.113 152.001C102.208 152.002 103.095 152.889 103.096 153.984C103.095 155.078 102.208 155.967 101.112 155.967C100.018 155.967 99.1285 155.078 99.1285 153.984C99.1285 152.89 100.017 152.001 101.113 152.001Z" fill="#FF7D44" fill-opacity="0.28"/>
<path d="M87.8953 152.001C88.9911 152.001 89.8777 152.89 89.8777 153.984C89.8777 155.078 88.9901 155.967 87.8944 155.967C86.8014 155.967 85.912 155.078 85.913 153.984C85.9121 152.889 86.8015 152.002 87.8953 152.001Z" fill="#FF7D44" fill-opacity="0.28"/>
<path d="M101.112 138.785C102.207 138.786 103.095 139.671 103.095 140.767C103.096 141.862 102.208 142.748 101.112 142.748C100.018 142.748 99.1286 141.861 99.1295 140.767C99.1286 139.672 100.018 138.786 101.112 138.785Z" fill="#FF7D44" fill-opacity="0.28"/>
<path d="M87.8944 138.785C88.9901 138.785 89.8777 139.672 89.8777 140.767C89.8777 141.861 88.9901 142.748 87.8944 142.748C86.8014 142.748 85.913 141.862 85.913 140.766C85.912 139.671 86.8014 138.785 87.8944 138.785Z" fill="#FF7D44" fill-opacity="0.28"/>
<path d="M107.72 105.74C108.132 105.74 108.513 105.864 108.829 106.079C109.357 106.435 109.703 107.039 109.703 107.723C109.703 108.407 109.357 109.011 108.83 109.367C108.513 109.581 108.132 109.707 107.721 109.707C107.175 109.707 106.679 109.485 106.321 109.126C105.96 108.766 105.739 108.271 105.739 107.723C105.738 107.176 105.96 106.681 106.321 106.32C106.679 105.962 107.174 105.74 107.72 105.74Z" fill="#FF7D44" fill-opacity="0.28"/>
<path d="M107.721 132.176C108.132 132.176 108.513 132.299 108.83 132.514C109.357 132.87 109.703 133.473 109.703 134.157C109.703 134.841 109.356 135.447 108.829 135.802C108.513 136.017 108.132 136.141 107.721 136.141C107.174 136.141 106.678 135.92 106.32 135.561C105.96 135.201 105.738 134.705 105.739 134.158C105.739 133.611 105.961 133.115 106.32 132.756C106.679 132.397 107.174 132.175 107.721 132.176Z" fill="#FF7D44" fill-opacity="0.28"/>
<path d="M120.938 132.176C122.034 132.176 122.922 133.062 122.922 134.158C122.921 135.252 122.034 136.141 120.938 136.141C119.844 136.141 118.955 135.252 118.956 134.158C118.956 133.062 119.843 132.176 120.938 132.176Z" fill="#FF7D44" fill-opacity="0.28"/>
<path d="M107.721 118.958C108.132 118.958 108.513 119.081 108.83 119.296C109.357 119.652 109.703 120.255 109.703 120.939C109.703 121.626 109.356 122.229 108.83 122.584C108.512 122.797 108.132 122.922 107.72 122.922C107.175 122.923 106.679 122.701 106.321 122.343C105.96 121.984 105.739 121.489 105.739 120.939C105.739 120.393 105.96 119.895 106.321 119.538C106.679 119.18 107.174 118.957 107.721 118.958Z" fill="#FF7D44" fill-opacity="0.28"/>
<path d="M120.938 118.958C122.034 118.958 122.922 119.845 122.922 120.941C122.922 122.036 122.034 122.922 120.938 122.922C119.844 122.923 118.956 122.036 118.956 120.939C118.956 119.845 119.843 118.958 120.938 118.958Z" fill="#FF7D44" fill-opacity="0.28"/>
<path d="M127.548 125.566C128.642 125.567 129.53 126.455 129.529 127.548C129.53 128.644 128.642 129.53 127.547 129.53C126.453 129.531 125.563 128.644 125.563 127.548C125.563 126.455 126.452 125.566 127.548 125.566Z" fill="#FF7D44" fill-opacity="0.28"/>
<path d="M114.329 125.567C115.425 125.567 116.312 126.455 116.312 127.548C116.312 128.644 115.425 129.53 114.329 129.53C113.236 129.53 112.347 128.643 112.348 127.549C112.347 126.454 113.236 125.567 114.329 125.567Z" fill="#FF7D44" fill-opacity="0.28"/>
<path d="M114.329 112.35C115.425 112.35 116.312 113.237 116.312 114.332C116.312 115.425 115.425 116.314 114.329 116.314C113.236 116.314 112.347 115.425 112.348 114.331C112.347 113.237 113.236 112.35 114.329 112.35Z" fill="#FF7D44" fill-opacity="0.28"/>
<path d="M107.721 158.612C108.132 158.612 108.513 158.735 108.83 158.949C109.357 159.305 109.703 159.909 109.703 160.593C109.703 161.277 109.357 161.88 108.83 162.237C108.512 162.451 108.132 162.576 107.721 162.576C107.174 162.576 106.678 162.355 106.321 161.996C105.96 161.636 105.738 161.14 105.739 160.593C105.739 160.046 105.961 159.55 106.32 159.192C106.679 158.833 107.174 158.61 107.721 158.612Z" fill="#FF7D44" fill-opacity="0.28"/>
<path d="M120.938 158.612C122.034 158.612 122.922 159.498 122.921 160.591C122.921 161.688 122.033 162.576 120.937 162.576C119.844 162.576 118.956 161.69 118.956 160.593C118.956 159.498 119.844 158.61 120.938 158.612Z" fill="#FF7D44" fill-opacity="0.28"/>
<path d="M107.721 145.393C108.132 145.393 108.512 145.517 108.83 145.731C109.357 146.087 109.702 146.69 109.703 147.376C109.703 148.061 109.357 148.663 108.829 149.02C108.512 149.233 108.132 149.357 107.72 149.357C107.175 149.358 106.679 149.136 106.321 148.778C105.96 148.418 105.739 147.924 105.739 147.375C105.739 146.828 105.96 146.331 106.321 145.972C106.679 145.615 107.174 145.392 107.721 145.393Z" fill="#FF7D44" fill-opacity="0.28"/>
<path d="M120.938 145.393C122.034 145.393 122.922 146.28 122.922 147.375C122.923 148.471 122.034 149.357 120.938 149.357C119.844 149.358 118.956 148.471 118.956 147.375C118.956 146.28 119.844 145.392 120.938 145.393Z" fill="#FF7D44" fill-opacity="0.28"/>
<path d="M127.548 152.001C128.642 152.002 129.53 152.89 129.529 153.984C129.53 155.078 128.642 155.967 127.547 155.967C126.452 155.965 125.563 155.078 125.563 153.984C125.563 152.89 126.452 152.001 127.548 152.001Z" fill="#FF7D44" fill-opacity="0.28"/>
<path d="M114.329 152.002C115.425 152.002 116.312 152.89 116.312 153.984C116.312 155.078 115.425 155.967 114.329 155.967C113.236 155.967 112.347 155.078 112.348 153.984C112.347 152.889 113.236 152.002 114.329 152.002Z" fill="#FF7D44" fill-opacity="0.28"/>
<path d="M127.547 138.785C128.641 138.786 129.53 139.672 129.53 140.767C129.529 141.862 128.642 142.748 127.547 142.748C126.453 142.748 125.563 141.861 125.564 140.767C125.563 139.672 126.453 138.786 127.547 138.785Z" fill="#FF7D44" fill-opacity="0.28"/>
<path d="M114.328 138.786C115.424 138.786 116.312 139.672 116.312 140.767C116.312 141.861 115.425 142.748 114.329 142.748C113.236 142.748 112.348 141.862 112.348 140.766C112.347 139.671 113.235 138.786 114.328 138.786Z" fill="#FF7D44" fill-opacity="0.28"/>
<path d="M134.156 132.176C135.252 132.176 136.138 133.063 136.138 134.157C136.138 135.253 135.251 136.141 134.156 136.141C133.198 136.141 132.398 135.46 132.213 134.557C132.187 134.428 132.173 134.295 132.173 134.158C132.173 134.02 132.187 133.888 132.213 133.758C132.398 132.854 133.199 132.176 134.156 132.176Z" fill="#FF7D44" fill-opacity="0.28"/>
<path d="M134.156 158.612C135.252 158.612 136.137 159.498 136.138 160.593C136.138 161.688 135.251 162.576 134.155 162.576C133.198 162.576 132.398 161.896 132.213 160.992C132.187 160.865 132.173 160.73 132.173 160.593C132.172 160.456 132.187 160.323 132.213 160.194C132.398 159.29 133.2 158.612 134.156 158.612Z" fill="#FF7D44" fill-opacity="0.28"/>
<path d="M147.373 158.612C148.467 158.61 149.355 159.498 149.356 160.593C149.356 161.688 148.467 162.576 147.372 162.576C146.279 162.576 145.389 161.688 145.389 160.593C145.39 159.498 146.278 158.612 147.373 158.612Z" fill="#FF7D44" fill-opacity="0.28"/>
<path d="M134.156 145.393C135.252 145.393 136.138 146.279 136.137 147.375C136.138 148.47 135.252 149.357 134.156 149.357C133.199 149.357 132.399 148.679 132.213 147.774C132.187 147.645 132.172 147.513 132.173 147.376C132.173 147.238 132.186 147.104 132.214 146.976C132.398 146.071 133.199 145.393 134.156 145.393Z" fill="#FF7D44" fill-opacity="0.28"/>
<path d="M147.373 145.393C148.467 145.392 149.356 146.279 149.355 147.375C149.356 148.47 148.468 149.358 147.373 149.357C146.278 149.357 145.389 148.47 145.39 147.376C145.389 146.279 146.278 145.393 147.373 145.393Z" fill="#FF7D44" fill-opacity="0.28"/>
<path d="M153.982 152.001C155.077 152.002 155.965 152.89 155.964 153.984C155.965 155.078 155.077 155.967 153.982 155.967C152.887 155.965 151.999 155.078 151.998 153.984C151.999 152.89 152.887 152.001 153.982 152.001Z" fill="#FF7D44" fill-opacity="0.28"/>
<path d="M140.764 152.002C141.86 152.002 142.747 152.89 142.746 153.984C142.747 155.078 141.86 155.967 140.764 155.967C139.671 155.967 138.781 155.078 138.781 153.984C138.781 152.89 139.671 152.002 140.764 152.002Z" fill="#FF7D44" fill-opacity="0.28"/>
<path d="M140.763 138.786C141.859 138.786 142.747 139.672 142.746 140.766C142.746 141.862 141.86 142.748 140.764 142.748C139.671 142.748 138.781 141.861 138.782 140.767C138.781 139.672 139.67 138.786 140.763 138.786Z" fill="#FF7D44" fill-opacity="0.28"/>
<path d="M160.589 158.609C161 158.611 161.381 158.735 161.698 158.949C162.225 159.305 162.573 159.908 162.573 160.593C162.573 161.277 162.226 161.882 161.699 162.237C161.382 162.451 161 162.576 160.589 162.576C159.496 162.576 158.608 161.689 158.608 160.593C158.608 159.498 159.496 158.609 160.589 158.609Z" fill="#FF7D44" fill-opacity="0.28"/>
</svg>
