<svg width="243" height="117" viewBox="0 0 243 117" fill="none" xmlns="http://www.w3.org/2000/svg">
<path d="M0.0161301 115.821C-0.0826656 116.364 0.277738 116.885 0.821115 116.984C1.36449 117.083 1.88507 116.722 1.98387 116.179L0.0161301 115.821ZM48.4729 62.1516L48.8127 63.0921L48.8476 63.0795L48.8814 63.0643L48.4729 62.1516ZM103 67L102.124 67.4832L103 67ZM100.474 99L99.6161 98.4854L100.474 99ZM80.0536 100.415L79.4303 101.197L80.0536 100.415ZM71.373 54.0684L72.2147 54.6083L71.373 54.0684ZM147.266 18.4356L147.469 19.4148L147.266 18.4356ZM243 6L232.968 0.282136L233.032 11.829L243 6ZM2.46405 113.492C2.56002 112.948 2.19692 112.429 1.65304 112.333C1.10916 112.237 0.590452 112.6 0.494481 113.144L2.46405 113.492ZM1.45303 107.777C1.35193 108.32 1.71012 108.843 2.25307 108.944C2.79602 109.045 3.31813 108.687 3.41923 108.144L1.45303 107.777ZM4.51589 102.867C4.64396 102.329 4.31227 101.79 3.77503 101.662C3.2378 101.534 2.69847 101.866 2.5704 102.403L4.51589 102.867ZM4.1118 97.0785C3.92812 97.5993 4.20145 98.1705 4.7223 98.3541C5.24315 98.5378 5.81428 98.2645 5.99795 97.7436L4.1118 97.0785ZM8.11711 92.9051C8.37814 92.4184 8.19518 91.8122 7.70847 91.5512C7.22176 91.2902 6.6156 91.4732 6.35458 91.9599L8.11711 92.9051ZM9.39729 87.2613C9.06094 87.6994 9.14338 88.3271 9.58143 88.6635C10.0195 88.9998 10.6473 88.9174 10.9836 88.4793L9.39729 87.2613ZM14.5027 84.5102C14.8949 84.1214 14.8976 83.4882 14.5087 83.096C14.1198 82.7039 13.4867 82.7012 13.0945 83.0901L14.5027 84.5102ZM17.2182 79.4051C16.7897 79.7536 16.7249 80.3835 17.0734 80.8119C17.4219 81.2404 18.0518 81.3052 18.4802 80.9567L17.2182 79.4051ZM22.7979 77.6801C23.2457 77.3568 23.3467 76.7318 23.0234 76.284C22.7002 75.8362 22.0751 75.7352 21.6273 76.0585L22.7979 77.6801ZM26.1703 72.9127C25.7102 73.2182 25.5847 73.8388 25.8902 74.2989C26.1956 74.7591 26.8162 74.8845 27.2763 74.5791L26.1703 72.9127ZM31.8749 71.6563C32.3468 71.3694 32.4968 70.7542 32.2099 70.2823C31.923 69.8104 31.3078 69.6604 30.8359 69.9473L31.8749 71.6563ZM35.6173 67.1719C35.134 67.4392 34.959 68.0477 35.2263 68.531C35.4937 69.0142 36.1021 69.1893 36.5854 68.922L35.6173 67.1719ZM41.4013 66.3927C41.8959 66.147 42.0977 65.5469 41.852 65.0522C41.6063 64.5576 41.0061 64.3559 40.5115 64.6016L41.4013 66.3927ZM45.5428 62.2614C45.0355 62.4798 44.8014 63.0681 45.0198 63.5753C45.2382 64.0826 45.8264 64.3168 46.3337 64.0984L45.5428 62.2614ZM51.1879 62.1116C51.7042 61.9154 51.9637 61.3379 51.7675 60.8216C51.5714 60.3053 50.9938 60.0458 50.4776 60.242L51.1879 62.1116ZM55.4401 58.6585C54.9059 58.7988 54.5866 59.3456 54.727 59.8798C54.8673 60.4139 55.4141 60.7332 55.9482 60.5929L55.4401 58.6585ZM60.8508 59.5482C61.3956 59.457 61.7633 58.9416 61.6721 58.3969C61.581 57.8522 61.0656 57.4845 60.5209 57.5756L60.8508 59.5482ZM65.6576 56.9185C65.1076 56.969 64.7028 57.4558 64.7533 58.0058C64.8038 58.5557 65.2907 58.9606 65.8406 58.9101L65.6576 56.9185ZM70.8796 58.5954C71.4315 58.5753 71.8626 58.1116 71.8425 57.5596C71.8224 57.0077 71.3586 56.5766 70.8067 56.5968L70.8796 58.5954ZM75.9437 56.5034C75.3915 56.5058 74.9457 56.9554 74.9481 57.5077C74.9504 58.06 75.4001 58.5058 75.9523 58.5034L75.9437 56.5034ZM81.8749 58.5929C82.4263 58.6237 82.8984 58.2017 82.9292 57.6503C82.96 57.0989 82.538 56.6269 81.9866 56.596L81.8749 58.5929ZM88.9398 57.4449C88.398 57.3376 87.8719 57.6898 87.7645 58.2315C87.6572 58.7733 88.0094 59.2995 88.5512 59.4068L88.9398 57.4449ZM94.8976 61.3434C95.4025 61.5672 95.9932 61.3393 96.217 60.8344C96.4408 60.3295 96.2129 59.7387 95.7079 59.515L94.8976 61.3434ZM101.682 63.5538C101.299 63.1558 100.666 63.1437 100.268 63.5266C99.8702 63.9096 99.858 64.5426 100.241 64.9406L101.682 63.5538ZM103.764 70.9971C103.96 71.5134 104.537 71.7731 105.054 71.5772C105.57 71.3812 105.83 70.8037 105.634 70.2874L103.764 70.9971ZM107.362 78.4053C107.321 77.8546 106.84 77.442 106.29 77.4837C105.739 77.5255 105.326 78.0057 105.368 78.5564L107.362 78.4053ZM105.016 86.6893C104.894 87.2279 105.232 87.7636 105.77 87.8858C106.309 88.0081 106.845 87.6705 106.967 87.132L105.016 86.6893ZM103.573 95.6202C103.836 95.1343 103.655 94.5276 103.169 94.265C102.683 94.0025 102.076 94.1836 101.814 94.6695L103.573 95.6202ZM98.0036 100.376C97.5805 100.731 97.5254 101.362 97.8804 101.785C98.2355 102.208 98.8662 102.263 99.2893 101.908L98.0036 100.376ZM93.6992 104.37C94.2431 104.275 94.6069 103.757 94.5116 103.213C94.4163 102.669 93.898 102.305 93.354 102.4L93.6992 104.37ZM88.0359 102.424C87.4892 102.346 86.9824 102.725 86.9039 103.272C86.8253 103.819 87.2048 104.326 87.7515 104.404L88.0359 102.424ZM82.0588 102.767C82.5609 102.997 83.1544 102.777 83.3845 102.275C83.6146 101.772 83.394 101.179 82.892 100.949L82.0588 102.767ZM78.3238 97.5716C77.9255 97.189 77.2925 97.2017 76.9099 97.6C76.5272 97.9983 76.5399 98.6313 76.9382 99.0139L78.3238 97.5716ZM72.5969 94.027C72.9217 94.4737 73.5471 94.5726 73.9938 94.2478C74.4405 93.9231 74.5393 93.2977 74.2146 92.851L72.5969 94.027ZM70.9771 87.4869C70.7329 86.9915 70.1334 86.7879 69.638 87.0321C69.1427 87.2762 68.939 87.8758 69.1832 88.3711L70.9771 87.4869ZM66.7763 82.219C66.9329 82.7486 67.4891 83.0511 68.0188 82.8945C68.5484 82.738 68.8508 82.1817 68.6943 81.6521L66.7763 82.219ZM67.4511 75.5176C67.3898 74.9687 66.8952 74.5734 66.3464 74.6347C65.7975 74.6959 65.4022 75.1905 65.4634 75.7394L67.4511 75.5176ZM65.3377 69.1208C65.2964 69.6715 65.7094 70.1514 66.2601 70.1928C66.8108 70.2341 67.2908 69.8211 67.3321 69.2704L65.3377 69.1208ZM68.4003 63.1252C68.5481 62.593 68.2364 62.0419 67.7043 61.8941C67.1721 61.7464 66.6209 62.0581 66.4732 62.5902L68.4003 63.1252ZM68.8784 56.4085C68.6276 56.9006 68.8232 57.5028 69.3153 57.7536C69.8074 58.0044 70.4096 57.8088 70.6603 57.3167L68.8784 56.4085ZM73.9212 52.0974C74.2438 51.6491 74.1418 51.0242 73.6935 50.7016C73.2452 50.3791 72.6203 50.481 72.2978 50.9293L73.9212 52.0974ZM76.2394 46.035C75.8701 46.4457 75.9035 47.0779 76.3141 47.4473C76.7248 47.8166 77.357 47.7831 77.7264 47.3725L76.2394 46.035ZM82.0208 43.089C82.4322 42.7204 82.4669 42.0882 82.0984 41.6769C81.7298 41.2655 81.0976 41.2308 80.6863 41.5994L82.0208 43.089ZM85.5694 37.6595C85.1226 37.9842 85.0237 38.6096 85.3484 39.0564C85.6731 39.5031 86.2984 39.6021 86.7452 39.2774L85.5694 37.6595ZM91.8275 35.9397C92.3024 35.6579 92.459 35.0444 92.1772 34.5694C91.8954 34.0945 91.2819 33.9379 90.8069 34.2197L91.8275 35.9397ZM96.3162 31.2554C95.8198 31.4975 95.6136 32.0961 95.8557 32.5926C96.0977 33.089 96.6964 33.2952 97.1928 33.0531L96.3162 31.2554ZM102.773 30.5764C103.285 30.3696 103.532 29.7868 103.326 29.2747C103.119 28.7626 102.536 28.5151 102.024 28.7219L102.773 30.5764ZM107.872 26.5623C107.348 26.739 107.067 27.3064 107.244 27.8297C107.421 28.3529 107.988 28.6339 108.511 28.4572L107.872 26.5623ZM114.364 26.6389C114.895 26.4871 115.203 25.9335 115.051 25.4025C114.899 24.8715 114.345 24.5642 113.814 24.7161L114.364 26.6389ZM119.819 23.1219C119.283 23.2543 118.956 23.7963 119.088 24.3325C119.22 24.8687 119.762 25.196 120.299 25.0636L119.819 23.1219ZM126.289 23.674C126.829 23.5559 127.17 23.0228 127.052 22.4833C126.934 21.9438 126.401 21.6021 125.862 21.7202L126.289 23.674ZM131.922 20.4519C131.381 20.561 131.03 21.0883 131.139 21.6297C131.248 22.1711 131.776 22.5216 132.317 22.4126L131.922 20.4519ZM138.373 21.219C138.915 21.1135 139.269 20.5885 139.163 20.0464C139.058 19.5043 138.533 19.1504 137.991 19.2559L138.373 21.219ZM144.047 18.0687C143.505 18.1768 143.154 18.7035 143.262 19.2451C143.37 19.7867 143.896 20.1381 144.438 20.0301L144.047 18.0687ZM150.427 18.8043C150.968 18.6931 151.317 18.1644 151.205 17.6235C151.094 17.0825 150.565 16.7341 150.025 16.8453L150.427 18.8043ZM155.951 15.6379C155.41 15.7471 155.059 16.2744 155.169 16.8158C155.278 17.3572 155.805 17.7076 156.347 17.5984L155.951 15.6379ZM162.27 16.4189C162.812 16.3124 163.165 15.7868 163.058 15.2449C162.952 14.703 162.426 14.3499 161.884 14.4564L162.27 16.4189ZM167.826 13.3084C167.283 13.4114 166.927 13.9347 167.03 14.4773C167.133 15.0199 167.656 15.3763 168.199 15.2733L167.826 13.3084ZM174.134 14.1694C174.677 14.0706 175.038 13.5499 174.939 13.0066C174.84 12.4632 174.319 12.1029 173.776 12.2017L174.134 14.1694ZM179.736 11.1442C179.192 11.2382 178.827 11.7555 178.921 12.2998C179.015 12.844 179.532 13.209 180.077 13.115L179.736 11.1442ZM186.028 12.1179C186.573 12.0295 186.944 11.5159 186.855 10.9707C186.767 10.4256 186.253 10.0553 185.708 10.1437L186.028 12.1179ZM191.692 9.20825C191.145 9.29034 190.769 9.79963 190.851 10.3458C190.933 10.8919 191.443 11.2681 191.989 11.186L191.692 9.20825ZM197.959 10.3273C198.506 10.2523 198.889 9.74788 198.814 9.20072C198.739 8.65356 198.235 8.27083 197.687 8.34587L197.959 10.3273ZM203.696 7.56457C203.147 7.63184 202.758 8.13076 202.825 8.67893C202.892 9.2271 203.391 9.61695 203.939 9.54968L203.696 7.56457ZM209.929 8.86098C210.478 8.8022 210.876 8.30937 210.817 7.76023C210.758 7.21108 210.265 6.81356 209.716 6.87234L209.929 8.86098ZM215.748 6.27707C215.198 6.32664 214.792 6.81274 214.842 7.3628C214.891 7.91285 215.378 8.31857 215.928 8.26899L215.748 6.27707ZM221.934 7.78134C222.485 7.74165 222.9 7.26292 222.86 6.71207C222.82 6.16121 222.342 5.74682 221.791 5.78651L221.934 7.78134ZM227.843 5.40819C227.291 5.43731 226.868 5.90801 226.897 6.45952C226.926 7.01104 227.397 7.43453 227.948 7.40541L227.843 5.40819ZM233.967 7.1483C234.519 7.13038 234.952 6.66837 234.934 6.11638C234.916 5.56439 234.454 5.13143 233.902 5.14935L233.967 7.1483ZM239.967 5.01685C239.414 5.02296 238.972 5.47561 238.978 6.02786C238.984 6.58011 239.437 7.02284 239.989 7.01673L239.967 5.01685ZM1.98387 116.179C2.15077 115.261 2.30987 114.366 2.46405 113.492L0.494481 113.144C0.340555 114.017 0.182137 114.908 0.0161301 115.821L1.98387 116.179ZM3.41923 108.144C3.76439 106.29 4.11705 104.54 4.51589 102.867L2.5704 102.403C2.16074 104.121 1.8012 105.908 1.45303 107.777L3.41923 108.144ZM5.99795 97.7436C6.58605 96.076 7.27621 94.4731 8.11711 92.9051L6.35458 91.9599C5.45999 93.628 4.72988 95.3258 4.1118 97.0785L5.99795 97.7436ZM10.9836 88.4793C11.9951 87.162 13.157 85.8446 14.5027 84.5102L13.0945 83.0901C11.6898 84.4829 10.4675 85.8675 9.39729 87.2613L10.9836 88.4793ZM18.4802 80.9567C19.1529 80.4095 19.8592 79.8573 20.6012 79.2991L19.3988 77.7009C18.6378 78.2735 17.9115 78.8412 17.2182 79.4051L18.4802 80.9567ZM20.6012 79.2991C21.3396 78.7436 22.0722 78.204 22.7979 77.6801L21.6273 76.0585C20.8911 76.59 20.1479 77.1373 19.3988 77.7009L20.6012 79.2991ZM27.2763 74.5791C28.8631 73.5259 30.4005 72.5527 31.8749 71.6563L30.8359 69.9473C29.3398 70.8569 27.78 71.8444 26.1703 72.9127L27.2763 74.5791ZM36.5854 68.922C38.3425 67.95 39.9589 67.1093 41.4013 66.3927L40.5115 64.6016C39.0441 65.3305 37.4016 66.1849 35.6173 67.1719L36.5854 68.922ZM46.3337 64.0984C47.1363 63.7528 47.7603 63.4997 48.1815 63.3337C48.3922 63.2508 48.5521 63.1896 48.6583 63.1495C48.7114 63.1295 48.7511 63.1147 48.7769 63.1052C48.7899 63.1004 48.7993 63.0969 48.8053 63.0948C48.8083 63.0937 48.8104 63.0929 48.8116 63.0925C48.8123 63.0922 48.8127 63.0921 48.8128 63.092C48.8129 63.092 48.813 63.092 48.8129 63.092C48.8129 63.092 48.8129 63.092 48.8129 63.092C48.8128 63.092 48.8128 63.092 48.8128 63.092C48.8127 63.0921 48.8127 63.0921 48.4729 62.1516C48.1331 61.2111 48.133 61.2111 48.133 61.2111C48.1329 61.2111 48.1329 61.2112 48.1328 61.2112C48.1327 61.2112 48.1326 61.2113 48.1325 61.2113C48.1323 61.2114 48.132 61.2115 48.1316 61.2116C48.1309 61.2119 48.13 61.2122 48.1288 61.2126C48.1265 61.2135 48.1233 61.2146 48.1192 61.2161C48.1111 61.2191 48.0994 61.2234 48.0843 61.2289C48.0541 61.2401 48.01 61.2565 47.9525 61.2782C47.8373 61.3216 47.6683 61.3863 47.4484 61.473C47.0087 61.6462 46.3654 61.9073 45.5428 62.2614L46.3337 64.0984ZM48.8814 63.0643C49.6469 62.7217 50.4161 62.4048 51.1879 62.1116L50.4776 60.242C49.671 60.5484 48.8661 60.88 48.0644 61.2388L48.8814 63.0643ZM55.9482 60.5929C57.587 60.1623 59.2253 59.8201 60.8508 59.5482L60.5209 57.5756C58.8418 57.8565 57.1436 58.211 55.4401 58.6585L55.9482 60.5929ZM65.8406 58.9101C67.556 58.7524 69.2407 58.6552 70.8796 58.5954L70.8067 56.5968C69.1391 56.6576 67.4169 56.7568 65.6576 56.9185L65.8406 58.9101ZM75.9523 58.5034C76.8234 58.4997 77.6727 58.5 78.5 58.5V56.5C77.6741 56.5 76.8201 56.4997 75.9437 56.5034L75.9523 58.5034ZM78.5 58.5C79.5054 58.5 80.6464 58.5242 81.8749 58.5929L81.9866 56.596C80.7158 56.525 79.5371 56.5 78.5 56.5V58.5ZM88.5512 59.4068C90.7288 59.8381 92.9038 60.4599 94.8976 61.3434L95.7079 59.515C93.5453 58.5565 91.2213 57.8968 88.9398 57.4449L88.5512 59.4068ZM100.241 64.9406C100.971 65.6987 101.605 66.5426 102.124 67.4832L103.876 66.5168C103.267 65.4135 102.525 64.4297 101.682 63.5538L100.241 64.9406ZM102.124 67.4832C102.79 68.689 103.329 69.8504 103.764 70.9971L105.634 70.2874C105.163 69.0464 104.583 67.7994 103.876 66.5168L102.124 67.4832ZM105.368 78.5564C105.463 79.8021 105.5 81.1058 105.5 82.5H107.5C107.5 81.0714 107.462 79.7151 107.362 78.4053L105.368 78.5564ZM105.5 82.5C105.5 83.9314 105.326 85.3235 105.016 86.6893L106.967 87.132C107.306 85.636 107.5 84.095 107.5 82.5H105.5ZM101.814 94.6695C101.125 95.9446 100.381 97.2111 99.6161 98.4854L101.331 99.5146C102.101 98.2321 102.863 96.9352 103.573 95.6202L101.814 94.6695ZM99.6161 98.4854C99.1696 99.2294 98.6249 99.8545 98.0036 100.376L99.2893 101.908C100.076 101.248 100.767 100.454 101.331 99.5146L99.6161 98.4854ZM93.354 102.4C91.6502 102.699 89.8149 102.68 88.0359 102.424L87.7515 104.404C89.6987 104.684 91.7502 104.712 93.6992 104.37L93.354 102.4ZM82.892 100.949C82.0035 100.542 81.2527 100.092 80.6769 99.633L79.4303 101.197C80.1614 101.78 81.0598 102.309 82.0588 102.767L82.892 100.949ZM80.6769 99.633C79.8619 98.9834 79.0769 98.2951 78.3238 97.5716L76.9382 99.0139C77.735 99.7793 78.5663 100.508 79.4303 101.197L80.6769 99.633ZM74.2146 92.851C72.9874 91.163 71.9031 89.3654 70.9771 87.4869L69.1832 88.3711C70.1591 90.3509 71.3022 92.2462 72.5969 94.027L74.2146 92.851ZM68.6943 81.6521C68.102 79.6483 67.6827 77.5939 67.4511 75.5176L65.4634 75.7394C65.7084 77.9353 66.1515 80.1051 66.7763 82.219L68.6943 81.6521ZM67.3321 69.2704C67.4869 67.2069 67.8383 65.1497 68.4003 63.1252L66.4732 62.5902C65.8752 64.7443 65.502 66.9309 65.3377 69.1208L67.3321 69.2704ZM70.6603 57.3167C71.1274 56.4003 71.645 55.4965 72.2147 54.6083L70.5313 53.5285C69.9259 54.4724 69.3754 55.4334 68.8784 56.4085L70.6603 57.3167ZM72.2147 54.6083C72.7672 53.747 73.3363 52.9103 73.9212 52.0974L72.2978 50.9293C71.6921 51.7711 71.103 52.6372 70.5313 53.5285L72.2147 54.6083ZM77.7264 47.3725C79.0959 45.8499 80.5298 44.4248 82.0208 43.089L80.6863 41.5994C79.1432 42.9818 77.6583 44.4576 76.2394 46.035L77.7264 47.3725ZM86.7452 39.2774C88.3887 38.0829 90.0854 36.9733 91.8275 35.9397L90.8069 34.2197C89.0147 35.283 87.266 36.4265 85.5694 37.6595L86.7452 39.2774ZM97.1928 33.0531C99.0179 32.1632 100.88 31.3406 102.773 30.5764L102.024 28.7219C100.092 29.502 98.1867 30.3434 96.3162 31.2554L97.1928 33.0531ZM108.511 28.4572C110.444 27.8047 112.397 27.2016 114.364 26.6389L113.814 24.7161C111.821 25.2863 109.837 25.8987 107.872 26.5623L108.511 28.4572ZM120.299 25.0636C122.293 24.5712 124.293 24.111 126.289 23.674L125.862 21.7202C123.851 22.1603 121.834 22.6245 119.819 23.1219L120.299 25.0636ZM132.317 22.4126C134.351 22.003 136.372 21.6085 138.373 21.219L137.991 19.2559C135.989 19.6454 133.963 20.0409 131.922 20.4519L132.317 22.4126ZM144.438 20.0301C145.457 19.8268 146.467 19.6222 147.469 19.4148L147.063 17.4564C146.068 17.6625 145.062 17.8662 144.047 18.0687L144.438 20.0301ZM147.469 19.4148C148.455 19.2105 149.441 19.007 150.427 18.8043L150.025 16.8453C149.038 17.0482 148.051 17.2519 147.063 17.4564L147.469 19.4148ZM156.347 17.5984C158.322 17.2 160.297 16.8064 162.27 16.4189L161.884 14.4564C159.907 14.8446 157.93 15.2389 155.951 15.6379L156.347 17.5984ZM168.199 15.2733C170.178 14.8976 172.156 14.5293 174.134 14.1694L173.776 12.2017C171.792 12.5625 169.809 12.9318 167.826 13.3084L168.199 15.2733ZM180.077 13.115C182.06 12.7724 184.044 12.4396 186.028 12.1179L185.708 10.1437C183.717 10.4666 181.726 10.8005 179.736 11.1442L180.077 13.115ZM191.989 11.186C193.978 10.887 195.968 10.6004 197.959 10.3273L197.687 8.34587C195.687 8.62016 193.689 8.90804 191.692 9.20825L191.989 11.186ZM203.939 9.54968C205.934 9.30484 207.931 9.07486 209.929 8.86098L209.716 6.87234C207.707 7.08736 205.7 7.31853 203.696 7.56457L203.939 9.54968ZM215.928 8.26899C217.928 8.08871 219.93 7.92575 221.934 7.78134L221.791 5.78651C219.774 5.93181 217.76 6.09575 215.748 6.27707L215.928 8.26899ZM227.948 7.40541C229.952 7.29963 231.958 7.21351 233.967 7.1483L233.902 5.14935C231.879 5.21502 229.859 5.30171 227.843 5.40819L227.948 7.40541Z" fill="#FF7D44"/>
</svg>
