<svg width="69" height="147" viewBox="0 0 69 147" fill="none" xmlns="http://www.w3.org/2000/svg">
<rect x="2.22559" y="144.677" width="2.22581" height="2.22581" transform="rotate(90 2.22559 144.677)" fill="#FF7D44"/>
<rect x="2.22559" y="133.548" width="2.22581" height="2.22581" transform="rotate(90 2.22559 133.548)" fill="#FF7D44"/>
<rect x="13.355" y="133.548" width="2.22581" height="2.22581" transform="rotate(90 13.355 133.548)" fill="#FF7D44"/>
<rect x="13.355" y="144.677" width="2.22581" height="2.22581" transform="rotate(90 13.355 144.677)" fill="#FF7D44"/>
<rect x="24.4839" y="144.677" width="2.22581" height="2.22581" transform="rotate(90 24.4839 144.677)" fill="#FF7D44"/>
<rect x="24.4839" y="133.548" width="2.22581" height="2.22581" transform="rotate(90 24.4839 133.548)" fill="#FF7D44"/>
<rect x="35.6128" y="133.548" width="2.22581" height="2.22581" transform="rotate(90 35.6128 133.548)" fill="#FF7D44"/>
<rect x="35.6128" y="144.677" width="2.22581" height="2.22581" transform="rotate(90 35.6128 144.677)" fill="#FF7D44"/>
<rect x="46.7417" y="144.677" width="2.22581" height="2.22581" transform="rotate(90 46.7417 144.677)" fill="#FF7D44"/>
<rect x="46.7417" y="133.548" width="2.22581" height="2.22581" transform="rotate(90 46.7417 133.548)" fill="#FF7D44"/>
<rect x="57.8711" y="133.548" width="2.22581" height="2.22581" transform="rotate(90 57.8711 133.548)" fill="#FF7D44"/>
<rect x="57.8711" y="144.677" width="2.22581" height="2.22581" transform="rotate(90 57.8711 144.677)" fill="#FF7D44"/>
<rect x="69" y="133.548" width="2.22581" height="2.22581" transform="rotate(90 69 133.548)" fill="#FF7D44"/>
<rect x="69" y="144.677" width="2.22581" height="2.22581" transform="rotate(90 69 144.677)" fill="#FF7D44"/>
<rect x="2.22559" y="122.419" width="2.22581" height="2.22581" transform="rotate(90 2.22559 122.419)" fill="#FF7D44"/>
<rect x="2.22559" y="111.291" width="2.22581" height="2.22581" transform="rotate(90 2.22559 111.291)" fill="#FF7D44"/>
<rect x="13.355" y="111.291" width="2.22581" height="2.22581" transform="rotate(90 13.355 111.291)" fill="#FF7D44"/>
<rect x="13.355" y="122.419" width="2.22581" height="2.22581" transform="rotate(90 13.355 122.419)" fill="#FF7D44"/>
<rect x="24.4839" y="122.419" width="2.22581" height="2.22581" transform="rotate(90 24.4839 122.419)" fill="#FF7D44"/>
<rect x="24.4839" y="111.291" width="2.22581" height="2.22581" transform="rotate(90 24.4839 111.291)" fill="#FF7D44"/>
<rect x="35.6128" y="111.291" width="2.22581" height="2.22581" transform="rotate(90 35.6128 111.291)" fill="#FF7D44"/>
<rect x="35.6128" y="122.419" width="2.22581" height="2.22581" transform="rotate(90 35.6128 122.419)" fill="#FF7D44"/>
<rect x="46.7417" y="122.419" width="2.22581" height="2.22581" transform="rotate(90 46.7417 122.419)" fill="#FF7D44"/>
<rect x="46.7417" y="111.291" width="2.22581" height="2.22581" transform="rotate(90 46.7417 111.291)" fill="#FF7D44"/>
<rect x="57.8711" y="111.291" width="2.22581" height="2.22581" transform="rotate(90 57.8711 111.291)" fill="#FF7D44"/>
<rect x="57.8711" y="122.419" width="2.22581" height="2.22581" transform="rotate(90 57.8711 122.419)" fill="#FF7D44"/>
<rect x="69" y="111.291" width="2.22581" height="2.22581" transform="rotate(90 69 111.291)" fill="#FF7D44"/>
<rect x="69" y="122.419" width="2.22581" height="2.22581" transform="rotate(90 69 122.419)" fill="#FF7D44"/>
<rect x="2.22559" y="100.161" width="2.22581" height="2.22581" transform="rotate(90 2.22559 100.161)" fill="#FF7D44"/>
<rect x="2.22559" y="89.0322" width="2.22581" height="2.22581" transform="rotate(90 2.22559 89.0322)" fill="#FF7D44"/>
<rect x="13.355" y="89.0322" width="2.22581" height="2.22581" transform="rotate(90 13.355 89.0322)" fill="#FF7D44"/>
<rect x="13.355" y="100.161" width="2.22581" height="2.22581" transform="rotate(90 13.355 100.161)" fill="#FF7D44"/>
<rect x="24.4839" y="100.161" width="2.22581" height="2.22581" transform="rotate(90 24.4839 100.161)" fill="#FF7D44"/>
<rect x="24.4839" y="89.0322" width="2.22581" height="2.22581" transform="rotate(90 24.4839 89.0322)" fill="#FF7D44"/>
<rect x="35.6128" y="89.0322" width="2.22581" height="2.22581" transform="rotate(90 35.6128 89.0322)" fill="#FF7D44"/>
<rect x="35.6128" y="100.161" width="2.22581" height="2.22581" transform="rotate(90 35.6128 100.161)" fill="#FF7D44"/>
<rect x="46.7417" y="100.161" width="2.22581" height="2.22581" transform="rotate(90 46.7417 100.161)" fill="#FF7D44"/>
<rect x="46.7417" y="89.0322" width="2.22581" height="2.22581" transform="rotate(90 46.7417 89.0322)" fill="#FF7D44"/>
<rect x="57.8711" y="89.0322" width="2.22581" height="2.22581" transform="rotate(90 57.8711 89.0322)" fill="#FF7D44"/>
<rect x="57.8711" y="100.161" width="2.22581" height="2.22581" transform="rotate(90 57.8711 100.161)" fill="#FF7D44"/>
<rect x="69" y="89.0322" width="2.22581" height="2.22581" transform="rotate(90 69 89.0322)" fill="#FF7D44"/>
<rect x="69" y="100.161" width="2.22581" height="2.22581" transform="rotate(90 69 100.161)" fill="#FF7D44"/>
<rect x="2.22559" y="77.9033" width="2.22581" height="2.22581" transform="rotate(90 2.22559 77.9033)" fill="#FF7D44"/>
<rect x="2.22559" y="66.7744" width="2.22581" height="2.22581" transform="rotate(90 2.22559 66.7744)" fill="#FF7D44"/>
<rect x="13.355" y="66.7744" width="2.22581" height="2.22581" transform="rotate(90 13.355 66.7744)" fill="#FF7D44"/>
<rect x="13.355" y="77.9033" width="2.22581" height="2.22581" transform="rotate(90 13.355 77.9033)" fill="#FF7D44"/>
<rect x="24.4839" y="77.9033" width="2.22581" height="2.22581" transform="rotate(90 24.4839 77.9033)" fill="#FF7D44"/>
<rect x="24.4839" y="66.7744" width="2.22581" height="2.22581" transform="rotate(90 24.4839 66.7744)" fill="#FF7D44"/>
<rect x="35.6128" y="66.7744" width="2.22581" height="2.22581" transform="rotate(90 35.6128 66.7744)" fill="#FF7D44"/>
<rect x="35.6128" y="77.9033" width="2.22581" height="2.22581" transform="rotate(90 35.6128 77.9033)" fill="#FF7D44"/>
<rect x="46.7417" y="77.9033" width="2.22581" height="2.22581" transform="rotate(90 46.7417 77.9033)" fill="#FF7D44"/>
<rect x="46.7417" y="66.7744" width="2.22581" height="2.22581" transform="rotate(90 46.7417 66.7744)" fill="#FF7D44"/>
<rect x="57.8711" y="66.7744" width="2.22581" height="2.22581" transform="rotate(90 57.8711 66.7744)" fill="#FF7D44"/>
<rect x="57.8711" y="77.9033" width="2.22581" height="2.22581" transform="rotate(90 57.8711 77.9033)" fill="#FF7D44"/>
<rect x="69" y="66.7744" width="2.22581" height="2.22581" transform="rotate(90 69 66.7744)" fill="#FF7D44"/>
<rect x="69" y="77.9033" width="2.22581" height="2.22581" transform="rotate(90 69 77.9033)" fill="#FF7D44"/>
<rect x="2.22559" y="55.645" width="2.22581" height="2.22581" transform="rotate(90 2.22559 55.645)" fill="#FF7D44"/>
<rect x="2.22559" y="44.5161" width="2.22581" height="2.22581" transform="rotate(90 2.22559 44.5161)" fill="#FF7D44"/>
<rect x="13.355" y="44.5161" width="2.22581" height="2.22581" transform="rotate(90 13.355 44.5161)" fill="#FF7D44"/>
<rect x="13.355" y="55.645" width="2.22581" height="2.22581" transform="rotate(90 13.355 55.645)" fill="#FF7D44"/>
<rect x="24.4839" y="55.645" width="2.22581" height="2.22581" transform="rotate(90 24.4839 55.645)" fill="#FF7D44"/>
<rect x="24.4839" y="44.5161" width="2.22581" height="2.22581" transform="rotate(90 24.4839 44.5161)" fill="#FF7D44"/>
<rect x="35.6128" y="44.5161" width="2.22581" height="2.22581" transform="rotate(90 35.6128 44.5161)" fill="#FF7D44"/>
<rect x="35.6128" y="55.645" width="2.22581" height="2.22581" transform="rotate(90 35.6128 55.645)" fill="#FF7D44"/>
<rect x="46.7417" y="55.645" width="2.22581" height="2.22581" transform="rotate(90 46.7417 55.645)" fill="#FF7D44"/>
<rect x="46.7417" y="44.5161" width="2.22581" height="2.22581" transform="rotate(90 46.7417 44.5161)" fill="#FF7D44"/>
<rect x="57.8711" y="44.5161" width="2.22581" height="2.22581" transform="rotate(90 57.8711 44.5161)" fill="#FF7D44"/>
<rect x="57.8711" y="55.645" width="2.22581" height="2.22581" transform="rotate(90 57.8711 55.645)" fill="#FF7D44"/>
<rect x="69" y="44.5161" width="2.22581" height="2.22581" transform="rotate(90 69 44.5161)" fill="#FF7D44"/>
<rect x="69" y="55.645" width="2.22581" height="2.22581" transform="rotate(90 69 55.645)" fill="#FF7D44"/>
<rect x="2.22559" y="33.3872" width="2.22581" height="2.22581" transform="rotate(90 2.22559 33.3872)" fill="#FF7D44"/>
<rect x="2.22559" y="22.2583" width="2.22581" height="2.22581" transform="rotate(90 2.22559 22.2583)" fill="#FF7D44"/>
<rect x="13.355" y="22.2583" width="2.22581" height="2.22581" transform="rotate(90 13.355 22.2583)" fill="#FF7D44"/>
<rect x="13.355" y="33.3872" width="2.22581" height="2.22581" transform="rotate(90 13.355 33.3872)" fill="#FF7D44"/>
<rect x="24.4839" y="33.3872" width="2.22581" height="2.22581" transform="rotate(90 24.4839 33.3872)" fill="#FF7D44"/>
<rect x="24.4839" y="22.2583" width="2.22581" height="2.22581" transform="rotate(90 24.4839 22.2583)" fill="#FF7D44"/>
<rect x="35.6128" y="22.2583" width="2.22581" height="2.22581" transform="rotate(90 35.6128 22.2583)" fill="#FF7D44"/>
<rect x="35.6128" y="33.3872" width="2.22581" height="2.22581" transform="rotate(90 35.6128 33.3872)" fill="#FF7D44"/>
<rect x="46.7417" y="33.3872" width="2.22581" height="2.22581" transform="rotate(90 46.7417 33.3872)" fill="#FF7D44"/>
<rect x="46.7417" y="22.2583" width="2.22581" height="2.22581" transform="rotate(90 46.7417 22.2583)" fill="#FF7D44"/>
<rect x="57.8711" y="22.2583" width="2.22581" height="2.22581" transform="rotate(90 57.8711 22.2583)" fill="#FF7D44"/>
<rect x="57.8711" y="33.3872" width="2.22581" height="2.22581" transform="rotate(90 57.8711 33.3872)" fill="#FF7D44"/>
<rect x="69" y="22.2583" width="2.22581" height="2.22581" transform="rotate(90 69 22.2583)" fill="#FF7D44"/>
<rect x="69" y="33.3872" width="2.22581" height="2.22581" transform="rotate(90 69 33.3872)" fill="#FF7D44"/>
<rect x="2.22559" y="11.1289" width="2.22581" height="2.22581" transform="rotate(90 2.22559 11.1289)" fill="#FF7D44"/>
<rect x="2.22559" width="2.22581" height="2.22581" transform="rotate(90 2.22559 0)" fill="#FF7D44"/>
<rect x="13.355" width="2.22581" height="2.22581" transform="rotate(90 13.355 0)" fill="#FF7D44"/>
<rect x="13.355" y="11.1289" width="2.22581" height="2.22581" transform="rotate(90 13.355 11.1289)" fill="#FF7D44"/>
<rect x="24.4839" y="11.1289" width="2.22581" height="2.22581" transform="rotate(90 24.4839 11.1289)" fill="#FF7D44"/>
<rect x="24.4839" width="2.22581" height="2.22581" transform="rotate(90 24.4839 0)" fill="#FF7D44"/>
<rect x="35.6128" width="2.22581" height="2.22581" transform="rotate(90 35.6128 0)" fill="#FF7D44"/>
<rect x="35.6128" y="11.1289" width="2.22581" height="2.22581" transform="rotate(90 35.6128 11.1289)" fill="#FF7D44"/>
<rect x="46.7417" y="11.1289" width="2.22581" height="2.22581" transform="rotate(90 46.7417 11.1289)" fill="#FF7D44"/>
<rect x="46.7417" width="2.22581" height="2.22581" transform="rotate(90 46.7417 0)" fill="#FF7D44"/>
<rect x="57.8711" width="2.22581" height="2.22581" transform="rotate(90 57.8711 0)" fill="#FF7D44"/>
<rect x="57.8711" y="11.1289" width="2.22581" height="2.22581" transform="rotate(90 57.8711 11.1289)" fill="#FF7D44"/>
<rect x="69" width="2.22581" height="2.22581" transform="rotate(90 69 0)" fill="#FF7D44"/>
<rect x="69" y="11.1289" width="2.22581" height="2.22581" transform="rotate(90 69 11.1289)" fill="#FF7D44"/>
</svg>
