<svg width="198" height="93" viewBox="0 0 198 93" fill="none" xmlns="http://www.w3.org/2000/svg">
<rect x="195" y="90" width="3" height="3" fill="#FF7D44"/>
<rect x="180" y="90" width="3" height="3" fill="#FF7D44"/>
<rect x="180" y="75" width="3" height="3" fill="#FF7D44"/>
<rect x="195" y="75" width="3" height="3" fill="#FF7D44"/>
<rect x="195" y="60" width="3" height="3" fill="#FF7D44"/>
<rect x="180" y="60" width="3" height="3" fill="#FF7D44"/>
<rect x="180" y="45" width="3" height="3" fill="#FF7D44"/>
<rect x="195" y="45" width="3" height="3" fill="#FF7D44"/>
<rect x="195" y="30" width="3" height="3" fill="#FF7D44"/>
<rect x="180" y="30" width="3" height="3" fill="#FF7D44"/>
<rect x="180" y="15" width="3" height="3" fill="#FF7D44"/>
<rect x="195" y="15" width="3" height="3" fill="#FF7D44"/>
<rect x="180" width="3" height="3" fill="#FF7D44"/>
<rect x="195" width="3" height="3" fill="#FF7D44"/>
<rect x="165" y="90" width="3" height="3" fill="#FF7D44"/>
<rect x="150" y="90" width="3" height="3" fill="#FF7D44"/>
<rect x="150" y="75" width="3" height="3" fill="#FF7D44"/>
<rect x="165" y="75" width="3" height="3" fill="#FF7D44"/>
<rect x="165" y="60" width="3" height="3" fill="#FF7D44"/>
<rect x="150" y="60" width="3" height="3" fill="#FF7D44"/>
<rect x="150" y="45" width="3" height="3" fill="#FF7D44"/>
<rect x="165" y="45" width="3" height="3" fill="#FF7D44"/>
<rect x="165" y="30" width="3" height="3" fill="#FF7D44"/>
<rect x="150" y="30" width="3" height="3" fill="#FF7D44"/>
<rect x="150" y="15" width="3" height="3" fill="#FF7D44"/>
<rect x="165" y="15" width="3" height="3" fill="#FF7D44"/>
<rect x="150" width="3" height="3" fill="#FF7D44"/>
<rect x="165" width="3" height="3" fill="#FF7D44"/>
<rect x="135" y="90" width="3" height="3" fill="#FF7D44"/>
<rect x="120" y="90" width="3" height="3" fill="#FF7D44"/>
<rect x="120" y="75" width="3" height="3" fill="#FF7D44"/>
<rect x="135" y="75" width="3" height="3" fill="#FF7D44"/>
<rect x="135" y="60" width="3" height="3" fill="#FF7D44"/>
<rect x="120" y="60" width="3" height="3" fill="#FF7D44"/>
<rect x="120" y="45" width="3" height="3" fill="#FF7D44"/>
<rect x="135" y="45" width="3" height="3" fill="#FF7D44"/>
<rect x="135" y="30" width="3" height="3" fill="#FF7D44"/>
<rect x="120" y="30" width="3" height="3" fill="#FF7D44"/>
<rect x="120" y="15" width="3" height="3" fill="#FF7D44"/>
<rect x="135" y="15" width="3" height="3" fill="#FF7D44"/>
<rect x="120" width="3" height="3" fill="#FF7D44"/>
<rect x="135" width="3" height="3" fill="#FF7D44"/>
<rect x="105" y="90" width="3" height="3" fill="#FF7D44"/>
<rect x="90" y="90" width="3" height="3" fill="#FF7D44"/>
<rect x="90" y="75" width="3" height="3" fill="#FF7D44"/>
<rect x="105" y="75" width="3" height="3" fill="#FF7D44"/>
<rect x="105" y="60" width="3" height="3" fill="#FF7D44"/>
<rect x="90" y="60" width="3" height="3" fill="#FF7D44"/>
<rect x="90" y="45" width="3" height="3" fill="#FF7D44"/>
<rect x="105" y="45" width="3" height="3" fill="#FF7D44"/>
<rect x="105" y="30" width="3" height="3" fill="#FF7D44"/>
<rect x="90" y="30" width="3" height="3" fill="#FF7D44"/>
<rect x="90" y="15" width="3" height="3" fill="#FF7D44"/>
<rect x="105" y="15" width="3" height="3" fill="#FF7D44"/>
<rect x="90" width="3" height="3" fill="#FF7D44"/>
<rect x="105" width="3" height="3" fill="#FF7D44"/>
<rect x="75" y="90" width="3" height="3" fill="#FF7D44"/>
<rect x="60" y="90" width="3" height="3" fill="#FF7D44"/>
<rect x="60" y="75" width="3" height="3" fill="#FF7D44"/>
<rect x="75" y="75" width="3" height="3" fill="#FF7D44"/>
<rect x="75" y="60" width="3" height="3" fill="#FF7D44"/>
<rect x="60" y="60" width="3" height="3" fill="#FF7D44"/>
<rect x="60" y="45" width="3" height="3" fill="#FF7D44"/>
<rect x="75" y="45" width="3" height="3" fill="#FF7D44"/>
<rect x="75" y="30" width="3" height="3" fill="#FF7D44"/>
<rect x="60" y="30" width="3" height="3" fill="#FF7D44"/>
<rect x="60" y="15" width="3" height="3" fill="#FF7D44"/>
<rect x="75" y="15" width="3" height="3" fill="#FF7D44"/>
<rect x="60" width="3" height="3" fill="#FF7D44"/>
<rect x="75" width="3" height="3" fill="#FF7D44"/>
<rect x="45" y="90" width="3" height="3" fill="#FF7D44"/>
<rect x="30" y="90" width="3" height="3" fill="#FF7D44"/>
<rect x="30" y="75" width="3" height="3" fill="#FF7D44"/>
<rect x="45" y="75" width="3" height="3" fill="#FF7D44"/>
<rect x="45" y="60" width="3" height="3" fill="#FF7D44"/>
<rect x="30" y="60" width="3" height="3" fill="#FF7D44"/>
<rect x="30" y="45" width="3" height="3" fill="#FF7D44"/>
<rect x="45" y="45" width="3" height="3" fill="#FF7D44"/>
<rect x="45" y="30" width="3" height="3" fill="#FF7D44"/>
<rect x="30" y="30" width="3" height="3" fill="#FF7D44"/>
<rect x="30" y="15" width="3" height="3" fill="#FF7D44"/>
<rect x="45" y="15" width="3" height="3" fill="#FF7D44"/>
<rect x="30" width="3" height="3" fill="#FF7D44"/>
<rect x="45" width="3" height="3" fill="#FF7D44"/>
<rect x="15" y="90" width="3" height="3" fill="#FF7D44"/>
<rect y="90" width="3" height="3" fill="#FF7D44"/>
<rect y="75" width="3" height="3" fill="#FF7D44"/>
<rect x="15" y="75" width="3" height="3" fill="#FF7D44"/>
<rect x="15" y="60" width="3" height="3" fill="#FF7D44"/>
<rect y="60" width="3" height="3" fill="#FF7D44"/>
<rect y="45" width="3" height="3" fill="#FF7D44"/>
<rect x="15" y="45" width="3" height="3" fill="#FF7D44"/>
<rect x="15" y="30" width="3" height="3" fill="#FF7D44"/>
<rect y="30" width="3" height="3" fill="#FF7D44"/>
<rect y="15" width="3" height="3" fill="#FF7D44"/>
<rect x="15" y="15" width="3" height="3" fill="#FF7D44"/>
<rect width="3" height="3" fill="#FF7D44"/>
<rect x="15" width="3" height="3" fill="#FF7D44"/>
</svg>
