<svg width="277" height="521" viewBox="0 0 277 521" fill="none" xmlns="http://www.w3.org/2000/svg">
<path d="M26.283 299.598L21.9021 306.9L67.1677 308.36H318.321L321.241 306.9L384.029 244.112L391.33 237.54L397.171 232.43L397.754 231.846L398.631 230.97L407.392 220.748H346.064H105.133L26.283 299.598Z" fill="#0A3E70"/>
<path d="M385.49 270.394L373.808 280.615L330.003 324.42L328.543 358.005L327.083 360.925C300.215 387.793 273.348 414.514 246.334 441.236C232.608 454.815 218.882 468.541 205.011 482.12C193.475 493.51 176.537 505.484 169.236 520.086H286.051L290.432 517.165C311.167 503.293 328.689 478.47 346.504 461.094C376.584 431.452 408.561 402.979 436.451 371.146V257.251V223.667H432.07L385.49 270.394Z" fill="#0A3E70"/>
<path d="M223.409 439.777L232.169 429.555H211.726H186.904H87.6106L80.3103 438.317L68.628 448.537L37.9641 479.201L2.91936 514.246L0 520.087H140.178L207.347 452.918L223.409 439.777Z" fill="#0A3E70"/>
<path d="M46.726 255.793L67.169 235.35L84.6914 219.288L99.2931 206.146L100.753 174.022L102.214 172.562C157.993 116.782 213.041 60.2739 268.676 4.63967V0.258799C231.732 0.258799 194.644 -0.909689 157.701 1.71909L154.781 3.17938C146.604 7.26725 138.572 19.5333 132.147 25.8128C119.444 38.3706 106.74 51.0737 94.1821 63.7781C65.2704 92.6898 36.9423 122.478 7.30042 150.66V260.174V293.758H8.76071L46.726 255.793Z" fill="#0A3E70"/>
<path d="M436.595 1.72009L391.33 0.259766H299.338C285.467 7.70656 271.01 29.7551 259.767 40.9992C242.1 58.8134 223.701 76.1892 207.347 95.1719H248.231H344.604C375.268 64.508 405.932 33.8442 436.595 3.18038L435.573 2.88857L436.595 1.72009Z" fill="#0A3E70"/>
</svg>
