<svg width="200" height="200" viewBox="0 0 200 200" fill="none" xmlns="http://www.w3.org/2000/svg">
<path d="M91.5219 3.68897C96.4935 -0.233433 103.507 -0.233433 108.478 3.68897C112.22 6.6411 117.228 7.43429 121.699 5.7829C127.639 3.58876 134.309 5.75592 137.825 11.0226C140.471 14.9865 144.989 17.2885 149.751 17.0995C156.079 16.8484 161.753 20.9705 163.469 27.066C164.761 31.6537 168.346 35.239 172.934 36.5309C179.029 38.2474 183.152 43.9211 182.901 50.2487C182.712 55.011 185.013 59.5288 188.977 62.1751C194.244 65.6913 196.411 72.3611 194.217 78.3014C192.566 82.7722 193.359 87.7802 196.311 91.5219C200.233 96.4935 200.233 103.507 196.311 108.478C193.359 112.22 192.566 117.228 194.217 121.699C196.411 127.639 194.244 134.309 188.977 137.825C185.013 140.471 182.712 144.989 182.901 149.751C183.152 156.079 179.029 161.753 172.934 163.469C168.346 164.761 164.761 168.346 163.469 172.934C161.753 179.029 156.079 183.152 149.751 182.901C144.989 182.712 140.471 185.013 137.825 188.977C134.309 194.244 127.639 196.411 121.699 194.217C117.228 192.566 112.22 193.359 108.478 196.311C103.507 200.233 96.4935 200.233 91.5219 196.311C87.7802 193.359 82.7722 192.566 78.3014 194.217C72.3611 196.411 65.6913 194.244 62.1751 188.977C59.5288 185.013 55.011 182.712 50.2487 182.901C43.9211 183.152 38.2474 179.029 36.5309 172.934C35.239 168.346 31.6537 164.761 27.066 163.469C20.9705 161.753 16.8484 156.079 17.0995 149.751C17.2885 144.989 14.9865 140.471 11.0226 137.825C5.75592 134.309 3.58876 127.639 5.7829 121.699C7.43429 117.228 6.6411 112.22 3.68897 108.478C-0.233433 103.507 -0.233433 96.4935 3.68897 91.5219C6.6411 87.7802 7.43429 82.7722 5.7829 78.3014C3.58876 72.3611 5.75592 65.6913 11.0226 62.1751C14.9865 59.5288 17.2885 55.011 17.0995 50.2487C16.8484 43.9211 20.9705 38.2474 27.066 36.5309C31.6537 35.239 35.239 31.6537 36.5309 27.066C38.2474 20.9705 43.9211 16.8484 50.2487 17.0995C55.011 17.2885 59.5288 14.9865 62.1751 11.0226C65.6913 5.75592 72.3611 3.58876 78.3014 5.7829C82.7722 7.43429 87.7802 6.6411 91.5219 3.68897Z" fill="#003566"/>
</svg>
