<svg width="587" height="309" viewBox="0 0 587 309" fill="none" xmlns="http://www.w3.org/2000/svg">
<path d="M248.47 29.6185L240.242 24.6816L238.596 75.6915L238.596 358.716L240.241 362.008L310.997 432.763L318.403 440.99L324.161 447.573L324.82 448.23L325.806 449.218L337.326 459.091L337.326 389.98L337.326 118.475L248.47 29.6185Z" fill="white" fill-opacity="0.71"/>
<path d="M281.379 434.409L269.861 421.245L220.497 371.881L182.65 370.235L179.359 368.59C149.082 338.312 118.97 308.036 88.8574 277.594C73.5543 262.125 58.0874 246.659 42.7843 231.027C29.9496 218.027 16.4559 198.94 0.00112915 190.712L0.0011234 322.351L3.29232 327.288C18.9243 350.654 46.8983 370.4 66.4792 390.475C99.8827 424.373 131.969 460.408 167.841 491.837L296.19 491.837L334.036 491.837L334.036 486.9L281.379 434.409Z" fill="white" fill-opacity="0.71"/>
<path d="M90.5018 251.76L102.021 261.632L102.021 238.595L102.021 210.622L102.021 98.7286L92.1474 90.5018L80.6295 77.337L46.0744 42.7818L6.58243 3.28983L7.62939e-06 -4.45948e-06L7.24459e-07 157.967L75.6927 233.659L90.5018 251.76Z" fill="white" fill-opacity="0.71"/>
<path d="M297.834 52.6554L320.871 75.6926L338.971 95.4386L353.781 111.893L389.981 113.539L391.627 115.185C454.485 178.043 518.164 240.076 580.859 302.771L585.796 302.771C585.796 261.139 587.112 219.344 584.15 177.714L582.504 174.423C577.898 165.208 564.075 156.157 556.999 148.917C542.847 134.602 528.532 120.285 514.215 106.134C481.635 73.553 448.066 41.63 416.308 8.22656L292.897 8.22655L255.051 8.22655L255.051 9.87215L297.834 52.6554Z" fill="white" fill-opacity="0.71"/>
<path d="M584.149 492L585.794 440.99L585.794 337.325C577.402 321.693 552.556 305.402 539.885 292.732C519.81 272.822 500.229 252.088 478.838 233.659L478.838 279.732L478.838 388.334C513.393 422.89 547.948 457.445 582.503 492L582.832 490.848L584.149 492Z" fill="white" fill-opacity="0.71"/>
</svg>
