<svg width="54" height="54" viewBox="0 0 54 54" fill="none" xmlns="http://www.w3.org/2000/svg">
<path d="M52.3125 19.4062H43.875H37.125H28.6875C28.1812 19.4062 27.8438 19.7437 27.8438 20.25V25.9031L25.7344 25.3969L23.4562 23.1187C25.9875 20.7563 26.1562 15.7781 26.1562 14.3438C29.2781 14.3438 31.4719 13.5 32.3156 11.9812C32.6531 11.3062 32.9063 10.2094 31.9781 8.775C31.05 7.425 29.8687 6.75 28.2656 6.75C28.1812 6.75 25.2281 6.75 25.2281 6.75C24.975 5.23125 23.9625 2.025 19.9969 1.09687C19.1531 0.928125 17.9719 0.84375 17.7188 0.84375C8.94375 0.84375 7.59375 5.0625 7.59375 7.59375V11.8125C7.59375 12.4031 7.84687 13.0781 8.35312 13.5844C7.93125 14.0906 7.59375 14.9344 7.59375 16.0312C7.59375 18.1406 9.02812 19.0688 10.2937 19.3219C10.7156 20.5875 11.3063 21.5156 11.8969 22.275L8.775 25.3969C8.1 26.1562 8.94375 26.9156 8.94375 26.9156L5.31563 30.5438C4.97813 30.9656 1.6875 34.3406 1.6875 37.125C1.6875 37.2938 1.6875 37.3781 1.77187 37.4625L5.99062 45.9C6.075 46.1531 6.32812 46.2375 6.49687 46.3219C6.58125 46.3219 7.34062 46.575 8.4375 46.575C8.4375 46.6594 8.35312 51.3844 8.35312 51.3844C8.35312 51.8906 8.69062 52.2281 9.19687 52.2281C9.70312 52.2281 10.0406 51.8906 10.0406 51.3844V49.0219C11.3062 50.5406 13.3313 52.2281 15.9469 52.2281C18.5625 52.2281 23.3719 50.5406 27.5906 49.0219C28.35 48.7687 29.025 48.5156 29.7 48.2625C29.8688 48.1781 30.0375 48.1781 30.2906 48.0938V51.4688C30.2906 51.975 30.6281 52.3125 31.1344 52.3125C31.6406 52.3125 31.9781 51.975 31.9781 51.4688V47.6719C33.4969 47.3344 34.9313 47.1656 36.1969 47.25H42.1031C43.5375 47.25 45.4781 46.7437 46.0687 45.225C46.2375 44.8031 46.3219 44.3812 46.3219 43.875H52.2281C52.7344 43.875 53.0719 43.5375 53.0719 43.0312V20.25C53.1562 19.7437 52.8187 19.4062 52.3125 19.4062ZM43.0312 21.0938V25.65L40.8375 24.5531C40.7531 24.4688 40.6688 24.4688 40.5 24.4688C40.3312 24.4688 40.2469 24.4688 40.1625 24.5531L37.9688 25.65V21.0938H43.0312ZM18.3937 25.7344C18.3094 25.5656 17.8875 25.3125 17.8875 25.3125C18.9 25.3125 19.7437 25.1437 20.5875 24.8906L20.25 25.9031L19.4062 28.0969C19.4062 28.0969 18.4781 25.7344 18.3937 25.7344ZM22.5281 24.5531L24.3 26.325L23.4562 27.9281L22.0219 25.9875L22.5281 24.5531ZM24.0469 8.4375C23.2875 9.02812 22.6125 9.7875 22.1063 10.4625C20.6719 12.5719 19.4062 12.6562 19.4062 12.6562H14.9344C15.2719 12.3188 15.6094 11.8969 15.8625 11.475C16.875 9.95625 18.7313 8.4375 20.25 8.4375H24.0469ZM30.5438 9.7875C30.9656 10.3781 31.05 10.8844 30.7969 11.2219C30.4594 11.8969 29.025 12.6562 26.1562 12.6562H26.0719C25.9031 11.1375 25.65 10.0406 25.4813 9.45C26.4094 8.85938 27.3375 8.4375 28.2656 8.4375C29.1938 8.4375 29.9531 8.85938 30.5438 9.7875ZM9.28125 7.59375C9.28125 4.55625 11.7281 3.29063 14.5125 2.78437C13.0781 4.30312 12.6562 6.24375 12.6562 7.59375C12.6562 8.1 12.9937 8.4375 13.5 8.4375C13.9219 8.4375 14.3438 8.1 14.3438 7.59375C14.3438 7.0875 14.5125 3.0375 18.6469 2.61562C22.275 2.95312 23.2875 5.48438 23.5406 6.75H20.25C17.9719 6.75 15.6938 8.60625 14.5125 10.4625C13.0781 12.5719 11.8125 12.6562 11.8125 12.6562H10.125C9.45 12.6562 9.28125 12.2344 9.28125 11.8125V7.59375ZM10.9688 17.7188C10.7156 17.7188 9.28125 17.6344 9.28125 16.0312C9.28125 14.5125 9.95625 14.3438 10.125 14.3438H19.4062C19.6594 14.3438 21.6 14.2594 23.4562 11.475C23.625 11.2219 23.7938 10.9688 24.0469 10.7156C24.2156 11.475 24.4688 12.7406 24.4688 14.4281C24.4688 14.5125 24.8062 19.1531 22.3594 21.8531C21.2625 23.0344 19.6594 23.625 17.7188 23.625C17.6344 23.625 13.2469 23.5406 11.8125 18.3094C11.6438 17.9719 11.3062 17.7188 10.9688 17.7188ZM12.7406 23.8781L16.4531 26.325L14.175 29.1937L10.4625 26.1562L12.7406 23.8781ZM3.375 36.9562C3.54375 35.1844 5.65312 32.6531 6.49687 31.8094L10.2094 28.0969L13.7531 31.05C13.9219 31.2188 14.0906 31.2188 14.2594 31.2188H14.3438C14.5969 31.2188 14.7656 31.05 14.9344 30.8812L17.3813 27.7594L18.5625 30.6281C18.7313 30.9656 18.9844 31.1344 19.3219 31.1344C19.6594 31.1344 19.9969 30.9656 20.0812 30.6281L21.1781 27.8438L22.7812 30.0375C22.95 30.2906 23.2031 30.375 23.5406 30.375C23.7937 30.375 24.0469 30.2062 24.2156 29.9531L25.5656 27.1688L27.675 27.675V41.0906C26.4094 41.5125 24.8906 42.0188 23.2875 42.525C22.0219 42.9469 20.7563 43.3688 19.575 43.7906C18.1406 44.2969 16.4531 43.7062 15.6938 42.3563L12.4031 36.7031C12.15 36.2812 11.6438 36.1969 11.2219 36.45C10.8 36.7031 10.7156 37.2094 10.9688 37.6312L13.3313 41.5125C11.9812 45.4781 8.35313 45.1406 7.25625 44.8875L3.375 36.9562ZM44.55 44.55C44.2969 45.225 43.1156 45.5625 42.1875 45.5625H36.3656C33.5812 45.3937 30.7125 46.2375 29.2781 46.7438C28.6031 46.9969 27.8438 47.25 27.1688 47.5031C23.2031 48.8531 18.3937 50.625 16.0312 50.625C13.0781 50.625 10.9688 47.5875 10.2937 46.4906C11.7281 46.1531 13.3313 45.3938 14.5125 43.3688C15.4406 44.8031 17.0438 45.6469 18.7313 45.6469C19.2375 45.6469 19.7437 45.5625 20.25 45.3937C21.3469 45.0562 22.6125 44.6344 23.9625 44.1281C27.675 42.8625 32.2312 41.3438 33.4125 41.3438H39.3187C39.5719 41.3438 40.0781 41.5125 40.1625 42.1875H37.9688C37.4625 42.1875 37.125 42.525 37.125 43.0312C37.125 43.5375 37.4625 43.875 37.9688 43.875C37.9688 43.875 44.3812 43.9594 44.7188 43.9594C44.7188 44.1281 44.6344 44.3812 44.55 44.55ZM51.4688 42.1875H41.85C41.7656 40.3312 40.3312 39.6562 39.3187 39.6562H33.4125C32.6531 39.6562 31.3875 39.9938 29.5312 40.5V21.0938H36.2812V27C36.2812 27.2531 36.45 27.5906 36.7031 27.7594C36.9562 27.9281 37.2938 27.9281 37.5469 27.7594L40.5844 26.2406L43.6219 27.7594C43.6219 27.8438 43.7062 27.8438 43.875 27.8438C44.0438 27.8438 44.2125 27.8438 44.2969 27.7594C44.55 27.5906 44.7188 27.3375 44.7188 27V21.0938H51.4688V42.1875Z" fill="white"/>
<path d="M36.2812 36.2812H32.9062C32.4 36.2812 32.0625 36.6187 32.0625 37.125C32.0625 37.6313 32.4 37.9688 32.9062 37.9688H36.2812C36.7875 37.9688 37.125 37.6313 37.125 37.125C37.125 36.6187 36.7875 36.2812 36.2812 36.2812Z" fill="white"/>
<path d="M32.9062 35.4375H34.5938C35.1 35.4375 35.4375 35.1 35.4375 34.5938C35.4375 34.0875 35.1 33.75 34.5938 33.75H32.9062C32.4 33.75 32.0625 34.0875 32.0625 34.5938C32.0625 35.1 32.4 35.4375 32.9062 35.4375Z" fill="white"/>
</svg>
